<svg xmlns="http://www.w3.org/2000/svg" width="192" height="192" fill="#000" viewBox="0 0 192 192">
  <path fill-rule="evenodd" d="M96 8C47.3989 8 8 47.3989 8 96c0 48.601 39.3989 88 88 88 2.2091 0 4 1.791 4 4s-1.7909 4-4 4c-53.0193 0-96-42.981-96-96C0 42.9807 42.9807 0 96 0c53.019 0 96 42.9807 96 96v21.5c0 17.949-14.551 32.5-32.5 32.5-17.25 0-31.361-13.439-32.434-30.418C119.942 128.951 108.678 135 96 135c-21.5391 0-39-17.461-39-39 0-21.5391 17.4609-39 39-39 21.539 0 39 17.4609 39 39v21.5c0 13.531 10.969 24.5 24.5 24.5s24.5-10.969 24.5-24.5V96c0-48.6011-39.399-88-88-88zm31 88c0-17.1208-13.879-31-31-31-17.1208 0-31 13.8792-31 31 0 17.121 13.8792 31 31 31 17.121 0 31-13.879 31-31z"/>
</svg>