<svg xmlns="http://www.w3.org/2000/svg" width="192" height="192" fill="#000" viewBox="0 0 192 192">
  <path fill-rule="evenodd" d="M74 8c-8.2843 0-15 6.7157-15 15s6.7157 15 15 15 15-6.7157 15-15S82.2843 8 74 8zM51 23C51 10.2975 61.2975 0 74 0s23 10.2975 23 23-10.2975 23-23 23-23-10.2975-23-23zm21.3814 37c-7.6538 0-12.9973 7.5825-10.4231 14.7904L68.8189 94H92.324l-9.5195-26.6547C81.2313 62.9404 77.0588 60 72.3814 60zM61.2479 96.5869l-6.8235-19.1058C49.9894 65.0632 59.1954 52 72.3814 52c8.0583 0 15.2467 5.0658 17.957 12.6546L100.819 94H137c2.209 0 4 1.7909 4 4 0 2.209-1.791 4-4 4h-33.157C117.187 110.754 126 125.848 126 143c0 27.062-21.938 49-49 49s-49-21.938-49-49c0-21.551 13.9134-39.853 33.2479-46.4131zM77 102c22.6437 0 41 18.356 41 41s-18.3563 41-41 41-41-18.356-41-41 18.3563-41 41-41zm58.589 21.257c2.067-.779 4.374.265 5.154 2.332l23 61c.779 2.067-.265 4.374-2.332 5.154-2.067.779-4.374-.265-5.154-2.332l-23-61c-.779-2.067.265-4.374 2.332-5.154z"/>
</svg>