<svg xmlns="http://www.w3.org/2000/svg" width="192" height="192" fill="#000" viewBox="0 0 192 192">
  <path fill-rule="evenodd" d="M70.2517 8.00797c1.6656.10502 3.091 1.23316 3.5758 2.83013L121.372 167.455l29.876-80.8416C151.828 85.0429 153.326 84 155 84h33c2.209 0 4 1.7909 4 4 0 2.2092-1.791 4-4 4h-30.214l-33.034 89.387c-.596 1.611-2.153 2.662-3.871 2.611-1.717-.051-3.21-1.192-3.709-2.836L69.2811 23.4021 39.6513 89.6335C39.0072 91.0732 37.5772 92 36 92H4c-2.20914 0-4-1.7908-4-4 0-2.2091 1.79086-4 4-4h29.4074l32.9413-73.6334c.6816-1.52347 2.2374-2.46365 3.903-2.35863z"/>
</svg>