<svg xmlns="http://www.w3.org/2000/svg" width="192" height="192" fill="#000" viewBox="0 0 192 192">
  <path fill-rule="evenodd" d="M76 37c0-2.2091 1.7909-4 4-4h32c2.209 0 4 1.7909 4 4 0 2.2091-1.791 4-4 4h-6.403l3.909 28.0158C127.095 74.411 140.198 90.0625 141.829 109H188c2.209 0 4 1.791 4 4s-1.791 4-4 4h-12.996c.642 1.539.996 3.228.996 5 0 7.18-5.82 13-13 13s-13-5.82-13-13c0-1.772.354-3.461.996-5h-9.168c-2.027 23.532-21.771 42-45.828 42-24.0574 0-43.8015-18.468-45.8285-42h-9.1678c.6418 1.539.9963 3.228.9963 5 0 7.18-5.8203 13-13 13s-13-5.82-13-13c0-1.772.3545-3.461.9963-5H4c-2.20914 0-4-1.791-4-4s1.79086-4 4-4h46.1715c1.6309-18.9375 14.7339-34.589 32.3224-39.9842L86.4031 41H80c-2.2091 0-4-1.7909-4-4zm18.4806 4l-3.6683 26.2896C92.5161 67.0982 94.2472 67 96 67c1.7528 0 3.4839.0982 5.188.2896L97.5194 41h-3.0388zM29 117c-2.7614 0-5 2.239-5 5s2.2386 5 5 5 5-2.239 5-5-2.2386-5-5-5zm134 0c-2.761 0-5 2.239-5 5s2.239 5 5 5 5-2.239 5-5-2.239-5-5-5zM96 75c-3.094 0-6.0964.3689-8.9679 1.0634C70.3713 80.0927 58 95.1065 58 113c0 20.987 17.0132 38 38 38 20.987 0 38-17.013 38-38 0-17.8935-12.371-32.9073-29.032-36.9366C102.096 75.3689 99.094 75 96 75zm-20.6195 34H116.62c-1.868-9.6849-10.39-17-20.62-17-10.2302 0-18.7518 7.3151-20.6195 17zM67 113c0-16.0163 12.9837-29 29-29 16.016 0 29 12.9837 29 29 0 2.209-1.791 4-4 4H71c-2.2091 0-4-1.791-4-4z"/>
</svg>