<svg xmlns="http://www.w3.org/2000/svg" width="192" height="192" fill="#000" viewBox="0 0 192 192">
  <path fill-rule="evenodd" d="M11.6638 11.7031c15.5582-15.60414 40.7879-15.60414 56.3461 0l3.8161 3.8274C79.4816 13.2339 87.5967 12 96 12c8.403 0 16.518 1.2339 24.174 3.5305l3.816-3.8274c15.558-15.60414 40.788-15.60414 56.346 0 15.552 15.5977 15.552 40.8816 0 56.4792l-3.813 3.8242C178.785 79.6091 180 87.6627 180 96c0 27.256-12.981 51.48-33.098 66.826l12.614 23.267c1.053 1.943.333 4.37-1.609 5.423-1.943 1.053-4.37.333-5.423-1.609l-12.205-22.511C127.423 175.386 112.25 180 96 180c-16.2504 0-31.423-4.614-44.2789-12.605l-12.2047 22.511c-1.0529 1.943-3.4808 2.663-5.4229 1.61-1.9421-1.052-2.6629-3.48-1.6099-5.422l12.6146-23.268C24.9812 147.48 12 123.256 12 96c0-8.3373 1.2146-16.3909 3.4766-23.9935l-3.8128-3.8242c-15.55172-15.5976-15.55172-40.8815 0-56.4792zm11.8305 61.4491c.3669-.5737.5728-1.2205.6179-1.8765 7.6603-22.2775 25.3843-39.8741 47.7424-47.3599.0844-.0251.1683-.0529.2512-.0837C79.6195 21.3458 87.6526 20 96 20c8.347 0 16.381 1.3458 23.894 3.8321.083.0308.167.0586.251.0837 22.358 7.4858 40.083 25.0824 47.743 47.3599.045.6559.251 1.3028.618 1.8765C170.776 80.3636 172 88.0388 172 96c0 41.974-34.026 76-76 76-41.9736 0-76-34.026-76-76 0-7.9612 1.2241-15.6364 3.4943-22.8478zm150.0547-9.4926l1.122-1.1258c12.439-12.4754 12.439-32.7068 0-45.1822-12.432-12.46881-32.584-12.46881-45.016 0l-1.161 1.1643c20.313 8.5285 36.565 24.8111 45.055 45.1437zM63.5055 18.516c-20.3121 8.5284-36.5648 24.811-45.0541 45.1436l-1.1224-1.1258c-12.43865-12.4754-12.43865-32.7068 0-45.1822 12.4321-12.46881 32.5836-12.46881 45.0157 0l1.1608 1.1644zM96 41.5c2.2091 0 4 1.7909 4 4v48.698l24.65 21.806c1.655 1.464 1.81 3.992.346 5.646-1.464 1.655-3.992 1.81-5.646.346l-26.0003-23C92.4914 98.2367 92 97.1459 92 96V45.5c0-2.2091 1.7909-4 4-4z"/>
</svg>