<svg xmlns="http://www.w3.org/2000/svg" width="192" height="192" fill="#000" viewBox="0 0 192 192">
  <path fill-rule="evenodd" d="M92 16.8688C92 7.51448 99.6493 0 109 0c9.351 0 17 7.51448 17 16.8688 0 2.209-1.791 3.9998-4 3.9998s-4-1.7908-4-3.9998c0-4.8604-3.991-8.86917-9-8.86917s-9 4.00877-9 8.86917v13.2287c33.855 1.6773 62 24.4977 62 53.9547v97.5828c0 9.849-12.469 14.136-18.509 6.334-1.079-1.394-3.041-1.728-4.519-.773l-3.401 2.196c-5.218 3.37-11.924 3.37-17.142 0l-1.509-.975c-3.3-2.131-7.54-2.131-10.84 0l-.32.207c-5.9418 3.838-13.5782 3.838-19.52 0l-.3203-.207c-3.2998-2.131-7.5395-2.131-10.8392 0l-1.5096.975c-5.2178 3.37-11.924 3.37-17.1418 0l-3.4012-2.196c-1.4777-.955-3.4396-.621-4.5188.773C42.4691 195.771 30 191.484 30 181.635V84.0522c0-29.457 28.1449-52.2774 62-53.9547V16.8688zm4 21.1294c-32.8744 0-58 21.376-58 46.054v97.5828c0 2.243 2.824 3.193 4.1831 1.438 3.6206-4.677 10.2159-5.807 15.1852-2.597l3.4013 2.196c2.5757 1.664 5.885 1.664 8.4608 0l1.5096-.975c5.9418-3.837 13.5782-3.837 19.52 0l.3203.207c3.2998 2.131 7.5395 2.132 10.8397 0l.32-.207c5.942-3.837 13.578-3.837 19.52 0l1.51.975c2.575 1.664 5.885 1.664 8.46 0l3.402-2.196c4.969-3.21 11.564-2.08 15.185 2.597 1.359 1.755 4.183.805 4.183-1.438V84.0522c0-24.678-25.126-46.054-58-46.054zm0 27.9987c-16.5685 0-30 13.4309-30 29.9987 0 16.5674 13.4315 29.9984 30 29.9984 16.569 0 30-13.431 30-29.9984 0-16.5678-13.431-29.9987-30-29.9987zM58 95.9956c0-20.9859 17.0132-37.9983 38-37.9983 20.987 0 38 17.0124 38 37.9983 0 20.9854-17.013 37.9984-38 37.9984-20.9868 0-38-17.013-38-37.9984zm38-4.9998c-2.7614 0-5 2.2385-5 4.9998 0 2.7613 2.2386 4.9994 5 4.9994s5-2.2381 5-4.9994c0-2.7613-2.2386-4.9998-5-4.9998zm-13 4.9998c0-7.1794 5.8203-12.9994 13-12.9994 7.18 0 13 5.82 13 12.9994 0 7.1794-5.82 12.9994-13 12.9994-7.1797 0-13-5.82-13-12.9994z"/>
</svg>