<svg xmlns="http://www.w3.org/2000/svg" width="192" height="192" fill="#000" viewBox="0 0 192 192">
  <path fill-rule="evenodd" d="M96 0c2.2092 0 4 1.79086 4 4v8h64c5.523 0 10 4.4771 10 10v60c0 5.5229-4.477 10-10 10h-64v8h74c5.523 0 10 4.477 10 10v60c0 5.523-4.477 10-10 10h-74v8c0 2.209-1.7908 4-4 4-2.2091 0-4-1.791-4-4v-8H18c-5.5228 0-10-4.477-10-10l.00001-60c0-5.523 4.47719-10 9.99999-10h74v-8H28c-5.5228 0-10-4.4772-10-10V22c0-5.5229 4.4772-10 10-10h64V4c0-2.20914 1.7909-4 4-4zM28 20c-1.1046 0-2 .8954-2 2v60c0 1.1046.8954 2 2 2h136c1.105 0 2-.8954 2-2V22c0-1.1046-.895-2-2-2H28zm-10 88c-1.1046 0-2 .895-2 2v60c0 1.105.8954 2 2 2h156c1.105 0 2-.895 2-2v-60c0-1.105-.895-2-2-2H18z"/>
</svg>