<svg xmlns="http://www.w3.org/2000/svg" width="192" height="192" fill="#000" viewBox="0 0 192 192">
  <path fill-rule="evenodd" d="M20 10c0-1.10457.8954-2 2-2h60c1.1046 0 2 .89543 2 2v156c0 1.105-.8954 2-2 2H22c-1.1046 0-2-.895-2-2V10zM22 5.5e-7C16.4772 2.5e-7 12 4.47715 12 10v156c0 5.523 4.4771 10 10 10h60c5.5229 0 10-4.477 10-10V10C92 4.47715 87.5229.00000414 82 .00000384L22 5.4e-7zM-1.5e-7 188C-2.3e-7 190.209 1.79086 192 4 192h184c2.209 0 4-1.791 4-4s-1.791-4-4-4H4C1.79086 184-7e-8 185.791-1.5e-7 188zM108 10c0-1.10457.895-2 2-2h60c1.105 0 2 .89543 2 2v156c0 1.105-.895 2-2 2h-60c-1.105 0-2-.895-2-2V10zM110 5.5e-7C104.477 2.5e-7 100 4.47715 100 10v156c0 5.523 4.477 10 10 10h60c5.523 0 10-4.477 10-10V10c0-5.52285-4.477-9.99999586-10-9.99999616L110 5.4e-7z"/>
</svg>