<svg xmlns="http://www.w3.org/2000/svg" width="192" height="192" fill="#000" viewBox="0 0 192 192">
  <path fill-rule="evenodd" d="M100 18c0-5.5228 4.477-10 10-10h60c5.523 0 10 4.4772 10 10v74h8c2.209 0 4 1.7908 4 4 0 2.2091-1.791 4-4 4h-8v74c0 5.523-4.477 10-10 10h-60c-5.523 0-10-4.477-10-10v-74h-8v64c0 5.523-4.4772 10-10 10H22c-5.5229 0-10-4.477-10-10v-64H4c-2.20914 0-4-1.7909-4-4 0-2.2091 1.79086-4 4-4h8V28c0-5.5228 4.4772-10 10-10h60c5.5229 0 10 4.4772 10 10v64h8V18zm8 156c0 1.105.895 2 2 2h60c1.105 0 2-.895 2-2V18c0-1.1046-.895-2-2-2h-60c-1.105 0-2 .8954-2 2v156zM84 28c0-1.1046-.8954-2-2-2H22c-1.1046 0-2 .8954-2 2v136c0 1.105.8954 2 2 2h60c1.1046 0 2-.895 2-2V28z"/>
</svg>