<svg xmlns="http://www.w3.org/2000/svg" width="192" height="192" fill="#000" viewBox="0 0 192 192">
  <path fill-rule="evenodd" d="M188 0c2.209 0 4 1.79086 4 4v184c0 2.209-1.791 4-4 4s-4-1.791-4-4V4c0-2.20914 1.791-4 4-4zM.00000596 22C.00000644 16.4771 4.47716 12 10 12h156c5.523 0 10 4.4772 10 10v60c0 5.5229-4.477 10-10 10H10C4.47715 92-4.8e-7 87.5228 0 82l.00000596-60zM10 20c-1.10456 0-1.99999.8954-1.99999 2L8 82c0 1.1046.89543 2 2 2h156c1.105 0 2-.8954 2-2V22c0-1.1046-.895-2-2-2H10zM.00000596 110C.00000644 104.477 4.47715 100 10 100h156c5.523 0 10 4.477 10 10v60c0 5.523-4.477 10-10 10H10C4.47715 180-4.8e-7 175.523 0 170l.00000596-60zM10 108c-1.10456 0-1.99999.895-1.99999 2L8 170c0 1.105.89543 2 2 2h156c1.105 0 2-.895 2-2v-60c0-1.105-.895-2-2-2H10z"/>
</svg>