<svg xmlns="http://www.w3.org/2000/svg" width="192" height="192" fill="#000" viewBox="0 0 192 192">
  <path fill-rule="evenodd" d="M0 4c0-2.20914 1.79086-4 4-4l184 .00000358c2.209 0 4 1.79085642 4 3.99999642s-1.791 4-4 4H4C1.79086 8 0 6.20914 0 4zm12 22c0-5.5229 4.4772-10 10-10h60c5.5229 0 10 4.4771 10 10v156c0 5.523-4.4771 10-10 10H22c-5.5229 0-10-4.477-10-10V26zm10-2c-1.1046 0-2 .8954-2 2v156c0 1.105.8954 2 2 2h60c1.1046 0 2-.895 2-2V26c0-1.1046-.8954-2-2-2H22zm78 2c0-5.5229 4.477-10 10-10h60c5.523 0 10 4.4771 10 10v156c0 5.523-4.477 10-10 10h-60c-5.523 0-10-4.477-10-10V26zm10-2c-1.105 0-2 .8954-2 2v156c0 1.105.895 2 2 2h60c1.105 0 2-.895 2-2V26c0-1.1046-.895-2-2-2h-60z"/>
</svg>