<svg xmlns="http://www.w3.org/2000/svg" width="192" height="192" fill="#000" viewBox="0 0 192 192">
  <path fill-rule="evenodd" d="M4 0c2.20914 0 4 1.79086 4 4v184c0 2.209-1.79086 4-4 4s-3.99999666-1.791-3.99999666-4L0 4c0-2.20914 1.79086-4 4-4zm12 22c0-5.5229 4.4771-10 10-10h156c5.523 0 10 4.4772 10 10v60c0 5.5228-4.477 10-10 10H26c-5.5229 0-10-4.4772-10-10V22zm10-2c-1.1046 0-2 .8954-2 2v60c0 1.1046.8954 2 2 2h156c1.105 0 2-.8954 2-2V22c0-1.1046-.895-2-2-2H26zm-10 90c0-5.523 4.4771-10 10-10h156c5.523 0 10 4.477 10 10v60c0 5.523-4.477 10-10 10H26c-5.5229 0-10-4.477-10-10v-60zm10-2c-1.1046 0-2 .895-2 2v60c0 1.105.8954 2 2 2h156c1.105 0 2-.895 2-2v-60c0-1.105-.895-2-2-2H26z"/>
</svg>