<svg xmlns="http://www.w3.org/2000/svg" width="192" height="192" fill="#000" viewBox="0 0 192 192">
  <path fill-rule="evenodd" d="M95.5 8C88.0442 8 82 14.0442 82 21.5S88.0442 35 95.5 35c7.456 0 13.5-6.0442 13.5-13.5S102.956 8 95.5 8zM74 21.5C74 9.62588 83.6259 0 95.5 0 107.374 0 117 9.62588 117 21.5c0 10.3307-7.286 18.9597-17 21.0283V67h26c2.209 0 4 1.7909 4 4 0 2.2091-1.791 4-4 4h-26v108.889c36.027-2.001 64.888-30.862 66.889-66.889H150.5c-1.618 0-3.076-.975-3.696-2.469-.619-1.495-.276-3.215.868-4.359l20.5-20.5004c1.144-1.144 2.864-1.4862 4.359-.8671 1.494.6191 2.469 2.0776 2.469 3.6955V113c0 43.63-35.37 79-79 79-43.6305 0-79-35.37-79-79V92.5c0-1.6179.9746-3.0764 2.4693-3.6955s3.2151-.2769 4.3591.8671l20.5 20.5004c1.144 1.144 1.4862 2.864.8671 4.359C44.5764 116.025 43.1178 117 41.5 117H25.1108C27.1116 153.027 55.9726 181.888 92 183.889V75H66c-2.2091 0-4-1.7909-4-4 0-2.2091 1.7909-4 4-4h26V42.7165C81.7906 41.0451 74 32.1823 74 21.5zM25 109h6.8431L25 102.157V109zm142 0v-6.843L160.157 109H167z"/>
</svg>