<svg xmlns="http://www.w3.org/2000/svg" width="192" height="192" fill="#000" viewBox="0 0 192 192">
  <path fill-rule="evenodd" d="M73.0509 1.29766c1.4925-1.628749 4.0227-1.739216 5.6515-.24674C86.3522 8.06076 92.3405 16.9611 95.9931 27.0373c1.7594-4.1967 4.2969-8.4264 7.9569-12.087 10.242-10.24121 24.997-11.7544 31.446-11.93017 4.273-.11644 7.7 3.31084 7.584 7.58347-.176 6.4495-1.689 21.2049-11.93 31.4461-6.92 6.9197-15.873 9.825-22.793 11.0506-3.222.5708-6.093.7932-8.257.8674v5.7252C107.66 55.8656 116.368 54 125.5 54c14.533 0 27.991 4.7309 37.825 14.5299C173.179 78.3479 179 92.8579 179 111.651c0 18.693-5.748 38.503-15.089 53.728C154.664 180.451 141.23 192 125.5 192c-7.648 0-14.787-2.759-21.109-7.276-4.8487-3.464-11.9333-3.464-16.7819 0C81.2869 189.241 74.1483 192 66.5 192c-15.7304 0-29.1638-11.549-38.4112-26.621C18.7476 150.154 13 130.344 13 111.651c0-18.7931 5.8214-33.3031 15.6749-43.1211C38.5095 58.7309 51.9667 54 66.5 54c9.1323 0 17.8405 1.8656 25.5 5.6929V50c0-17.1769-7.2496-32.5563-18.7024-43.05087-1.6287-1.49248-1.7392-4.02273-.2467-5.65147zM100.039 45.9607c1.827-.0744 4.193-.272 6.823-.7378 6.109-1.0819 13.238-3.5372 18.531-8.83 7.673-7.6734 9.315-19.1396 9.568-25.3535-6.214.2531-17.68 1.8944-25.354 9.5678-5.293 5.2928-7.748 12.4218-8.83 18.5307-.466 2.6302-.663 4.9958-.738 6.8228zM34.3215 74.197C26.2596 82.2298 21 94.5453 21 111.651c0 17.205 5.3333 35.569 13.9076 49.545C43.5757 175.323 54.8923 184 66.5 184c5.6495 0 11.1964-2.026 16.4586-5.785 7.6305-5.452 18.4524-5.452 26.0824 0C114.304 181.974 119.85 184 125.5 184c11.608 0 22.924-8.677 31.592-22.804C165.667 147.22 171 128.856 171 111.651c0-17.1057-5.26-29.4212-13.322-37.454C149.598 66.1453 138.305 62 125.5 62c-10.359 0-19.727 2.7169-27.1892 7.9981-1.3847.98-3.2369.98-4.6216 0C86.2272 64.7169 76.8589 62 66.5 62c-12.8048 0-24.0976 4.1453-32.1785 12.197z"/>
</svg>