<svg xmlns="http://www.w3.org/2000/svg" width="192" height="192" fill="#000" viewBox="0 0 192 192">
  <path fill-rule="evenodd" d="M0 20c0-5.5228 4.47715-10 10-10h172c5.523 0 10 4.4772 10 10v22c0 5.5228-4.477 10-10 10h-6v120c0 5.523-4.477 10-10 10H26c-5.5228 0-10-4.477-10-10V52h-6C4.47715 52 0 47.5228 0 42V20zm182 24c1.105 0 2-.8954 2-2V20c0-1.1046-.895-2-2-2H10c-1.10457 0-2 .8954-2 2v22c0 1.1046.89543 2 2 2h172zm-60.306 8H70.3058C72.2298 64.4604 83.0009 74 96 74c12.999 0 23.77-9.5396 25.694-22zm-59.4612 0C64.2125 68.8927 78.5756 82 96 82c17.424 0 31.787-13.1073 33.767-30H168v120c0 1.105-.895 2-2 2H26c-1.1046 0-2-.895-2-2V52h38.2328zM107 131h53v35h-53v-35zm8 8v19h37v-19h-37z"/>
</svg>