<svg xmlns="http://www.w3.org/2000/svg" width="192" height="192" fill="#000" viewBox="0 0 192 192">
  <path d="M83.0858 49.2548l21.2132-21.2132c1.562-1.5621 1.562-4.0947 0-5.6568L83.0858 1.17157c-1.5621-1.562094-4.0947-1.562094-5.6568 0-1.5621 1.5621-1.5621 4.09476 0 5.65686L91.6034 21.0029c-30.1432.2677-55.8546 19.0572-66.324 45.5258-.8125 2.0543.1941 4.3784 2.2484 5.1909 2.0542.8126 4.3783-.1941 5.1908-2.2483 9.3519-23.6435 32.3747-40.3763 59.3079-40.4709L77.429 43.598c-1.5621 1.5621-1.5621 4.0947 0 5.6568s4.0947 1.5621 5.6568 0zM108.914 142.745l-21.2127 21.213c-1.5621 1.562-1.5621 4.095 0 5.657l21.2127 21.213c1.563 1.563 4.095 1.563 5.657 0 1.562-1.562 1.562-4.094 0-5.656l-14.174-14.175c30.143-.268 55.855-19.057 66.324-45.526.812-2.054-.194-4.378-2.248-5.191-2.055-.812-4.379.194-5.191 2.249-9.352 23.643-32.375 40.376-59.3082 40.471l14.5972-14.598c1.562-1.562 1.562-4.095 0-5.657-1.562-1.562-4.094-1.562-5.657 0zM49.2548 108.915L28.0416 87.7018c-1.5621-1.5621-4.0947-1.5621-5.6568 0L1.17157 108.915c-1.562094 1.562-1.562094 4.095 0 5.657 1.5621 1.562 4.09476 1.562 5.65686 0l14.17447-14.175c.2684 30.143 19.0577 55.853 45.5258 66.323 2.0543.812 4.3784-.194 5.1909-2.249.8126-2.054-.1941-4.378-2.2483-5.191-23.643-9.351-40.3755-32.373-40.4709-59.3057L43.598 114.572c1.5621 1.562 4.0947 1.562 5.6568 0s1.5621-4.095 0-5.657zM142.745 83.085l21.214 21.213c1.562 1.562 4.094 1.562 5.656 0l21.214-21.213c1.562-1.5621 1.562-4.0948 0-5.6569-1.563-1.5621-4.095-1.5621-5.657 0l-14.175 14.1745c-.268-30.1424-19.057-55.853-45.526-66.3222-2.054-.8126-4.378.194-5.19 2.2483-.813 2.0543.194 4.3783 2.248 5.1909 23.643 9.3517 40.375 32.3736 40.471 59.3061l-14.598-14.5976c-1.562-1.5621-4.095-1.5621-5.657 0-1.562 1.5621-1.562 4.0948 0 5.6569z"/>
</svg>