<svg xmlns="http://www.w3.org/2000/svg" width="192" height="192" fill="#000" viewBox="0 0 192 192">
  <path fill-rule="evenodd" d="M0 47.9999c9e-7-1.0609.421429-2.0783 1.17158-2.8284L45.1716 1.17157c1.5621-1.562095 4.0947-1.562095 5.6568.00001 1.5621 1.56209 1.5621 4.09476 0 5.65685L13.6569 43.9999H152c2.209 0 4 1.7909 4 4 0 2.2092-1.791 4-4 4H13.6568l37.1716 37.1717c1.5621 1.5621 1.5621 4.0947 0 5.6568s-4.0947 1.5621-5.6568 0L1.17157 50.8283C.421425 50.0782-9e-7 49.0608 0 47.9999zM192 144c0 1.061-.421 2.078-1.172 2.828l-44 44c-1.562 1.562-4.094 1.562-5.656 0-1.563-1.562-1.563-4.094 0-5.656L178.343 148H40c-2.2091 0-4-1.791-4-4s1.7909-4 4-4h138.343l-37.171-37.172c-1.563-1.562-1.563-4.0944 0-5.6565 1.562-1.5621 4.094-1.5621 5.656 0l44 44.0005c.751.75 1.172 1.767 1.172 2.828z"/>
</svg>