<svg xmlns="http://www.w3.org/2000/svg" width="192" height="192" fill="#000" viewBox="0 0 192 192">
  <path d="M74 0C45.8335 0 23 22.8335 23 51v91c0 2.209 1.7909 4 4 4 2.2091 0 4-1.791 4-4V51C31 27.2518 50.2518 8 74 8s43 19.2518 43 43v127.343l-37.1715-37.171c-1.5621-1.563-4.0948-1.563-5.6569 0-1.5621 1.562-1.5621 4.094 0 5.656l44.0004 44c.051.052.105.103.159.151.708.635 1.643 1.021 2.669 1.021.08 0 .159-.002.238-.007 1.016-.06 1.93-.498 2.603-1.177l43.987-43.988c1.563-1.562 1.563-4.094 0-5.656-1.562-1.563-4.094-1.563-5.656 0L125 178.343V51c0-28.1665-22.833-51-51-51z"/>
</svg>