<svg xmlns="http://www.w3.org/2000/svg" width="192" height="192" fill="#000" viewBox="0 0 192 192">
  <path d="M192 74c0-28.1665-22.833-51-51-51H50c-2.2091 0-4 1.7909-4 4 0 2.2091 1.7909 4 4 4h91c23.748 0 43 19.2518 43 43 0 23.7483-19.252 43-43 43H13.6568l37.1716-37.1715c1.5621-1.5621 1.5621-4.0948 0-5.6569-1.562-1.5621-4.0947-1.5621-5.6568 0L1.17159 118.172c-.0472.047-.0931.095-.13767.144C.391383 119.026 5e-8 119.967 0 121c-5e-8 1.112.453482 2.117 1.18555 2.842l43.98605 43.986c1.5621 1.563 4.0947 1.563 5.6568 0 1.5621-1.562 1.5621-4.094 0-5.656L13.6569 125H141c28.167 0 51-22.833 51-51z"/>
</svg>