<svg xmlns="http://www.w3.org/2000/svg" width="192" height="192" fill="#000" viewBox="0 0 192 192">
  <path fill-rule="evenodd" d="M47.9999 192c-1.0609 0-2.0783-.421-2.8284-1.172l-43.99993-44c-1.562095-1.562-1.562095-4.094.00001-5.656 1.56209-1.563 4.09476-1.563 5.65685 0l37.17147 37.171V40c0-2.2091 1.7909-4 4-4 2.2092 0 4 1.7909 4 4v138.343l37.1717-37.171c1.5621-1.563 4.0947-1.563 5.6568 0 1.5621 1.562 1.5621 4.094 0 5.656l-44.0001 44c-.7501.751-1.7675 1.172-2.8284 1.172zM144 0c1.061 9.5e-7 2.078.421429 2.828 1.17158l44 44.00002c1.562 1.5621 1.562 4.0947 0 5.6568s-4.094 1.5621-5.656 0L148 13.6569V152c0 2.209-1.791 4-4 4s-4-1.791-4-4V13.6568l-37.172 37.1716c-1.562 1.5621-4.0944 1.5621-5.6565 0s-1.5621-4.0947 0-5.6568L141.172 1.17157C141.922.421425 142.939-9.5e-7 144 0z"/>
</svg>