<svg xmlns="http://www.w3.org/2000/svg" width="192" height="192" fill="#000" viewBox="0 0 192 192">
  <path fill-rule="evenodd" d="M48.0001 0c1.0609 9.5e-7 2.0783.421429 2.8284 1.17158L94.8284 45.1716c1.5621 1.5621 1.5621 4.0947 0 5.6568s-4.0947 1.5621-5.6568 0L52.0001 13.6569V152c0 2.209-1.7909 4-4 4-2.2092 0-4-1.791-4-4V13.6568L6.82842 50.8284c-1.56209 1.5621-4.09475 1.5621-5.65685 0-1.562095-1.5621-1.562093-4.0947.00001-5.6568L45.1717 1.17157C45.9218.421425 46.9392-9.5e-7 48.0001 0zM144 192c-1.061 0-2.078-.421-2.828-1.172l-44.0004-44c-1.5621-1.562-1.5621-4.094 0-5.656 1.5621-1.563 4.0944-1.563 5.6564 0L140 178.343V40c0-2.2091 1.791-4 4-4s4 1.7909 4 4v138.343l37.172-37.171c1.562-1.563 4.094-1.563 5.656 0 1.563 1.562 1.563 4.094 0 5.656l-44 44c-.75.751-1.767 1.172-2.828 1.172z"/>
</svg>