<svg xmlns="http://www.w3.org/2000/svg" width="192" height="192" fill="#000" viewBox="0 0 192 192">
  <path d="M120.909.00104319C120.939.00034846 120.969 0 121 0c.027 0 .054.00027025.08.00080923 1.08.02129517 2.056.47063877 2.763 1.18537077l43.985 43.98542c1.563 1.5621 1.563 4.0947 0 5.6568-1.562 1.5621-4.094 1.5621-5.656 0L125 13.6569V141c0 28.167-22.833 51-51 51-28.1665 0-51-22.833-51-51V50c0-2.2091 1.7909-4 4-4 2.2092 0 4 1.7909 4 4v91c0 23.748 19.2517 43 43 43 23.7482 0 43-19.252 43-43V13.6568L79.8284 50.8284c-1.5621 1.5621-4.0947 1.5621-5.6568 0s-1.5621-4.0947 0-5.6568L118.172 1.17158c.077-.0779.158-.15225.242-.222946.675-.573356 1.544-.9262557 2.495-.94759081z"/>
</svg>