<svg xmlns="http://www.w3.org/2000/svg" width="192" height="192" fill="#000" viewBox="0 0 192 192">
  <path fill-rule="evenodd" d="M192 48.0001c0 1.0609-.421 2.0783-1.172 2.8284l-44 43.9999c-1.562 1.5621-4.094 1.5621-5.656 0-1.563-1.5621-1.563-4.0947 0-5.6568l37.171-37.1715H40c-2.2091 0-4-1.7909-4-4 0-2.2092 1.7909-4 4-4h138.343L141.172 6.82842c-1.563-1.56209-1.563-4.09475 0-5.65685 1.562-1.562095 4.094-1.562093 5.656.00001l44 44.00012c.751.7501 1.172 1.7675 1.172 2.8284zM0 144c9.7e-7-1.061.421429-2.078 1.17158-2.828L45.1716 97.1716c1.5621-1.5621 4.0947-1.5621 5.6568 0s1.5621 4.0944 0 5.6564L13.6569 140H152c2.209 0 4 1.791 4 4s-1.791 4-4 4H13.6568l37.1716 37.172c1.5621 1.562 1.5621 4.094 0 5.656-1.5621 1.563-4.0947 1.563-5.6568 0l-44.00003-44C.421425 146.078-9.7e-7 145.061 0 144z"/>
</svg>