<svg xmlns="http://www.w3.org/2000/svg" width="192" height="192" fill="#000" viewBox="0 0 192 192">
  <path d="M0 74c0-28.1665 22.8335-51 51-51h91c2.209 0 4 1.7909 4 4 0 2.2091-1.791 4-4 4H51C27.2518 31 8 50.2518 8 74c0 23.7483 19.2518 43 43 43h127.343l-37.171-37.1715c-1.563-1.5621-1.563-4.0948 0-5.6569 1.562-1.5621 4.094-1.5621 5.656 0l44 44.0004c.052.051.103.105.151.159.635.708 1.021 1.643 1.021 2.669 0 .08-.002.159-.007.238-.06 1.016-.498 1.93-1.177 2.603l-43.988 43.987c-1.562 1.563-4.094 1.563-5.656 0-1.563-1.562-1.563-4.094 0-5.656L178.343 125H51c-28.1665 0-51-22.833-51-51z"/>
</svg>