<svg xmlns="http://www.w3.org/2000/svg" width="192" height="192" fill="#000" viewBox="0 0 192 192">
  <path fill-rule="evenodd" d="M96.0003 0C98.2094 0 100 1.79086 100 4v85.0724l73.676-42.5364c1.913-1.1046 4.359-.4491 5.464 1.4641 1.104 1.9132.449 4.3595-1.464 5.4641L104.001 96l73.675 42.536c1.913 1.104 2.568 3.551 1.464 5.464-1.105 1.913-3.551 2.569-5.464 1.464L100 102.928V188c0 2.209-1.7905 4-3.9997 4-2.2091 0-4-1.791-4-4v-85.071l-73.6735 42.535c-1.9131 1.105-4.3595.449-5.4641-1.464-1.1045-1.913-.449-4.359 1.4641-5.464L88.0014 96 14.3268 53.464c-1.9131-1.1046-2.5686-3.5509-1.4641-5.4641 1.1046-1.9132 3.551-2.5687 5.4641-1.4641l73.6735 42.5354V4c0-2.20914 1.7909-4 4-4z"/>
</svg>