<svg xmlns="http://www.w3.org/2000/svg" width="192" height="192" fill="#000" viewBox="0 0 192 192">
  <path fill-rule="evenodd" d="M60.8785 75.6659c-.655 6.5205-1.003 13.3268-1.003 20.3341 0 7.007.348 13.813 1.003 20.334 5.3049 3.827 11.01 7.532 17.0626 11.034 6.0504 3.502 12.101 6.601 18.0582 9.291 5.9577-2.69 12.0077-5.789 18.0577-9.291 6.053-3.503 11.759-7.207 17.064-11.035.655-6.52 1.003-13.326 1.003-20.333 0-7.0071-.348-13.8132-1.003-20.3335-5.305-3.8279-11.01-7.532-17.063-11.0348-6.05-3.5015-12.101-6.6008-18.0586-9.2912-5.9576 2.6904-12.0085 5.7898-18.0591 9.2913-6.0523 3.5026-11.7571 7.2065-17.0618 11.0341zm-8.5649 6.5646c-.289 4.5001-.4381 9.0979-.4381 13.7695 0 4.671.1491 9.269.438 13.769-5.5515-4.524-10.5371-9.153-14.8772-13.7694 4.3401-4.6164 9.3257-9.2453 14.8773-13.7691zm.9955-10.9279c-8.0162 6.0082-15.1422 12.3128-21.1815 18.6673-1.1652-1.4198-2.265-2.8334-3.2972-4.2374-5.1821-7.0487-8.5432-13.6972-9.9998-19.5293-1.4503-5.8068-.9622-10.5433 1.1479-14.2067 2.1093-3.662 5.954-6.4508 11.6907-8.0937 5.7631-1.6505 13.1847-2.0573 21.8645-1.0834 1.7319.1943 3.5061.4427 5.3183.7449-2.4732 8.4244-4.3592 17.7687-5.5429 27.7383zm8.9562-6.3364c3.7406-2.4985 7.6352-4.9247 11.6679-7.2585 4.0415-2.3389 8.094-4.511 12.1319-6.5125-6.6868-2.5593-13.1814-4.5744-19.3421-6.035-1.8186 6.0778-3.3252 12.7225-4.4577 19.806zm7.0091-27.4209c8.5119 2.065 17.524 5.0985 26.725 9.0533 9.2016-3.9549 18.2136-6.9885 26.7256-9.0534-.646-1.7281-1.32-3.396-2.02-5-3.499-8.0235-7.563-14.2648-11.872-18.4439C104.543 9.94047 100.212 8 95.9997 8c-4.2121 0-8.5431 1.94047-12.8334 6.1013-4.3093 4.1791-8.3729 10.4204-11.8722 18.4439-.6996 1.604-1.3734 3.2719-2.0197 5.0001zm56.0016 7.6148c-6.161 1.4606-12.655 3.4757-19.342 6.0351 4.037 2.0015 8.09 4.1736 12.131 6.5124 4.033 2.334 7.928 4.7604 11.669 7.2591-1.132-7.0837-2.639-13.7286-4.458-19.8066zm13.414 26.1431c-1.183-9.9699-3.069-19.3143-5.543-27.7389 1.812-.3022 3.586-.5505 5.318-.7448 8.68-.9739 16.101-.5671 21.864 1.0834 5.737 1.6429 9.582 4.4316 11.691 8.0937 2.11 3.6634 2.598 8.3999 1.148 14.2067-1.457 5.8321-4.818 12.4806-10 19.5293-1.032 1.404-2.132 2.8176-3.297 4.2373-6.039-6.3543-13.165-12.6587-21.181-18.6667zm.996 10.9279c.289 4.4999.438 9.0975.438 13.7689 0 4.671-.149 9.269-.438 13.768 5.551-4.523 10.536-9.152 14.876-13.7684-4.34-4.6162-9.325-9.2449-14.876-13.7685zm20.185 19.7979c-6.039 6.355-13.165 12.659-21.181 18.667-1.183 9.97-3.069 19.315-5.543 27.74 1.813.302 3.587.55 5.319.745 8.679.973 16.101.567 21.864-1.084 5.737-1.643 9.582-4.431 11.691-8.093 2.11-3.664 2.598-8.4 1.148-14.207-1.457-5.832-4.818-12.481-10-19.53-1.032-1.404-2.133-2.818-3.298-4.238zm-34.595 44.811c1.819-6.078 3.326-12.723 4.458-19.807-3.741 2.499-7.636 4.925-11.67 7.259-4.041 2.339-8.093 4.511-12.13 6.512 6.687 2.56 13.181 4.575 19.342 6.036zm-29.2766-1.439c9.2016 3.955 18.2136 6.989 26.7256 9.054-.646 1.728-1.32 3.396-2.02 5-3.499 8.023-7.563 14.265-11.872 18.444-4.29 4.161-8.621 6.101-12.8333 6.101-4.2121 0-8.5431-1.94-12.8334-6.101-4.3093-4.179-8.3729-10.421-11.8722-18.444-.6996-1.604-1.3734-3.272-2.0197-5 8.5118-2.065 17.524-5.099 26.725-9.054zm-9.9342-4.596c-4.0376-2.002-8.0898-4.174-12.1311-6.513-4.0331-2.334-7.928-4.76-11.6689-7.259 1.1325 7.084 2.6391 13.729 4.4578 19.807 6.1608-1.461 12.6553-3.476 19.3422-6.035zm-27.2132 7.631c-2.4732-8.425-4.3593-17.769-5.543-27.739-8.0162-6.008-15.1422-12.313-21.1815-18.668-1.1654 1.42-2.2656 2.834-3.298 4.239-5.1821 7.048-8.5432 13.697-9.9998 19.529-1.4502 5.807-.9622 10.543 1.1479 14.207 2.1093 3.662 5.9541 6.45 11.6907 8.093 5.7632 1.651 13.1848 2.058 21.8645 1.084 1.7322-.195 3.5067-.443 5.3192-.745zM26.7353 95.9995c-1.5486-1.8471-3.0004-3.6919-4.3505-5.5283-5.5717-7.5787-9.5282-15.1721-11.3158-22.3295-1.79392-7.1828-1.45267-14.1835 1.9772-20.1382 3.4307-5.9561 9.3121-9.7558 16.4204-11.7915 7.0819-2.0282 15.6239-2.3901 24.9591-1.3427 2.2572.2532 4.5721.5902 6.9374 1.0097.8207-2.2647 1.6876-4.4444 2.598-6.5319 3.7618-8.6252 8.3442-15.857 13.6357-20.98873C82.9072 3.20825 89.1318 0 95.9997 0c6.8683 0 13.0923 3.20825 18.4033 8.35837 5.291 5.13173 9.874 12.36353 13.635 20.98873.911 2.0875 1.778 4.2671 2.598 6.5318 2.365-.4194 4.68-.7563 6.937-1.0095 9.335-1.0475 17.877-.6855 24.959 1.3427 7.108 2.0357 12.99 5.8354 16.42 11.7915 3.43 5.9547 3.771 12.9554 1.978 20.1382-1.788 7.1574-5.745 14.7508-11.316 22.3295-1.35 1.8363-2.802 3.6811-4.351 5.5282 1.549 1.8475 3.001 3.6926 4.352 5.5295 5.571 7.579 9.528 15.172 11.315 22.329 1.794 7.183 1.453 14.184-1.977 20.138-3.431 5.957-9.312 9.756-16.42 11.792-7.082 2.028-15.624 2.39-24.959 1.343-2.257-.254-4.572-.591-6.938-1.01-.82 2.265-1.687 4.444-2.598 6.532-3.761 8.625-8.344 15.857-13.635 20.989-5.311 5.15-11.535 8.358-18.4033 8.358-6.8679 0-13.0925-3.208-18.4029-8.358-5.2915-5.132-9.8739-12.364-13.6357-20.989-.9104-2.088-1.7773-4.267-2.5981-6.532-2.3655.42-4.6807.757-6.9382 1.01-9.3351 1.047-17.8772.685-24.959-1.343-7.1083-2.036-12.9898-5.835-16.4205-11.791-3.42983-5.955-3.77108-12.956-1.9772-20.139 1.7876-7.157 5.7441-14.75 11.3159-22.329 1.3503-1.8368 2.8023-3.682 4.3513-5.5295zm69.2644-10.5787c-5.538 0-10.0435 4.5025-10.0435 10.0765 0 5.5737 4.5055 10.0767 10.0435 10.0767 5.5383 0 10.0433-4.503 10.0433-10.0767 0-5.574-4.505-10.0765-10.0433-10.0765zM77.9562 95.4973c0-9.9745 8.0695-18.0765 18.0435-18.0765 9.9743 0 18.0433 8.102 18.0433 18.0765 0 9.9747-8.069 18.0767-18.0433 18.0767-9.974 0-18.0435-8.102-18.0435-18.0767z"/>
</svg>