<svg xmlns="http://www.w3.org/2000/svg" width="192" height="192" fill="#000" viewBox="0 0 192 192">
  <path fill-rule="evenodd" d="M94 8c-1.1046 0-2 .89543-2 2v56h8V10c0-1.10457-.8954-2-2-2h-4zm14 58V10C108 4.47716 103.523.0000012 98 4.8e-7L94 0c-5.5228-9.5e-7-10 4.47715-10 10v56h-8.8286C69.91 66 65 69.9698 65 75.6264v52.7476c0 5.595 4.8039 9.539 10 9.625V144c0 4.101 2.4682 7.625 6 9.168V188c0 2.209 1.7909 4 4 4 2.2091 0 4-1.791 4-4v-34h14v34c0 2.209 1.791 4 4 4s4-1.791 4-4v-34.832c3.532-1.543 6-5.067 6-9.168v-6.001c5.196-.086 10-4.03 10-9.625V75.6264C127 69.9698 122.09 66 116.829 66H108zm1 72H83v6c0 1.105.8954 2 2 2h22c1.105 0 2-.895 2-2v-6zm7.829-8c1.555 0 2.171-1.068 2.171-1.626V75.6264c0-.5582-.616-1.6264-2.171-1.6264H75.1714C73.6161 74 73 75.0682 73 75.6264v52.7476c0 .558.6161 1.626 2.1714 1.626h41.6576z"/>
</svg>