<svg xmlns="http://www.w3.org/2000/svg" width="192" height="192" fill="#000" viewBox="0 0 192 192">
  <path fill-rule="evenodd" d="M96 0c2.2091 0 4 1.79086 4 4v12.6846c1.145-1.6458 2.454-3.2376 3.95-4.7343C114.192 1.70907 128.947.195877 135.396.020107c4.273-.1164457 7.7 3.310843 7.584 7.583513-.176 6.44948-1.689 21.20488-11.93 31.44608-5.336 5.3357-11.881 8.2846-17.77 9.9169C119.807 54.0928 124 62.0568 124 71v14.9828c0 5.3433 1.189 10.6195 3.482 15.4462l11.015 23.189c2.968 6.248 4.503 13.147 4.503 20.049C143 170.585 121.997 192 96 192c-25.9973 0-47-21.415-47-47.333 0-6.902 1.5352-13.801 4.503-20.049l11.015-23.189C66.8106 96.6024 68 91.3261 68 85.9828V71c0-14.1059 10.4308-25.7755 24-27.7164V4c0-2.20914 1.7909-4 4-4zm-4 51.4001C82.871 53.2532 76 61.3242 76 71v14.9828c0 6.5307-1.4538 12.9795-4.2558 18.8782l-11.015 23.19C58.2769 133.214 57 138.938 57 144.667 57 166.247 74.5009 184 96 184c21.499 0 39-17.753 39-39.333 0-5.729-1.277-11.453-3.729-16.616l-11.015-23.19C117.454 98.9623 116 92.5135 116 85.9828V71c0-9.6758-6.871-17.7468-16-19.5999V64c0 2.2091-1.7909 4-4 4-2.2091 0-4-1.7909-4-4V51.4001zm8.039-8.4395c1.827-.0743 4.193-.2719 6.823-.7377 6.109-1.0819 13.238-3.5372 18.531-8.83 7.673-7.6734 9.315-19.1397 9.568-25.35352-6.214.25308-17.68 1.89439-25.354 9.56782-5.293 5.2928-7.748 12.4218-8.83 18.5307-.466 2.6301-.663 4.9958-.738 6.8227z"/>
  <path fill-rule="evenodd" d="M86.4841 124.801C83.7048 128.546 82 133.47 82 138c0 4.53 1.7048 9.454 4.4841 13.199C89.2892 154.979 92.729 157 96 157s6.711-2.021 9.516-5.801C108.295 147.454 110 142.53 110 138c0-4.53-1.705-9.454-4.484-13.199C102.711 121.021 99.271 119 96 119s-6.7108 2.021-9.5159 5.801zm-6.4241-4.768C83.7697 115.035 89.3298 111 96 111c6.67 0 12.23 4.035 15.94 9.033 3.735 5.033 6.06 11.61 6.06 17.967 0 6.357-2.325 12.934-6.06 17.967C108.23 160.965 102.67 165 96 165c-6.6702 0-12.2303-4.035-15.94-9.033C76.3247 150.934 74 144.357 74 138c0-6.357 2.3247-12.934 6.06-17.967z"/>
</svg>