<svg xmlns="http://www.w3.org/2000/svg" width="192" height="192" fill="#000" viewBox="0 0 192 192">
  <path fill-rule="evenodd" d="M83.3015 18.2036C87.413 17.4136 91.6582 17 96 17c4.342 0 8.587.4136 12.698 1.2036C107.419 12.3679 102.22 8 96 8c-6.2197 0-11.4192 4.3679-12.6985 10.2036zm33.6885 2.1555C116.652 9.0576 107.384 0 96 0 84.6164 0 75.3484 9.0576 75.0096 20.3591 48.2849 29.1818 29 54.3931 29 84.1084V182c0 5.523 4.4772 10 10 10h114c5.523 0 10-4.477 10-10V84.1084c0-29.7153-19.285-54.9266-46.01-63.7493zM96 25c-32.5783 0-59 26.4573-59 59.1084V182c0 1.105.8954 2 2 2h114c1.105 0 2-.895 2-2V84.1084C155 51.4573 128.578 25 96 25zm0 19.0294c1.0609 0 2.0783.4215 2.8284 1.1716l16.9706 16.9706c1.562 1.5621 1.562 4.0947 0 5.6568L98.8284 84.799c-.7501.7501-1.7675 1.1716-2.8284 1.1716-1.0609 0-2.0783-.4215-2.8284-1.1716L76.201 67.8284c-1.5621-1.5621-1.5621-4.0947 0-5.6568L93.1716 45.201c.7501-.7501 1.7675-1.1716 2.8284-1.1716zM84.6863 65L96 76.3137 107.314 65 96 53.6863 84.6863 65zM47 127c0-5.523 4.4772-10 10-10h78c5.523 0 10 4.477 10 10v37c0 5.523-4.477 10-10 10H57c-5.5228 0-10-4.477-10-10v-37zm10-2c-1.1046 0-2 .895-2 2v3h82v-3c0-1.105-.895-2-2-2H57zm80 13H72v8c0 2.209-1.7909 4-4 4-2.2091 0-4-1.791-4-4v-8h-9v26c0 1.105.8954 2 2 2h78c1.105 0 2-.895 2-2v-26z"/>
</svg>