<svg xmlns="http://www.w3.org/2000/svg" width="193" height="192" fill="#000" viewBox="0 0 193 192">
  <path d="M90.6102 78.0203c2.9787 2.9788 7.8081 2.9788 10.7868 0 2.979-2.9788 2.979-7.8084 0-10.7872-2.9787-2.9788-7.8081-2.9788-10.7868 0s-2.9787 7.8084 0 10.7872zM67.2379 101.395c2.9787 2.978 7.8081 2.978 10.7868 0 2.9787-2.9792 2.9787-7.8088 0-10.7876-2.9787-2.9788-7.8081-2.9788-10.7868 0s-2.9787 7.8084 0 10.7876zM124.77 101.395c-2.979 2.978-7.808 2.978-10.787 0-2.979-2.9792-2.979-7.8088 0-10.7876 2.979-2.9788 7.808-2.9788 10.787 0 2.979 2.9788 2.979 7.8084 0 10.7876zM90.6102 124.765c2.9787 2.979 7.8081 2.979 10.7868 0 2.979-2.979 2.979-7.808 0-10.787-2.9787-2.979-7.8081-2.979-10.7868 0s-2.9787 7.808 0 10.787z"/>
  <path fill-rule="evenodd" d="M177.82 14.1833c-18.913-18.91236-49.576-18.91236-68.488 0L14.1882 109.327c-18.91238 18.912-18.91238 49.575 0 68.488 18.9123 18.912 49.5753 18.912 68.4876 0L177.82 82.671c18.912-18.9124 18.912-49.5754 0-68.4877zM96.0042 38.8248l-57.174 57.1739 57.1734 57.1733 57.1744-57.1739-57.1738-57.1733zM19.845 114.984l13.3284-13.328 57.1739 57.174-13.3283 13.328c-15.7882 15.788-41.3858 15.788-57.174 0-15.78813-15.788-15.78813-41.386 0-57.174zm95.144-95.1439l-13.328 13.3278 57.174 57.174 13.328-13.3278c15.788-15.7881 15.788-41.3858 0-57.174-15.788-15.78811-41.386-15.78812-57.174 0z"/>
</svg>