<svg xmlns="http://www.w3.org/2000/svg" width="193" height="192" fill="#000" viewBox="0 0 193 192">
  <path d="M101.364 78.3206c-2.9603 2.9604-7.7599 2.9604-10.7202 0-2.9604-2.9603-2.9604-7.7599 0-10.7202 2.9603-2.9604 7.7599-2.9604 10.7202 0 2.96 2.9603 2.96 7.7599 0 10.7202zM67.4133 101.55c2.9603 2.96 7.7599 2.96 10.7203 0 2.9603-2.9602 2.9603-7.7598 0-10.7201-2.9604-2.9604-7.76-2.9604-10.7203 0-2.9603 2.9603-2.9603 7.7599 0 10.7201zM124.591 101.55c-2.961 2.96-7.76 2.96-10.721 0-2.96-2.9602-2.96-7.7598 0-10.7201 2.961-2.9604 7.76-2.9604 10.721 0 2.96 2.9603 2.96 7.7599 0 10.7201zM90.6438 124.776c2.9603 2.96 7.7599 2.96 10.7202 0 2.96-2.961 2.96-7.76 0-10.721-2.9603-2.96-7.7599-2.96-10.7202 0-2.9604 2.961-2.9604 7.76 0 10.721z"/>
  <path fill-rule="evenodd" d="M96.0039 27.5123l-13.328-13.328c-18.9124-18.91238-49.5754-18.91238-68.4877 0-18.91235 18.9123-18.91236 49.5753 0 68.4876L27.5163 96l-13.3281 13.328c-18.91238 18.912-18.91238 49.575 0 68.488 18.9123 18.912 49.5753 18.912 68.4876 0l13.3281-13.328 13.3281 13.328c18.912 18.912 49.575 18.912 68.488 0 18.912-18.913 18.912-49.576 0-68.488L164.492 96l13.328-13.3281c18.912-18.9123 18.912-49.5753 0-68.4876-18.913-18.91234-49.576-18.91235-68.488 0l-13.3281 13.328zM77.019 19.8411c-15.7882-15.78813-41.3858-15.78813-57.174 0-15.7881 15.7882-15.7881 41.3858 0 57.1739l13.3281 13.3281 57.174-57.1739L77.019 19.8411zm24.642 138.9899l13.328 13.328c15.788 15.788 41.386 15.788 57.174 0 15.788-15.788 15.788-41.386 0-57.174l-13.328-13.328-57.174 57.174zm70.502-81.8159c15.788-15.7882 15.788-41.3858 0-57.174-15.788-15.7881-41.386-15.7881-57.174.0001-31.7212 31.721-63.4601 63.4599-95.144 95.1438-15.78814 15.788-15.78813 41.386 0 57.174 15.7882 15.788 41.3858 15.788 57.174 0 31.714-31.715 63.429-63.429 95.144-95.1439z"/>
</svg>