<svg xmlns="http://www.w3.org/2000/svg" width="193" height="192" fill="#000" viewBox="0 0 193 192">
  <path fill-rule="evenodd" d="M80.001 32c2.2091 0 4 1.7909 4 4v15.9985C87.3436 49.4878 91.4986 48 96.001 48c4.502 0 8.657 1.4878 12 3.9985V36c0-2.2091 1.791-4 4-4s4 1.7909 4 4v37.0763C129.786 66.4262 145.244 62.7 161.564 62.7c9.422 0 18.559 1.2419 27.255 3.5733 1.67.3471 2.959 1.7356 3.156 3.4559.058.4923.024 1.0037-.113 1.5114-.502 1.8554-2.23 3.0509-4.075 2.95-12.293.115-22.223 10.1158-22.223 22.4358 0 2.1938.314 4.3076.896 6.3016.361 1.236.105 2.569-.687 3.583-.792 1.014-2.023 1.586-3.309 1.535-.299-.011-.599-.017-.9-.017-12.391 0-22.437 10.045-22.437 22.436 0 1.668.182 3.288.524 4.844.341 1.552-.268 3.158-1.552 4.093s-2.999 1.022-4.371.221c-3.313-1.934-7.166-3.043-11.29-3.043-12.392 0-22.437 10.046-22.437 22.437 0 2.209-1.7909 4-4 4-2.2091 0-4-1.791-4-4 0-12.391-10.0453-22.437-22.4368-22.437-4.1242 0-7.977 1.109-11.2901 3.043-1.3717.801-3.0872.714-4.371-.221-1.2839-.935-1.8929-2.541-1.5519-4.093.3422-1.556.5234-3.176.5234-4.844 0-12.391-10.0453-22.436-22.4368-22.436-.3013 0-.601.006-.8995.017-1.2859.051-2.5175-.521-3.3095-1.535-.792-1.014-1.0477-2.347-.687-3.583.5824-1.994.896-4.1078.896-6.3016 0-12.32-9.9297-22.3208-22.22242-22.4358-1.84545.1009-3.573751-1.095-4.075651-2.9508-.13729497-.5076-.1704406-1.0188-.1124792-1.511C.224545 68.0087 1.51298 66.6203 3.18303 66.2733 11.879 63.9419 21.0164 62.7 30.4378 62.7c16.3198 0 31.7785 3.7262 45.5632 10.3763V36c0-2.2091 1.7909-4 4-4zm-4 50.0459C62.4204 74.8051 46.914 70.7 30.4378 70.7c-3.2844 0-6.5297.1631-9.7286.4815 8.2697 5.4412 13.7286 14.8055 13.7286 25.4449 0 1.2291-.0731 2.4423-.2152 3.6356 14.8221 1.838 26.3393 14.333 26.6457 29.58 2.7573-.821 5.6769-1.262 8.6959-1.262 11.3174 0 21.1922 6.177 26.4368 15.344 5.245-9.167 15.119-15.344 26.437-15.344 3.019 0 5.938.441 8.696 1.262.306-15.247 11.823-27.742 26.645-29.58-.142-1.1933-.215-2.4065-.215-3.6356 0-10.6394 5.459-20.0037 13.729-25.4449-3.199-.3184-6.444-.4815-9.729-.4815-16.476 0-31.982 4.1051-45.563 11.3459V89c0 2.2091-1.791 4-4 4s-4-1.7909-4-4V68c0-6.6274-5.373-12-12-12-6.6274 0-12 5.3726-12 12v21c0 2.2091-1.7909 4-4 4-2.2091 0-4-1.7909-4-4v-6.9541z"/>
</svg>