<svg xmlns="http://www.w3.org/2000/svg" width="192" height="192" fill="#000" viewBox="0 0 192 192">
  <path fill-rule="evenodd" d="M12 52c-2.20914 0-4 1.7909-4 4v80c0 2.209 1.79086 4 4 4h150c2.209 0 4-1.791 4-4v-16c0-3.314 2.686-6 6-6h10c1.105 0 2-.895 2-2V80c0-1.1046-.895-2-2-2h-10c-3.314 0-6-2.6863-6-6V56c0-2.2091-1.791-4-4-4H12zM0 56c0-6.6274 5.37259-12 12-12h150c6.627 0 12 5.3726 12 12v14h8c5.523 0 10 4.4772 10 10v32c0 5.523-4.477 10-10 10h-8v14c0 6.627-5.373 12-12 12H12c-6.62742 0-12-5.373-12-12V56zm87 10c2.2091 0 4 1.7908 4 4v36c0 2.209-1.7909 4-4 4-2.2091 0-4-1.791-4-4V70c0-2.2092 1.7909-4 4-4zm0 51c2.2091 0 4 1.791 4 4v1c0 2.209-1.7909 4-4 4-2.2091 0-4-1.791-4-4v-1c0-2.209 1.7909-4 4-4z"/>
</svg>