<svg xmlns="http://www.w3.org/2000/svg" width="192" height="192" fill="#000" viewBox="0 0 192 192">
  <path fill-rule="evenodd" d="M12 140c-2.20914 0-4-1.791-4-4V56c0-2.2091 1.79086-4 4-4h150c2.209 0 4 1.7909 4 4v16c0 3.3137 2.686 6 6 6h10c1.105 0 2 .8954 2 2v32c0 1.105-.895 2-2 2h-10c-3.314 0-6 2.686-6 6v16c0 2.209-1.791 4-4 4H12zm-12-4c0 6.627 5.37258 12 12 12h150c6.627 0 12-5.373 12-12v-14h8c5.523 0 10-4.477 10-10V80c0-5.5229-4.477-10-10-10h-8V56c0-6.6274-5.373-12-12-12H12C5.37259 44 0 49.3726 0 56v80z"/>
  <path fill-rule="evenodd" d="M83.4444 101.174L78.4074 124 103 96l-12.1481-5.0909L95.8889 68 71 96l12.4444 5.174z"/>
</svg>