<svg xmlns="http://www.w3.org/2000/svg" width="192" height="192" fill="#000" viewBox="0 0 192 192">
  <path fill-rule="evenodd" d="M8 88C8 39.3989 47.3989 0 96 0c48.601 0 88 39.3989 88 88v12.2c4.564.927 8 4.962 8 9.8v71c0 5.523-4.477 10-10 10H10c-5.52285 0-10-4.477-10-10v-71c0-4.838 3.43552-8.873 8-9.8V88zm8 12h160V88c0-42.8415-33.676-77.8176-76-79.90174V25c0 2.2091-1.7909 4-4 4-2.2091 0-4-1.7909-4-4V8.09826C49.6756 10.1824 16 45.1585 16 88v12zm-6 8c-1.10457 0-2 .895-2 2v71c0 1.105.89543 2 2 2h172c1.105 0 2-.895 2-2v-71c0-1.105-.895-2-2-2H10zm86-76c2.2091 0 4 1.7909 4 4v10c0 2.2091-1.7909 4-4 4-2.2091 0-4-1.7909-4-4V36c0-2.2091 1.7909-4 4-4zM74 134c0-5.523 4.4771-10 10-10h24c5.523 0 10 4.477 10 10v24c0 5.523-4.477 10-10 10H84c-5.5229 0-10-4.477-10-10v-24zm10-2c-1.1046 0-2 .895-2 2v24c0 1.105.8954 2 2 2h24c1.105 0 2-.895 2-2v-24c0-1.105-.895-2-2-2H84z"/>
</svg>