<svg xmlns="http://www.w3.org/2000/svg" width="192" height="192" fill="#000" viewBox="0 0 192 192">
  <path fill-rule="evenodd" d="M96.25 8c-32.5848 0-59 26.4152-59 59v65.562c0 .77-.2218 1.523-.6388 2.169L26 151.178v6.072h140.5v-6.072l-10.611-16.447c-.417-.646-.639-1.399-.639-2.169V67c0-32.5848-26.415-59-59-59zm-67 59c0-37.0031 29.9969-67 67-67 37.003 0 67 29.9969 67 67v64.384l10.611 16.447c.417.647.639 1.4.639 2.169v11.25c0 2.209-1.791 4-4 4h-38.404C127.611 180.7 113.38 192 96.5 192c-16.8805 0-31.111-11.3-35.5956-26.75H22c-2.2091 0-4-1.791-4-4V150c0-.769.2218-1.522.6388-2.169L29.25 131.384V67zm40.0844 98.251C73.5093 176.217 84.1049 184 96.5 184c12.395 0 22.991-7.783 27.166-18.749H69.3344z"/>
</svg>