<svg xmlns="http://www.w3.org/2000/svg" width="192" height="192" fill="#000" viewBox="0 0 192 192">
  <path fill-rule="evenodd" d="M166 4c0-2.20914 1.791-4 4-4h18c1.562 0 2.981.909368 3.634 2.32857.653 1.41921.42 3.08855-.597 4.2746L178.697 21H188c2.209 0 4 1.7909 4 4 0 2.2091-1.791 4-4 4h-18c-1.562 0-2.981-.9094-3.634-2.3286-.653-1.4192-.42-3.0885.597-4.2746L179.303 8H170c-2.209 0-4-1.79086-4-4zM.0000576 37c0-2.2091 1.7908624-4 4.0000024-4H22.0001c1.5621 0 2.9813.9094 3.634 2.3286.6527 1.4192.4196 3.0885-.597 4.2746L12.6969 54h9.3032c2.2091 0 4 1.7909 4 4 0 2.2091-1.7909 4-4 4H4.00006c-1.56212 0-2.98131-.9094-3.634054-2.3286-.652742-1.4192-.4195883-3.0885.597025-4.2746L13.3032 41H4.00006C1.79092 41 .0000576 39.2091.0000576 37zM96.0001 46c-28.7188 0-52 23.2812-52 52v42.5c0 .769-.2218 1.522-.6389 2.169l-9.3611 14.509V162H158v-4.822l-9.361-14.509c-.417-.647-.639-1.4-.639-2.169V98c0-28.7188-23.281-52-51.9999-52zm-60 52c0-33.1371 26.8629-60 60-60C129.137 38 156 64.8629 156 98v41.322l9.361 14.509c.417.647.639 1.4.639 2.169v10c0 2.209-1.791 4-4 4h-34.512c-4.685 12.836-17.013 22-31.4879 22-14.475 0-26.8032-9.164-31.4883-22H30.0001c-2.2092 0-4-1.791-4-4v-10c0-.769.2218-1.522.6388-2.169l9.3612-14.509V98zm37.2159 72c4.1999 8.304 12.8268 14 22.7841 14 9.9569 0 18.5839-5.696 22.7839-14H73.216z"/>
</svg>