<svg xmlns="http://www.w3.org/2000/svg" width="192" height="193" fill="#000" viewBox="0 0 192 193">
  <path fill-rule="evenodd" d="M136.198 52.2621c-8.434-31.4745-40.7858-50.15282-72.2603-41.7193-31.4745 8.4336-50.1529 40.7855-41.7193 72.26l16.9688 63.3282c.1991.743.1798 1.528-.0558 2.26l-5.9927 18.634 1.5715 5.864 135.7128-36.364-1.572-5.865-14.506-13.14c-.57-.516-.979-1.186-1.179-1.929l-16.968-63.3289zM61.8672 2.81544C97.6094-6.76166 134.348 14.4494 143.925 50.1916l16.664 62.1904 14.506 13.14c.571.517.98 1.187 1.179 1.93l2.911 10.866c.572 2.134-.694 4.328-2.828 4.899l-47.895 12.834c-.201 16.205-11.056 30.96-27.464 35.357-16.409 4.397-33.1872-2.955-41.4639-16.888l-26.6171 7.132c-1.0247.275-2.1165.131-3.0353-.4-.9187-.53-1.5891-1.404-1.8637-2.428l-2.9117-10.867c-.1991-.743-.1797-1.528.0558-2.26l5.9927-18.633L14.491 84.8733C4.9139 49.1311 26.1249 12.3925 61.8672 2.81544zM67.8345 172.602c6.8709 9.512 19.1198 14.287 31.0925 11.079 11.973-3.208 20.193-13.468 21.387-25.141l-52.4795 14.062z"/>
</svg>