<svg xmlns="http://www.w3.org/2000/svg" width="192" height="192" fill="#000" viewBox="0 0 192 192">
  <path fill-rule="evenodd" d="M112 44c0-2.2091 1.791-4 4-4h14.558c2.583 0 4.876 1.6526 5.693 4.1026l7.538 22.616.012.0351 4.678 14.0332C150.904 80.2713 153.421 80 156 80c19.882 0 36 16.1177 36 36 0 19.882-16.118 36-36 36s-36-16.118-36-36c0-14.485 8.555-26.9727 20.889-32.6845l-2.637-7.9106-43.4236 43.4231C94.0783 119.579 93.0609 120 92 120H71.7803C69.7905 138 54.5302 152 36 152c-19.8823 0-36-16.118-36-36 0-19.8823 16.1177-36 36-36 7.916 0 15.2353 2.555 21.1781 6.8852 3.7541-2.9317 7.6923-5.6072 11.7865-8.0116L57.5279 56H52c-2.2091 0-4-1.7909-4-4 0-2.2091 1.7909-4 4-4h7.9133c.0558-.0012.1115-.0012.1672 0H72c2.2091 0 4 1.7909 4 4 0 2.2091-1.7909 4-4 4h-5.5279l9.5394 19.0788C90.6229 67.8951 106.883 64 123.659 64h10.791l-5.333-16H116c-2.209 0-4-1.7909-4-4zm18.343 28h-6.684c-15.515 0-30.5531 3.598-44.0697 10.2344l13.5065 27.0126L130.343 72zm-44.8151 40L72.5511 86.0466c-3.2419 1.9275-6.3768 4.0393-9.3882 6.3268C67.844 97.7506 70.9546 104.531 71.7803 112h13.7476zm-21.8115 0c-.791-5.531-3.1983-10.54-6.7281-14.534-4.8717 4.357-9.3429 9.217-13.3297 14.534h20.0578zM50.8321 92.2467C46.5314 89.5556 41.4473 88 36 88c-15.464 0-28 12.536-28 28s12.536 28 28 28c14.1059 0 25.7755-10.431 27.7164-24H36c-1.4752 0-2.8306-.812-3.5267-2.113-.6961-1.3-.6198-2.878.1985-4.106l1.1259-1.689c4.9107-7.366 10.6444-14.0107 17.0344-19.8453zm92.6079-1.2783C134.283 95.572 128 105.052 128 116c0 15.464 12.536 28 28 28s28-12.536 28-28-12.536-28-28-28c-1.696 0-3.357.1508-4.97.4398l8.765 26.2952c.698 2.096-.434 4.361-2.53 5.06-2.096.698-4.361-.434-5.06-2.53l-8.765-26.2966z"/>
</svg>