<svg xmlns="http://www.w3.org/2000/svg" width="192" height="192" fill="#000" viewBox="0 0 192 192">
  <path fill-rule="evenodd" d="M10 39c-1.10457 0-2 .8954-2 2v110c0 1.105.89543 2 2 2h172c1.105 0 2-.895 2-2V41c0-1.1046-.895-2-2-2H10zM0 41c0-5.5228 4.47715-10 10-10h172c5.523 0 10 4.4772 10 10v110c0 5.523-4.477 10-10 10H10c-5.52285 0-10-4.477-10-10V41zm16 10c0-2.2091 1.7909-4 4-4h22c2.2091 0 4 1.7909 4 4 0 2.2091-1.7909 4-4 4H20c-2.2091 0-4-1.7909-4-4zm80 26c-10.4934 0-19 8.5066-19 19 0 10.493 8.5066 19 19 19 10.493 0 19-8.507 19-19 0-10.4934-8.507-19-19-19zM69 96c0-14.9117 12.0883-27 27-27 14.912 0 27 12.0883 27 27 0 14.912-12.088 27-27 27-14.9117 0-27-12.088-27-27zm77 45c0-2.209 1.791-4 4-4h22c2.209 0 4 1.791 4 4s-1.791 4-4 4h-22c-2.209 0-4-1.791-4-4z"/>
</svg>