<svg xmlns="http://www.w3.org/2000/svg" width="193" height="192" fill="#000" viewBox="0 0 193 192">
  <path d="M137.996 58.9999c2.209 0 4-1.7909 4-4 0-2.2092-1.791-4-4-4s-4 1.7908-4 4c0 2.2091 1.791 4 4 4z"/>
  <path fill-rule="evenodd" d="M100.996 165v-18.41c-2.4641.237-4.9573.339-7.3628.381V165c0 2.209-1.7908 4-4 4-2.2091 0-4-1.791-4-4v-18H4.99609c-1.42588 0-2.74395-.759-3.45964-1.992-.715685-1.234-.720764-2.755-.01333-3.993l19.99998-35c.7122-1.246 2.0376-2.015 3.473-2.015h34.3291l33.8955-58.6098c12.4263-21.4184 39.9293-28.7423 61.4313-16.388 9.72 5.5845 16.56 14.2445 19.986 24.0316l16.082 7.6822c1.391.6642 2.276 2.0683 2.276 3.6093 0 1.5411-.885 2.9451-2.276 3.6094l-14.094 6.7325c-.83 5.324-2.645 10.5841-5.507 15.5189-14.41 24.8369-31.212 47.9279-62.123 55.0619V165c0 2.209-1.791 4-4 4s-4-1.791-4-4zm-.854-115.5976c10.207-17.5906 32.827-23.6319 50.524-13.4637 8.457 4.8588 14.247 12.5276 16.88 21.1372 1.175 3.8425 1.649 9.2118 1.458 13.6652C159.136 86.1 141.99 95 121.996 95c-2.209 0-4 1.7909-4 4 0 15.105-5.527 29.235-14.969 39.28-4.1482.644-8.7804.72-13.3938.72H68.9028l31.5632-55.0093c1.099-1.9162.437-4.3607-1.4792-5.4602-1.9162-1.0994-4.3608-.4373-5.4602 1.4788L59.6795 139H48.3253l51.8167-89.5976zm25.745 53.4956c13.547-.713 25.985-5.1527 36.001-12.8009-12.062 20.1779-25.286 37.0359-46.15 44.8009 5.95-9.325 9.498-20.387 10.149-32zM45.3174 112h9.3812l-15.6148 27h-9.195l15.4286-27zm-9.214 0l-15.4286 27h-8.786l15.4286-27h8.786zM176.96 65.6417c-.048-.9063-.118-1.821-.21-2.7331l2.966 1.4167-2.756 1.3164z"/>
</svg>