<svg xmlns="http://www.w3.org/2000/svg" width="192" height="192" fill="#000" viewBox="0 0 192 192">
  <path fill-rule="evenodd" d="M73 0c2.2091 0 4 1.79086 4 4v27h19V4c0-2.20914 1.7909-4 4-4 2.209 0 4 1.79086 4 4v27.032c18.358.7854 33 15.9168 33 34.468 0 11.5365-5.662 21.7505-14.36 28.0143C136.745 97.8452 147 110.975 147 126.5c0 19.054-15.446 34.5-34.5 34.5H104v27c0 2.209-1.791 4-4 4-2.2091 0-4-1.791-4-4v-27H77v27c0 2.209-1.7909 4-4 4-2.2091 0-4-1.791-4-4v-27H49c-2.2091 0-4-1.791-4-4V35c0-2.2091 1.7909-4 4-4h20V4c0-2.20914 1.7909-4 4-4zM53 39v53h49.5c14.636 0 26.5-11.8645 26.5-26.5S117.136 39 102.5 39H53zm0 61v53h59.5c14.636 0 26.5-11.864 26.5-26.5S127.136 100 112.5 100H53z"/>
</svg>