<svg xmlns="http://www.w3.org/2000/svg" width="192" height="192" fill="#000" viewBox="0 0 192 192">
  <path fill-rule="evenodd" d="M98.3562.250887c1.5668-.58246 3.3308-.129255 4.4228 1.136363l44 51.00005c1.404 1.6275 1.271 4.0737-.302 5.5391l-40.854 38.0738 40.854 38.0738c1.573 1.465 1.706 3.912.302 5.539l-44 51c-1.092 1.266-2.856 1.719-4.4228 1.136-1.5668-.582-2.6062-2.077-2.6062-3.749v-82.799l-44.7729 41.725c-1.6161 1.507-4.1472 1.417-5.6533-.199-1.5062-1.616-1.417-4.147.1991-5.653l48.3657-45.0738-48.3657-45.0738c-1.6161-1.5061-1.7053-4.0372-.1991-5.6533 1.5061-1.6161 4.0372-1.7053 5.6533-.1992L95.75 86.7995V4.00019c0-1.67155 1.0394-3.166842 2.6062-3.749303zM103.75 105.19v72.05l34.457-39.938-34.457-32.112zm0-18.3801v-72.05l34.457 39.9385-34.457 32.1115z"/>
</svg>