<svg xmlns="http://www.w3.org/2000/svg" width="192" height="192" fill="#000" viewBox="0 0 192 192">
  <path fill-rule="evenodd" d="M127.851.454113c1.609.839677 2.451 2.657117 2.051 4.427237L113.648 76.8491l37.863 15.4474c1.207.4924 2.098 1.5418 2.388 2.8124.291 1.2706-.056 2.603-.929 3.5707l-83 92.0004c-1.2189 1.351-3.1962 1.709-4.8116.871-1.6154-.838-2.4616-2.66-2.0594-4.435l16.2483-71.684-38.848-15.7241c-1.2139-.4913-2.1104-1.5456-2.4001-2.8227-.2897-1.277.064-2.6151.9469-3.5821L123.046 1.30308c1.224-1.3401251 3.196-1.688639 4.805-.848967zM48.8318 94.4501l36.669 14.8419c1.8174.736 2.8337 2.68 2.4003 4.592l-13.6156 60.069 68.9275-76.4016-35.724-14.5749c-1.81-.7386-2.821-2.6776-2.391-4.5848l13.673-60.5422-69.9392 76.6006z"/>
</svg>