<svg xmlns="http://www.w3.org/2000/svg" width="192" height="192" fill="#000" viewBox="0 0 192 192">
  <path fill-rule="evenodd" d="M78.5 8C71.0442 8 65 14.0442 65 21.5S71.0442 35 78.5 35c.3922 0 .7796-.0166 1.1617-.049 1.1156-.0948 2.2199.2825 3.0445 1.04.8245.7575 1.2938 1.8259 1.2938 2.9456V149.711c2.219.586 4.2981 1.517 6.1743 2.732 1.8543 1.201 2.384 3.678 1.1831 5.532-1.2008 1.854-3.6775 2.384-5.5317 1.183-1.8051-1.169-3.9035-1.917-6.164-2.109-.3821-.032-.7695-.049-1.1617-.049-7.4558 0-13.5 6.044-13.5 13.5S71.0442 184 78.5 184 92 177.956 92 170.5c0-2.209 1.7909-4 4-4 2.2091 0 4 1.791 4 4 0 7.456 6.044 13.5 13.5 13.5s13.5-6.044 13.5-13.5-6.044-13.5-13.5-13.5c-.392 0-.78.017-1.162.049-1.115.095-2.22-.282-3.044-1.04-.825-.758-1.294-1.826-1.294-2.946V42.2891c-2.219-.5858-4.298-1.5172-6.174-2.7322-1.8546-1.2009-2.3843-3.6775-1.183-5.5318 1.2-1.8543 3.677-2.384 5.531-1.1831 1.805 1.169 3.904 1.9171 6.164 2.109.382.0324.77.049 1.162.049 7.456 0 13.5-6.0442 13.5-13.5S120.956 8 113.5 8 100 14.0442 100 21.5c0 2.2091-1.7909 4-4 4-2.2091 0-4-1.7909-4-4C92 14.0442 85.9558 8 78.5 8zM96 9.00714C92.1003 3.55412 85.7152 0 78.5 0 66.6259 0 57 9.62588 57 21.5c0 11.0285 8.3037 20.1176 19 21.3562V149.144c-10.6963 1.238-19 10.328-19 21.356 0 11.874 9.6259 21.5 21.5 21.5 7.2152 0 13.6003-3.554 17.5-9.007 3.8997 5.453 10.285 9.007 17.5 9.007 11.874 0 21.5-9.626 21.5-21.5 0-11.028-8.304-20.118-19-21.356V42.8562c10.696-1.2386 19-10.3277 19-21.3562C135 9.62588 125.374 0 113.5 0 106.285 0 99.8997 3.55412 96 9.00714z"/>
</svg>