<svg xmlns="http://www.w3.org/2000/svg" width="192" height="192" fill="#000" viewBox="0 0 192 192">
  <path fill-rule="evenodd" d="M55.2626 11.8691c-5.1681-5.16819-13.5912-5.16754-18.8135.0548-5.2223 5.2223-5.223 13.6454-.0548 18.8135 1.5621 1.5621 1.5621 4.0948 0 5.6569s-4.0948 1.5621-5.6569 0c-5.1681-5.1682-13.5912-5.1675-18.8135.0548-5.22234 5.2223-5.22298 13.6454-.0548 18.8135 5.1681 5.1682 13.5912 5.1675 18.8135-.0548.2745-.2744.534-.5571.7787-.847.7221-.8554 1.7696-1.3691 2.888-1.4163 1.1185-.0472 2.2055.3765 2.997 1.168L76.4 93.1662l.0054.0054c.0018.0018.0036.0035.0054.0053L98.8233 115.59c.0017.001.0034.003.0051.005.0018.001.0035.003.0052.005l36.6834 36.683c1.958-1.139 4.057-1.941 6.213-2.407 2.159-.466 4.288.906 4.754 3.065.467 2.16-.906 4.288-3.065 4.755-2.075.448-4.064 1.394-5.78 2.843-.29.244-.572.504-.847.778-5.222 5.223-5.223 13.646-.055 18.814 5.169 5.168 13.592 5.167 18.814-.055 5.222-5.222 5.223-13.645.055-18.813-1.562-1.563-1.562-4.095 0-5.657 1.562-1.562 4.094-1.562 5.657 0 5.168 5.168 13.591 5.167 18.813-.055 5.222-5.222 5.223-13.645.055-18.814-5.168-5.168-13.591-5.167-18.814.055-.274.275-.534.557-.778.847-.722.856-1.77 1.369-2.888 1.416-1.119.048-2.206-.376-2.997-1.168l-39.055-39.0539c-.001-.0015-.003-.0031-.004-.0047-.002-.0015-.003-.0031-.005-.0047L93.1763 76.4101c-.0016-.0016-.0032-.0031-.0047-.0047l-.0047-.0047L56.483 39.7168c-1.9577 1.1388-4.0572 1.9416-6.2127 2.4073-2.1593.4664-4.2879-.906-4.7544-3.0653-.4664-2.1593.906-4.2879 3.0653-4.7544 2.0752-.4483 4.0639-1.3948 5.7796-2.8431.2899-.2447.5726-.5042.847-.7787 5.2223-5.2223 5.223-13.6454.0548-18.8135zm7.2762 22.5897c6.6118-8.3637 6.0962-20.5311-1.6193-28.2466-8.3162-8.31621-21.8047-8.26777-30.1273.05481-5.0464 5.04639-7.0507 11.99209-5.9928 18.53239-6.5403-1.0579-13.486.9464-18.53238 5.9928-8.32259 8.3226-8.37102 21.8111-.05481 30.1273 7.71549 7.7154 19.88289 8.2311 28.24669 1.6193L67.9201 96l-33.4612 33.461c-8.3638-6.612-20.5312-6.096-28.24669 1.62-8.31623 8.316-8.26777 21.804.05481 30.127 5.04638 5.046 11.99218 7.051 18.53248 5.993-1.058 6.54.9463 13.486 5.9927 18.532 8.3226 8.323 21.8111 8.371 30.1273.055 7.7154-7.716 8.2311-19.883 1.6193-28.247L96 124.08l33.461 33.461c-6.612 8.364-6.096 20.531 1.62 28.247 8.316 8.316 21.804 8.268 30.127-.055 5.046-5.046 7.051-11.992 5.993-18.532 6.54 1.058 13.486-.947 18.532-5.993 8.323-8.323 8.371-21.811.055-30.127-7.716-7.716-19.883-8.232-28.247-1.62L124.08 96l33.461-33.4612c8.364 6.6118 20.531 6.0961 28.247-1.6193 8.316-8.3162 8.268-21.8047-.055-30.1273-5.046-5.0464-11.992-7.0507-18.532-5.9928 1.058-6.5403-.947-13.486-5.993-18.53239-8.323-8.32258-21.811-8.37102-30.127-.05481-7.716 7.7155-8.232 19.8829-1.62 28.2466L96 67.9201 62.5388 34.4588zM101.657 73.577l16.766 16.7661 36.231-36.2306c.791-.7915 1.878-1.2152 2.997-1.168 1.118.0472 2.166.5609 2.888 1.4162.244.29.504.5726.778.8471 5.223 5.2223 13.646 5.223 18.814.0548 5.168-5.1681 5.167-13.5912-.055-18.8135-5.222-5.2223-13.645-5.223-18.813-.0548-1.562 1.5621-4.095 1.5621-5.657 0-1.562-1.5621-1.562-4.0948 0-5.6569 5.168-5.1681 5.167-13.5912-.055-18.8135-5.222-5.22234-13.645-5.22299-18.814-.0548-5.168 5.1681-5.167 13.5912.055 18.8135.275.2745.557.534.847.7787 1.716 1.4483 3.705 2.3948 5.78 2.8431 2.159.4665 3.532 2.5951 3.065 4.7544-.466 2.1593-2.595 3.5317-4.754 3.0653-2.156-.4657-4.255-1.2685-6.213-2.4073l-33.86 33.8602zm-11.3138 44.846L73.577 101.657l-36.2307 36.23c-.7915.792-1.8785 1.216-2.9969 1.168-1.1184-.047-2.1659-.56-2.888-1.416-.2448-.29-.5043-.572-.7788-.847-5.2223-5.222-13.6454-5.223-18.8135-.055-5.16819 5.169-5.16754 13.592.0548 18.814 5.2223 5.222 13.6454 5.223 18.8135.055 1.5621-1.562 4.0948-1.562 5.6569 0s1.5621 4.094 0 5.657c-5.1682 5.168-5.1675 13.591.0548 18.813 5.2223 5.222 13.6454 5.223 18.8135.055 5.1682-5.168 5.1675-13.591-.0548-18.814-.2744-.274-.5571-.534-.847-.778-1.7157-1.449-3.7044-2.395-5.7796-2.843-2.1593-.467-3.5317-2.595-3.0653-4.755.4665-2.159 2.5951-3.531 4.7544-3.065 2.1555.466 4.255 1.268 6.2127 2.407l33.8602-33.86z"/>
</svg>