<svg xmlns="http://www.w3.org/2000/svg" width="192" height="192" fill="#000" viewBox="0 0 192 192">
  <path fill-rule="evenodd" d="M0 18c0-2.2091 1.79086-4 4-4h72c8.3479 0 15.7003 4.262 20 10.7288C100.3 18.262 107.652 14 116 14h72c2.209 0 4 1.7909 4 4v136c0 2.209-1.791 4-4 4h-72c-8.837 0-16 7.163-16 16 0 2.209-1.7909 4-4 4-2.2091 0-4-1.791-4-4 0-8.837-7.1634-16-16-16H4c-2.20914 0-4-1.791-4-4V18zm92 138.111c-4.2461-3.8-9.8532-6.111-16-6.111H8V22h68c8.8366 0 16 7.1634 16 16v118.111zM100 38v118.111c4.246-3.8 9.853-6.111 16-6.111h68V22h-68c-8.837 0-16 7.1634-16 16z"/>
</svg>