<svg xmlns="http://www.w3.org/2000/svg" width="192" height="192" fill="#000" viewBox="0 0 192 192">
  <path fill-rule="evenodd" d="M48.9409 8c-7.7707 0-14.0508 6.2786-14.0508 14v26.2666c-.0001 1.8898-.5364 3.7402-1.5461 5.3373L9.2351 91.7379l-3.36612-2.1281 3.36612 2.1281c-1.6468 2.6048-1.6468 5.9194-.00001 8.5241l24.10881 38.134c1.0096 1.597 1.546 3.448 1.546 5.337V170c0 7.721 6.2801 14 14.0508 14H70c2.2091 0 4 1.791 4 4s-1.7909 4-4 4H48.9407c-12.1677 0-22.0508-9.839-22.0508-22v-26.267c0-.375-.1064-.743-.308-1.062L2.47311 104.537c-3.297491-5.2157-3.297477-11.8583.00002-17.0741L26.582 49.3289c.2016-.319.3081-.6872.3081-1.0623V22c0-12.1609 9.8831-22 22.0508-22H70c2.2091 0 4 1.79086 4 4s-1.7909 4-4 4H48.9409zM118 4c0-2.20914 1.791-4 4-4h21.059c12.168 0 22.051 9.8391 22.051 22v26.2666c0 .3751.106.7433.308 1.0623l24.109 38.134c3.297 5.2158 3.297 11.8584 0 17.0741l-24.109 38.134c-.202.319-.308.687-.308 1.062V170c0 12.161-9.883 22-22.051 22H122c-2.209 0-4-1.791-4-4s1.791-4 4-4h21.059c7.771 0 14.051-6.279 14.051-14v-26.267c0-1.889.536-3.74 1.546-5.337l24.109-38.134c1.647-2.6047 1.647-5.9193 0-8.5241l-24.109-38.134c-1.01-1.5971-1.546-3.4475-1.546-5.3373V22c0-7.7214-6.28-14-14.051-14H122c-2.209 0-4-1.79086-4-4z"/>
</svg>