<svg xmlns="http://www.w3.org/2000/svg" width="192" height="192" fill="#000" viewBox="0 0 192 192">
  <path fill-rule="evenodd" d="M.00020242 22C.0002191 9.84972 9.84995 0 22.0002 0h20.9999c2.2091 0 4 1.79086 4 4s-1.7909 4-4 4H22.0002c-7.732 0-13.99999 6.268-14 14L8 170c-.00001 7.732 6.268 14 14 14h21.0001c2.2091 0 4 1.791 4 4s-1.7909 4-4 4H22c-12.15028 0-22.00001669-9.85-22-22L.00020242 22zM145 4c0-2.20914 1.791-4 4-4h21c12.15 0 22 9.84972 22 22v148c0 12.15-9.85 22-22 22h-21c-2.209 0-4-1.791-4-4s1.791-4 4-4h21c7.732 0 14-6.268 14-14V22c0-7.732-6.268-14-14-14h-21c-2.209 0-4-1.79086-4-4z"/>
</svg>