<svg xmlns="http://www.w3.org/2000/svg" width="192" height="192" fill="#000" viewBox="0 0 192 192">
  <path fill-rule="evenodd" d="M92.1154 34.7276c.6706.8036 1.3049 1.6388 1.9003 2.503 1.2534 1.8192.7947 4.31-1.0245 5.5633-1.8192 1.2534-4.31.7947-5.5633-1.0245-1.0589-1.537-2.2793-2.9551-3.6368-4.2294C79.1367 33.1706 72.8846 30.5 66 30.5c-9.6245 0-18.0329 5.2275-22.5324 13.0172-.7382 1.278-2.1201 2.0456-3.5951 1.9971-.2895-.0095-.5804-.0143-.8725-.0143-14.3594 0-26 11.6406-26 26 0 3.0669.5293 6.0014 1.4982 8.7227.9472 2.6606 2.3171 5.1239 4.0307 7.3086 1.3634 1.7382 1.0596 4.2526-.6786 5.616-1.7382 1.3634-4.2526 1.0596-5.616-.6786-.6824-.8699-1.3234-1.7742-1.92-2.7099C8.82743 93.0317 8 96.6672 8 100.5c0 14.359 11.6406 26 26 26 7.756 0 14.7162-3.392 19.4855-8.786 3.6987-9.108 11.2317-16.249 20.5968-19.4223-1.3383-2.9914-2.083-6.3068-2.083-9.7917 0-1.2518.0962-2.4828.2818-3.6856-6.3393-1.5493-11.6872-5.615-14.9306-11.0768-3.802 2.8402-8.4777 4.583-13.5512 4.7493-.5188 1.574-.8 3.2581-.8 5.0131 0 5.4088 2.6801 10.192 6.8027 13.0944 1.8064 1.2717 2.2398 3.7666.9681 5.5736-1.2717 1.806-3.767 2.24-5.5734.968-6.1596-4.3365-10.1974-11.5145-10.1974-19.636 0-2.1068.2724-4.1533.7843-6.1045-4.6623-1.4682-8.7068-4.319-11.6535-8.0634-1.3662-1.7361-1.0664-4.2509.6696-5.6171 1.7361-1.3662 4.2509-1.0663 5.6171.6697 2.654 3.3724 6.6215 5.643 11.1189 6.0495.4811.0435.9692.0658 1.4636.0658 4.4485 0 8.472-1.812 11.3761-4.7488-.2473-1.3819-.3761-2.8029-.3761-4.2512 0-5.5936 1.9186-10.7503 5.1308-14.8321 2.2985-2.9207 5.2623-5.296 8.668-6.8972 1.9992-.9399 4.3819-.0812 5.3218 1.918.9399 1.9992.0812 4.3819-1.918 5.3218-2.2673 1.0659-4.2478 2.6514-5.7851 4.6048-2.142 2.7219-3.4175 6.1488-3.4175 9.8847 0 1.4912.203 2.9286.5804 4.2891 1.5975 5.7586 6.3379 10.2086 12.2493 11.397.9407-1.7572 2.093-3.3824 3.4221-4.8418C80.3026 55.525 94.628 42.5 111.999 42.5c18.778 0 34 15.2223 34 34 0 .8209-.029 1.6355-.086 2.4428 5.773 4.1147 9.654 10.7299 10.053 18.2722 5.955 1.2409 11.339 4.039 15.701 7.943 1.646 1.474 1.786 4.002.313 5.649-1.473 1.646-4.002 1.786-5.648.312-4.021-3.598-9.158-5.959-14.826-6.5-.824-.079-1.66-.119-2.507-.119-10.986 0-20.39 6.815-24.196 16.463-.409 1.036-1.231 1.855-2.269 2.259-1.037.405-2.197.358-3.199-.128-3.421-1.661-7.264-2.594-11.336-2.594-10.9873 0-20.3926 6.817-24.1977 16.467-.8104 2.055-3.1333 3.065-5.1885 2.254-2.0551-.81-3.0642-3.133-2.2538-5.188 4.9696-12.603 17.2573-21.533 31.64-21.533 3.874 0 7.601.649 11.077 1.846 5.579-10.314 16.34-17.424 28.802-17.8279-.64-5.1832-3.759-9.6028-8.148-12.0308-1.462-.8088-2.268-2.4411-2.02-4.0935.19-1.268.289-2.5681.289-3.8938 0-14.3594-11.64-26-26-26-13.665 0-24.8713 10.5452-25.9194 23.9391-.0761.9726-.505 1.8838-1.206 2.5623-1.6944 1.6398-3.0249 3.6471-3.8641 5.8881-.6519 1.7406-1.0102 3.6291-1.0102 5.6105 0 2.9651.8035 5.7355 2.2059 8.1134.9222-.0751 1.8541-.1134 2.7941-.1134h18.9997c5.523 0 10-4.4771 10-10 0-5.5228-4.477-10-10-10-2.209 0-3.9997-1.7909-3.9997-4 0-2.2091 1.7907-4 3.9997-4 9.941 0 18 8.0589 18 18s-8.059 18-18 18H84.9993c-1.3953 0-2.7624.11-4.0936.32-12.1225 1.915-21.4591 12.216-21.8901 24.772-.0104.301-.0156.604-.0156.908 0 14.359 11.6406 26 26 26 12.1017 0 22.281-8.272 25.175-19.476.293-1.133 1.067-2.081 2.119-2.594 1.052-.514 2.276-.54 3.349-.074 3.168 1.378 6.668 2.144 10.357 2.144 7.248 0 13.797-2.96 18.517-7.748 1.891-1.919 3.486-4.129 4.711-6.554.995-1.973 3.401-2.764 5.373-1.769 1.972.996 2.764 3.401 1.768 5.373-.601 1.191-1.27 2.342-2.001 3.447 1.185.165 2.398.251 3.631.251 13.462 0 24.535-10.231 25.867-23.342.089-.874.134-1.761.134-2.658 0-3.6073-.735-7.043-2.062-10.1656-3.795-8.9239-12.434-15.2914-22.616-15.8014-.438-.0219-.878-.033-1.322-.033-2.209 0-4-1.7909-4-4 0-2.2091 1.791-4 4-4 .678 0 1.352.0199 2.021.0592 2.287.1341 4.512.4939 6.655 1.0579.213-1.3394.324-2.7144.324-4.1171 0-14.3594-11.641-26-26-26-2.202 0-4.334.2728-6.368.7844-1.614.4062-3.311-.2299-4.261-1.5971C125.669 32.9182 117.85 28.5 109 28.5c-6.445 0-12.3393 2.3414-16.8846 6.2276zm97.2126 55.5381c-3.004-7.1029-8.353-12.9724-15.077-16.6379.491-2.3011.749-4.6861.749-7.1278 0-18.7777-15.222-34-34-34-1.934 0-3.832.1618-5.682.4733C129.088 25.3654 119.613 20.5 109 20.5c-8.735 0-16.7028 3.2974-22.7216 8.707C80.6179 24.9956 73.5973 22.5 66 22.5c-11.7546 0-22.1115 5.9668-28.2136 15.0213C19.5708 38.1603 5 53.1286 5 71.5c0 3.2188.44839 6.3386 1.28786 9.2973C2.32994 86.3556 0 93.1601 0 100.5c0 18.778 15.2223 34 34 34 6.1945 0 12.0031-1.658 17.0044-4.552-.0029.184-.0044.368-.0044.552 0 18.778 15.2223 34 34 34 9.4869 0 18.063-3.884 24.228-10.148 6.79 10.325 18.481 17.148 31.772 17.148 20.987 0 38-17.013 38-38 0-1.063-.044-2.116-.13-3.158 7.99-6.221 13.13-15.931 13.13-26.842 0-4.6944-.951-9.1666-2.672-13.2343zM170.966 134.94c-3.996 1.65-8.375 2.56-12.967 2.56-3.343 0-6.579-.484-9.638-1.387-5.975 5.22-13.801 8.387-22.361 8.387-3.272 0-6.441-.463-9.441-1.329-.601 1.495-1.306 2.939-2.104 4.32C119.487 157.018 129.49 163.5 141 163.5c16.086 0 29.215-12.66 29.966-28.56z"/>
</svg>