<svg xmlns="http://www.w3.org/2000/svg" width="192" height="192" fill="#000" viewBox="0 0 192 192">
  <path fill-rule="evenodd" d="M52.0003 16c0-6.62742 5.3726-12 12-12H128c6.628 0 12 5.37258 12 12v20h42c5.523 0 10 4.4772 10 10v29.1723c.001.032.001.064 0 .096V178c0 5.523-4.477 10-10 10H10.0003C4.47744 188 .00028986 183.523.00028986 178V75.2686c-.00038624-.0322-.00038672-.0643 0-.0965V46c0-5.5228 4.47715014-10 10.00001014-10h42V16zm8 20H132V16c0-2.2091-1.791-4-4-4H64.0003c-2.2091 0-4 1.7909-4 4v20zm-50 8c-1.10458 0-2.00001.8954-2.00001 2v27.1644C28.6653 87.7097 53.0482 97.2682 79.429 100.112c5.4425.587 10.9712.888 16.5713.888 5.5997 0 11.1287-.301 16.5717-.888 26.38-2.8438 50.763-12.4023 71.428-26.9476V46c0-1.1046-.895-2-2-2H10.0003zM184 82.8305c-19.767 12.9209-42.524 21.6175-67 24.8105v12.209c0 6.075-4.925 11-11 11H86.0003c-6.0751 0-11-4.925-11-11v-12.209c-24.4756-3.193-47.2327-11.8896-67.00001-24.8105V178c0 1.105.89543 2 2.00001 2H182c1.105 0 2-.895 2-2V82.8305zM83.0003 108.482v11.368c0 1.657 1.3431 3 3 3H106c1.657 0 3-1.343 3-3v-11.368c-4.289.343-8.624.518-12.9997.518-4.3754 0-8.7109-.175-13-.518z"/>
</svg>