<svg xmlns="http://www.w3.org/2000/svg" width="192" height="192" fill="#000" viewBox="0 0 192 192">
  <path fill-rule="evenodd" d="M16 180c-8.83656 0-16.0000021-7.163-16-16L.00001879 28C.00001995 19.1635 7.16346 12 16 12h160c8.837 0 16 7.1635 16 16v136c0 8.837-7.163 16-16 16H16zm-8-16l.00002-111.9999L184 52v112c0 4.418-3.582 8-8 8H16c-4.4183 0-8-3.582-8-8zM184 28v16H72V20h104c4.418 0 8 3.5817 8 8zM64 20v24l-55.99998.0001V28c0-4.4183 3.58168-8 7.99998-8h48z"/>
  <path d="M26 32.0001c0 2.2091-1.7909 4-4 4-2.2091 0-4-1.7909-4-4 0-2.2092 1.7909-4 4-4 2.2091 0 4 1.7908 4 4zM40 32.0001c0 2.2091-1.7909 4-4 4-2.2091 0-4-1.7909-4-4 0-2.2092 1.7909-4 4-4 2.2091 0 4 1.7908 4 4zM54 32.0001c0 2.2091-1.7909 4-4 4-2.2091 0-4-1.7909-4-4 0-2.2092 1.7909-4 4-4 2.2091 0 4 1.7908 4 4z"/>
  <path fill-rule="evenodd" d="M96 79.25c-18.0873 0-32.75 14.6627-32.75 32.75 0 18.087 14.6627 32.75 32.75 32.75 18.087 0 32.75-14.663 32.75-32.75 0-18.0873-14.663-32.75-32.75-32.75zM81.5566 91.8992C85.6213 88.9734 90.6094 87.25 96 87.25c13.669 0 24.75 11.081 24.75 24.75 0 5.391-1.723 10.379-4.649 14.443L81.5566 91.8992zm-5.6569 5.6567C72.9735 101.621 71.25 106.609 71.25 112c0 13.669 11.081 24.75 24.75 24.75 5.391 0 10.379-1.724 14.444-4.65L75.8997 97.5559z"/>
</svg>