<svg xmlns="http://www.w3.org/2000/svg" width="192" height="192" fill="#000" viewBox="0 0 192 192">
  <path fill-rule="evenodd" d="M16 180c-8.83656 0-16.0000021-7.163-16-16L.00001879 28C.00001995 19.1635 7.16346 12 16 12h160c8.837 0 16 7.1635 16 16v136c0 8.837-7.163 16-16 16H16zm-8-16l.00002-111.9999L184 52v112c0 4.418-3.582 8-8 8H16c-4.4183 0-8-3.582-8-8zM184 28v16H72V20h104c4.418 0 8 3.5817 8 8zM64 20v24l-55.99998.0001V28c0-4.4183 3.58168-8 7.99998-8h48z"/>
  <path d="M26 32.0001c0 2.2091-1.7909 4-4 4-2.2091 0-4-1.7909-4-4 0-2.2092 1.7909-4 4-4 2.2091 0 4 1.7908 4 4zM40 32.0001c0 2.2091-1.7909 4-4 4-2.2091 0-4-1.7909-4-4 0-2.2092 1.7909-4 4-4 2.2091 0 4 1.7908 4 4zM54 32.0001c0 2.2091-1.7909 4-4 4-2.2091 0-4-1.7909-4-4 0-2.2092 1.7909-4 4-4 2.2091 0 4 1.7908 4 4z"/>
  <path fill-rule="evenodd" d="M81.6566 88.6966c-7.1509 0-12.96 5.7778-12.96 12.8724 0 4.363.9491 7.679 4.6855 12.292 3.9059 4.823 10.675 10.828 22.3252 20.269 11.6517-9.441 18.4217-15.445 22.3277-20.268 3.734-4.612 4.684-7.928 4.684-12.293 0-7.0658-5.78-12.8724-12.96-12.8724-2.449 0-4.326.4461-5.971 1.2444-1.68.8152-3.325 2.0978-5.1742 4.0529-.7555.7987-1.8065 1.2513-2.9059 1.2513-1.0995 0-2.1505-.4526-2.906-1.2513-1.8493-1.9551-3.4939-3.2377-5.1741-4.0529-1.6451-.7983-3.522-1.2444-5.9712-1.2444zm-20.96 12.8724c0-11.5658 9.4439-20.8724 20.96-20.8724 3.5035 0 6.5982.6566 9.4635 2.0469 1.6563.8036 3.1669 1.8191 4.5878 3.0019 1.4208-1.1828 2.9314-2.1983 4.5881-3.0019 2.865-1.3903 5.96-2.0469 9.463-2.0469 11.571 0 20.96 9.3608 20.96 20.8724 0 6.266-1.623 11.346-6.467 17.327-4.591 5.67-12.204 12.308-24.13 21.952l-.9404.819c-1.9916 1.733-4.9558 1.733-6.9475 0l-.9229-.803c-11.9359-9.654-19.5532-16.297-24.146-21.968-4.8459-5.983-6.4686-11.062-6.4686-17.327z"/>
</svg>