<svg xmlns="http://www.w3.org/2000/svg" width="192" height="192" fill="#000" viewBox="0 0 192 192">
  <path fill-rule="evenodd" d="M16 180c-8.83656 0-16.0000021-7.163-16-16L.00001879 28C.00001995 19.1635 7.16346 12 16 12h160c8.837 0 16 7.1635 16 16v136c0 8.837-7.163 16-16 16H16zm-8-16l.00002-111.9999L184 52v112c0 4.418-3.582 8-8 8H16c-4.4183 0-8-3.582-8-8zM184 28v16H72V20h104c4.418 0 8 3.5817 8 8zM64 20v24l-55.99998.0001V28c0-4.4183 3.58168-8 7.99998-8h48z"/>
  <path d="M26 32.0001c0 2.2091-1.7909 4-4 4-2.2091 0-4-1.7909-4-4 0-2.2092 1.7909-4 4-4 2.2091 0 4 1.7908 4 4zM40 32.0001c0 2.2091-1.7909 4-4 4-2.2091 0-4-1.7909-4-4 0-2.2092 1.7909-4 4-4 2.2091 0 4 1.7908 4 4zM54 32.0001c0 2.2091-1.7909 4-4 4-2.2091 0-4-1.7909-4-4 0-2.2092 1.7909-4 4-4 2.2091 0 4 1.7908 4 4z"/>
  <path fill-rule="evenodd" d="M103.092 91.6778c-7.5699-7.5704-19.8439-7.5704-27.4142 0-7.5704 7.5703-7.5704 19.8442 0 27.4142 7.5703 7.571 19.8443 7.571 27.4142 0 7.571-7.57 7.571-19.8439 0-27.4142zm-33.0711-5.6569c10.6946-10.6945 28.0338-10.6945 38.7281 0 9.734 9.7338 10.609 24.9721 2.624 35.6951l17.455 17.456c1.563 1.562 1.563 4.094 0 5.656-1.562 1.563-4.094 1.563-5.656 0l-17.456-17.455c-10.723 7.985-25.9613 7.11-35.6951-2.624-10.6945-10.694-10.6945-28.0335 0-38.7281z"/>
</svg>