<svg xmlns="http://www.w3.org/2000/svg" width="192" height="192" fill="#000" viewBox="0 0 192 192">
  <path fill-rule="evenodd" d="M16 180c-8.83656 0-16-7.163-15.9999979-16L.00001812 48.0122 0 48.0001l.00001812-.0122L.0000209 28C.00002204 19.1635 7.16347 12 16 12h160c8.837 0 16 7.1635 16 16v136c0 8.837-7.163 16-16 16H16zm-8-16l.00002-111.9999L184 52v112c0 4.418-3.582 8-8 8H16c-4.4183 0-8-3.582-8-8zM184 28v16H72V20h104c4.418 0 8 3.5817 8 8zM64 20v24l-55.99998.0001V28c0-4.4183 3.58168-8 7.99998-8h48z"/>
  <path d="M26 32.0001c0 2.2091-1.7909 4-4 4-2.2091 0-4-1.7909-4-4 0-2.2092 1.7909-4 4-4 2.2091 0 4 1.7908 4 4zM40 32.0001c0 2.2091-1.7909 4-4 4-2.2091 0-4-1.7909-4-4 0-2.2092 1.7909-4 4-4 2.2091 0 4 1.7908 4 4zM54 32.0001c0 2.2091-1.7909 4-4 4-2.2091 0-4-1.7909-4-4 0-2.2092 1.7909-4 4-4 2.2091 0 4 1.7908 4 4z"/>
</svg>