<svg xmlns="http://www.w3.org/2000/svg" width="192" height="192" fill="#000" viewBox="0 0 192 192">
  <path fill-rule="evenodd" d="M16 180c-8.83656 0-16.0000021-7.163-16-16L.00001879 28C.00001995 19.1635 7.16346 12 16 12h160c8.837 0 16 7.1635 16 16v136c0 8.837-7.163 16-16 16H16zm-8-16l.00002-111.9999L184 52v112c0 4.418-3.582 8-8 8H16c-4.4183 0-8-3.582-8-8zM184 28v16H72V20h104c4.418 0 8 3.5817 8 8zM64 20v24l-55.99998.0001V28c0-4.4183 3.58168-8 7.99998-8h48z"/>
  <path d="M26 32.0001c0 2.2091-1.7909 4-4 4-2.2091 0-4-1.7909-4-4 0-2.2092 1.7909-4 4-4 2.2091 0 4 1.7908 4 4zM40 32.0001c0 2.2091-1.7909 4-4 4-2.2091 0-4-1.7909-4-4 0-2.2092 1.7909-4 4-4 2.2091 0 4 1.7908 4 4zM54 32.0001c0 2.2091-1.7909 4-4 4-2.2091 0-4-1.7909-4-4 0-2.2092 1.7909-4 4-4 2.2091 0 4 1.7908 4 4z"/>
  <path fill-rule="evenodd" d="M96.0667 79.2565c1.5517 0 2.9633.8974 3.6219 2.3024l7.8884 16.8308 17.907 2.7393c1.481.227 2.711 1.263 3.187 2.684.476 1.421.118 2.988-.927 4.062l-13.089 13.433 3.061 18.792c.247 1.513-.392 3.033-1.645 3.914-1.253.882-2.899.971-4.24.229l-15.7643-8.727-15.7645 8.727c-1.3404.742-2.9869.653-4.2397-.229-1.2528-.881-1.8918-2.401-1.6455-3.914l3.061-18.792-13.0882-13.433c-1.0458-1.074-1.4039-2.641-.9278-4.062.4761-1.421 1.7064-2.457 3.1878-2.684l17.9063-2.7393 7.8887-16.8308c.6585-1.405 2.0702-2.3024 3.6219-2.3024zm0 13.4251l-4.5149 9.6324c-.9769 2.084-2.9285 3.547-5.2063 3.895l-10.7995 1.652 8.046 8.259c1.5291 1.569 2.2223 3.771 1.8702 5.932l-1.8244 11.201 9.0872-5.031c2.0793-1.151 4.6041-1.151 6.6834 0l9.0876 5.031-1.825-11.201c-.352-2.161.341-4.363 1.87-5.932l8.046-8.259-10.799-1.652c-2.278-.348-4.23-1.811-5.206-3.895l-4.5153-9.6324z"/>
</svg>