<svg xmlns="http://www.w3.org/2000/svg" width="192" height="192" fill="#000" viewBox="0 0 192 192">
  <path fill-rule="evenodd" d="M16 180c-8.83656 0-16.0000021-7.163-16-16L.00001879 28C.00001995 19.1635 7.16346 12 16 12h160c8.837 0 16 7.1635 16 16v136c0 8.837-7.163 16-16 16H16zm-8-16l.00002-111.9999L184 52v112c0 4.418-3.582 8-8 8H16c-4.4183 0-8-3.582-8-8zM184 28v16H72V20h104c4.418 0 8 3.5817 8 8zM64 20v24l-55.99998.0001V28c0-4.4183 3.58168-8 7.99998-8h48z"/>
  <path d="M26 32.0001c0 2.2091-1.7909 4-4 4-2.2091 0-4-1.7909-4-4 0-2.2092 1.7909-4 4-4 2.2091 0 4 1.7908 4 4zM40 32.0001c0 2.2091-1.7909 4-4 4-2.2091 0-4-1.7909-4-4 0-2.2092 1.7909-4 4-4 2.2091 0 4 1.7908 4 4zM54 32.0001c0 2.2091-1.7909 4-4 4-2.2091 0-4-1.7909-4-4 0-2.2092 1.7909-4 4-4 2.2091 0 4 1.7908 4 4zM98.635 81.9999c8.177 0 14.806 6.6289 14.806 14.8062 0 5.9229-3.53 11.2759-8.974 13.6089-2.714 1.164-4.4746 3.833-4.4746 6.787v5.23c0 2.209-1.7909 4-4 4-2.2091 0-4-1.791-4-4v-5.23c0-6.154 3.6674-11.716 9.3236-14.14 2.503-1.073 4.125-3.5333 4.125-6.2559 0-3.759-3.047-6.8062-6.806-6.8062h-6.4851c-3.0963 0-5.6063 2.51-5.6063 5.6063v1.601c0 2.2091-1.7908 3.9998-4 3.9998-2.2091 0-4-1.7907-4-3.9998v-1.601c0-7.5146 6.0918-13.6063 13.6063-13.6063h6.4851zM100.062 137c0-2.209-1.7909-4-4-4-2.2091 0-4 1.791-4 4v1c0 2.209 1.7909 4 4 4 2.2091 0 4-1.791 4-4v-1z"/>
</svg>