<svg xmlns="http://www.w3.org/2000/svg" width="192" height="192" fill="#000" viewBox="0 0 192 192">
  <path fill-rule="evenodd" d="M16 180c-8.83656 0-16.0000021-7.163-16-16L.00001879 28C.00001995 19.1635 7.16346 12 16 12h160c8.837 0 16 7.1635 16 16v136c0 8.837-7.163 16-16 16H16zm-8-16l.00002-111.9999L184 52v112c0 4.418-3.582 8-8 8H16c-4.4183 0-8-3.582-8-8zM184 28v16H72V20h104c4.418 0 8 3.5817 8 8zM64 20v24l-55.99998.0001V28c0-4.4183 3.58168-8 7.99998-8h48z"/>
  <path d="M26 32.0001c0 2.2091-1.7909 4-4 4-2.2091 0-4-1.7909-4-4 0-2.2092 1.7909-4 4-4 2.2091 0 4 1.7908 4 4zM40 32.0001c0 2.2091-1.7909 4-4 4-2.2091 0-4-1.7909-4-4 0-2.2092 1.7909-4 4-4 2.2091 0 4 1.7908 4 4zM54 32.0001c0 2.2091-1.7909 4-4 4-2.2091 0-4-1.7909-4-4 0-2.2092 1.7909-4 4-4 2.2091 0 4 1.7908 4 4z"/>
  <path fill-rule="evenodd" d="M95.5217 79.25c-9.3408 0-16.913 7.5722-16.913 16.913v12.759c-4.3335 1.81-7.3789 6.088-7.3789 11.078v12.75c0 6.627 5.3726 12 12 12h24.5842c6.627 0 12-5.373 12-12V120c0-4.99-3.046-9.268-7.379-11.078V96.163c0-9.3408-7.572-16.913-16.9133-16.913zM107.814 116H83.2298c-2.2091 0-4 1.791-4 4v12.75c0 2.209 1.7909 4 4 4h24.5842c2.209 0 4-1.791 4-4V120c0-2.209-1.791-4-4-4zm-3.379-8V96.163c0-4.9225-3.991-8.913-8.9133-8.913-4.9225 0-8.913 3.9905-8.913 8.913V108h17.8263z"/>
</svg>