<svg xmlns="http://www.w3.org/2000/svg" width="192" height="192" fill="#000" viewBox="0 0 192 192">
  <path fill-rule="evenodd" d="M16 180c-8.83656 0-16.0000021-7.163-16-16L.00001879 28C.00001995 19.1635 7.16346 12 16 12h160c8.837 0 16 7.1635 16 16v136c0 8.837-7.163 16-16 16H16zm-8-16l.00002-111.9999L184 52v112c0 4.418-3.582 8-8 8H16c-4.4183 0-8-3.582-8-8zM184 28v16H72V20h104c4.418 0 8 3.5817 8 8zM64 20v24l-55.99998.0001V28c0-4.4183 3.58168-8 7.99998-8h48z"/>
  <path d="M26 32.0001c0 2.2091-1.7909 4-4 4-2.2091 0-4-1.7909-4-4 0-2.2092 1.7909-4 4-4 2.2091 0 4 1.7908 4 4zM40 32.0001c0 2.2091-1.7909 4-4 4-2.2091 0-4-1.7909-4-4 0-2.2092 1.7909-4 4-4 2.2091 0 4 1.7908 4 4zM54 32.0001c0 2.2091-1.7909 4-4 4-2.2091 0-4-1.7909-4-4 0-2.2092 1.7909-4 4-4 2.2091 0 4 1.7908 4 4z"/>
  <path fill="#000" fill-rule="evenodd" d="M96 86c-9.4168 0-17.3714 6.2491-19.9165 14.811-.5243 1.764-2.1843 2.942-4.0224 2.856-.2748-.013-.5517-.02-.8303-.02-9.526 0-17.2308 7.7-17.2308 17.177C54 130.3 61.7048 138 71.2308 138h53.0772c7.571 0 13.692-6.12 13.692-13.647s-6.121-13.647-13.692-13.647c-.945 0-1.863.095-2.747.274-1.186.24-2.417-.069-3.348-.842-.931-.772-1.463-1.925-1.446-3.135.002-.099.002-.198.002-.297C116.769 95.28 107.48 86 96 86zm-26.5823 9.7111C73.743 85.3115 84.015 78 96 78c14.521 0 26.542 10.7389 28.492 24.707 11.886.099 21.508 9.743 21.508 21.646 0 11.965-9.722 21.647-21.692 21.647H71.2308C57.3059 146 46 134.738 46 120.824c0-13.306 10.3376-24.1858 23.4177-25.1129z"/>
</svg>