<svg xmlns="http://www.w3.org/2000/svg" width="192" height="192" fill="#000" viewBox="0 0 192 192">
  <path fill-rule="evenodd" d="M124.083 27.9167c-26.5554-26.55561-69.6106-26.55561-96.1663 0-26.55561 26.5557-26.55561 69.6109 0 96.1663 26.5557 26.556 69.6109 26.556 96.1663 0 26.556-26.5554 26.556-69.6106 0-96.1663zM22.2599 22.2599c29.6798-29.67986 77.8001-29.67986 107.4801 0 28.731 28.7311 29.65 74.7427 2.755 104.5791l58.333 58.333c1.563 1.562 1.563 4.094 0 5.656-1.562 1.563-4.094 1.563-5.656 0l-58.333-58.333c-29.8364 26.895-75.848 25.976-104.5791-2.755-29.67986-29.68-29.67986-77.8003 0-107.4801z"/>
  <path fill-rule="evenodd" d="M36 33c2.2091 0 4 1.7909 4 4 0 10.4457 4.4489 19.8524 11.5553 26.4285 2.4001-5.5654 6.6453-10.1484 11.9649-12.9786-3.6094-3.3506-5.868-8.1365-5.868-13.4499 0-2.2091 1.7908-4 4-4 2.2091 0 4 1.7909 4 4 0 5.7149 4.6329 10.3478 10.3478 10.3478 5.7149 0 10.3478-4.6329 10.3478-10.3478 0-2.2091 1.7909-4 4-4 2.2092 0 4 1.7909 4 4 0 5.3134-2.2586 10.0993-5.868 13.4499 5.3196 2.8302 9.5648 7.4132 11.9652 12.9786C107.551 56.8524 112 47.4457 112 37c0-2.2091 1.791-4 4-4s4 1.7909 4 4c0 14.3302-6.851 27.0604-17.455 35.0942.042.6152.064 1.2363.064 1.8623v6.2174H116c2.209 0 4 1.7909 4 4 0 2.2091-1.791 4-4 4h-13.391v4.2162c7.629 5.8009 13.31 14.0409 15.878 23.5689.575 2.133-.689 4.328-2.822 4.903-2.133.575-4.328-.688-4.903-2.821-1.655-6.141-4.897-11.638-9.264-16.019C98.2181 112.999 88.0435 121 76 121c-12.0439 0-22.2188-8.002-25.4987-18.979-4.3671 4.381-7.6101 9.879-9.2651 16.02-.5748 2.133-2.77 3.396-4.9031 2.821-2.133-.575-3.3962-2.77-2.8213-4.903 2.568-9.529 8.2498-17.769 15.8795-23.57v-4.2151H36c-2.2091 0-4-1.7909-4-4 0-2.2091 1.7909-4 4-4h13.3913v-6.2174c0-.626.0216-1.2471.0642-1.8623C38.8506 64.0604 32 51.3302 32 37c0-2.2091 1.7909-4 4-4zm21.3913 43.8828v17.5085c0 8.9037 6.2538 16.3477 14.6087 18.1777V80.8206c-5.1808-.4668-10.1026-1.8317-14.6087-3.9378zM80 80.8206v31.7484c8.3188-1.822 14.5546-9.209 14.6083-18.0624-.0011-.0572-.001-.1145.0004-.1717V76.8828c-4.5061 2.1061-9.4279 3.471-14.6087 3.9378zM93.7432 68.331C91.3588 60.8034 84.3165 55.3478 76 55.3478c-8.3165 0-15.3588 5.4556-17.7432 12.9832C63.4935 71.303 69.5485 73 76 73c6.4515 0 12.5065-1.697 17.7432-4.669z"/>
</svg>