<svg xmlns="http://www.w3.org/2000/svg" width="192" height="192" fill="#000" viewBox="0 0 192 192">
  <path fill-rule="evenodd" d="M67 4c0-2.20914-1.7909-4-4-4-2.2091 0-4 1.79086-4 4 0 13.7299 7.4784 25.7131 18.5841 32.0986-17.1067 5.9544-30.4372 19.9723-35.4402 37.5021C21.3714 57.5038 8 32.3134 8 4c0-2.20914-1.79086-4-4-4S0 1.79086 0 4c0 32.297 15.9488 60.8689 40.4003 78.2696C40.136 84.4762 40 86.7222 40 89v19.5H4c-2.20914 0-4 1.791-4 4s1.79086 4 4 4h36v17.517c-17.6862 12.722-30.87307 31.316-36.70106 52.942-.57484 2.133.68833 4.328 2.82137 4.903 2.13304.575 4.32819-.688 4.90309-2.821 4.8724-18.08 15.3671-33.865 29.4996-45.356C44.2687 170.977 67.6792 192 96 192c28.32 0 51.731-21.023 55.477-48.314 14.132 11.491 24.626 27.275 29.498 45.355.575 2.133 2.77 3.396 4.903 2.821 2.133-.575 3.397-2.77 2.822-4.903-5.828-21.625-19.014-40.22-36.7-52.941V116.5h36c2.209 0 4-1.791 4-4s-1.791-4-4-4h-36V89c0-2.2778-.136-4.5238-.4-6.7304C176.051 64.8689 192 36.297 192 4c0-2.20914-1.791-4-4-4s-4 1.79086-4 4c0 28.3134-13.371 53.5038-34.144 69.6007-5.003-17.5298-18.333-31.5477-35.44-37.5021C125.522 29.7131 133 17.7299 133 4c0-2.20914-1.791-4-4-4s-4 1.79086-4 4c0 16.0163-12.984 29-29 29-16.0163 0-29-12.9837-29-29zm77 131.999c0-16.241.572-32.593-.034-48.8224-13.03 7.5305-27.995 12.087-43.966 12.7416v83.9178c24.583-2.028 43.913-22.581 44-47.666-.001-.057-.001-.114 0-.171zM48.034 87.1766C61.0643 94.7071 76.029 99.2636 92 99.9182v83.9178C67.3619 181.803 48 161.163 48 136c0-16.241-.5722-32.594.034-48.8234zM96 92c17.219 0 33.283-4.9456 46.849-13.4939C138.063 57.0435 118.905 41 96 41c-22.9051 0-42.063 16.0435-46.8494 37.5061C62.7166 87.0544 78.7808 92 96 92z"/>
</svg>