<svg xmlns="http://www.w3.org/2000/svg" width="192" height="192" fill="#000" viewBox="0 0 192 192">
  <path fill-rule="evenodd" d="M95.6723.0134429a4.00092396 4.00092396 0 01.6554 0L152.802 4.65518C164.215 5.59324 173 15.1297 173 26.5812V58h9c5.523 0 10 4.4771 10 10v28c0 5.523-4.477 10-10 10h-9v54c0 5.523-4.477 10-10 10v12c0 5.523-4.477 10-10 10h-19c-5.523 0-10-4.477-10-10v-12H68v12c0 5.523-4.4772 10-10 10H39c-5.5228 0-10-4.477-10-10v-12c-5.5228 0-10-4.477-10-10v-54h-9c-5.52285 0-10-4.477-10-10V68c0-5.5228 4.47715-10 10-10h9V26.5812c0-11.4515 8.7848-20.98796 20.1979-21.92602L95.6723.0134429zM27 42v56h138V42H27zm138-8H27v-7.4188c0-7.2873 5.5903-13.356 12.8532-13.9529L96 8.01349l56.147 4.61481C159.41 13.2252 165 19.2939 165 26.5812V34zm8 64h9c1.105 0 2-.8954 2-2V68c0-1.1046-.895-2-2-2h-9v32zm-8 8H27v54c0 1.105.8954 2 2 2h134c1.105 0 2-.895 2-2v-54zM19 98V66h-9c-1.10457 0-2 .8954-2 2v28c0 1.1046.89543 2 2 2h9zm18 72v12c0 1.105.8954 2 2 2h19c1.1046 0 2-.895 2-2v-12H37zm95 0v12c0 1.105.895 2 2 2h19c1.105 0 2-.895 2-2v-12h-23zM74 21c0-2.2091 1.7909-4 4-4h36c2.209 0 4 1.7909 4 4 0 2.2091-1.791 4-4 4H78c-2.2091 0-4-1.7909-4-4zM55 123c-6.0751 0-11 4.925-11 11s4.9249 11 11 11 11-4.925 11-11-4.9249-11-11-11zm-19 11c0-10.493 8.5066-19 19-19s19 8.507 19 19-8.5066 19-19 19-19-8.507-19-19zm101-11c-6.075 0-11 4.925-11 11s4.925 11 11 11 11-4.925 11-11-4.925-11-11-11zm-19 11c0-10.493 8.507-19 19-19s19 8.507 19 19-8.507 19-19 19-19-8.507-19-19zm-44 15c0-2.209 1.7909-4 4-4h36c2.209 0 4 1.791 4 4s-1.791 4-4 4H78c-2.2091 0-4-1.791-4-4z"/>
</svg>