<svg xmlns="http://www.w3.org/2000/svg" width="192" height="192" fill="#000" viewBox="0 0 192 192">
  <path d="M131 88c0 3.3137-2.686 6-6 6s-6-2.6863-6-6 2.686-6 6-6 6 2.6863 6 6zM42 39c0 4.4183-3.5817 8-8 8s-8-3.5817-8-8 3.5817-8 8-8 8 3.5817 8 8z"/>
  <path fill-rule="evenodd" d="M16 8c-1.1046 0-2 .89543-2 2v172c0 1.105.8954 2 2 2h76v-57c0-2.209 1.7909-4 4-4h42v-10h-28c-2.209 0-4-1.791-4-4V67c0-2.2091 1.791-4 4-4h28V10c0-1.10457-.895-1.99999-2-1.99999L16 8zm130 55V10c0-5.52284-4.477-9.99999452-10-9.99999475L16 0c-5.5228-4.8e-7-9.99999 4.47715-9.99999 10L6 182c0 5.523 4.4772 10 10 10h172c2.209 0 4-1.791 4-4v-61c0-1.061-.421-2.078-1.172-2.828-.75-.751-1.767-1.172-2.828-1.172h-42v-10h28c2.209 0 4-1.791 4-4V67c0-1.0609-.421-2.0783-1.172-2.8284C176.078 63.4214 175.061 63 174 63h-28zm24 42V71h-56v34h56zm-28 26h-37.746l8.684 11h58.124l8.684-11H142zm42 7.522l-7.86 9.957c-.759.96-1.916 1.521-3.14 1.521h-62c-1.224 0-2.381-.561-3.14-1.521l-7.86-9.957V184h84v-45.478zM86 31c0-2.2091 1.7909-4 4-4h36c2.209 0 4 1.7909 4 4 0 2.2091-1.791 4-4 4H90c-2.2091 0-4-1.7909-4-4zm15 16c0-2.2091 1.791-4 4-4h21c2.209 0 4 1.7909 4 4 0 2.2091-1.791 4-4 4h-21c-2.209 0-4-1.7909-4-4zm35 41c0-2.2091 1.791-4 4-4h22c2.209 0 4 1.7909 4 4 0 2.2091-1.791 4-4 4h-22c-2.209 0-4-1.7909-4-4z"/>
</svg>