<svg xmlns="http://www.w3.org/2000/svg" width="192" height="192" fill="#000" viewBox="0 0 192 192">
  <path fill-rule="evenodd" d="M23 10.196C23 4.40425 27.8512 0 33.4688 0H158.531C164.149 0 169 4.40425 169 10.196V182c0 5.523-4.477 10-10 10H33c-5.5228 0-10-4.477-10-10V10.196zM33.4688 8C31.9411 8 31 9.14383 31 10.196V182c0 1.105.8954 2 2 2h126c1.105 0 2-.895 2-2V10.196C161 9.14384 160.059 8 158.531 8H33.4688z"/>
  <path d="M69 81c0 4.4183-3.5817 8-8 8s-8-3.5817-8-8 3.5817-8 8-8 8 3.5817 8 8zM69 116c0 4.418-3.5817 8-8 8s-8-3.582-8-8 3.5817-8 8-8 8 3.582 8 8zM69 151c0 4.418-3.5817 8-8 8s-8-3.582-8-8 3.5817-8 8-8 8 3.582 8 8zM104 81c0 4.4183-3.582 8-8 8-4.4183 0-8-3.5817-8-8s3.5817-8 8-8c4.418 0 8 3.5817 8 8zM104 116c0 4.418-3.582 8-8 8-4.4183 0-8-3.582-8-8s3.5817-8 8-8c4.418 0 8 3.582 8 8zM104 151c0 4.418-3.582 8-8 8-4.4183 0-8-3.582-8-8s3.5817-8 8-8c4.418 0 8 3.582 8 8zM139 81c0 4.4183-3.582 8-8 8s-8-3.5817-8-8 3.582-8 8-8 8 3.5817 8 8zM139 116c0 4.418-3.582 8-8 8s-8-3.582-8-8 3.582-8 8-8 8 3.582 8 8zM139 151c0 4.418-3.582 8-8 8s-8-3.582-8-8 3.582-8 8-8 8 3.582 8 8z"/>
  <path fill-rule="evenodd" d="M42 23c0-2.2091 1.7909-4 4-4h100c2.209 0 4 1.7909 4 4v31c0 2.2091-1.791 4-4 4H46c-2.2091 0-4-1.7909-4-4V23zm8 4v23h92V27H50z"/>
</svg>