<svg xmlns="http://www.w3.org/2000/svg" width="192" height="192" fill="#000" viewBox="0 0 192 192">
  <path fill-rule="evenodd" d="M42 0c2.2092 0 4 1.79086 4 4v14h100V4c0-2.20914 1.791-4 4-4s4 1.79086 4 4v14h26c6.627 0 12 5.3726 12 12v150c0 6.627-5.373 12-12 12H12C5.37258 192-4.8e-7 186.627 0 180L.00001311 30C.0000136 23.3726 5.3726 18 12 18h26V4c0-2.20914 1.7909-4 4-4zM12 26c-2.20912 0-3.99999 1.7909-3.99999 4v21H184V30c0-2.2091-1.791-4-4-4H12zm172 33H8.00001L8 180c0 2.209 1.79086 4 4 4h168c2.209 0 4-1.791 4-4V59zM78.6087 105.163c0-9.3408 7.5722-16.913 16.913-16.913 9.3413 0 16.9133 7.5722 16.9133 16.913v12.759c4.333 1.81 7.379 6.088 7.379 11.078v12.75c0 6.627-5.373 12-12 12H83.2298c-6.6274 0-12-5.373-12-12V129c0-4.99 3.0454-9.268 7.3789-11.078v-12.759zm8 11.837h17.8263v-11.837c0-4.922-3.991-8.913-8.9133-8.913-4.9225 0-8.913 3.991-8.913 8.913V117zm-3.3789 8c-2.2091 0-4 1.791-4 4v12.75c0 2.209 1.7909 4 4 4h24.5842c2.209 0 4-1.791 4-4V129c0-2.209-1.791-4-4-4H83.2298z"/>
</svg>