<svg xmlns="http://www.w3.org/2000/svg" width="192" height="192" fill="#000" viewBox="0 0 192 192">
  <path fill-rule="evenodd" d="M42 0c2.2092 0 4 1.79086 4 4v14h100V4c0-2.20914 1.791-4 4-4s4 1.79086 4 4v14h26c6.627 0 12 5.3726 12 12v150c0 6.627-5.373 12-12 12H12C5.37258 192-4.8e-7 186.627 0 180L.00001311 30C.0000136 23.3726 5.3726 18 12 18h26V4c0-2.20914 1.7909-4 4-4zM12 26c-2.20912 0-3.99999 1.7909-3.99999 4v21H184V30c0-2.2091-1.791-4-4-4H12zm172 33H8.00001L8 180c0 2.209 1.79086 4 4 4h168c2.209 0 4-1.791 4-4V59zM96.0667 88.2565c1.5517 0 2.9634.8974 3.6219 2.3024l7.8884 16.8311 17.907 2.739c1.481.227 2.711 1.263 3.187 2.684.476 1.421.118 2.988-.927 4.062l-13.089 13.433 3.061 18.792c.247 1.513-.392 3.033-1.645 3.914-1.253.882-2.899.971-4.24.229l-15.7643-8.727-15.7645 8.727c-1.3404.742-2.9869.653-4.2397-.229-1.2528-.881-1.8918-2.401-1.6455-3.914l3.061-18.792-13.0882-13.433c-1.0458-1.074-1.4039-2.641-.9278-4.062.4761-1.421 1.7065-2.457 3.1878-2.684l17.9063-2.739 7.8887-16.8311c.6585-1.405 2.0702-2.3024 3.6219-2.3024zm0 13.4255l-4.5149 9.632c-.9769 2.084-2.9285 3.547-5.2063 3.895l-10.7995 1.652 8.046 8.259c1.5292 1.569 2.2223 3.771 1.8702 5.932l-1.8244 11.201 9.0872-5.031c2.0793-1.151 4.6041-1.151 6.6834 0l9.0876 5.031-1.825-11.201c-.352-2.161.341-4.363 1.87-5.932l8.046-8.259-10.799-1.652c-2.278-.348-4.23-1.811-5.206-3.895l-4.5153-9.632z"/>
</svg>