<svg xmlns="http://www.w3.org/2000/svg" width="192" height="192" fill="#000" viewBox="0 0 192 192">
  <path fill-rule="evenodd" d="M42 0c2.2092 0 4 1.79086 4 4v14h100V4c0-2.20914 1.791-4 4-4s4 1.79086 4 4v14h26c6.627 0 12 5.3726 12 12v150c0 6.627-5.373 12-12 12H12C5.37258 192-4.8e-7 186.627 0 180L.00001311 30C.0000136 23.3726 5.3726 18 12 18h26V4c0-2.20914 1.7909-4 4-4zM12 26c-2.20912 0-3.99999 1.7909-3.99999 4v21H184V30c0-2.2091-1.791-4-4-4H12zm172 33H8.00001L8 180c0 2.209 1.79086 4 4 4h168c2.209 0 4-1.791 4-4V59zm-55.801 28.659c1.846 1.2147 2.357 3.6953 1.142 5.5405l-39.5 59.9995c-.6833 1.038-1.8103 1.7-3.0497 1.79-1.2394.091-2.4505-.4-3.2773-1.328l-20.5-23c-1.4699-1.649-1.3246-4.177.3245-5.647 1.6492-1.47 4.1777-1.325 5.6476.325l17.0358 19.113 36.6371-55.6515c1.215-1.8452 3.695-2.3562 5.54-1.1415z"/>
</svg>