<svg xmlns="http://www.w3.org/2000/svg" width="192" height="192" fill="#000" viewBox="0 0 192 192">
  <path fill-rule="evenodd" d="M42 0c2.2092 0 4 1.79086 4 4v14h100V4c0-2.20914 1.791-4 4-4s4 1.79086 4 4v14h26c6.627 0 12 5.3726 12 12v150c0 6.627-5.373 12-12 12H12C5.37258 192-4.8e-7 186.627 0 180L.00001311 30C.0000136 23.3726 5.3726 18 12 18h26V4c0-2.20914 1.7909-4 4-4zM12 26c-2.20912 0-3.99999 1.7909-3.99999 4v21H184V30c0-2.2091-1.791-4-4-4H12zm172 33H8.00001L8 180c0 2.209 1.79086 4 4 4h168c2.209 0 4-1.791 4-4V59zM75.8997 106.556C72.9736 110.621 71.25 115.609 71.25 121c0 13.669 11.081 24.75 24.75 24.75 5.391 0 10.379-1.724 14.444-4.65l-34.5443-34.544zm5.6569-5.657l34.5444 34.544c2.926-4.064 4.649-9.052 4.649-14.443 0-13.669-11.081-24.75-24.75-24.75-5.3906 0-10.3787 1.7234-14.4434 4.649zM63.25 121c0-18.087 14.6627-32.75 32.75-32.75 18.087 0 32.75 14.663 32.75 32.75S114.087 153.75 96 153.75c-18.0873 0-32.75-14.663-32.75-32.75z"/>
</svg>