<svg xmlns="http://www.w3.org/2000/svg" width="192" height="192" fill="#000" viewBox="0 0 192 192">
  <path fill-rule="evenodd" d="M42 0c2.2092 0 4 1.79086 4 4v14h100V4c0-2.20914 1.791-4 4-4s4 1.79086 4 4v14h26c6.627 0 12 5.3726 12 12v150c0 6.627-5.373 12-12 12H12C5.37258 192-4.8e-7 186.627 0 180L.00001311 30C.0000136 23.3726 5.3726 18 12 18h26V4c0-2.20914 1.7909-4 4-4zM12 26c-2.20912 0-3.99999 1.7909-3.99999 4v21H184V30c0-2.2091-1.791-4-4-4H12zm172 33H8.00001L8 180c0 2.209 1.79086 4 4 4h168c2.209 0 4-1.791 4-4V59zM96 95c-9.4168 0-17.3714 6.249-19.9165 14.811-.5243 1.764-2.1843 2.942-4.0224 2.856-.2749-.013-.5517-.02-.8303-.02-9.526 0-17.2308 7.7-17.2308 17.177C54 139.3 61.7048 147 71.2308 147h53.0772c7.571 0 13.692-6.12 13.692-13.647s-6.121-13.647-13.692-13.647c-.945 0-1.863.095-2.747.274-1.186.24-2.417-.069-3.348-.842-.931-.772-1.463-1.925-1.446-3.135.001-.035.001-.071.001-.106.001-.064.001-.127.001-.191C116.769 104.28 107.48 95 96 95zm-26.5823 9.711C73.743 94.3115 84.015 87 96 87c14.521 0 26.542 10.7389 28.492 24.707 11.886.099 21.508 9.743 21.508 21.646 0 11.965-9.722 21.647-21.692 21.647H71.2308C57.3059 155 46 143.738 46 129.824c0-13.306 10.3376-24.186 23.4177-25.113z"/>
</svg>