<svg xmlns="http://www.w3.org/2000/svg" width="192" height="192" fill="#000" viewBox="0 0 192 192">
  <path fill-rule="evenodd" d="M42 0c2.2092 0 4 1.79086 4 4v14h100V4c0-2.20914 1.791-4 4-4s4 1.79086 4 4v14h26c6.627 0 12 5.3726 12 12v150c0 6.627-5.373 12-12 12H12C5.37258 192-4.8e-7 186.627 0 180L.00001311 30C.0000136 23.3726 5.3726 18 12 18h26V4c0-2.20914 1.7909-4 4-4zM12 26c-2.20912 0-3.99999 1.7909-3.99999 4v21H184V30c0-2.2091-1.791-4-4-4H12zm172 33H8.00001L8 180c0 2.209 1.79086 4 4 4h168c2.209 0 4-1.791 4-4V59zM96 91c2.2091 0 4 1.7908 4 4v36c0 2.209-1.7909 4-4 4-2.2091 0-4-1.791-4-4V95c0-2.2092 1.7909-4 4-4zm0 51c2.2091 0 4 1.791 4 4v1c0 2.209-1.7909 4-4 4-2.2091 0-4-1.791-4-4v-1c0-2.209 1.7909-4 4-4z"/>
</svg>