<svg xmlns="http://www.w3.org/2000/svg" width="192" height="192" fill="#000" viewBox="0 0 192 192">
  <path fill-rule="evenodd" d="M42 0c2.2092 0 4 1.79086 4 4v14h100V4c0-2.20914 1.791-4 4-4s4 1.79086 4 4v14h26c6.627 0 12 5.3726 12 12v150c0 6.627-5.373 12-12 12H12C5.37258 192-4.8e-7 186.627 0 180L.00001311 30C.0000136 23.3726 5.3726 18 12 18h26V4c0-2.20914 1.7909-4 4-4zM12 26c-2.20912 0-3.99999 1.7909-3.99999 4v21H184V30c0-2.2091-1.791-4-4-4H12zm172 33H8.00001L8 180c0 2.209 1.79086 4 4 4h168c2.209 0 4-1.791 4-4V59zM81.6566 97.6966c-7.1509 0-12.96 5.7774-12.96 12.8724 0 4.363.9491 7.679 4.6855 12.292 3.9059 4.823 10.675 10.828 22.3252 20.269 11.6517-9.441 18.4217-15.445 22.3277-20.268 3.734-4.612 4.684-7.928 4.684-12.293 0-7.066-5.78-12.8724-12.96-12.8724-2.449 0-4.326.4461-5.971 1.2444-1.68.8152-3.325 2.098-5.1742 4.053-.7555.799-1.8065 1.251-2.9059 1.251-1.0995 0-2.1505-.452-2.906-1.251-1.8493-1.955-3.4939-3.2378-5.1741-4.053-1.6451-.7983-3.522-1.2444-5.9712-1.2444zm-20.96 12.8724c0-11.5658 9.4439-20.8724 20.96-20.8724 3.5035 0 6.5982.6566 9.4635 2.0469 1.6563.8036 3.1669 1.8191 4.5878 3.0019 1.4208-1.1828 2.9314-2.1983 4.5881-3.0019 2.865-1.3903 5.96-2.0469 9.463-2.0469 11.571 0 20.96 9.3608 20.96 20.8724 0 6.266-1.623 11.346-6.467 17.327-4.591 5.67-12.204 12.308-24.13 21.952l-.9404.819c-1.9916 1.733-4.9558 1.733-6.9475 0l-.9228-.803c-11.936-9.654-19.5533-16.297-24.1461-21.968-4.8459-5.983-6.4686-11.062-6.4686-17.327z"/>
</svg>