<svg xmlns="http://www.w3.org/2000/svg" width="192" height="192" fill="#000" viewBox="0 0 192 192">
  <path fill-rule="evenodd" d="M42 0c2.2092 0 4 1.79086 4 4v14h100V4c0-2.20914 1.791-4 4-4s4 1.79086 4 4v14h26c6.627 0 12 5.3726 12 12v150c0 6.627-5.373 12-12 12H12C5.37258 192-4.8e-7 186.627 0 180L.00001311 30C.0000136 23.3726 5.3726 18 12 18h26V4c0-2.20914 1.7909-4 4-4zM12 26c-2.20912 0-3.99999 1.7909-3.99999 4v21H184V30c0-2.2091-1.791-4-4-4H12zm172 33H8.00001L8 180c0 2.209 1.79086 4 4 4h168c2.209 0 4-1.791 4-4V59zm-80.908 41.678c-7.5699-7.5706-19.8439-7.5706-27.4142 0-7.5704 7.57-7.5704 19.844 0 27.414 7.5703 7.571 19.8443 7.571 27.4142 0 7.571-7.57 7.571-19.844 0-27.414zm-33.0711-5.6571c10.6946-10.6945 28.0338-10.6945 38.7281 0 9.734 9.7341 10.609 24.9721 2.624 35.6951l17.455 17.456c1.563 1.562 1.563 4.094 0 5.656-1.562 1.563-4.094 1.563-5.656 0l-17.456-17.455c-10.723 7.985-25.9613 7.11-35.6951-2.624-10.6945-10.694-10.6945-28.034 0-38.7281z"/>
</svg>