<svg xmlns="http://www.w3.org/2000/svg" width="192" height="192" fill="#000" viewBox="0 0 192 192">
  <path d="M44 56c2.2091 0 4-1.7909 4-4 0-2.2091-1.7909-4-4-4-2.2091 0-4 1.7909-4 4 0 2.2091 1.7909 4 4 4z"/>
  <path fill-rule="evenodd" d="M47.6024 21.3764c6.4732-5.8259 16.3552-5.6338 22.597.4394l1.9231 1.8711c4.1511 4.0389 6.4634 9.4602 6.6469 15.0496 12.3002-1.8837 27.5646-4.4139 42.3946-6.9547C158.043 25.4634 192 53.7113 192 91.1915v45.6305C192 162.331 171.213 183 145.848 183 122.819 183 104 164.025 104 140.923c0-12.101 5.685-22.958 14.533-29.923H33c-2.2091 0-4-1.791-4-4s1.7909-4 4-4h37.6484l2.16-12.15c.1232-.6932-.0682-1.4808-.5107-2.0816-.4252-.5775-.9028-.7685-1.2977-.7685H32c-7.3958 0-13.4521-5.7347-13.9648-13H15c-8.2533 0-14.9497614-6.6656-14.99971867-14.9071L0 60.0449v-.045l.00028658-.048C.0339832 54.488 3.03723 49.4712 7.84363 46.862l15.91287-8.6384c8.583-4.6593 16.5868-10.3141 23.8459-16.8472zM184 107v29.822c0 21.08-17.195 38.178-38.152 38.178C127.284 175 112 159.653 112 140.923c0-16.47 13.301-29.923 29.574-29.923 13.964 0 25.397 11.573 25.397 25.73 0 11.669-9.469 21.214-20.978 21.214-9.25 0-16.895-7.716-16.895-17.133 0-6.911 5.707-12.615 12.527-12.615 2.209 0 4-1.791 4-4s-1.791-4-4-4c-11.277 0-20.527 9.325-20.527 20.615 0 13.734 11.126 25.133 24.895 25.133 16.008 0 28.978-13.209 28.978-29.214 0-18.474-14.915-33.73-33.397-33.73h-3.777l-11.588-19.8659c-.052-.0992-.109-.1959-.169-.29l-2.821-4.8364C122.472 76.7274 123.395 75 125 75h18c2.209 0 4-1.7909 4-4 0-2.2092-1.791-4-4-4h-18c-7.266 0-12.099 7.4926-9.223 14H100.6c1.134-3.053.593-6.2929-.8378-8.7751-1.6551-2.8713-4.7909-5.225-8.7622-5.225L74 67c-2.2091 0-4 1.7908-4 4 0 2.2091 1.7909 4 4 4l17-.0001c.6194 0 1.3406.3691 1.8313 1.2204.4924.8541.4626 1.6962.1442 2.2614L79.1624 103h-.3886l1.9111-10.7497c.9958-5.6015-2.9552-12.2504-9.6849-12.2504H32c-2.973 0-5.441-2.1622-5.917-5H28c.7139 0 1.842.4381 3.5504 1.399 3.9008 2.1943 8.9282 3.4621 14.0253 1.2776.072-.0308.1431-.0638.2131-.0988l6-3c1.976-.988 2.7769-3.3906 1.7889-5.3666-.9879-1.9759-3.3906-2.7768-5.3665-1.7888l-5.8817 2.9408c-2.0042.819-4.2984.5025-6.857-.9368-1.5847-.8913-4.4082-2.4264-7.4725-2.4264H15c-3.8597 0-6.98984-3.1238-6.99995-6.9812.00951-2.5565 1.41228-4.9055 3.66035-6.1258l15.9128-8.6384c9.1355-4.9593 17.6546-10.9781 25.3809-17.9318 3.342-3.0078 8.4439-2.9086 11.6665.2269l1.9231 1.8711c3.5219 3.4267 4.9646 8.419 3.8882 13.1412-.1089.4778-.2437.9533-.4049 1.4246l-2.8117 8.2187c-.715 2.0902.3997 4.3644 2.49 5.0794 2.0902.7151 4.3643-.3997 5.0794-2.4899l2.6562-7.7643c12.7788-1.9276 29.1981-4.6435 45.0741-7.3635C154.57 34.175 184 58.7333 184 91.1915V107zm-95.6554-4h40.1914l-8.167-14H96.232l-7.8874 14z"/>
</svg>