<svg xmlns="http://www.w3.org/2000/svg" width="192" height="192" fill="#000" viewBox="0 0 192 192">
  <path fill-rule="evenodd" d="M51.4373 14c-1.6409 0-3.1153 1.0021-3.7193 2.5278L21.4438 82.9049l19.4382 7.914c1.9159.78 3.9648 1.1811 6.0333 1.1811h98.1697c2.068 0 4.117-.4011 6.033-1.1811l19.438-7.914-26.274-66.3771C143.678 15.0021 142.204 14 140.563 14H51.4373zM173.501 90.3437l-19.366 7.8846c-2.874 1.17-5.948 1.7717-9.05 1.7717H46.9153c-3.1028 0-6.1762-.6017-9.0499-1.7717l-19.3661-7.8846L12 106.763V156h168v-49.237l-6.499-16.4193zM180 164h-14v12c0 1.105.895 2 2 2h10c1.105 0 2-.895 2-2v-12zm-22 0v12c0 5.523 4.477 10 10 10h10c5.523 0 10-4.477 10-10v-70c0-.504-.095-1.004-.281-1.472L181.375 88.5H182c5.523 0 10-4.4771 10-10V74c0-5.5229-4.477-10-10-10h-10.323L151.72 13.5834C149.909 9.00635 145.485 6 140.563 6H51.4373c-4.9226 0-9.3459 3.00635-11.1577 7.5834L20.323 64H10C4.47715 64 0 68.4772 0 74v4.5c0 5.5229 4.47715 10 10 10h.6251l-6.34433 16.028C4.09526 104.996 4 105.496 4 106v70c0 5.523 4.47715 10 10 10h10c5.5228 0 10-4.477 10-10v-12h124zm-132 0H12v12c0 1.105.8954 2 2 2h10c1.1046 0 2-.895 2-2v-12zM13.7918 80.5l3.3646-8.5H10c-1.10457 0-2 .8954-2 2v4.5c0 1.1046.89543 2 2 2h3.7918zM174.844 72H182c1.105 0 2 .8954 2 2v4.5c0 1.1046-.895 2-2 2h-3.792l-3.364-8.5zM80 26c0-2.2091 1.7909-4 4-4h24c2.209 0 4 1.7909 4 4 0 2.2091-1.791 4-4 4H84c-2.2091 0-4-1.7909-4-4zm-34 91c-6.0751 0-11 4.925-11 11s4.9249 11 11 11 11-4.925 11-11-4.9249-11-11-11zm-19 11c0-10.493 8.5066-19 19-19s19 8.507 19 19-8.5066 19-19 19-19-8.507-19-19zm119-11c-6.075 0-11 4.925-11 11s4.925 11 11 11 11-4.925 11-11-4.925-11-11-11zm-19 11c0-10.493 8.507-19 19-19s19 8.507 19 19-8.507 19-19 19-19-8.507-19-19zm-53 15c0-2.209 1.7909-4 4-4h36c2.209 0 4 1.791 4 4s-1.791 4-4 4H78c-2.2091 0-4-1.791-4-4z"/>
</svg>