<svg xmlns="http://www.w3.org/2000/svg" width="192" height="192" fill="#000" viewBox="0 0 192 192">
  <path fill-rule="evenodd" d="M133 89c-3.866 0-7 3.134-7 7s3.134 7 7 7 7-3.134 7-7-3.134-7-7-7zm-15 7c0-8.2843 6.716-15 15-15 8.284 0 15 6.7157 15 15 0 8.284-6.716 15-15 15-8.284 0-15-6.716-15-15zM59 89c-3.866 0-7 3.134-7 7s3.134 7 7 7 7-3.134 7-7-3.134-7-7-7zm-15 7c0-8.2843 6.7157-15 15-15s15 6.7157 15 15c0 8.284-6.7157 15-15 15s-15-6.716-15-15zM108.437 60.4572c-1.933 3.348-.786 7.6292 2.562 9.5622 3.348 1.933 7.629.7858 9.562-2.5622 1.933-3.3481.786-7.6292-2.562-9.5622-3.348-1.933-7.629-.7859-9.562 2.5622zm-1.438 16.4904c-7.1745-4.1422-9.6326-13.316-5.49-20.4904 4.142-7.1744 13.316-9.6325 20.49-5.4904 7.174 4.1421 9.632 13.316 5.49 20.4904-4.142 7.1744-13.316 9.6325-20.49 5.4904zM71.4368 124.543c-1.933 3.348-.7859 7.629 2.5621 9.562 3.3481 1.933 7.6292.786 9.5622-2.562 1.933-3.348.7859-7.629-2.5622-9.562-3.348-1.933-7.6291-.786-9.5621 2.562zm-1.4379 16.49c-7.1744-4.142-9.6325-13.316-5.4903-20.49 4.1421-7.174 13.3159-9.632 20.4903-5.49 7.1744 4.142 9.6326 13.316 5.4904 20.49-4.1421 7.174-13.316 9.633-20.4904 5.49zM71.4368 67.4572c1.933 3.348 6.2141 4.4952 9.5621 2.5622 3.3481-1.933 4.4952-6.2142 2.5622-9.5622-1.933-3.3481-6.2141-4.4952-9.5622-2.5622-3.348 1.933-4.4951 6.2141-2.5621 9.5622zm13.5621 9.4904c-7.1743 4.1421-16.3482 1.684-20.4903-5.4904-4.1422-7.1744-1.6841-16.3483 5.4903-20.4904 7.1744-4.1421 16.3483-1.684 20.4904 5.4904 4.1422 7.1744 1.684 16.3482-5.4904 20.4904zM108.437 131.543c1.933 3.348 6.214 4.495 9.562 2.562 3.348-1.933 4.495-6.214 2.562-9.562-1.933-3.348-6.214-4.495-9.562-2.562-3.348 1.933-4.495 6.214-2.562 9.562zm13.562 9.49c-7.174 4.143-16.348 1.684-20.49-5.49-4.1426-7.174-1.6844-16.348 5.49-20.49 7.174-4.142 16.348-1.684 20.49 5.49 4.142 7.174 1.684 16.348-5.49 20.49zM96 33c-1.6569 0-3 1.3431-3 3s1.3431 3 3 3 3-1.3431 3-3-1.3431-3-3-3zm-11 3c0-6.0751 4.9249-11 11-11 6.075 0 11 4.9249 11 11s-4.925 11-11 11c-6.0751 0-11-4.9249-11-11zM96 153c-1.6569 0-3 1.343-3 3s1.3431 3 3 3 3-1.343 3-3-1.3431-3-3-3zm-11 3c0-6.075 4.9249-11 11-11 6.075 0 11 4.925 11 11s-4.925 11-11 11c-6.0751 0-11-4.925-11-11zM41.4404 64.5c-.8284 1.4349-.3368 3.2696 1.0981 4.0981 1.4349.8284 3.2696.3368 4.0981-1.0981.8284-1.4349.3368-3.2696-1.0981-4.0981-1.4349-.8284-3.2697-.3368-4.0981 1.0981zm-2.9019 11.0263c-5.2612-3.0376-7.0639-9.7651-4.0263-15.0263 3.0376-5.2612 9.7651-7.0638 15.0263-4.0263 5.2612 3.0376 7.0638 9.7651 4.0263 15.0263-3.0376 5.2612-9.7651 7.0638-15.0263 4.0263zM145.363 124.5c-.828 1.435-.336 3.27 1.099 4.098 1.434.829 3.269.337 4.098-1.098.828-1.435.336-3.27-1.098-4.098-1.435-.829-3.27-.337-4.099 1.098zm-2.901 11.026c-5.262-3.037-7.064-9.765-4.027-15.026 3.038-5.261 9.765-7.064 15.027-4.026 5.261 3.037 7.063 9.765 4.026 15.026-3.038 5.261-9.765 7.064-15.026 4.026zM41.4407 127.5c.8284 1.435 2.6632 1.926 4.098 1.098 1.4349-.829 1.9265-2.663 1.0981-4.098s-2.6632-1.927-4.0981-1.098c-1.4348.828-1.9265 2.663-1.098 4.098zm8.098 8.026c-5.2612 3.038-11.9887 1.235-15.0262-4.026-3.0376-5.261-1.235-11.989 4.0262-15.026 5.2613-3.038 11.9888-1.235 15.0263 4.026 3.0376 5.261 1.235 11.989-4.0263 15.026zM145.364 67.4998c.828 1.4349 2.663 1.9265 4.098 1.0981s1.926-2.6632 1.098-4.0981c-.829-1.4349-2.663-1.9265-4.098-1.0981-1.435.8285-1.927 2.6632-1.098 4.0981zm8.098 8.0263c-5.261 3.0376-11.989 1.2349-15.026-4.0263-3.038-5.2612-1.235-11.9887 4.026-15.0263 5.261-3.0375 11.989-1.2349 15.026 4.0263 3.038 5.2612 1.235 11.9887-4.026 15.0263zM59.7312 35.0005c-.552-.9561-1.7746-1.2837-2.7307-.7317-.9561.552-1.2837 1.7746-.7317 2.7307.552.9561 1.7746 1.2837 2.7307.7317.9561-.552 1.2837-1.7746.7317-2.7307zm-6.7307-7.6599c4.7824-2.7611 10.8977-1.1225 13.6589 3.6599 2.7611 4.7824 1.1225 10.8977-3.6599 13.6589-4.7824 2.7611-10.8977 1.1225-13.6589-3.6599-2.7611-4.7824-1.1225-10.8977 3.6599-13.6589zM135.735 35.0005c-.552-.9561-1.774-1.2837-2.731-.7317-.956.552-1.283 1.7746-.731 2.7307.552.9561 1.774 1.2837 2.73.7317.957-.552 1.284-1.7746.732-2.7307zm-6.731-7.6599c4.783-2.7611 10.898-1.1225 13.659 3.6599 2.761 4.7824 1.123 10.8977-3.66 13.6589-4.782 2.7611-10.897 1.1225-13.658-3.6599-2.762-4.7824-1.123-10.8977 3.659-13.6589zM59.7312 155.001c-.552-.957-1.7746-1.284-2.7307-.732-.9561.552-1.2837 1.774-.7317 2.73.552.957 1.7746 1.284 2.7307.732.9561-.552 1.2837-1.774.7317-2.73zm-6.7307-7.66c4.7824-2.762 10.8977-1.123 13.6589 3.66 2.7611 4.782 1.1225 10.897-3.6599 13.658-4.7824 2.762-10.8977 1.123-13.6589-3.66-2.7611-4.782-1.1225-10.897 3.6599-13.658zM135.735 155.001c-.552-.957-1.774-1.284-2.731-.732-.956.552-1.283 1.774-.731 2.73.552.957 1.774 1.284 2.73.732.957-.552 1.284-1.774.732-2.73zm-6.731-7.66c4.783-2.762 10.898-1.123 13.659 3.66 2.761 4.782 1.123 10.897-3.66 13.658-4.782 2.762-10.897 1.123-13.658-3.66-2.762-4.782-1.123-10.897 3.659-13.658zM25.0399 94.0001c-1.104 0-1.999.895-1.999 1.999s.895 1.999 1.999 1.999 1.999-.895 1.999-1.999-.895-1.999-1.999-1.999zm-9.999 1.999c0-5.5223 4.4767-9.999 9.999-9.999s9.999 4.4767 9.999 9.999c0 5.5219-4.4767 9.9989-9.999 9.9989s-9.999-4.477-9.999-9.9989zM166.966 92.9999c-1.104 0-1.999.895-1.999 1.999 0 1.1041.895 1.999 1.999 1.999s1.999-.8949 1.999-1.999c0-1.104-.895-1.999-1.999-1.999zm-9.999 1.999c0-5.5222 4.476-9.999 9.999-9.999 5.522 0 9.999 4.4768 9.999 9.999 0 5.5221-4.477 9.9991-9.999 9.9991-5.523 0-9.999-4.477-9.999-9.9991z"/>
  <path d="M103 11c0 3.866-3.134 7-7 7s-7-3.134-7-7c0-3.86599 3.134-7 7-7s7 3.13401 7 7zM103 181c0 3.866-3.134 7-7 7s-7-3.134-7-7 3.134-7 7-7 7 3.134 7 7zM25.8878 47.4378C29.2359 49.3708 30.383 53.652 28.45 57c-1.933 3.348-6.2141 4.4952-9.5622 2.5622-3.348-1.933-4.4951-6.2142-2.5621-9.5622 1.933-3.348 6.2141-4.4952 9.5621-2.5622zM173.112 132.438c3.348 1.933 4.495 6.214 2.562 9.562-1.933 3.348-6.214 4.495-9.562 2.562-3.348-1.933-4.495-6.214-2.562-9.562 1.933-3.348 6.214-4.495 9.562-2.562zM18.8864 132.438c3.348-1.933 7.6292-.786 9.5622 2.562 1.933 3.348.7858 7.629-2.5622 9.562-3.3481 1.933-7.6292.786-9.5622-2.562-1.933-3.348-.7859-7.629 2.5622-9.562zM166.111 47.4377c3.348-1.933 7.629-.7859 9.562 2.5621 1.933 3.3481.786 7.6292-2.562 9.5622-3.348 1.933-7.629.7859-9.562-2.5622-1.933-3.348-.786-7.6291 2.562-9.5621zM5.99967 92.5365c1.91285 1.1044 2.56824 3.5503 1.46385 5.4632-1.10438 1.9128-3.55033 2.5683-5.46319 1.4638C.0874829 98.3591-.567908 95.9132.536477 94.0003c1.104383-1.9128 3.550343-2.5682 5.463193-1.4638zM190 92.5365c1.913 1.1044 2.568 3.5503 1.464 5.4632-1.105 1.9128-3.551 2.5683-5.464 1.4638-1.913-1.1044-2.568-3.5503-1.464-5.4632 1.105-1.9128 3.551-2.5682 5.464-1.4638zM53.9993 16.3257c0 2.2087-1.7905 3.9993-3.9993 3.9993s-3.9993-1.7906-3.9993-3.9993c0-2.2088 1.7905-3.9994 3.9993-3.9994s3.9993 1.7906 3.9993 3.9994zM145.999 175.674c0 2.209-1.79 4-3.999 4s-3.999-1.791-3.999-4c0-2.208 1.79-3.999 3.999-3.999s3.999 1.791 3.999 3.999zM144 19.789c-1.912 1.1043-4.358.449-5.463-1.4639-1.104-1.9129-.449-4.3588 1.464-5.4632s4.359-.449 5.463 1.4639c1.105 1.9128.449 4.3588-1.464 5.4632zM52.0004 179.138c-1.9129 1.104-4.3588.449-5.4632-1.464s-.449-4.359 1.4639-5.463c1.9128-1.105 4.3588-.449 5.4632 1.463 1.1043 1.913.4489 4.359-1.4639 5.464z"/>
</svg>