<svg xmlns="http://www.w3.org/2000/svg" width="192" height="192" fill="#000" viewBox="0 0 192 192">
  <path fill-rule="evenodd" d="M73.0268 1.32418c1.4779-1.642045 4.007-1.775158 5.6491-.29732L92 13.0186V4.00003C92 1.7909 93.7909.00003444 96 .00003444c2.2091 0 4 1.79086556 4 3.99999556V32.3432l14.172-14.1716c1.562-1.5621 4.094-1.5621 5.656 0 1.563 1.5621 1.563 4.0948 0 5.6569l-14.835 14.8358C127.122 41.9619 145 57.2073 145 77c0 7.478-2.975 24.087-7.676 42.015-4.249 16.208-10.037 33.982-16.676 47.786-3.311 6.883-6.929 12.981-10.806 17.418C106.062 188.546 101.411 192 96 192c-3.9986 0-7.5727-1.9-10.613-4.535-3.0511-2.643-5.8877-6.297-8.512-10.501-5.2554-8.419-10.083-19.739-14.236-31.647-8.2863-23.758-14.2042-50.7945-15.4077-63.9526C47.0828 79.7407 47 78.2679 47 77c0-21.2619 20.6306-37.2763 45-38.8695v-14.349L73.3241 6.97321c-1.642-1.47784-1.7751-4.00699-.2973-5.64903zM96 46c-23.6374 0-41 14.7565-41 31h32.5947c2.2092 0 4 1.7909 4 4 0 2.2092-1.7908 4-4 4h-31.887c1.7784 12.9431 6.7596 34.852 13.5643 55h17.3325c2.2091 0 4 1.791 4 4s-1.7909 4-4 4H72.1107c3.5769 9.582 7.4926 18.227 11.5506 24.728 2.4016 3.847 4.7476 6.771 6.9643 8.691C92.853 183.349 94.6319 184 96 184c1.8948 0 4.523-1.274 7.818-5.044 3.197-3.66 6.448-9.029 9.62-15.623 5.669-11.785 10.782-26.84 14.796-41.333h-19.871c-2.21 0-4-1.791-4-4s1.79-4 4-4h21.993C134.577 97.3455 137 82.9942 137 77c0-16.2435-17.363-31-41-31z"/>
</svg>