<svg xmlns="http://www.w3.org/2000/svg" width="192" height="192" fill="#000" viewBox="0 0 192 192">
  <path fill-rule="evenodd" d="M20 8c-1.1046 0-2 .89543-2 2v133c0 .552.4477 1 1 1 4.9706 0 9 4.029 9 9v28c0 1.105.8954 2 2 2h132c1.105 0 2-.895 2-2v-28c0-4.971 4.029-9 9-9 .552 0 1-.448 1-1V10c0-1.10456-.895-1.99998-2-1.99998l-88-.00001V34c0 2.2092-1.7909 4-4 4H50c-1.0609 0-2.0783-.4214-2.8284-1.1715C46.4214 36.0783 46 35.0609 46 34V8H20zm34 0c0-4.41827-3.5817-7.99999595-8-7.99999666L20 0c-5.5228-9.5e-7-10 4.47716-10 10v133c0 4.971 4.0294 9 9 9 .5523 0 1 .448 1 1v28c0 5.523 4.4771 10 10 10h132c5.523 0 10-4.477 10-10v-28c0-.552.448-1 1-1 4.971 0 9-4.029 9-9V10c0-5.52281-4.477-9.99997926-10-9.99997997L84 .00000834C79.5817.00000787 76 3.58173 76 8.00001L54 8zm0 8v14h22V16H54zm39.1716 1.1716C93.9217 16.4215 94.9391 16 96 16h66c2.209 0 4 1.7909 4 4v99c0 1.061-.421 2.078-1.172 2.828-.75.751-1.767 1.172-2.828 1.172H96c-2.2092 0-4-1.791-4-4V20c0-1.0608.4214-2.0782 1.1716-2.8284zM100 24v91h58V24h-58zM50 55c-2.2092 0-4-1.7908-4-4 0-2.2091 1.7908-4 4-4h30c2.2091 0 4 1.7909 4 4 0 2.2092-1.7909 4-4 4H50zm0 17c-2.2092 0-4-1.7908-4-4 0-2.2091 1.7908-4 4-4h30c2.2091 0 4 1.7909 4 4 0 2.2092-1.7909 4-4 4H50zm-4 13c0-2.2091 1.7908-4 4-4h30c2.2091 0 4 1.7909 4 4 0 2.2092-1.7909 4-4 4H50c-2.2092 0-4-1.7908-4-4zm0 17c0-2.2091 1.7908-4 4-4h30c2.2091 0 4 1.7909 4 4 0 2.209-1.7909 4-4 4H50c-2.2092 0-4-1.791-4-4zm0 17c0-2.209 1.7908-4 4-4h30c2.2091 0 4 1.791 4 4s-1.7909 4-4 4H50c-2.2092 0-4-1.791-4-4zm0 17c0-2.209 1.7908-4 4-4h30c2.2091 0 4 1.791 4 4s-1.7909 4-4 4H50c-2.2092 0-4-1.791-4-4zm0 17c0-2.209 1.7908-4 4-4h30c2.2091 0 4 1.791 4 4s-1.7909 4-4 4H50c-2.2092 0-4-1.791-4-4zm0 17c0-2.209 1.7908-4 4-4h30c2.2091 0 4 1.791 4 4s-1.7909 4-4 4H50c-2.2092 0-4-1.791-4-4z"/>
</svg>