<svg xmlns="http://www.w3.org/2000/svg" width="192" height="192" fill="#000" viewBox="0 0 192 192">
  <path fill-rule="evenodd" d="M12 32c-2.20913 0-3.99999 1.7909-3.99999 4L8 156c0 2.209 1.79086 4 4 4h37.3774l6.8629-15.785c1.905-4.381 6.2274-7.215 11.0049-7.215h57.5098c4.777 0 9.1 2.834 11.005 7.215L142.623 160H180c2.209 0 4-1.791 4-4V36c0-2.2091-1.791-4-4-4H12zm121.899 128l-5.476-12.595c-.635-1.46-2.076-2.405-3.668-2.405H67.2452c-1.5925 0-3.0333.945-3.6683 2.405L58.1008 160h75.7982zM.00001049 36C.00001097 29.3726 5.3726 24 12 24h168c6.627 0 12 5.3726 12 12v120c0 6.627-5.373 12-12 12H12C5.37258 168-4.8e-7 162.627 0 156L.00001049 36zM55 69c-9.3888 0-17 7.6112-17 17s7.6112 17 17 17 17-7.6112 17-17-7.6112-17-17-17zm18.3305 0C77.4694 73.4608 80 79.4349 80 86c0 6.5651-2.5306 12.5392-6.6695 17H118.67c-4.139-4.4608-6.67-10.4349-6.67-17 0-6.5651 2.531-12.5392 6.67-17H73.3305zM137 69c-9.389 0-17 7.6112-17 17s7.611 17 17 17 17-7.6112 17-17-7.611-17-17-17zm0 42H55c-13.8071 0-25-11.1929-25-25s11.1929-25 25-25h82c13.807 0 25 11.1929 25 25s-11.193 25-25 25z"/>
</svg>