<svg xmlns="http://www.w3.org/2000/svg" width="192" height="192" fill="#000" viewBox="0 0 192 192">
  <path fill-rule="evenodd" d="M29.6619 16.0009c-.0555-.0012-.1112-.0012-.1668 0H10.0299c-7.42982 0-12.29781 7.8109-8.95648 14.4759L34.1609 96.4764C35.8601 99.8658 39.3294 102 43.1174 102h25.4873c.0555.002.1111.002.1668 0h43.3705c1.909 11.358 11.811 20 23.721 20 2.84 0 5.571-.492 8.108-1.399l34.014 33.925V172c0 2.209 1.791 4 4 4s4-1.791 4-4v-38c0-2.209-1.791-4-4-4s-4 1.791-4 4v9.227l-26.799-26.728c4.352-3.593 7.42-8.69 8.397-14.499h22.401c5.522 0 10.016-4.4666 10.016-9.9995V26.0008c0-5.5329-4.494-9.9999-10.016-9.9999H29.6619zM181.984 94.0004c1.124 0 2.016-.9055 2.016-1.9999V26.0008c0-1.0944-.892-2-2.016-2H36.0613l35.0928 69.9996H181.984zM120.315 102h31.095c-1.161 4.498-4.235 8.236-8.322 10.293-2.167 1.091-4.618 1.707-7.225 1.707-7.488 0-13.766-5.104-15.548-12zm-58.1097-7.9996L27.1125 24.0008H10.0299c-1.51446 0-2.46379 1.5768-1.80514 2.8906L41.3123 92.891c.3388.676 1.0358 1.1094 1.8051 1.1094h19.0879zm52.6127-42.9997c0-2.2091 1.791-4 4-4h45.119c2.209 0 4 1.7909 4 4 0 2.2091-1.791 4-4 4h-45.119c-2.209 0-4-1.7909-4-4z"/>
</svg>