<svg xmlns="http://www.w3.org/2000/svg" width="192" height="192" fill="#000" viewBox="0 0 192 192">
  <path fill-rule="evenodd" d="M94.1265.465885c1.1718-.62118 2.5752-.62118 3.747 0L180.874 44.4659C182.182 45.1595 183 46.5192 183 48v96c0 1.481-.818 2.841-2.126 3.534l-83.0005 44c-1.1718.621-2.5752.621-3.747 0l-83-44C9.81812 146.841 9 145.481 9 144V48c0-1.4808.81812-2.8405 2.1265-3.5341l83-44.000015zM17 50.4068v91.1862l79 41.88 79-41.88V50.4068L96 8.5273 17 50.4068zm26.1144 12.3264l51-27.2609c1.1782-.6297 2.593-.6297 3.7712 0l51.0004 27.2609c1.301.6958 2.114 2.0518 2.114 3.5277v59.4781c0 1.476-.813 2.832-2.114 3.528l-51.0004 27.261c-1.1782.629-2.593.629-3.7712 0l-51-27.261C41.8127 128.571 41 127.215 41 125.739V66.2609c0-1.4759.8127-2.8319 2.1144-3.5277zM49 68.6583v54.6837l47 25.122 47-25.122V68.6583L96 43.5356 49 68.6583z"/>
</svg>