<svg xmlns="http://www.w3.org/2000/svg" width="192" height="192" fill="#000" viewBox="0 0 192 192">
  <path fill-rule="evenodd" d="M4 0c2.20914 0 4 1.79086 4 4v180h180c2.209 0 4 1.791 4 4s-1.791 4-4 4H6c-3.31371 0-6-2.686-6-6V4c0-2.20914 1.79086-4 4-4zm174.828 73.1716c1.563 1.5621 1.563 4.0947 0 5.6568L138.83 118.827c.749 1.567 1.17 3.322 1.17 5.173 0 6.627-5.373 12-12 12s-12-5.373-12-12c0-.73.066-1.445.191-2.141l-36.3529-20.773C77.7376 102.899 74.9984 104 72 104c-1.8511 0-3.6063-.421-5.1729-1.17l-39.9987 39.998c-1.5621 1.563-4.0947 1.563-5.6568 0-1.5621-1.562-1.5621-4.094 0-5.656l39.9986-39.9991C60.4208 95.6063 60 93.8511 60 92c0-6.6274 5.3726-12 12-12s12 5.3726 12 12c0 .7296-.0655 1.4453-.1911 2.1409l36.3531 20.7731c2.1-1.813 4.84-2.914 7.838-2.914 1.851 0 3.606.421 5.173 1.17l39.999-39.9984c1.562-1.5621 4.094-1.5621 5.656 0zM72 88c-2.2091 0-4 1.7909-4 4 0 1.1057.4433 2.1002 1.1716 2.8284C69.8998 95.5567 70.8943 96 72 96c1.4817 0 2.7806-.8036 3.476-2.018.3326-.5807.524-1.253.524-1.982 0-2.2091-1.7909-4-4-4zm56 32c-1.482 0-2.781.804-3.476 2.018-.333.581-.524 1.253-.524 1.982 0 2.209 1.791 4 4 4s4-1.791 4-4c0-1.106-.443-2.1-1.172-2.828-.728-.729-1.722-1.172-2.828-1.172z"/>
</svg>