<svg xmlns="http://www.w3.org/2000/svg" width="192" height="192" fill="#000" viewBox="0 0 192 192">
  <path fill-rule="evenodd" d="M23 10.196C23 4.40425 27.8512 0 33.4688 0H158.531C164.149 0 169 4.40425 169 10.196V182c0 5.523-4.477 10-10 10H33c-5.5228 0-10-4.477-10-10V10.196zM33.4688 8C31.9411 8 31 9.14383 31 10.196V182c0 1.105.8954 2 2 2h126c1.105 0 2-.895 2-2V10.196C161 9.14384 160.059 8 158.531 8H33.4688zm34.6041 41.4393c1.4142 1.6971 1.1849 4.2193-.5122 5.6336l-18 15c-.8719.7266-2.0115 1.0486-3.1348.8857-1.1233-.1629-2.1245-.7954-2.7541-1.7398l-4-6c-1.2254-1.8381-.7287-4.3216 1.1094-5.547 1.8381-1.2254 4.3216-.7287 5.547 1.1094l1.5308 2.2962 14.5803-12.1503c1.6971-1.4142 4.2193-1.1849 5.6336.5122zM76 61c0-2.2091 1.7909-4 4-4h69c2.209 0 4 1.7909 4 4 0 2.2091-1.791 4-4 4H80c-2.2091 0-4-1.7909-4-4zm-7.9271 23.4393c1.4142 1.6971 1.1849 4.2193-.5122 5.6336l-18 15.0001c-.8719.727-2.0115 1.048-3.1348.886-1.1233-.163-2.1245-.796-2.7541-1.74l-4-6.0002c-1.2254-1.8381-.7287-4.3216 1.1094-5.547 1.8381-1.2254 4.3216-.7287 5.547 1.1094l1.5308 2.2962 14.5803-12.1503c1.6971-1.4142 4.2193-1.1849 5.6336.5122zM76 96c0-2.2091 1.7909-4 4-4h69c2.209 0 4 1.7909 4 4 0 2.2091-1.791 4-4 4H80c-2.2091 0-4-1.7909-4-4zm-7.9271 23.439c1.4142 1.697 1.1849 4.22-.5122 5.634l-18 15c-.8719.727-2.0115 1.048-3.1348.886-1.1233-.163-2.1245-.796-2.7541-1.74l-4-6c-1.2254-1.838-.7287-4.322 1.1094-5.547 1.8381-1.226 4.3216-.729 5.547 1.109l1.5308 2.296 14.5803-12.15c1.6971-1.414 4.2193-1.185 5.6336.512zM76 131c0-2.209 1.7909-4 4-4h69c2.209 0 4 1.791 4 4s-1.791 4-4 4H80c-2.2091 0-4-1.791-4-4z"/>
</svg>