<svg xmlns="http://www.w3.org/2000/svg" width="192" height="192" fill="#000" viewBox="0 0 192 192">
  <path fill-rule="evenodd" d="M61.9953 30.3284c-2.1307-.7372-4.4956-.2123-6.12 1.3648l-35.0131 33.994H164.203L61.9953 30.3284zM184 73.6872H13.9674C10.0258 87.1913 8 101.503 8 116.339c0 15.921 2.4546 31.26 7.0021 45.661H31.174c3.7872-8.281 12.1266-14.046 21.826-14.046S71.0388 153.719 74.826 162H182c1.092 0 2-.892 2-2.02v-37.092c-8.552-3.735-14-12.33-14-22.1 0-9.7692 5.448-18.3646 14-22.1002v-5.0006zM50.3026 25.9534c3.7879-3.6776 9.3188-4.9115 14.3082-3.1854L192 66.8384v17.6683l-2.899.83C182.559 87.2099 178 93.2846 178 100.788c0 7.504 4.559 13.578 11.101 15.452l2.899.83v42.91c0 5.522-4.465 10.02-10 10.02H69.1452l-.8781-2.805c-2.0433-6.527-8.1175-11.241-15.2671-11.241-7.1496 0-13.2238 4.714-15.2671 11.241L36.8548 170H12.0999c-1.717 0-3.24244-1.096-3.79062-2.723C2.92005 151.28 0 134.147 0 116.339c0-16.6475 2.43153-32.7248 7.18392-47.8508.19914-.6338.55304-1.2081 1.02973-1.6709L50.3026 25.9534zM132 88c-3.314 0-6 2.6863-6 6s2.686 6 6 6 6-2.6863 6-6-2.686-6-6-6zm-14 6c0-7.732 6.268-14 14-14s14 6.268 14 14-6.268 14-14 14-14-6.268-14-14zm-84.5-4c-1.933 0-3.5 1.567-3.5 3.5s1.567 3.5 3.5 3.5 3.5-1.567 3.5-3.5-1.567-3.5-3.5-3.5zM22 93.5C22 87.1487 27.1487 82 33.5 82S45 87.1487 45 93.5c0 6.3512-5.1487 11.5-11.5 11.5S22 99.8512 22 93.5zM78 110c-6.0751 0-11 4.925-11 11s4.9249 11 11 11 11-4.925 11-11-4.9249-11-11-11zm-19 11c0-10.493 8.5066-19 19-19s19 8.507 19 19-8.5066 19-19 19-19-8.507-19-19zm80.5 14c-1.933 0-3.5 1.567-3.5 3.5s1.567 3.5 3.5 3.5 3.5-1.567 3.5-3.5-1.567-3.5-3.5-3.5zm-11.5 3.5c0-6.351 5.149-11.5 11.5-11.5s11.5 5.149 11.5 11.5-5.149 11.5-11.5 11.5-11.5-5.149-11.5-11.5z"/>
</svg>