<svg xmlns="http://www.w3.org/2000/svg" width="192" height="192" fill="#000" viewBox="0 0 192 192">
  <path fill-rule="evenodd" d="M103.036 8.00001H122c2.209 0 4-1.79086 4-4s-1.791-3.99999927-4-3.99999927H96.0098a4.0307413 4.0307413 0 00-.0186 0H70c-2.2091 0-4 1.79085927-4 3.99999927s1.7909 4 4 4h19.5279L43.4943 100.067C19.2544 101.368 0 121.436 0 146c0 25.405 20.5949 46 46 46s46-20.595 46-46c0-23.281-17.2957-42.523-39.7391-45.577l44.0445-88.0895 42.9506 72.1573C117.048 87.7534 100 106.886 100 130c0 25.405 20.595 46 46 46s46-20.595 46-46c0-24.631-19.359-44.7408-43.692-45.9431L103.036 8.00001zM146 92c-20.987 0-38 17.013-38 38s17.013 38 38 38 38-17.013 38-38-17.013-38-38-38zM46 108c-20.9868 0-38 17.013-38 38s17.0132 38 38 38 38-17.013 38-38-17.0132-38-38-38z"/>
</svg>