<svg xmlns="http://www.w3.org/2000/svg" width="192" height="192" fill="#000" viewBox="0 0 192 192">
  <path fill-rule="evenodd" d="M96 0c2.2091 0 4 1.79086 4 4v6h8c2.209 0 4 1.7909 4 4 0 2.2091-1.791 4-4 4h-8v13.3431l36.828 36.8285C137.579 68.9217 138 69.9391 138 71v21.216l51.389 19.033c1.569.581 2.611 2.078 2.611 3.751v73c0 2.209-1.791 4-4 4H4c-2.20914 0-4-1.791-4-4v-73c0-1.673 1.04158-3.17 2.61074-3.751L54 92.216V71c0-1.0609.4214-2.0783 1.1716-2.8284L92 31.3431V18h-8c-2.2091 0-4-1.7909-4-4 0-2.2091 1.7909-4 4-4h8V4c0-2.20914 1.7909-4 4-4zm0 38.6569l-34 34v22.2497c.0014.0621.0014.124 0 .1858V184h10v-26c0-13.255 10.7452-24 24-24 13.255 0 24 10.745 24 24v26h10V95.0923c-.001-.0617-.001-.1236 0-.1855V72.6569l-34-34zm42 62.0901V184h46v-66.216l-46-17.037zM112 184v-26c0-8.837-7.163-16-16-16-8.8366 0-16 7.163-16 16v26h32zm-58 0v-83.253L8 117.784V184h46zM96 71c-3.866 0-7 3.134-7 7v14.6154h14V78c0-3.866-3.134-7-7-7zm-15 7c0-8.2843 6.7157-15 15-15 8.284 0 15 6.7157 15 15v18.6154c0 2.2091-1.791 3.9996-4 3.9996H85c-2.2091 0-4-1.7905-4-3.9996V78zm-50 50c-3.866 0-7 3.134-7 7v14.615h14V135c0-3.866-3.134-7-7-7zm-15 7c0-8.284 6.7157-15 15-15s15 6.716 15 15v18.615c0 2.21-1.7909 4-4 4H20c-2.2091 0-4-1.79-4-4V135zm145-7c-3.866 0-7 3.134-7 7v14.615h14V135c0-3.866-3.134-7-7-7zm-15 7c0-8.284 6.716-15 15-15 8.284 0 15 6.716 15 15v18.615c0 2.21-1.791 4-4 4h-22c-2.209 0-4-1.79-4-4V135z"/>
</svg>