<svg xmlns="http://www.w3.org/2000/svg" width="192" height="192" fill="#000" viewBox="0 0 192 192">
  <path fill-rule="evenodd" d="M96 31c-20.6461 0-38.0847 13.7025-43.6671 32.4818-.5243 1.7638-2.1844 2.9424-4.0224 2.8558-.6124-.0289-1.2288-.0435-1.849-.0435C25.2102 66.2941 8 83.475 8 104.647 8 125.819 25.2102 143 46.4615 143h28.077c2.2091 0 4 1.791 4 4s-1.7909 4-4 4h-28.077C20.8112 151 0 130.257 0 104.647 0 79.3185 20.3569 58.75 45.6187 58.3016 53.0555 37.715 72.8044 23 96 23c28.255 0 51.412 21.8412 53.4 49.541 1.061-.0856 2.133-.1292 3.215-.1292 21.742 0 39.385 17.5829 39.385 39.2942C192 133.417 174.357 151 152.615 151H121c-2.209 0-4-1.791-4-4s1.791-4 4-4h31.615C169.958 143 184 128.979 184 111.706c0-17.2737-14.042-31.2942-31.385-31.2942-2.157 0-4.259.2164-6.287.6273-1.186.2403-2.417-.0691-3.348-.8416-.932-.7725-1.463-1.9251-1.446-3.135.003-.2166.004-.4335.004-.6507C141.538 51.3412 121.16 31 96 31z"/>
  <path fill-rule="evenodd" d="M96.0001 89c1.0608 0 2.0782.4214 2.8284 1.1716l26.9995 27.0004c1.563 1.562 1.563 4.094 0 5.656-1.562 1.563-4.094 1.563-5.656 0L100 102.657V165c0 2.209-1.7908 4-3.9999 4-2.2092 0-4-1.791-4-4v-62.343l-20.1717 20.171c-1.5621 1.563-4.0947 1.563-5.6568 0-1.5621-1.562-1.5621-4.094 0-5.656l27-27.0004C93.9218 89.4214 94.9392 89 96.0001 89z"/>
</svg>