<svg xmlns="http://www.w3.org/2000/svg" width="192" height="192" fill="#000" viewBox="0 0 192 192">
  <path fill-rule="evenodd" d="M95.867 43.4241c.159.0102.3202.011.4829.0019 16.4141.1693 30.2981 10.9724 35.1061 25.8751.013.0445.027.0886.042.1325 1.144 3.5906 1.761 7.4174 1.761 11.3893 0 .1789-.001.3577-.004.5364-.017 1.2105.516 2.3635 1.448 3.1359.932.7724 2.164 1.0811 3.35.8396 1.647-.3353 3.354-.5119 5.106-.5119 14.075 0 25.501 11.4394 25.501 25.5711 0 14.131-11.426 25.57-25.501 25.57H77.5925c-5.1954-8.745-14.741-14.606-25.6541-14.606-6.9642 0-13.3688 2.386-18.442 6.383-6.2959-5.761-10.2395-14.048-10.2395-23.262 0-17.3971 14.0675-31.4844 31.4007-31.4844.5062 0 1.0094.012 1.5092.0357 1.8404.0871 3.5023-1.0942 4.0249-2.861 4.5689-15.4459 18.8169-26.7047 35.6753-26.7452zM36.268 135.991c.1168-.105.2284-.217.3342-.338 3.9412-3.892 9.3593-6.295 15.3362-6.295 8.5997 0 16.0348 4.971 19.5874 12.193.0438.101.0916.2.1433.296 1.3354 2.822 2.0823 5.977 2.0823 9.305 0 .059-.0003.119-.0008.178-.0003.045-.0008.09-.0014.135-.017 1.21.5148 2.363 1.4464 3.135.9316.773 2.1629 1.082 3.3489.841.9319-.189 1.8994-.289 2.8944-.289 7.9766 0 14.4379 6.461 14.4379 14.424 0 7.963-6.4613 14.424-14.4379 14.424H26.1254C16.1122 184 8 175.89 8 165.891c0-9.998 8.1122-18.109 18.1254-18.109.2929 0 .5839.007.8729.021 1.839.087 3.4997-1.093 4.0234-2.858 1.0113-3.408 2.8349-6.468 5.2463-8.954zm-8.3397-2.502c-7.7881-7.211-12.6714-17.54-12.6714-29.01 0-21.4037 17-38.8439 38.2248-39.4672 5.961-16.076 20.7506-27.8607 38.4796-29.4136C92.2098 15.9697 107.9 0 127.386 0c10.756 0 20.373 4.88102 26.857 12.5422 2.582-.7241 5.253-1.0919 7.942-1.089 3.926.0003 7.812.7897 11.435 2.3211 3.623 1.5316 6.91 3.7742 9.675 6.5958 2.765 2.8215 4.954 6.1667 6.446 9.8425 1.492 3.6758 2.259 7.6126 2.259 11.5866 0 3.974-.767 7.9109-2.259 11.5866-1.492 3.6759-3.681 7.021-6.446 9.8425-2.765 2.8216-6.052 5.0643-9.675 6.5959-3.624 1.5316-7.51 2.3211-11.437 2.3211h-21.751c.3 1.5534.521 3.1351.659 4.7406.684-.0418 1.374-.063 2.068-.063 18.511 0 33.501 15.039 33.501 33.5711 0 18.531-14.99 33.57-33.501 33.57H80.8781c.2582 1.042.4616 2.106.6069 3.188 12.3681.025 22.392 10.052 22.392 22.424 0 12.387-10.0488 22.424-22.4381 22.424H26.1254C11.6996 192 0 180.313 0 165.891c0-13.826 10.7517-25.137 24.3499-26.049.9336-2.272 2.14-4.404 3.5784-6.353zM138.104 64.1453h24.079c2.853 0 5.681-.5735 8.322-1.6899 2.641-1.1164 5.047-2.755 7.076-4.8263 2.03-2.0715 3.645-4.535 4.747-7.2521 1.103-2.7171 1.672-5.6321 1.672-8.5778 0-2.9456-.569-5.8606-1.672-8.5778-1.102-2.717-2.717-5.1806-4.747-7.252-2.029-2.0713-4.435-3.7099-7.076-4.8264-2.641-1.1163-5.469-1.6898-8.322-1.6898h-.005c-2.692-.0031-5.363.5053-7.877 1.5008-1.711.6773-3.663.1005-4.731-1.3979C144.561 12.5261 136.476 8 127.386 8c-14.919 0-27.177 12.2397-27.4239 27.5988 17.4029 1.527 31.9779 12.9136 38.1419 28.5465z"/>
</svg>