<svg xmlns="http://www.w3.org/2000/svg" width="192" height="192" fill="#000" viewBox="0 0 192 192">
  <path fill-rule="evenodd" d="M116.994 14.1253c2.139.5487 3.429 2.7283 2.881 4.8682L79.8745 174.993c-.5487 2.14-2.7283 3.43-4.8682 2.882-2.1399-.549-3.4298-2.729-2.8811-4.869L112.125 17.0065c.549-2.1399 2.729-3.4299 4.869-2.8812zm-64.9712 40.255c1.4468 1.6694 1.2664 4.1956-.403 5.6424L10.1075 96l41.5122 35.977c1.6694 1.447 1.8498 3.973.403 5.643-1.4468 1.669-3.9731 1.85-5.6425.403L1.38028 99.0227C.503626 98.263-9.5e-7 97.16 0 96c9.5e-7-1.1601.50363-2.263 1.38028-3.0228l45.00002-39c1.6695-1.4468 4.1957-1.2664 5.6425.4031zm87.9542 0c1.447-1.6695 3.973-1.8499 5.643-.4031l45 39c.876.7598 1.38 1.8627 1.38 3.0228 0 1.16-.504 2.263-1.38 3.0227l-45 39.0003c-1.67 1.447-4.196 1.266-5.643-.403-1.446-1.67-1.266-4.196.403-5.643L181.893 96 140.38 60.0227c-1.669-1.4468-1.85-3.973-.403-5.6424z"/>
</svg>