<svg xmlns="http://www.w3.org/2000/svg" width="192" height="192" fill="#000" viewBox="0 0 192 192">
  <path fill-rule="evenodd" d="M0 30c0-11.0457 8.9543-20 20-20h152c11.046 0 20 8.9543 20 20v132c0 11.046-8.954 20-20 20H20c-11.0457 0-20-8.954-20-20V30zm20-12c-6.6274 0-12 5.3726-12 12v132c0 6.627 5.3726 12 12 12h152c6.627 0 12-5.373 12-12V30c0-6.6274-5.373-12-12-12H20zm7.0162 28.3359c1.4714-1.6478 4-1.791 5.6479-.3196l28 25C61.514 71.7752 62 72.8605 62 74c0 1.1395-.486 2.2248-1.3359 2.9837l-28 25.0003c-1.6479 1.471-4.1765 1.328-5.6479-.32-1.4713-1.648-1.3281-4.1764.3197-5.6477L51.9941 74 27.3359 51.9837c-1.6478-1.4713-1.791-3.9999-.3197-5.6478zM71 96c0-2.2091 1.7909-4 4-4h42c2.209 0 4 1.7909 4 4 0 2.2091-1.791 4-4 4H75c-2.2091 0-4-1.7909-4-4z"/>
</svg>