<svg xmlns="http://www.w3.org/2000/svg" width="192" height="192" fill="#000" viewBox="0 0 192 192">
  <path fill-rule="evenodd" d="M41.3317 2.4051C41.9667.944656 43.4075 0 45 0h102c1.593 0 3.033.944656 3.668 2.4051L159.623 23H168c2.209 0 4 1.7909 4 4v18c0 2.2091-1.791 4-4 4h-9.27l-8.959 128.116c-.586 8.383-7.558 14.884-15.961 14.884H58.1901c-8.4034 0-15.3748-6.501-15.961-14.884L33.27 49H24c-2.2091 0-4-1.7909-4-4V27c0-2.2091 1.7909-4 4-4h8.3774l8.9543-20.5949zM164 41V31h-7c-1.592 0-3.033-.9447-3.668-2.4051L144.377 8H47.6226l-8.9543 20.5949C38.0333 30.0553 36.5925 31 35 31h-7v10h136zM41.2895 49l2.4475 35h104.526l2.448-35H41.2895zM147.704 92H44.2965l3.4266 49h96.5539l3.427-49zm-3.986 57H48.2825l1.9271 27.558c.2931 4.192 3.7788 7.442 7.9805 7.442H133.81c4.202 0 7.687-3.25 7.98-7.442L143.718 149z"/>
</svg>