<svg xmlns="http://www.w3.org/2000/svg" width="192" height="192" fill="#000" viewBox="0 0 192 192">
  <path fill-rule="evenodd" d="M96 0c2.2091 2.4e-7 4 1.79086 4 4v52.3432l20.172-20.1716c1.562-1.5621 4.094-1.5621 5.656 0 1.563 1.5621 1.563 4.0947 0 5.6568l-26.9996 27C98.0782 69.5786 97.0608 70 96 70c-1.0609 0-2.0783-.4214-2.8285-1.1716l-26.9999-27c-1.5621-1.5621-1.5621-4.0947 0-5.6568s4.0947-1.5621 5.6568 0L92 56.3431V4c0-2.20914 1.7908-4 4-4zM48 84c0-2.2091 1.7909-4 4-4h88c2.209 0 4 1.7909 4 4 0 2.2091-1.791 4-4 4H52c-2.2091 0-4-1.7909-4-4zm0 24c0-2.209 1.7909-4 4-4h88c2.209 0 4 1.791 4 4s-1.791 4-4 4H52c-2.2091 0-4-1.791-4-4zm48 14c1.0609 0 2.0783.421 2.8285 1.172l26.9995 27c1.563 1.562 1.563 4.094 0 5.656-1.562 1.563-4.094 1.563-5.656 0L100 135.657V188c0 2.209-1.7908 4-4 4-2.2091 0-4-1.791-4-4v-52.343l-20.1716 20.171c-1.5621 1.563-4.0947 1.563-5.6568 0-1.5621-1.562-1.5621-4.094 0-5.656l27-27C93.9217 122.421 94.9392 122 96 122z"/>
</svg>