<svg xmlns="http://www.w3.org/2000/svg" width="193" height="192" fill="#000" viewBox="0 0 193 192">
  <path fill-rule="evenodd" d="M.00390625 11.999C.00390625 5.37161 5.37649-.00097656 12.0039-.00097656h35.9658c6.6274 0 12 5.37257656 12 11.99997656v38.2206l13.793-23.8903c3.3138-5.7396 10.6528-7.7061 16.3923-4.3923l31.191 18.0082c5.74 3.3137 7.706 10.6528 4.393 16.3923l-13.636 23.6171 23.829-13.7576c5.74-3.3137 13.079-1.3472 16.392 4.3923l18.009 31.1917c3.313 5.739 1.347 13.078-4.393 16.392l-23.893 13.795h37.956c6.628 0 12 5.372 12 12V180c0 6.628-5.372 12-12 12H12.0039C5.37651 192 .00390625 186.628.00390625 180v-36.032c0-.326.01296525-.648.03840755-.968H.00390625V11.999zM8.00391 132.65c1.25111-.442 2.59749-.682 3.99999-.682h.7685l39.1973-67.892V11.999c0-2.20911-1.7909-3.99998-4-3.99998H12.0039c-2.20913 0-3.99999 1.79087-3.99999 3.99998V132.65zm30.01009-.682h88.033l35.893-20.723c1.914-1.105 2.569-3.551 1.465-5.464l-18.009-31.1917c-1.104-1.9132-3.551-2.5687-5.464-1.4641L38.014 131.968zm-16 0h-.004L80.6909 30.3293c1.1046-1.9132 3.551-2.5687 5.4641-1.4641l31.191 18.0082c1.913 1.1046 2.569 3.551 1.464 5.4641L98.2469 87.9546 22.014 131.968zm-10.0101 8c-2.20913 0-3.99999 1.79-3.99999 4V180c0 2.21 1.79086 4 3.99999 4H180.003c2.209 0 4-1.79 4-4v-36.032c0-2.21-1.791-4-4-4H12.0039zM30.0017 157c-2.7614 0-5 2.239-5 5 0 2.762 2.2386 5 5 5s5-2.238 5-5c0-2.761-2.2386-5-5-5zm-13 5c0-7.18 5.8203-13 13-13s13 5.82 13 13-5.8203 13-13 13-13-5.82-13-13z"/>
</svg>