<svg xmlns="http://www.w3.org/2000/svg" width="192" height="192" fill="#000" viewBox="0 0 192 192">
  <path fill-rule="evenodd" d="M96 8C47.3989 8 8 47.3989 8 96c0 48.601 39.3989 88 88 88 1.3171 0 2.6273-.029 3.9298-.086C106.723 183.616 112 177.471 112 169.768v-.697c0-5.137-2.873-9.859-6.371-15.606-.191-.315-.385-.633-.58-.955-2.57-4.234-4.049-9.206-4.049-14.51 0-15.464 12.536-28 28-28h40.817c7.844 0 14.044-5.467 14.168-12.38.01-.5388.015-1.0788.015-1.62 0-48.6011-39.399-88-88-88zM0 96C0 42.9807 42.9807 0 96 0c53.019 0 96 42.9807 96 96 0 .5893-.005 1.1774-.016 1.7642C191.765 109.939 181.064 118 169.817 118H129c-11.046 0-20 8.954-20 20 0 3.8 1.056 7.341 2.888 10.359.268.442.546.895.831 1.358 3.215 5.235 7.281 11.855 7.281 19.354v.697c0 11.053-7.775 21.614-19.719 22.138-1.4196.063-2.8468.094-4.281.094-53.0193 0-96-42.981-96-96zm96-60c-4.9706 0-9 4.0294-9 9s4.0294 9 9 9c4.971 0 9-4.0294 9-9s-4.029-9-9-9zm-17 9c0-9.3888 7.6112-17 17-17 9.389 0 17 7.6112 17 17s-7.611 17-17 17c-9.3888 0-17-7.6112-17-17zm68.961 21c-2.485-4.3046-7.989-5.7795-12.294-3.2942-4.304 2.4852-5.779 7.9895-3.294 12.2942 2.485 4.3046 7.99 5.7795 12.294 3.2942 4.305-2.4853 5.78-7.9896 3.294-12.2942zm-16.294-10.2225c8.131-4.6944 18.528-1.9085 23.223 6.2225 4.694 8.131 1.908 18.528-6.223 23.2224-8.131 4.6944-18.528 1.9086-23.222-6.2224-4.695-8.131-1.909-18.528 6.222-23.2225zm-75.3343 6.9283C52.0281 60.2205 46.5238 61.6954 44.0385 66c-2.4853 4.3046-1.0104 9.8089 3.2942 12.2942 4.3046 2.4853 9.809 1.0104 12.2942-3.2942 2.4853-4.3046 1.0104-9.8089-3.2942-12.2942zM37.1103 62c4.6944-8.131 15.0914-10.9169 23.2224-6.2224C68.4637 60.472 71.2496 70.869 66.5551 79c-4.6944 8.131-15.0914 10.9169-23.2224 6.2224C35.2017 80.528 32.4159 70.131 37.1103 62zm22.5165 55c-2.4853-4.305-7.9896-5.78-12.2942-3.294-4.3047 2.485-5.7796 7.989-3.2943 12.294 2.4853 4.305 7.9896 5.779 12.2942 3.294 4.3047-2.485 5.7796-7.989 3.2943-12.294zm-16.2942-10.222c8.1309-4.695 18.528-1.909 23.2224 6.222 4.6944 8.131 1.9085 18.528-6.2225 23.222-8.1309 4.695-18.528 1.909-23.2224-6.222-4.6944-8.131-1.9085-18.528 6.2225-23.222z"/>
</svg>