<svg xmlns="http://www.w3.org/2000/svg" width="192" height="192" fill="#000" viewBox="0 0 192 192">
  <path fill-rule="evenodd" d="M0 34C0 15.2223 15.2223 0 34 0s34 15.2223 34 34v26h56V34c0-18.7777 15.222-34 34-34s34 15.2223 34 34-15.222 34-34 34h-26v56h26c18.778 0 34 15.222 34 34s-15.222 34-34 34-34-15.222-34-34v-26H68v26c0 18.778-15.2223 34-34 34S0 176.778 0 158s15.2223-34 34-34h26V68H34C15.2223 68 0 52.7777 0 34zm60 26V34C60 19.6406 48.3594 8 34 8S8 19.6406 8 34s11.6406 26 26 26h26zm8 8v56h56V68H68zm-8 64H34c-14.3594 0-26 11.641-26 26s11.6406 26 26 26 26-11.641 26-26v-26zm72 0v26c0 14.359 11.641 26 26 26s26-11.641 26-26-11.641-26-26-26h-26zm0-72h26c14.359 0 26-11.6406 26-26S172.359 8 158 8s-26 11.6406-26 26v26z"/>
</svg>