<svg xmlns="http://www.w3.org/2000/svg" width="192" height="192" fill="#000" viewBox="0 0 192 192">
  <path fill-rule="evenodd" d="M174.857 8l-157.7141.00008C12.0934 8.00008 8 12.0935 8 17.1429V180.256l42.051-29.842c2.3436-1.663 5.1462-2.557 8.0198-2.557H174.857c5.05 0 9.143-4.093 9.143-9.143V17.1429C184 12.0934 179.907 8 174.857 8zM17.1429.0000763L174.857 0C184.325 0 192 7.67512 192 17.1429V138.714c0 9.468-7.675 17.143-17.143 17.143H58.0708c-1.2146 0-2.3992.378-3.3898 1.081L6.31499 191.262c-1.22012.866-2.82147.979-4.15075.292C.834957 190.867 0 189.496 0 188V17.1429C0 7.6752 7.67511.0000763 17.1429.0000763zM92.1499 58.9999c-3.0963 0-5.6063 2.51-5.6063 5.6063v1.601c0 2.2091-1.7908 4-4 4-2.2091 0-4-1.7909-4-4v-1.601c0-7.5146 6.0918-13.6063 13.6063-13.6063h6.4851c8.177 0 14.806 6.6289 14.806 14.8062 0 5.9228-3.53 11.2758-8.974 13.609-2.714 1.1634-4.4746 3.8329-4.4746 6.7865v5.2306c0 2.2092-1.7909 4-4 4-2.2091 0-4-1.7908-4-4v-5.2306c0-6.1538 3.6674-11.7156 9.3236-14.1397 2.503-1.0725 4.125-3.5332 4.125-6.2558 0-3.759-3.047-6.8062-6.806-6.8062h-6.4851zM96.062 102c2.2091 0 4 1.791 4 4v1c0 2.209-1.7909 4-4 4-2.2091 0-4-1.791-4-4v-1c0-2.209 1.7909-4 4-4z"/>
</svg>