<svg xmlns="http://www.w3.org/2000/svg" width="192" height="192" fill="#000" viewBox="0 0 192 192">
  <path fill-rule="evenodd" d="M174.857 8l-157.7141.00008C12.0934 8.00008 8 12.0935 8 17.1429V180.256l42.051-29.842c2.3436-1.663 5.1462-2.557 8.0198-2.557H174.857c5.05 0 9.143-4.093 9.143-9.143V17.1429C184 12.0934 179.907 8 174.857 8zM17.1429.0000763L174.857 0C184.325 0 192 7.67512 192 17.1429V138.714c0 9.468-7.675 17.143-17.143 17.143H58.0708c-1.2146 0-2.3992.378-3.3898 1.081L6.31499 191.262c-1.22012.866-2.82147.979-4.15075.292C.834957 190.867 0 189.496 0 188V17.1429C0 7.6752 7.67511.0000763 17.1429.0000763zM75.8997 66.5559C72.9735 70.6208 71.25 75.6091 71.25 81c0 13.669 11.081 24.75 24.75 24.75 5.391 0 10.379-1.724 14.444-4.65L75.8997 66.5559zm5.6569-5.6567l34.5444 34.5442c2.926-4.0647 4.649-9.0528 4.649-14.4434 0-13.669-11.081-24.75-24.75-24.75-5.3906 0-10.3787 1.7234-14.4434 4.6492zM63.25 81c0-18.0873 14.6627-32.75 32.75-32.75 18.087 0 32.75 14.6627 32.75 32.75S114.087 113.75 96 113.75c-18.0873 0-32.75-14.6627-32.75-32.75z"/>
</svg>