<svg xmlns="http://www.w3.org/2000/svg" width="192" height="192" fill="#000" viewBox="0 0 192 192">
  <path fill-rule="evenodd" d="M174.857 8l-157.7141.00008C12.0934 8.00008 8 12.0935 8 17.1429V180.256l42.051-29.842c2.3436-1.663 5.1462-2.557 8.0198-2.557H174.857c5.05 0 9.143-4.093 9.143-9.143V17.1429C184 12.0934 179.907 8 174.857 8zM17.1429.0000763L174.857 0C184.325 0 192 7.67512 192 17.1429V138.714c0 9.468-7.675 17.143-17.143 17.143H58.0708c-1.2146 0-2.3992.378-3.3898 1.081L6.31499 191.262c-1.22012.866-2.82147.979-4.15075.292C.834957 190.867 0 189.496 0 188V17.1429C0 7.6752 7.67511.0000763 17.1429.0000763zM128.199 47.659c1.846 1.2147 2.357 3.6953 1.142 5.5405l-39.5 59.9995c-.6833 1.038-1.8103 1.7-3.0497 1.79-1.2394.091-2.4505-.4-3.2774-1.328l-20.5-22.9995c-1.4698-1.6492-1.3245-4.1777.3246-5.6476 1.6492-1.4698 4.1777-1.3245 5.6476.3246l17.0358 19.1135 36.6371-55.6515c1.215-1.8452 3.695-2.3562 5.54-1.1415z"/>
</svg>