<svg xmlns="http://www.w3.org/2000/svg" width="192" height="192" fill="#000" viewBox="0 0 192 192">
  <path fill-rule="evenodd" d="M174.857 8l-157.7141.00008C12.0934 8.00008 8 12.0935 8 17.1429V180.256l42.051-29.842c2.3436-1.663 5.1462-2.557 8.0198-2.557H174.857c5.05 0 9.143-4.093 9.143-9.143V17.1429C184 12.0934 179.907 8 174.857 8zM17.1429.0000763L174.857 0C184.325 0 192 7.67512 192 17.1429V138.714c0 9.468-7.675 17.143-17.143 17.143H58.0708c-1.2146 0-2.3992.378-3.3898 1.081L6.31499 191.262c-1.22012.866-2.82147.979-4.15075.292C.834957 190.867 0 189.496 0 188V17.1429C0 7.6752 7.67511.0000763 17.1429.0000763zM71.9584 58.3848c1.5621-1.5621 4.0947-1.5621 5.6568 0L96 76.7695l18.385-18.3847c1.562-1.5621 4.095-1.5621 5.657 0 1.562 1.5621 1.562 4.0947 0 5.6568l-18.385 18.3848 18.385 18.3846c1.562 1.562 1.562 4.095 0 5.657-1.562 1.562-4.095 1.562-5.657 0L96 88.0833 77.6152 106.468c-1.5621 1.562-4.0947 1.562-5.6568 0s-1.5621-4.095 0-5.657l18.3847-18.3846-18.3847-18.3848c-1.5621-1.5621-1.5621-4.0947 0-5.6568z"/>
</svg>