<svg xmlns="http://www.w3.org/2000/svg" width="192" height="192" fill="#000" viewBox="0 0 192 192">
  <path fill-rule="evenodd" d="M174.857 8l-157.7141.00008C12.0934 8.00008 8 12.0935 8 17.1429V180.256l42.051-29.842c2.3436-1.663 5.1462-2.557 8.0198-2.557H174.857c5.05 0 9.143-4.093 9.143-9.143V17.1429C184 12.0934 179.907 8 174.857 8zM17.1429.0000763L174.857 0C184.325 0 192 7.67512 192 17.1429V138.714c0 9.468-7.675 17.143-17.143 17.143H58.0708c-1.2146 0-2.3992.378-3.3898 1.081L6.31499 191.262c-1.22012.866-2.82147.979-4.15075.292C.834957 190.867 0 189.496 0 188V17.1429C0 7.6752 7.67511.0000763 17.1429.0000763zM81.6566 57.6966c-7.1509 0-12.96 5.7778-12.96 12.872 0 4.3638.9491 7.6793 4.6855 12.2929 3.9059 4.8227 10.675 10.8272 22.3252 20.2685 11.6517-9.441 18.4217-15.4448 22.3277-20.2682 3.734-4.6115 4.684-7.9278 4.684-12.2932 0-7.0654-5.78-12.872-12.96-12.872-2.449 0-4.326.4461-5.971 1.2444-1.68.8152-3.325 2.0978-5.1742 4.0529-.7555.7988-1.8065 1.2513-2.9059 1.2513-1.0995 0-2.1505-.4525-2.906-1.2513-1.8493-1.9551-3.4939-3.2377-5.1741-4.0529-1.6451-.7983-3.522-1.2444-5.9712-1.2444zm-20.96 12.872c0-11.5654 9.4439-20.872 20.96-20.872 3.5035 0 6.5982.6566 9.4635 2.0469 1.6563.8036 3.1669 1.8191 4.5878 3.0019 1.4208-1.1828 2.9314-2.1983 4.5881-3.0019 2.865-1.3903 5.96-2.0469 9.463-2.0469 11.571 0 20.96 9.3608 20.96 20.872 0 6.2668-1.623 11.3461-6.467 17.3279-4.591 5.6693-12.204 12.3075-24.13 21.9515l-.9404.819c-1.9916 1.733-4.9558 1.733-6.9475 0l-.9229-.803c-11.9359-9.654-19.5532-16.2966-24.146-21.9676-4.8459-5.9836-6.4686-11.0621-6.4686-17.3278z"/>
</svg>