<svg xmlns="http://www.w3.org/2000/svg" width="192" height="192" fill="#000" viewBox="0 0 192 192">
  <path fill-rule="evenodd" d="M174.857 8l-157.7141.00008C12.0934 8.00008 8 12.0935 8 17.1429V180.256l42.051-29.842c2.3436-1.663 5.1462-2.557 8.0198-2.557H174.857c5.05 0 9.143-4.093 9.143-9.143V17.1429C184 12.0934 179.907 8 174.857 8zM17.1429.0000763L174.857 0C184.325 0 192 7.67512 192 17.1429V138.714c0 9.468-7.675 17.143-17.143 17.143H58.0708c-1.2146 0-2.3992.378-3.3898 1.081L6.31499 191.262c-1.22012.866-2.82147.979-4.15075.292C.834957 190.867 0 189.496 0 188V17.1429C0 7.6752 7.67511.0000763 17.1429.0000763zM103.092 60.6778c-7.5699-7.5704-19.8439-7.5704-27.4142 0-7.5704 7.5703-7.5704 19.8443 0 27.4146 7.5703 7.5704 19.8443 7.5704 27.4142 0 7.571-7.5703 7.571-19.8443 0-27.4146zm-33.0711-5.6569c10.6946-10.6945 28.0338-10.6945 38.7281 0 9.734 9.7338 10.609 24.9721 2.624 35.6949l17.455 17.4562c1.563 1.562 1.563 4.094 0 5.656-1.562 1.563-4.094 1.563-5.656 0l-17.456-17.4554c-10.723 7.9854-25.9613 7.1104-35.6951-2.6233-10.6945-10.6946-10.6945-28.0338 0-38.7284z"/>
</svg>