<svg xmlns="http://www.w3.org/2000/svg" width="192" height="192" fill="#000" viewBox="0 0 192 192">
  <path fill-rule="evenodd" d="M174.857 8l-157.7141.00008C12.0934 8.00008 8 12.0935 8 17.1429V180.256l42.051-29.842c2.3436-1.663 5.1462-2.557 8.0198-2.557H174.857c5.05 0 9.143-4.093 9.143-9.143V17.1429C184 12.0934 179.907 8 174.857 8zM17.1429.0000763L174.857 0C184.325 0 192 7.67512 192 17.1429V138.714c0 9.468-7.675 17.143-17.143 17.143H58.0708c-1.2146 0-2.3992.378-3.3898 1.081L6.31499 191.262c-1.22012.866-2.82147.979-4.15075.292C.834957 190.867 0 189.496 0 188V17.1429C0 7.6752 7.67511.0000763 17.1429.0000763zM96.0667 48.2565c1.5517 0 2.9633.8974 3.6219 2.3024l7.8884 16.8308 17.907 2.7397c1.481.2267 2.711 1.2623 3.187 2.6833.476 1.4209.118 2.9887-.927 4.0621l-13.089 13.4335 3.061 18.7917c.247 1.513-.392 3.033-1.645 3.914-1.253.882-2.899.971-4.24.229l-15.7643-8.727-15.7645 8.727c-1.3404.742-2.9869.653-4.2397-.229-1.2528-.881-1.8918-2.401-1.6455-3.914l3.061-18.7917-13.0882-13.4335c-1.0458-1.0734-1.4039-2.6412-.9278-4.0621.4761-1.421 1.7065-2.4566 3.1878-2.6833l17.9063-2.7397 7.8887-16.8308c.6585-1.405 2.0702-2.3024 3.6219-2.3024zm0 13.4251l-4.5149 9.6325c-.9769 2.0842-2.9285 3.5464-5.2063 3.8949L75.546 76.8614l8.046 8.2583c1.5291 1.5695 2.2223 3.7711 1.8702 5.9326l-1.8244 11.2007 9.0872-5.0309c2.0793-1.151 4.6041-1.151 6.6834 0l9.0876 5.0309-1.825-11.2007c-.352-2.1615.341-4.3631 1.87-5.9326l8.046-8.2583-10.799-1.6524c-2.278-.3485-4.23-1.8107-5.206-3.8949l-4.5153-9.6325z"/>
</svg>