<svg xmlns="http://www.w3.org/2000/svg" width="192" height="192" fill="#000" viewBox="0 0 192 192">
  <path fill-rule="evenodd" d="M174.857 8l-157.7141.00008C12.0934 8.00008 8 12.0935 8 17.1429V180.256l42.051-29.842c2.3436-1.663 5.1462-2.557 8.0198-2.557H174.857c5.05 0 9.143-4.093 9.143-9.143V17.1429C184 12.0934 179.907 8 174.857 8zM17.1429.0000763L174.857 0C184.325 0 192 7.67512 192 17.1429V138.714c0 9.468-7.675 17.143-17.143 17.143H58.0708c-1.2146 0-2.3992.378-3.3898 1.081L6.31499 191.262c-1.22012.866-2.82147.979-4.15075.292C.834957 190.867 0 189.496 0 188V17.1429C0 7.6752 7.67511.0000763 17.1429.0000763zM78.6087 65.163c0-9.3408 7.5722-16.913 16.913-16.913 9.3413 0 16.9133 7.5722 16.9133 16.913v12.7591c4.333 1.8098 7.379 6.0882 7.379 11.0779v12.75c0 6.627-5.373 12-12 12H83.2298c-6.6274 0-12-5.373-12-12V89c0-4.9897 3.0454-9.2681 7.3789-11.0779V65.163zm8 11.837h17.8263V65.163c0-4.9225-3.991-8.913-8.9133-8.913-4.9225 0-8.913 3.9905-8.913 8.913V77zm-3.3789 8c-2.2091 0-4 1.7909-4 4v12.75c0 2.209 1.7909 4 4 4h24.5842c2.209 0 4-1.791 4-4V89c0-2.2091-1.791-4-4-4H83.2298z"/>
</svg>