<svg xmlns="http://www.w3.org/2000/svg" width="192" height="192" fill="#000" viewBox="0 0 192 192">
  <path fill-rule="evenodd" d="M48 0c2.2091 0 4 1.79086 4 4v15h40V4c0-2.20914 1.7909-3.99999785 4-3.99999785 2.2091 0 4 1.79085785 4 3.99999785v15h40V4c0-2.20913 1.791-3.9999957 4-3.9999957S148 1.79087 148 4v15h13c6.627 0 12 5.3726 12 12v13h15c2.209 0 4 1.7909 4 4 0 2.2091-1.791 4-4 4h-15v40h15c2.209 0 4 1.7909 4 4 0 2.2091-1.791 4-4 4h-15v40h15c2.209 0 4 1.791 4 4s-1.791 4-4 4h-15v13c0 6.627-5.373 12-12 12h-13v15c0 2.209-1.791 4-4 4s-4-1.791-4-4v-15h-40v15c0 2.209-1.7909 4-4 4-2.2091 0-4-1.791-4-4v-15H52v15c0 2.209-1.7909 4-4 4-2.2091 0-4-1.791-4-4v-15H31c-6.6274 0-12-5.373-12-12v-13H4c-2.20914 0-4-1.791-4-4s1.79086-4 4-4h15v-40H4c-2.20914 0-4-1.7909-4-4 0-2.2091 1.79086-4 4-4h15V52H4c-2.20914 0-4-1.7909-4-4 0-2.2091 1.79086-4 4-4h15V31c0-6.6274 5.3726-12 12-12h13V4c0-2.20914 1.7909-4 4-4zM27 161c0 2.209 1.7909 4 4 4h130c2.209 0 4-1.791 4-4V31c0-2.2091-1.791-4-4-4H31c-2.2091 0-4 1.7909-4 4v130zM49 57c0-4.4183 3.5817-8 8-8h78c4.418 0 8 3.5817 8 8v78c0 4.418-3.582 8-8 8H57c-4.4183 0-8-3.582-8-8V57zm86 0H57v78h78V57z"/>
</svg>