<svg xmlns="http://www.w3.org/2000/svg" width="192" height="192" fill="#000" viewBox="0 0 192 192">
  <path fill-rule="evenodd" d="M12 8c-2.20912 0-3.99998 1.79086-3.99998 4L8 180c0 2.209 1.79086 4 4 4h119c2.209 0 4-1.791 4-4v-9.474c-.001-.061-.001-.121 0-.181V149c0-2.068-1.786-4.25-4.665-4.764-9.946-1.776-18.852-6.551-25.75-13.356-.026-.025-.051-.05-.076-.076C95.5494 121.926 90 109.612 90 96c0-13.6121 5.5492-25.9255 14.509-34.804.025-.0257.051-.051.077-.076 6.897-6.8053 15.804-11.58 25.749-13.3556C133.214 47.2504 135 45.0677 135 43V21.6551c-.001-.0603-.001-.1207 0-.1812V12c0-2.20913-1.791-3.99999-4-3.99999L12 8zm131 10.9788V12c0-6.6274-5.373-11.99998903-12-11.99998951L12 0C5.3726-4.8e-7.00001526 5.37259.00001478 12L0 180c-4.8e-7 6.627 5.37259 12 12 12h119c6.627 0 12-5.373 12-12v-6.979c28.941-13.55 49-42.939 49-77.021 0-34.0825-20.059-63.4713-49-77.0212zm0 8.9366V43c0 6.7688-5.439 11.6008-11.259 12.6399-5.349.955-10.339 2.9482-14.754 5.7635C132.011 65.7327 143 79.5828 143 96c0 16.417-10.989 30.267-26.013 34.597 4.415 2.815 9.405 4.808 14.754 5.763C137.561 137.399 143 142.231 143 149v15.085c24.393-12.925 41-38.57 41-68.085 0-29.5153-16.607-55.1596-41-68.0846zm-34.015 96.0156C123.522 122.913 135 110.797 135 96c0-14.7966-11.478-26.913-26.015-27.9308C102.169 75.3911 98 85.2098 98 96c0 10.79 4.169 20.609 10.985 27.931z"/>
</svg>