<svg xmlns="http://www.w3.org/2000/svg" width="192" height="192" fill="#000" viewBox="0 0 192 192">
  <path  fill-rule="evenodd" d="M96 8C47.3989 8 8 47.3989 8 96c0 14.604 3.5573 28.377 9.8527 40.5l41.6713-24.059C57.2601 107.425 56 101.86 56 96c0-22.0914 17.9086-40 40-40 2.1919 0 4.343.1763 6.439.5155l12.455-46.4824C108.807 8.70162 102.486 8 96 8zm26.622 4.0988l-12.455 46.4826c7.399 2.8028 13.75 7.737 18.303 14.0532l41.671-24.0587c-10.981-17.1308-27.736-30.2056-47.519-36.4771zm51.525 43.4016l-41.671 24.059C134.74 84.5745 136 90.1401 136 96c0 22.091-17.909 40-40 40-2.1919 0-4.3426-.176-6.4387-.516l-12.455 46.483C83.1925 183.298 89.5143 184 96 184c48.601 0 88-39.399 88-88 0-14.6038-3.557-28.3767-9.853-40.4996zM69.3776 179.901l12.455-46.482c-7.3988-2.803-13.7494-7.737-18.3026-14.054l-41.6709 24.059c10.9805 17.131 27.7357 30.206 47.5185 36.477zM0 96C0 42.9807 42.9807 0 96 0c53.019 0 96 42.9807 96 96 0 53.019-42.981 96-96 96-53.0193 0-96-42.981-96-96zm96-32c-17.6731 0-32 14.3269-32 32 0 17.673 14.3269 32 32 32 17.673 0 32-14.327 32-32 0-17.6731-14.327-32-32-32z"/>
</svg>