<svg xmlns="http://www.w3.org/2000/svg" width="192" height="192" fill="#000" viewBox="0 0 192 192">
  <path fill-rule="evenodd" d="M69 0c2.2091 0 4 1.79086 4 4v3.08235C73 13.6643 78.3357 19 84.9177 19H129c7.18 0 13 5.8203 13 13s-5.82 13-13 13h-23.001c-3.798 0-6.9788 2.6476-7.7961 6.1981C120.532 53.3141 138 72.1171 138 95v53c0 24.301-19.699 44-44 44-24.3005 0-44-19.699-44-44V95c0-22.9872 17.6277-41.8572 40.1027-43.8298C91.0106 43.1954 97.7814 37 105.999 37H129c2.761 0 5-2.2386 5-5s-2.239-5-5-5H84.9177C73.9174 27 65 18.0826 65 7.08235V4c0-2.20914 1.7909-4 4-4zm25 59c-19.8822 0-36 16.1178-36 36v53c0 19.882 16.1178 36 36 36 19.882 0 36-16.118 36-36V95c0-19.8822-16.118-36-36-36zm0 13c2.2091 0 4 1.7909 4 4v16c0 2.2091-1.7909 4-4 4-2.2091 0-4-1.7909-4-4V76c0-2.2091 1.7909-4 4-4z"/>
</svg>