<svg xmlns="http://www.w3.org/2000/svg" width="192" height="192" fill="#000" viewBox="0 0 192 192">
  <path fill-rule="evenodd" d="M96 8C47.3989 8 8 47.3989 8 96c0 48.601 39.3989 88 88 88 48.601 0 88-39.399 88-88 0-48.6011-39.399-88-88-88zM0 96C0 42.9807 42.9807 0 96 0c53.019 0 96 42.9807 96 96 0 53.019-42.981 96-96 96-53.0193 0-96-42.981-96-96zm96-82c2.2091 0 4 1.7909 4 4v12c0 2.2091-1.7909 4-4 4-2.2091 0-4-1.7909-4-4V18c0-2.2091 1.7909-4 4-4zm36.77 45.2304c1.562 1.5621 1.562 4.0948 0 5.6569l-22.255 22.255c4.002 6.546 3.171 15.2137-2.494 20.8787-5.665 5.665-14.3327 6.496-20.8787 2.494l-22.255 22.255c-1.5621 1.562-4.0948 1.562-5.6568 0-1.5621-1.563-1.5621-4.095 0-5.657l22.2549-22.255c-4.0022-6.5463-3.1709-15.2141 2.4938-20.8788 5.6647-5.6647 14.3325-6.496 20.8788-2.4938l22.255-22.255c1.562-1.5621 4.094-1.5621 5.657 0zM14 96c0-2.2091 1.7909-4 4-4h12c2.2091 0 4 1.7909 4 4 0 2.2091-1.7909 4-4 4H18c-2.2091 0-4-1.7909-4-4zm88.364-6.364c-3.5148-3.5147-9.2132-3.5147-12.728 0-3.5147 3.5148-3.5147 9.2132 0 12.728 3.5148 3.515 9.2132 3.515 12.728 0 3.515-3.5148 3.515-9.2132 0-12.728zM158 96c0-2.2091 1.791-4 4-4h12c2.209 0 4 1.7909 4 4 0 2.2091-1.791 4-4 4h-12c-2.209 0-4-1.7909-4-4zm-62 62c2.2091 0 4 1.791 4 4v12c0 2.209-1.7909 4-4 4-2.2091 0-4-1.791-4-4v-12c0-2.209 1.7909-4 4-4z"/>
</svg>