<svg xmlns="http://www.w3.org/2000/svg" width="192" height="192" fill="#000" viewBox="0 0 192 192">
  <path fill-rule="evenodd" d="M71 23c2.2091 0 4 1.7909 4 4v2.0824C75 35.6643 80.3357 41 86.9177 41H132c7.18 0 13 5.8203 13 13s-5.82 13-13 13h-24.001c-3.727 0-6.86 2.5495-7.748 6H182c5.523 0 10 4.4772 10 10v76c0 5.523-4.477 10-10 10H10c-5.52285 0-10-4.477-10-10l2.4e-7-15.999L0 143l2.4e-7-44c0-.0008 2.4e-7-.0016 7.1e-7-.0024L.0000012 83C.0000012 77.4772 4.47715 73 10 73h82.123c.9842-7.8926 7.717-14 15.876-14H132c2.761 0 5-2.2386 5-5s-2.239-5-5-5H86.9177C75.9174 49 67 40.0826 67 29.0824V27c0-2.2091 1.7909-4 4-4zm21 58H77v14h15V81zm0 22H77v14h15v-14zm8 14v-14h15v14h-15zm-8 8H77v14h15v-14zm8 14v-14h15v14h-15zm23 0h15v-14h-15v14zm0-22h15v-14h-15v14zm0-22h15V81h-15v14zm-8-14h-15v14h15V81zm31 0v14h15V81h-15zm23 0v14h15V83c0-1.1046-.895-2-2-2h-13zm15 22h-15v36h15v-36zm0 44h-15v14h13c1.105 0 2-.895 2-2v-12zm-23 14v-14h-15v14h15zm-23 0v-14H54v14h84zm-92 0v-14H31v14h15zm-23 0v-14H8v12c0 1.105.89543 2 2 2h13zM8 139h15v-14H8v14zm0-22h15v-14H8v14zm0-22h15V81H10c-1.10457 0-2 .8954-2 2v12zm23-14v14h15V81H31zm23 0v14h15V81H54zm15 22H54v14h15v-14zm0 22H54v14h15v-14zm-23-8v-14H31v14h15zm-15 8h15v14H31v-14zm115 14h15v-14h-15v14zm0-22h15v-14h-15v14z"/>
</svg>