<svg xmlns="http://www.w3.org/2000/svg" width="192" height="192" fill="#000" viewBox="0 0 192 192">
  <path fill-rule="evenodd" d="M163.551 8.59099c-.788-.78799-2.065-.78799-2.853 0l-8.519 8.51871 22.711 22.7112 8.519-8.5188c.788-.788.788-2.0656 0-2.8535L163.551 8.59099zm5.682 36.88671l-22.711-22.7111-81.931 81.9314c-.3784.378-.591.892-.591 1.427V128h21.8753c.5352 0 1.0484-.213 1.4268-.591l81.9309-81.9313zM155.041 2.93413c3.912-3.912175 10.255-3.912174 14.167 0l19.858 19.85757c3.912 3.9122 3.912 10.2551 0 14.1673l-96.107 96.107c-1.8787 1.879-4.4268 2.934-7.0837 2.934H60c-2.2091 0-4-1.791-4-4v-25.875c0-2.657 1.0554-5.205 2.9341-7.084L155.041 2.93413zM10 48c-1.10457 0-2 .8954-2 2v132c0 1.105.89543 2 2 2h132c1.105 0 2-.895 2-2v-66c0-2.209 1.791-4 4-4s4 1.791 4 4v66c0 5.523-4.477 10-10 10H10c-5.52284 0-10-4.477-10-10V50c0-5.5228 4.47715-10 10-10h66c2.2091 0 4 1.7909 4 4 0 2.2091-1.7909 4-4 4H10z"/>
</svg>