<svg xmlns="http://www.w3.org/2000/svg" width="193" height="192" fill="#000" viewBox="0 0 193 192">
  <path fill-rule="evenodd" d="M0 10C0 4.47715 4.47715 0 10 0h173c5.523 0 10 4.47715 10 10v172c0 5.523-4.477 10-10 10H10c-5.52285 0-10-4.477-10-10V10zm130 174h53c1.105 0 2-.895 2-2v-53h-53c-1.105 0-2 .895-2 2v53zm55-63h-53c-5.523 0-10 4.477-10 10v53H10c-1.10457 0-2-.895-2-2V10c0-1.10457.89543-2 2-2h173c1.105 0 2 .89543 2 2v111zM40.2635 40.2633c.7501-.7502 1.7675-1.1716 2.8284-1.1716h38.1838c2.2091 0 4 1.7909 4 4 0 2.2091-1.7909 4-4 4H52.7488L89.761 84.1039c1.5621 1.5621 1.5621 4.0947 0 5.6568s-4.0948 1.5621-5.6569 0L47.0919 52.7485v28.527c0 2.2091-1.7909 4-4 4-2.2092 0-4-1.7909-4-4V43.0917c0-1.0609.4214-2.0783 1.1716-2.8284z"/>
</svg>