<svg xmlns="http://www.w3.org/2000/svg" width="192" height="192" fill="#000" viewBox="0 0 192 192">
  <path fill-rule="evenodd" d="M.00000572 10C.00000596 4.47716 4.47716-4.8e-7 10 0l132 .00000572C147.523.00000596 152 4.47716 152 10v66c0 2.2091-1.791 4-4 4s-4-1.7909-4-4V10c0-1.10456-.895-1.99999-2-1.99999L10 8c-1.10456 0-1.99999.89543-1.99999 2L8 142c0 1.105.89543 2 2 2h66c2.2091 0 4 1.791 4 4s-1.7909 4-4 4H10C4.47716 152-4.8e-7 147.523 0 142L.00000572 10zM153.045 105.787c-13.05-13.0494-34.208-13.0494-47.258 0-13.0494 13.05-13.0494 34.208 0 47.258 13.05 13.05 34.208 13.05 47.258 0 13.05-13.05 13.05-34.208 0-47.258zm-52.914-5.656c16.174-16.1745 42.397-16.1745 58.571 0 15.22 15.219 16.118 39.338 2.693 55.608l29.433 29.433c1.563 1.562 1.563 4.094 0 5.656-1.562 1.563-4.094 1.563-5.656 0l-29.433-29.433c-16.27 13.425-40.389 12.527-55.608-2.693-16.1745-16.174-16.1745-42.397 0-58.571zM129.5 107c2.209 0 4 1.791 4 4v14.5H148c2.209 0 4 1.791 4 4s-1.791 4-4 4h-14.5V148c0 2.209-1.791 4-4 4s-4-1.791-4-4v-14.5H111c-2.209 0-4-1.791-4-4s1.791-4 4-4h14.5V111c0-2.209 1.791-4 4-4z"/>
</svg>