<svg xmlns="http://www.w3.org/2000/svg" width="192" height="192" fill="#000" viewBox="0 0 192 192">
  <path fill-rule="evenodd" d="M74.7476 2.60175c.7723 2.06974-.2795 4.37367-2.3492 5.14597L31.522 23.0001H143c6.627 0 12 5.3726 12 12v70.3429l30.172-30.1713c1.562-1.5621 4.094-1.5621 5.656 0 1.563 1.5621 1.563 4.0947 0 5.6568L155 116.657v28.686l30.172-30.171c1.562-1.562 4.094-1.562 5.656 0 1.563 1.562 1.563 4.094 0 5.657L155 156.657V180c0 6.628-5.373 12-12 12H12c-6.62741 0-12-5.372-12-12V34.5538c0-5.0093 3.11167-9.4916 7.80491-11.2428L69.6016.252498c2.0698-.772294 4.3737.279501 5.146 2.349252zM8 56.0001h139v-21c0-2.2091-1.791-4-4-4H12c-2.20914 0-4 1.7909-4 4v21zm139 8H8V180c0 2.209 1.79086 4 4 4h131c2.209 0 4-1.791 4-4V64.0001zm-114-20c0-2.2091 1.7909-4 4-4h18c2.2091 0 4 1.7909 4 4 0 2.2091-1.7909 4-4 4H37c-2.2091 0-4-1.7909-4-4zm0 49c0-2.2091 1.7909-4 4-4h81c2.209 0 4 1.7909 4 4V115c0 2.209-1.791 4-4 4H37c-2.2091 0-4-1.791-4-4V93.0001zm8 4V111h73V97.0001H41zM33 133c0-2.209 1.7909-4 4-4h81c2.209 0 4 1.791 4 4v22c0 2.209-1.791 4-4 4H37c-2.2091 0-4-1.791-4-4v-22zm8 4v14h73v-14H41z"/>
</svg>