<svg xmlns="http://www.w3.org/2000/svg" width="192" height="192" fill="#000" viewBox="0 0 192 192">
  <path fill-rule="evenodd" d="M53.9228 16.5827c-2.821 6.246-9.1148 10.588-16.422 10.588-7.3073 0-13.6011-4.342-16.4221-10.5881-.2111-.5585-.551-1.0781-1.0179-1.5122-.6747-.6272-1.5082-.9769-2.3597-1.054-.6533-.0613-1.3307.0377-1.9743.3195-.5891.258-1.0849.6408-1.4699 1.1039-5.12358 5.5882-8.25614 13.0421-8.25614 21.2187 0 15.91 11.95234 28.899 27.23104 31.0338-.8482 9.0883-.5793 18.6511 2.2363 27.6558-8.1758 5.9859-15.254 13.1709-20.8974 21.2739C10.331 107.48 8 97.4795 8 87c0-2.2092-1.79086-4-4-4s-4 1.7908-4 4c0 14.297 3.89539 27.773 10.7652 39.616 2.3812 4.104 5.1185 8.011 8.173 11.688-4.3085 5.96-7.7895 12.461-10.28529 19.374-.75019 2.078.32609 4.371 2.40399 5.121 2.0778.75 4.3704-.326 5.1206-2.404 2.0449-5.664 4.8371-11.042 8.2805-16.039 3.1465 3.147 6.5457 6.083 10.1678 8.783-3.5982 5.828-6.2367 12.143-7.5561 19.117-.4106 2.171 1.0161 4.264 3.1868 4.674 2.1706.411 4.2632-1.016 4.6738-3.187 1.0908-5.766 3.2574-11.072 6.312-16.09C56.7959 167.342 75.679 173 96 173c20.321 0 39.204-5.658 54.758-15.347 3.054 5.018 5.221 10.324 6.312 16.09.41 2.171 2.503 3.598 4.673 3.187 2.171-.41 3.598-2.503 3.187-4.674-1.319-6.974-3.958-13.289-7.556-19.117 3.622-2.699 7.021-5.636 10.168-8.783 3.443 4.998 6.235 10.375 8.28 16.039.75 2.078 3.043 3.154 5.121 2.404 2.078-.75 3.154-3.043 2.404-5.121-2.496-6.913-5.977-13.414-10.285-19.374 3.054-3.677 5.792-7.584 8.173-11.688C188.105 114.773 192 101.297 192 87c0-2.2092-1.791-4-4-4s-4 1.7908-4 4c0 10.4795-2.331 20.48-6.571 29.622-5.643-8.102-12.721-15.287-20.896-21.273 2.816-9.0049 3.085-18.5681 2.237-27.6567 15.278-2.1348 27.231-15.1238 27.231-31.0338 0-8.1766-3.133-15.6304-8.256-21.2187-.385-.463-.881-.8459-1.47-1.1039-.644-.2818-1.321-.3807-1.974-.3196-.851.077-1.684.4262-2.359 1.0528-.467.4343-.808.9544-1.019 1.5135-2.821 6.2461-9.115 10.5881-16.422 10.5881s-13.601-4.3419-16.422-10.5878c-.211-.5574-.55-1.0761-1.015-1.5097-.675-.6287-1.509-.9792-2.362-1.0567-.653-.0614-1.33.0373-1.974.3189-.59.258-1.086.641-1.471 1.1044-5.124 5.5882-8.256 13.0421-8.256 21.2187 0 16.1469 12.052 29.3738 27.742 31.1409.782 7.8485.646 15.6633-1.2 22.8866C134.222 81.3994 115.793 76 96 76c-19.7923 0-38.2205 5.3991-53.5418 14.6852-1.846-7.223-1.9814-15.0376-1.1994-22.8858 15.6898-1.7671 27.742-14.994 27.742-31.1409 0-8.1765-3.1326-15.6305-8.2561-21.2187-.3853-.4633-.8814-.8464-1.4711-1.1044-.6434-.2815-1.3205-.3803-1.9735-.319-.8515.0772-1.6849.4269-2.3596 1.0542-.4668.4341-.8066.9536-1.0177 1.5121zm80.0802 8.6024c-1.913 3.3915-3.002 7.3038-3.002 11.4734C131.001 49.6089 141.358 60 154.331 60c13.038 0 23.67-10.4552 23.67-23.3415 0-4.1696-1.089-8.0819-3.002-11.4734-4.758 6.0765-12.169 9.9856-20.498 9.9856s-15.741-3.9091-20.498-9.9856zm39.107 99.4209C156.884 98.4633 126.321 84 96 84c-30.321 0-60.8837 14.4633-77.1099 40.606C35.1273 150.695 65.7509 165 96 165c30.22 0 60.906-14.358 77.11-40.394zM57.9986 25.1851c1.913 3.3915 3.0022 7.3038 3.0022 11.4734C61.0008 49.6089 50.6439 60 37.6706 60c-13.0379 0-23.6698-10.4552-23.6698-23.3415 0-4.1696 1.0891-8.0819 3.0021-11.4734 4.7572 6.0765 12.1691 9.9856 20.4979 9.9856 8.3288 0 15.7407-3.9091 20.4978-9.9856z"/>
</svg>