<svg xmlns="http://www.w3.org/2000/svg" width="192" height="192" fill="#000" viewBox="0 0 192 192">
  <path fill-rule="evenodd" d="M12 39c-2.20914 0-4 1.7909-4 4v106c0 2.209 1.79086 4 4 4h168c2.209 0 4-1.791 4-4V43c0-2.2091-1.791-4-4-4H12zM0 43c0-6.6274 5.37258-12 12-12h168c6.627 0 12 5.3726 12 12v106c0 6.627-5.373 12-12 12H12c-6.62742 0-12-5.373-12-12V43zm18 10c0-2.2091 1.7909-4 4-4h22c2.2091 0 4 1.7909 4 4 0 2.2091-1.7909 4-4 4H22c-2.2091 0-4-1.7909-4-4zm40 0c0-2.2091 1.7909-4 4-4h32c2.2091 0 4 1.7909 4 4 0 2.2091-1.7909 4-4 4H62c-2.2091 0-4-1.7909-4-4zm60 44c-10.493 0-19 8.507-19 19s8.507 19 19 19c2.92 0 5.686-.659 8.157-1.835C122.311 128.499 120 122.519 120 116c0-6.519 2.311-12.499 6.157-17.1647C123.686 97.6586 120.92 97 118 97zm14.5-3.7801C128.311 90.5482 123.336 89 118 89c-14.912 0-27 12.088-27 27s12.088 27 27 27c5.336 0 10.311-1.548 14.5-4.22 4.189 2.672 9.164 4.22 14.5 4.22 14.912 0 27-12.088 27-27s-12.088-27-27-27c-5.336 0-10.311 1.5482-14.5 4.2199zm0 10.5011c-2.807 3.312-4.5 7.598-4.5 12.279s1.693 8.967 4.5 12.279c2.807-3.312 4.5-7.598 4.5-12.279s-1.693-8.967-4.5-12.279zm6.343 29.444C142.689 128.499 145 122.519 145 116c0-6.519-2.311-12.499-6.157-17.1647C141.314 97.6586 144.08 97 147 97c10.493 0 19 8.507 19 19s-8.507 19-19 19c-2.92 0-5.686-.659-8.157-1.835z"/>
</svg>