<svg xmlns="http://www.w3.org/2000/svg" width="192" height="192" fill="#000" viewBox="0 0 192 192">
  <path fill-rule="evenodd" d="M12 39c-2.20914 0-4 1.7909-4 4v106c0 2.209 1.79086 4 4 4h168c2.209 0 4-1.791 4-4V43c0-2.2091-1.791-4-4-4H12zM0 43c0-6.6274 5.37258-12 12-12h168c6.627 0 12 5.3726 12 12v106c0 6.627-5.373 12-12 12H12c-6.62742 0-12-5.373-12-12V43zm28 14c-1.1046 0-2 .8954-2 2v14c0 1.1046.8954 2 2 2h136c1.105 0 2-.8954 2-2V59c0-1.1046-.895-2-2-2H28zm-10 2c0-5.5228 4.4772-10 10-10h136c5.523 0 10 4.4772 10 10v14c0 5.5228-4.477 10-10 10H28c-5.5229 0-10-4.4772-10-10V59zm76 80c0-2.209 1.7909-4 4-4h22c2.209 0 4 1.791 4 4s-1.791 4-4 4H98c-2.2091 0-4-1.791-4-4zm40 0c0-2.209 1.791-4 4-4h32c2.209 0 4 1.791 4 4s-1.791 4-4 4h-32c-2.209 0-4-1.791-4-4z"/>
</svg>