<svg xmlns="http://www.w3.org/2000/svg" width="194" height="192" fill="#000" viewBox="0 0 194 192">
  <path fill-rule="evenodd" d="M89.7972 36.9825c3.9791-3.9767 10.4298-3.9767 14.4088 0l40.643 40.6173 31.899-23.5631c7.466-5.5147 17.831 1.0107 16.059 10.1339l-16.629 85.5854c-.931 4.789-5.126 8.244-10.003 8.244H27.8283c-4.8769 0-9.0724-3.455-10.0028-8.244L1.19653 64.1706C-.576068 55.0474 9.78941 48.522 17.2551 54.0367l31.8994 23.5631 40.6427-40.6173zm8.7536 5.6586c-.8554-.8548-2.2432-.8548-3.0985 0L52.3745 85.6919c-1.3998 1.399-3.6123 1.564-5.2041.3881L12.5019 60.4715c-1.611-1.19-3.83105.2235-3.45222 2.1733L22.4308 131.515H171.572l13.381-68.8702c.379-1.9497-1.841-3.3632-3.452-2.1733L146.833 86.08c-1.592 1.1759-3.805 1.0109-5.205-.3881L98.5508 42.6411zm71.4672 96.8739H23.9852l1.6934 8.715c.1993 1.026 1.0994 1.77 2.1497 1.77H166.175c1.05 0 1.95-.744 2.149-1.77l1.694-8.715z"/>
</svg>