<svg xmlns="http://www.w3.org/2000/svg" width="192" height="192" fill="#000" viewBox="0 0 192 192">
  <path fill-rule="evenodd" d="M96 34C47.3989 34 8 73.3989 8 122c0 12.833 2.7445 25.015 7.6756 36H176.324c4.931-10.985 7.676-23.167 7.676-36 0-48.6011-39.399-88-88-88zM0 122c0-53.0193 42.9807-96 96-96 53.019 0 96 42.9807 96 96 0 14.951-3.421 29.115-9.526 41.741-.668 1.382-2.067 2.259-3.601 2.259H13.1273c-1.5342 0-2.9332-.877-3.60106-2.259C3.42083 151.115 0 136.951 0 122zm96-66c-36.4508 0-66 29.5492-66 66 0 2.209-1.7909 4-4 4-2.2091 0-4-1.791-4-4 0-40.8691 33.1309-74 74-74 40.869 0 74 33.1309 74 74 0 2.209-1.791 4-4 4s-4-1.791-4-4c0-36.4508-29.549-66-66-66zm32.828 49.172c1.563 1.562 1.563 4.094 0 5.656l-20.511 20.512c1.072 1.981 1.683 4.251 1.683 6.66 0 7.732-6.268 14-14 14s-14-6.268-14-14 6.268-14 14-14c2.4094 0 4.679.611 6.66 1.683l20.512-20.511c1.562-1.563 4.094-1.563 5.656 0zM96 132c-3.3137 0-6 2.686-6 6s2.6863 6 6 6 6-2.686 6-6c0-1.658-.667-3.152-1.757-4.243C99.1525 132.667 97.658 132 96 132z"/>
</svg>