<svg xmlns="http://www.w3.org/2000/svg" width="192" height="192" fill="#000" viewBox="0 0 192 192">
  <path fill-rule="evenodd" d="M12 16c-2.20914 0-4 1.7909-4 4l-.00001 106H134V98.7185c0-8.1273 6.586-14.7184 14.714-14.7184h28.572c2.419 0 4.701.5838 6.714 1.6181V20c0-2.2091-1.791-4-4-4H12zm180 4c0-6.6274-5.373-11.99998-12-11.99999L12 8C5.37259 8 7.2e-7 13.3726 0 20l.0000062 127c0 6.627 5.3725738 12 11.9999938 12h64.4913l-2.04 17H65c-2.2091 0-4 1.791-4 4s1.7909 4 4 4h62c2.209 0 4-1.791 4-4s-1.791-4-4-4h-9.451l-2.04-17H134v10.282c0 8.127 6.586 14.718 14.714 14.718h28.572c8.128 0 14.714-6.591 14.714-14.718V20zm-50 149.282c0 3.712 3.008 6.718 6.714 6.718h28.572c3.706 0 6.714-3.006 6.714-6.718V98.7185c0-3.7119-3.008-6.7184-6.714-6.7184h-28.572c-3.706 0-6.714 3.0065-6.714 6.7184v70.5635zM134 134v17H12c-2.20913 0-3.99999-1.791-3.99999-4l-.00002-13H134zm-26.549 25H84.5487l-2.04 17h26.9823l-2.04-17zm46.049 11.001c0-2.21 1.791-4 4-4h11c2.209 0 4 1.79 4 4 0 2.209-1.791 4-4 4h-11c-2.209 0-4-1.791-4-4z"/>
</svg>