<svg xmlns="http://www.w3.org/2000/svg" width="192" height="192" fill="#000" viewBox="0 0 192 192">
  <path fill-rule="evenodd" d="M12 16c-2.20914 0-4 1.7909-4 4l-.00001 106H184V20c0-2.2091-1.791-4-4-4H12zm172 118H7.99999l.00002 13c0 2.209 1.79086 4 3.99999 4h168c2.209 0 4-1.791 4-4v-13zm-68.491 25H180c6.627 0 12-5.373 12-12V20c0-6.6274-5.373-11.99998-12-11.99999L12 8C5.37259 8 7.2e-7 13.3726 0 20l.0000062 127C.00000572 153.627 5.37259 159 12 159h64.4913l-2.04 17H65c-2.2091 0-4 1.791-4 4s1.7909 4 4 4h62c2.209 0 4-1.791 4-4s-1.791-4-4-4h-9.451l-2.04-17zm-8.058 0H84.5487l-2.04 17h26.9823l-2.04-17z"/>
</svg>