<svg xmlns="http://www.w3.org/2000/svg" width="192" height="192" fill="#000" viewBox="0 0 192 192">
  <path d="M93 57c4.4183 0 8-3.5817 8-8s-3.5817-8-8-8-8 3.5817-8 8 3.5817 8 8 8zM125 49c0 4.4183-3.582 8-8 8s-8-3.5817-8-8 3.582-8 8-8 8 3.5817 8 8zM141 57c4.418 0 8-3.5817 8-8s-3.582-8-8-8-8 3.5817-8 8 3.582 8 8 8z"/>
  <path fill-rule="evenodd" d="M58 12c0-6.62741 5.3726-12 12-12h94c6.627 0 12 5.37258 12 12v4h4c6.627 0 12 5.3726 12 12v127c0 6.627-5.373 12-12 12h-64.491l2.04 17H127c2.209 0 4 1.791 4 4s-1.791 4-4 4H65c-2.2091 0-4-1.791-4-4s1.7909-4 4-4h9.4513l2.04-17H12C5.37259 167 .00001443 161.627.0000149 155l9.6e-7-16.989L0 138 .00000997 28C.00001055 21.3726 5.3726 16 12 16h46v-4zm122 12h-4v62c0 6.6274-5.373 12-12 12H94.9127c-.4148 0-.8193.1289-1.1575.369L64.315 119.262c-1.2201.866-2.8215.979-4.1508.292C58.835 118.867 58 117.496 58 116V24H12c-2.20913 0-3.99999 1.7909-3.99999 4L8 134h176V28c0-2.2091-1.791-4-4-4zM66 108.256V12c0-2.20914 1.7909-4 4-4h94c2.209 0 4 1.79086 4 4v74c0 2.2091-1.791 4-4 4H94.9127c-2.0738 0-4.0963.6447-5.7875 1.8449L66 108.256zM180 159c2.209 0 4-1.791 4-4v-13H8.00002v13c0 2.209 1.79086 4 3.99998 4h168zm-95.4513 8l-2.04 17h26.9823l-2.04-17H84.5487z"/>
</svg>