<svg xmlns="http://www.w3.org/2000/svg" width="192" height="192" fill="#000" viewBox="0 0 192 192">
  <path fill-rule="evenodd" d="M95.6379 4.01643c.2409-.02191.4833-.02191.7243 0l54.9998 5c1.244.11306 2.363.80045 3.027 1.85837l37 59c.914 1.4571.794 3.3352-.298 4.6642l-92.0001 112C98.3311 187.464 97.197 188 96 188s-2.3311-.536-3.0909-1.461l-91.999986-112C-.182559 73.21-.302495 71.3319.611257 69.8748l37.000043-59c.6634-1.05792 1.7829-1.74531 3.0266-1.85837l55-5zM36.2176 28.1549l-24.92 39.7374 22.8994-.3368 2.0206-39.4006zm-.6371 47.3811l-23.2189.3415 62.8277 76.4855-39.6088-76.827zm81.2305 76.827l62.827-76.4855-23.218-.3415-39.609 76.827zm40.992-84.8075l22.899.3368-24.92-39.7374 2.021 39.4006zm-10.62-50.886l-41.274-3.7522 43.525 47.6528-2.251-43.9006zM144.929 67.5L96 13.9311 47.071 67.5h97.858zM42.5658 60.5701l43.5254-47.6528-41.2741 3.7522-2.2513 43.9006zM44.5625 75.5H147.437L96 175.271 44.5625 75.5z"/>
</svg>