<svg xmlns="http://www.w3.org/2000/svg" width="192" height="192" fill="#000" viewBox="0 0 192 192">
  <path fill-rule="evenodd" d="M55 0c2.2091 0 4 1.79086 4 4 0 14.7778 4.731 23.7023 11.5194 29.9419 6.7128 6.1702 15.6827 9.9749 25.4805 13.7632C109.086 42.6526 123.306 36.6168 129.426 23H77c-2.2091 0-4-1.7909-4-4 0-2.2091 1.7909-4 4-4h54.967C132.632 11.7571 133 8.11386 133 4c0-2.20914 1.791-4 4-4s4 1.79086 4 4c0 6.0219-.707 11.3475-2.038 16.0825-4.993 17.7615-18.388 25.9895-32.084 31.8624 7.105 2.9102 14.124 6.2975 19.869 11.0821C135.376 70.2133 141 80.3874 141 96c0 14.157-4.623 23.894-12.026 30.985-6.185 5.926-14.127 9.808-22.101 13.07 8.569 3.678 17.086 8.288 23.469 15.658C136.977 163.374 141 173.648 141 188c0 2.209-1.791 4-4 4s-4-1.791-4-4c0-12.718-3.507-21.048-8.705-27.05-7.318-8.449-18.104-12.718-28.2923-16.654-6.939 2.682-13.5176 5.373-19.273 9.04-6.0754 3.872-11.0417 8.729-14.1567 15.664H114.1c2.209 0 4 1.791 4 4s-1.791 4-4 4H60.033c-.6651 3.243-1.033 6.886-1.033 11 0 2.209-1.7909 4-4 4-2.2091 0-4-1.791-4-4 0-6.022.7067-11.347 2.0378-16.082 3.3914-12.065 10.6829-19.778 19.3925-25.328 3.9712-2.531 8.2978-4.644 12.6989-6.535-2.7097-1.109-5.3981-2.283-7.9953-3.569-8.4113-4.164-16.2337-9.679-21.0989-18.565C52.7923 111.998 51 104.823 51 96c0-8.8234 1.7923-15.998 5.035-21.9209 4.3523-7.9495 11.071-13.2001 18.4545-17.1975 3.3741-1.8268 6.9795-3.4364 10.6368-4.9351-7.1719-3.0789-14.2333-6.7951-20.0207-12.1147C56.519 31.9393 51 20.8043 51 4c0-2.20914 1.7909-4 4-4zm41.001 56.2765c-.0106.0041-.0212.0082-.0317.0122-6.3061 2.4186-12.2835 4.7111-17.671 7.628C74.0517 66.2158 70.353 68.8153 67.3632 72h31.7384c2.2094 0 4.0004 1.7909 4.0004 4 0 2.2091-1.791 4-4.0004 4H62.0208c-1.4868 3.3247-2.5065 7.2588-2.8718 12H112.1c2.209 0 4 1.7909 4 4 0 2.2091-1.791 4-4 4H59.149c.3653 4.741 1.385 8.675 2.8718 12h37.0808c2.2094 0 4.0004 1.791 4.0004 4s-1.791 4-4.0004 4H67.3633c3.5381 3.769 8.068 6.717 13.3199 9.317 4.7218 2.337 9.8827 4.324 15.3152 6.406 9.6096-3.679 19.8796-7.27 27.4416-14.515C129.142 115.746 133 108.155 133 96c0-13.314-4.626-21.2076-11.372-26.8256-6.745-5.6174-15.733-9.1015-25.627-12.8979z"/>
</svg>