<svg xmlns="http://www.w3.org/2000/svg" width="192" height="192" fill="#000" viewBox="0 0 192 192">
  <path fill-rule="evenodd" d="M20 12c0-6.62742 5.3726-12 12-12h84.686c3.183 0 6.235 1.26428 8.486 3.51472l43.313 43.31368c2.251 2.2505 3.515 5.3027 3.515 8.4853V180c0 6.627-5.373 12-12 12H32c-6.6274 0-12-5.373-12-12V12zm12-4c-2.2091 0-4 1.79086-4 4v168c0 2.209 1.7909 4 4 4h128c2.209 0 4-1.791 4-4V56h-36c-6.627 0-12-5.3726-12-12V8H32zm92 5.6569V44c0 2.2091 1.791 4 4 4h30.343L124 13.6569zm-35.8501 72.343c-3.0963 0-5.6063 2.51-5.6063 5.6063v1.601c0 2.2091-1.7908 4-4 4-2.2091 0-4-1.7909-4-4v-1.601c0-7.5146 6.0918-13.6063 13.6063-13.6063h6.4851c8.177 0 14.806 6.6289 14.806 14.8062 0 5.9228-3.53 11.2759-8.974 13.6089-2.7144 1.164-4.4746 3.833-4.4746 6.787v5.23c0 2.209-1.7909 4-4 4-2.2091 0-4-1.791-4-4v-5.23c0-6.154 3.6674-11.716 9.3237-14.1401 2.5025-1.0725 4.1249-3.5332 4.1249-6.2558 0-3.759-3.047-6.8062-6.806-6.8062h-6.4851zM92.062 129c2.2091 0 4 1.791 4 4v1c0 2.209-1.7909 4-4 4-2.2091 0-4-1.791-4-4v-1c0-2.209 1.7909-4 4-4z"/>
</svg>