<svg xmlns="http://www.w3.org/2000/svg" width="192" height="192" fill="#000" viewBox="0 0 192 192">
  <path fill-rule="evenodd" d="M20 12c0-6.62742 5.3726-12 12-12h84.686c3.183 0 6.235 1.26428 8.486 3.51472l43.313 43.31368c2.251 2.2505 3.515 5.3027 3.515 8.4853V180c0 6.627-5.373 12-12 12H32c-6.6274 0-12-5.373-12-12V12zm12-4c-2.2091 0-4 1.79086-4 4v168c0 2.209 1.7909 4 4 4h128c2.209 0 4-1.791 4-4V56h-36c-6.627 0-12-5.3726-12-12V8H32zm92 5.6569V44c0 2.2091 1.791 4 4 4h30.343L124 13.6569zM58 76c0-5.5229 4.4772-10 10-10h48c5.523 0 10 4.4771 10 10v48c0 5.523-4.477 10-10 10H68c-5.5228 0-10-4.477-10-10V76zm8 44.957V124c0 1.105.8954 2 2 2h48c1.105 0 2-.895 2-2v-3.043H97.5888c-.3903.057-.7876.057-1.1781 0H66zm32.5842-8H118v-4.953l-13.108-13.108-12.2551 12.255 5.9473 5.806zm-11.6879-11.379l15.1677-15.1673c.75-.7501 1.767-1.1716 2.828-1.1716s2.079.4215 2.829 1.1716L118 96.6899V76c0-1.1046-.895-2-2-2H68c-1.1046 0-2 .8954-2 2v26.466l7.9837-7.9152c1.5445-1.5314 4.0297-1.5479 5.5945-.0373l7.3181 7.0645zm-20.1141 11.379h20.3489l-2.9636-2.893-.0159-.016-7.3143-7.061-10.0551 9.97z"/>
</svg>