<svg xmlns="http://www.w3.org/2000/svg" width="192" height="192" fill="#000" viewBox="0 0 192 192">
  <path fill-rule="evenodd" d="M20 12c0-6.62742 5.3726-12 12-12h84.686c3.183 0 6.235 1.26428 8.486 3.51472l43.313 43.31368c2.251 2.2505 3.515 5.3027 3.515 8.4853V180c0 6.627-5.373 12-12 12H32c-6.6274 0-12-5.373-12-12V12zm12-4c-2.2091 0-4 1.79086-4 4v168c0 2.209 1.7909 4 4 4h128c2.209 0 4-1.791 4-4V56h-36c-6.627 0-12-5.3726-12-12V8H32zm92 5.6569V44c0 2.2091 1.791 4 4 4h30.343L124 13.6569zM77.6566 84.6966c-7.1509 0-12.96 5.7778-12.96 12.872 0 4.3634.9491 7.6794 4.6855 12.2924 3.9059 4.823 10.675 10.828 22.3252 20.269 11.6517-9.441 18.4217-15.445 22.3277-20.268 3.734-4.612 4.684-7.928 4.684-12.2934 0-7.0654-5.78-12.872-12.96-12.872-2.449 0-4.326.4461-5.9711 1.2444-1.6801.8152-3.3248 2.0978-5.1741 4.0529-.7555.7988-1.8065 1.2513-2.9059 1.2513-1.0995 0-2.1505-.4525-2.906-1.2513-1.8493-1.9551-3.4939-3.2377-5.1741-4.0529-1.6451-.7983-3.522-1.2444-5.9712-1.2444zm-20.96 12.872c0-11.5654 9.4439-20.872 20.96-20.872 3.5035 0 6.5982.6566 9.4635 2.0469 1.6563.8036 3.1669 1.8191 4.5878 3.0019 1.4208-1.1828 2.9314-2.1983 4.5877-3.0019 2.8653-1.3903 5.9604-2.0469 9.4634-2.0469 11.571 0 20.96 9.3608 20.96 20.872 0 6.2664-1.623 11.3464-6.467 17.3274-4.591 5.67-12.204 12.308-24.13 21.952l-.9404.819c-1.9916 1.733-4.9558 1.733-6.9475 0l-.9228-.803c-11.936-9.654-19.5533-16.297-24.1461-21.968-4.8459-5.983-6.4686-11.062-6.4686-17.3274z"/>
</svg>