<svg xmlns="http://www.w3.org/2000/svg" width="192" height="192" fill="#000" viewBox="0 0 192 192">
  <path fill-rule="evenodd" d="M20 12c0-6.62742 5.3726-12 12-12h84.686c3.183 0 6.235 1.26428 8.486 3.51472l43.313 43.31368c2.251 2.2505 3.515 5.3027 3.515 8.4853V180c0 6.627-5.373 12-12 12H32c-6.6274 0-12-5.373-12-12V12zm12-4c-2.2091 0-4 1.79086-4 4v168c0 2.209 1.7909 4 4 4h128c2.209 0 4-1.791 4-4V56h-36c-6.627 0-12-5.3726-12-12V8H32zm92 5.6569V44c0 2.2091 1.791 4 4 4h30.343L124 13.6569zm-52.1003 79.899C68.9736 97.6208 67.25 102.609 67.25 108c0 13.669 11.081 24.75 24.75 24.75 5.3909 0 10.379-1.724 14.444-4.65L71.8997 93.5559zm5.6569-5.6567l34.5444 34.5438c2.926-4.064 4.649-9.052 4.649-14.443 0-13.669-11.081-24.75-24.75-24.75-5.3906 0-10.3787 1.7234-14.4434 4.6492zM59.25 108c0-18.0873 14.6627-32.75 32.75-32.75 18.087 0 32.75 14.6627 32.75 32.75 0 18.087-14.663 32.75-32.75 32.75-18.0873 0-32.75-14.663-32.75-32.75z"/>
</svg>