<svg xmlns="http://www.w3.org/2000/svg" width="192" height="192" fill="#000" viewBox="0 0 192 192">
  <path fill-rule="evenodd" d="M20 12c0-6.62742 5.3726-12 12-12h84.686c3.183 0 6.235 1.26428 8.486 3.51472l43.313 43.31368c2.251 2.2505 3.515 5.3027 3.515 8.4853V180c0 6.627-5.373 12-12 12H32c-6.6274 0-12-5.373-12-12V12zm12-4c-2.2091 0-4 1.79086-4 4v168c0 2.209 1.7909 4 4 4h128c2.209 0 4-1.791 4-4V56h-36c-6.627 0-12-5.3726-12-12V8H32zm92 5.6569V44c0 2.2091 1.791 4 4 4h30.343L124 13.6569zM37 84c0-5.5229 4.4772-10 10-10h59.111c5.523 0 10 4.4771 10 10v5.4344l17.321-14.5014c.72-.6027 1.629-.933 2.568-.933h7.222c2.209 0 4 1.7909 4 4v60c0 2.209-1.791 4-4 4H136c-.939 0-1.848-.33-2.568-.933l-17.321-14.501V132c0 5.523-4.477 10-10 10H47c-5.5228 0-10-4.477-10-10V84zm79.111 32.132L137.453 134h1.769V82h-1.769l-21.342 17.8679v16.2641zm-8-32.132c0-1.1046-.895-2-2-2H47c-1.1046 0-2 .8954-2 2v48c0 1.105.8954 2 2 2h59.111c1.105 0 2-.895 2-2V84z"/>
</svg>