<svg xmlns="http://www.w3.org/2000/svg" width="192" height="192" fill="#000" viewBox="0 0 192 192">
  <path fill-rule="evenodd" d="M20 12c0-6.62742 5.3726-12 12-12h84.686c3.183 0 6.235 1.26428 8.486 3.51472l43.313 43.31368c2.251 2.2505 3.515 5.3027 3.515 8.4853V180c0 6.627-5.373 12-12 12H32c-6.6274 0-12-5.373-12-12V12zm12-4c-2.2091 0-4 1.79086-4 4v168c0 2.209 1.7909 4 4 4h128c2.209 0 4-1.791 4-4V56h-36c-6.627 0-12-5.3726-12-12V8H32zm92 5.6569V44c0 2.2091 1.791 4 4 4h30.343L124 13.6569zM99.0924 87.6778c-7.5703-7.5704-19.8443-7.5704-27.4146 0-7.5704 7.5703-7.5704 19.8442 0 27.4142 7.5703 7.571 19.8443 7.571 27.4146 0 7.5706-7.57 7.5706-19.8439 0-27.4142zm-33.0715-5.6569c10.6946-10.6945 28.0338-10.6945 38.7281 0 9.734 9.7338 10.609 24.9721 2.624 35.6951l17.455 17.456c1.563 1.562 1.563 4.094 0 5.656-1.562 1.563-4.094 1.563-5.656 0l-17.456-17.455c-10.723 7.985-25.9613 7.11-35.6951-2.624-10.6945-10.694-10.6945-28.0335 0-38.7281z"/>
</svg>