<svg xmlns="http://www.w3.org/2000/svg" width="192" height="192" fill="#000" viewBox="0 0 192 192">
  <path fill-rule="evenodd" d="M20 12c0-6.62742 5.3726-12 12-12h84.686c3.183 0 6.235 1.26428 8.486 3.51472l43.313 43.31368c2.251 2.2505 3.515 5.3027 3.515 8.4853V180c0 6.627-5.373 12-12 12H32c-6.6274 0-12-5.373-12-12V12zm12-4c-2.2091 0-4 1.79086-4 4v168c0 2.209 1.7909 4 4 4h128c2.209 0 4-1.791 4-4V56h-36c-6.627 0-12-5.3726-12-12V8H32zm92 5.6569V44c0 2.2091 1.791 4 4 4h30.343L124 13.6569zM92 76c-9.4168 0-17.3714 6.2491-19.9165 14.8108-.5243 1.7638-2.1843 2.9424-4.0224 2.8558-.2749-.013-.5517-.0195-.8303-.0195C57.7048 93.6471 50 101.347 50 110.824 50 120.3 57.7048 128 67.2308 128h53.0772c7.571 0 13.692-6.12 13.692-13.647s-6.121-13.647-13.692-13.647c-.945 0-1.863.095-2.747.274-1.186.24-2.417-.069-3.348-.842-.931-.7724-1.463-1.925-1.446-3.1348.002-.099.002-.1981.002-.2973C112.769 85.28 103.48 76 92 76zm-26.5823 9.7111C69.743 75.3116 80.015 68 92 68c14.521 0 26.542 10.7389 28.492 24.7066C132.378 92.8056 142 102.45 142 114.353c0 11.965-9.722 21.647-21.692 21.647H67.2308C53.3059 136 42 124.738 42 110.824c0-13.3056 10.3376-24.1858 23.4177-25.1129z"/>
</svg>