<svg xmlns="http://www.w3.org/2000/svg" width="192" height="192" fill="#000" viewBox="0 0 192 192">
  <path fill-rule="evenodd" d="M20 12c0-6.62742 5.3726-12 12-12h84.686c3.183 0 6.235 1.26428 8.486 3.51472l43.313 43.31368c2.251 2.2505 3.515 5.3027 3.515 8.4853V180c0 6.627-5.373 12-12 12H32c-6.6274 0-12-5.373-12-12V12zm12-4c-2.2091 0-4 1.79086-4 4v168c0 2.209 1.7909 4 4 4h128c2.209 0 4-1.791 4-4V56h-36c-6.627 0-12-5.3726-12-12V8H32zm92 5.6569V44c0 2.2091 1.791 4 4 4h30.343L124 13.6569zM67.9584 83.959c1.5621-1.5621 4.0947-1.5621 5.6568 0L92 102.344l18.385-18.385c1.562-1.5621 4.095-1.5621 5.657 0 1.562 1.5621 1.562 4.0947 0 5.6569L97.6569 108.001l18.3851 18.384c1.562 1.563 1.562 4.095 0 5.657-1.562 1.562-4.095 1.562-5.657 0L92 113.657l-18.3848 18.385c-1.5621 1.562-4.0947 1.562-5.6568 0s-1.5621-4.094 0-5.657l18.3847-18.384-18.3847-18.3852c-1.5621-1.5621-1.5621-4.0947 0-5.6568z"/>
</svg>