<svg xmlns="http://www.w3.org/2000/svg" width="192" height="192" fill="#000" viewBox="0 0 192 192">
  <path fill-rule="evenodd" d="M20 12c0-6.62742 5.3726-12 12-12h84.686c3.183 0 6.235 1.26428 8.486 3.51472l43.313 43.31368c2.251 2.2505 3.515 5.3027 3.515 8.4853V180c0 6.627-5.373 12-12 12H32c-6.6274 0-12-5.373-12-12V12zm12-4c-2.2091 0-4 1.79086-4 4v168c0 2.209 1.7909 4 4 4h128c2.209 0 4-1.791 4-4V56h-36c-6.627 0-12-5.3726-12-12V8H32zm92 5.6569V44c0 2.2091 1.791 4 4 4h30.343L124 13.6569zM92.0667 75.2565c1.5517 0 2.9633.8974 3.6219 2.3024l7.8884 16.8308 17.907 2.7397c1.481.2267 2.711 1.2623 3.187 2.6833.476 1.4213.118 2.9883-.927 4.0623l-13.089 13.433 3.061 18.792c.247 1.513-.392 3.033-1.645 3.914-1.253.882-2.899.971-4.24.229l-15.7643-8.727-15.7645 8.727c-1.3404.742-2.9869.653-4.2397-.229-1.2528-.881-1.8918-2.401-1.6455-3.914l3.061-18.792-13.0882-13.433c-1.0458-1.074-1.4039-2.641-.9278-4.0623.4761-1.421 1.7065-2.4566 3.1878-2.6833l17.9063-2.7397 7.8887-16.8308c.6585-1.405 2.0702-2.3024 3.6219-2.3024zm0 13.4251l-4.5149 9.6325c-.9769 2.0839-2.9285 3.5469-5.2063 3.8949l-10.7995 1.652 8.046 8.259c1.5292 1.569 2.2223 3.771 1.8702 5.932l-1.8244 11.201 9.0872-5.031c2.0793-1.151 4.6041-1.151 6.6834 0l9.0876 5.031-1.825-11.201c-.352-2.161.341-4.363 1.87-5.932l8.046-8.259-10.799-1.652c-2.2779-.348-4.2296-1.811-5.2064-3.8949l-4.5149-9.6325z"/>
</svg>