<svg xmlns="http://www.w3.org/2000/svg" width="192" height="192" fill="#000" viewBox="0 0 192 192">
  <path fill-rule="evenodd" d="M20 12c0-6.62742 5.3726-12 12-12h84.686c3.183 0 6.235 1.26428 8.486 3.51472l43.313 43.31368c2.251 2.2505 3.515 5.3027 3.515 8.4853V180c0 6.627-5.373 12-12 12H32c-6.6274 0-12-5.373-12-12V12zm12-4c-2.2091 0-4 1.79086-4 4v168c0 2.209 1.7909 4 4 4h128c2.209 0 4-1.791 4-4V56h-36c-6.627 0-12-5.3726-12-12V8H32zm92 5.6569V44c0 2.2091 1.791 4 4 4h30.343L124 13.6569zM74.6087 92.163c0-9.3408 7.5722-16.913 16.913-16.913 9.3413 0 16.9133 7.5722 16.9133 16.913v12.759c4.333 1.81 7.379 6.088 7.379 11.078v12.75c0 6.627-5.373 12-12 12H79.2298c-6.6274 0-12-5.373-12-12V116c0-4.99 3.0454-9.268 7.3789-11.078V92.163zm8 11.837h17.8263V92.163c0-4.9225-3.9907-8.913-8.9133-8.913-4.9225 0-8.913 3.9905-8.913 8.913V104zm-3.3789 8c-2.2091 0-4 1.791-4 4v12.75c0 2.209 1.7909 4 4 4h24.5842c2.209 0 4-1.791 4-4V116c0-2.209-1.791-4-4-4H79.2298z"/>
</svg>