<svg xmlns="http://www.w3.org/2000/svg" width="192" height="192" fill="#000" viewBox="0 0 192 192">
  <path d="M145 43c2.209 0 4-1.7909 4-4 0-2.2091-1.791-4-4-4s-4 1.7909-4 4c0 2.2091 1.791 4 4 4z"/>
  <path fill-rule="evenodd" d="M162 72h-18v15.3569c6.759 6.2373 11 15.1961 11 25.1431 0 11.516-5.682 21.702-14.377 27.883l-1.899 10.127C149.019 152.757 157 162.142 157 173c0 2.209-1.791 4-4 4h-38c-2.209 0-4-1.791-4-4v-27h-10.091c-2.0026 3.11-4.582 5.487-7.2511 7.283C100.39 157.346 105 164.748 105 173c0 2.209-1.791 4-4 4H12c-6.62742 0-12-5.373-12-12s5.37258-12 12-12h19.7611c-.4996-2.248-.7611-4.591-.7611-7v-6c0-13.038 6.9619-24.352 18.079-30.824L95 82.4463V78.625c-9.4224-1.7834-17-9.7522-17-20.1096 0-18.6502 12.0335-36.4096 29.916-42.3703C110.188 15.3877 112.617 15 115 15h22c5.824 0 11.904 2.1244 16.358 6.1043l12.399 11.0805c2.75 2.457 6.308 3.8152 9.995 3.8152H188c2.209 0 4 1.7909 4 4v2c0 16.5685-13.431 30-30 30zm-51.555-48.2654C111.89 23.2529 113.465 23 115 23h22c4.009 0 8.149 1.4974 11.027 4.0695l12.4 11.0806C164.643 41.9175 170.099 44 175.752 44h8.158C182.9 55.213 173.476 64 162 64h-22c-2.761 0-5-2.2386-5-5v-1c0-2.2091-1.791-4-4-4s-4 1.7909-4 4v1c0 5.7841 3.777 10.6859 9 12.373v17.8013c0 1.1956.535 2.3285 1.458 3.0883C143.286 97.0602 147 104.34 147 112.5c0 9.315-4.843 17.49-12.143 22.123-.937.594-1.584 1.55-1.788 2.64l-3 16c-.22 1.169.093 2.376.853 3.292.76.915 1.888 1.445 3.078 1.445 6.677 0 12.595 4.777 14.421 11H119v-32c0-2.209-1.791-4-4-4s-4 1.791-4 4v1h-6.73c.455-1.885.73-3.909.73-6 0-8.609-3.924-14.37-8.8322-17.923-4.7259-3.42-10.2303-4.725-13.7944-5.06-2.1995-.206-4.1497 1.41-4.3559 3.61-.2062 2.199 1.4096 4.149 3.6091 4.356 2.6295.246 6.625 1.241 9.8508 3.575C94.5205 122.76 97 126.209 97 132c0 3.021-.8686 5.964-1.9906 8.216-3.0435 6.108-9.7672 8.98-13.8642 9.876-1.9955.437-3.3416 2.307-3.122 4.338.2195 2.031 1.9341 3.57 3.9768 3.57 6.6774 0 12.5948 4.777 14.4212 11H62c-9.6444 0-17.5986-5.522-21.0874-13.588C39.6857 152.576 39 149.4 39 146v-6c0-10.018 5.2951-18.782 14.1035-23.91l47.9085-27.8867c1.231-.7164 1.988-2.033 1.988-3.457v-6.1268c9.685-1.8677 17-10.3893 17-20.6195V47c0-2.2091-1.791-4-4-4s-4 1.7909-4 4v11c0 7.1797-5.82 13-13 13-7.1576 0-13-5.4973-13-12.4846 0-15.408 10.017-29.9714 24.445-34.7808zM34.7412 161c1.6342 3.021 3.7531 5.719 6.2577 8H12c-2.20914 0-4-1.791-4-4s1.79086-4 4-4h22.7412z"/>
</svg>