<svg xmlns="http://www.w3.org/2000/svg" width="192" height="192" fill="#000" viewBox="0 0 192 192">
  <path fill-rule="evenodd" d="M96 0c2.2091 0 4 1.79086 4 4v17h7.429C125.445 21 140 35.7058 140 53.7838v4.7973c0 2.2091-1.791 4-4 4s-4-1.7909-4-4v-4.7973C132 40.0681 120.971 29 107.429 29H88.1402C72.6267 29 60 41.6778 60 57.3791c0 11.3695 6.7251 21.6244 17.0651 26.0887l41.0409 17.7202c13.295 5.74 21.894 18.897 21.894 33.433C140 154.685 123.847 171 103.86 171H100v17c0 2.209-1.7909 4-4 4-2.2091 0-4-1.791-4-4v-17h-7.4286C66.5549 171 52 156.294 52 138.216v-4.797c0-2.209 1.7909-4 4-4 2.2091 0 4 1.791 4 4v4.797C60 151.932 71.0289 163 84.5714 163H103.86c15.513 0 28.14-12.678 28.14-28.379 0-11.37-6.725-21.624-17.065-26.089L73.894 90.8125C60.5991 85.0723 52 71.9147 52 57.3791 52 37.3154 68.1527 21 88.1402 21H92V4c0-2.20914 1.7909-4 4-4z"/>
</svg>