<svg xmlns="http://www.w3.org/2000/svg" width="192" height="192" fill="#000" viewBox="0 0 192 192">
  <path fill-rule="evenodd" d="M21 8C13.8203 8 8 13.8203 8 21s5.8203 13 13 13 13-5.8203 13-13S28.1797 8 21 8zM0 21C0 9.40202 9.40202 0 21 0c10.2302 0 18.7518 7.31512 20.6195 17H150.38C152.248 7.31512 160.77 0 171 0c11.598 0 21 9.40202 21 21 0 11.598-9.402 21-21 21-2.145 0-4.22-.3229-6.174-.9234l-20.595 38.6155C148.967 83.539 152 89.4132 152 96c0 6.587-3.033 12.461-7.769 16.308l20.595 38.615c1.954-.6 4.029-.923 6.174-.923 11.598 0 21 9.402 21 21s-9.402 21-21 21c-10.23 0-18.752-7.315-20.62-17H41.6195C39.7518 184.685 31.2302 192 21 192c-11.59798 0-21-9.402-21-21 0-10.23 7.31512-18.752 17-20.62V41.6195C7.31512 39.7518 0 31.2302 0 21zm25 20.6195V150.38c8.39 1.618 15.0015 8.23 16.6195 16.62H150.381c.952-4.939 3.636-9.26 7.388-12.308l-20.595-38.615c-1.954.6-4.029.923-6.174.923-11.598 0-21-9.402-21-21s9.402-21 21-21c2.145 0 4.22.3229 6.174.9234l20.595-38.6155c-3.752-3.0479-6.436-7.3685-7.388-12.3079H41.6195C40.0015 33.39 33.39 40.0015 25 41.6195zM171 8c-7.18 0-13 5.8203-13 13 0 4.962 2.779 9.2812 6.884 11.4752C166.703 33.4472 168.781 34 171 34c7.18 0 13-5.8203 13-13s-5.82-13-13-13zm-40 75c-7.18 0-13 5.8203-13 13 0 7.18 5.82 13 13 13 2.219 0 4.297-.553 6.116-1.525C141.221 105.281 144 100.962 144 96s-2.779-9.2812-6.884-11.4752C135.297 83.5528 133.219 83 131 83zM21 158c-7.1797 0-13 5.82-13 13s5.8203 13 13 13 13-5.82 13-13-5.8203-13-13-13zm150 0c-2.219 0-4.297.553-6.116 1.525C160.779 161.719 158 166.038 158 171c0 7.18 5.82 13 13 13s13-5.82 13-13-5.82-13-13-13z"/>
</svg>