<svg xmlns="http://www.w3.org/2000/svg" width="192" height="192" fill="#000" viewBox="0 0 192 192">
  <path fill-rule="evenodd" d="M21 8C13.8203 8 8 13.8203 8 21s5.8203 13 13 13 13-5.8203 13-13S28.1797 8 21 8zM0 21C0 9.40202 9.40202 0 21 0c10.2302 0 18.7518 7.31512 20.6195 17H150.38C152.248 7.31512 160.77 0 171 0c11.598 0 21 9.40202 21 21 0 10.2302-7.315 18.7518-17 20.6195V150.38c9.685 1.868 17 10.39 17 20.62 0 11.598-9.402 21-21 21-10.23 0-18.752-7.315-20.62-17H41.6195C39.7518 184.685 31.2302 192 21 192c-11.59798 0-21-9.402-21-21 0-10.23 7.31512-18.752 17-20.62V41.6195C7.31512 39.7518 0 31.2302 0 21zm25 20.6195V150.38c8.39 1.618 15.0015 8.23 16.6195 16.62H150.38c1.618-8.39 8.23-15.002 16.62-16.62V41.6195C158.61 40.0015 151.998 33.39 150.38 25H41.6195C40.0015 33.39 33.39 40.0015 25 41.6195zM171 8c-7.18 0-13 5.8203-13 13s5.82 13 13 13 13-5.8203 13-13-5.82-13-13-13zM21 158c-7.1797 0-13 5.82-13 13s5.8203 13 13 13 13-5.82 13-13-5.8203-13-13-13zm150 0c-7.18 0-13 5.82-13 13s5.82 13 13 13 13-5.82 13-13-5.82-13-13-13z"/>
</svg>