<svg xmlns="http://www.w3.org/2000/svg" width="192" height="192" fill="#000" viewBox="0 0 192 192">
  <path fill-rule="evenodd" d="M96 8c-7.1797 0-13 5.8203-13 13 0 .497.0277.986.0814 1.4658C83.8069 28.9536 89.3169 34 96 34c6.683 0 12.193-5.0464 12.919-11.5342.053-.4798.081-.9688.081-1.4658 0-7.1797-5.82-13-13-13zM75.033 19.8136C75.6481 8.76755 84.8002 0 96 0c11.2 0 20.352 8.76755 20.967 19.8136 26.78 7.3539 47.866 28.4396 55.219 55.2194C183.232 75.6481 192 84.8002 192 96c0 11.2-8.768 20.352-19.814 20.967-7.353 26.78-28.439 47.866-55.219 55.219C116.352 183.232 107.2 192 96 192c-11.1998 0-20.3519-8.768-20.967-19.814-26.7798-7.353-47.8655-28.439-55.2194-55.219C8.76755 116.352 4.8e-7 107.2 0 96c0-11.1998 8.76755-20.3519 19.8136-20.967 7.3539-26.7798 28.4396-47.8655 55.2194-55.2194zm1.0989 8.0027c-23.235 6.7585-41.5571 25.0806-48.3157 48.3156C36.0695 78.9629 42 86.7869 42 96c0 9.213-5.9305 17.037-14.1837 19.868 6.7585 23.235 25.0806 41.557 48.3156 48.316C78.9629 155.931 86.7869 150 96 150c9.213 0 17.037 5.931 19.868 14.184 23.235-6.759 41.557-25.081 48.316-48.316C155.931 113.037 150 105.213 150 96c0-9.2131 5.931-17.0371 14.184-19.8681-6.759-23.235-25.081-41.5571-48.316-48.3156C113.037 36.0695 105.213 42 96 42c-9.2131 0-17.0371-5.9305-19.8681-14.1837zM171 83c-.497 0-.986.0277-1.466.0814C163.046 83.8069 158 89.3169 158 96c0 6.683 5.046 12.193 11.534 12.919.48.053.969.081 1.466.081 7.18 0 13-5.82 13-13 0-7.1797-5.82-13-13-13zM21 83c-7.1797 0-13 5.8203-13 13 0 7.18 5.8203 13 13 13 .497 0 .986-.028 1.4658-.081C28.9536 108.193 34 102.683 34 96c0-6.6831-5.0464-12.1931-11.5342-12.9186C21.986 83.0277 21.497 83 21 83zm75 75c-6.6831 0-12.1931 5.046-12.9186 11.534-.0537.48-.0814.969-.0814 1.466 0 7.18 5.8203 13 13 13 7.18 0 13-5.82 13-13 0-.497-.028-.986-.081-1.466C108.193 163.046 102.683 158 96 158z"/>
</svg>