<svg xmlns="http://www.w3.org/2000/svg" width="192" height="192" fill="#000" viewBox="0 0 192 192">
  <path fill-rule="evenodd" d="M96 0c1.9906 0 3.6783 1.46372 3.9598 3.43431C101.086 11.3171 105.391 20.2963 111.645 30.171c5.489 8.6676 12.242 17.671 19.155 26.8888.924 1.232 1.851 2.4679 2.778 3.7073 7.801 10.4278 15.606 21.0915 21.452 31.4502C160.847 102.523 165 112.99 165 123c0 38.108-30.892 69-69 69-38.1077 0-69-30.892-69-69 0-10.01 4.1532-20.477 9.9697-30.7827 5.8465-10.3587 13.6518-21.0224 21.4523-31.4502.9272-1.2395 1.8541-2.4754 2.7782-3.7075 6.9132-9.2177 13.6657-18.221 19.1548-26.8886 6.2537-9.8747 10.5591-18.8539 11.6852-26.73669C92.3217 1.46372 94.0094 0 96 0zM43.9366 96.1495C38.3468 106.053 35 115.061 35 123c0 33.689 27.3106 61 61 61 33.689 0 61-27.311 61-61 0-7.939-3.347-16.947-8.937-26.8505-5.559-9.8505-13.067-20.1306-20.891-30.5904-.919-1.2289-1.843-2.4605-2.768-3.6939-6.887-9.1805-13.846-18.4586-19.518-27.4139-3.483-5.5006-6.5722-11.0157-8.886-16.4501-2.3138 5.4344-5.4028 10.9495-8.8863 16.4501-5.6714 8.9554-12.6311 18.2335-19.5175 27.414-.9252 1.2334-1.849 2.4649-2.7682 3.6938-7.8245 10.4598-15.3317 20.7399-20.8914 30.5904z"/>
</svg>