<svg xmlns="http://www.w3.org/2000/svg" width="192" height="192" fill="#000" viewBox="0 0 192 192">
  <path fill-rule="evenodd" d="M148.239 186.061c-1.605 3.612-5.186 5.939-9.138 5.939H52.8992c-3.9518 0-7.5331-2.327-9.1381-5.939l-6.4163-14.436C37.1174 171.113 37 170.56 37 170V36c0-.5597.1175-1.1131.3448-1.6246l6.4163-14.4368C45.3661 16.3273 48.9474 14 52.8993 14h11.4439l-7.1716-7.17157c-1.5621-1.56211-1.5621-4.09476 0-5.65686 1.5621-1.562092 4.0947-1.562092 5.6568 0L75.6569 14h63.4441c3.952 0 7.533 2.3273 9.138 5.9386l6.416 14.4368c.228.5115.345 1.0649.345 1.6246v134c0 .56-.117 1.113-.345 1.625l-6.416 14.436zM139.101 184c.79 0 1.506-.465 1.827-1.188l3.917-8.812H47.1551l3.9165 8.812c.321.723 1.0373 1.188 1.8276 1.188h86.2018zM45 166h102V40H45v126zm2.1551-134h97.6899l-3.917-8.8123c-.321-.7222-1.037-1.1877-1.827-1.1877H52.8993c-.7904 0-1.5067.4655-1.8277 1.1877L47.1551 32z" clip-rule="evenodd"/>
  <path fill-rule="evenodd" d="M92.4445 108.174L87.4074 131 112 103l-12.1481-5.0909L104.889 75 80 103l12.4445 5.174z"/>
</svg>