<svg xmlns="http://www.w3.org/2000/svg" width="192" height="192" fill="#000" viewBox="0 0 192 192">
  <path fill-rule="evenodd" d="M36 0c-5.5228-4.8e-7-10 4.47715-10 10v172c0 5.523 4.4772 10 10 10h120c5.523 0 10-4.477 10-10V10c0-5.52284-4.477-9.99999452-10-9.99999475l-4.196-2.4e-7h-.001L36 0zm115.803 8.00001L40.1971 8c-.0003 0 .0003 0 0 0-1.5245.00063-2.4888 1.63848-1.7483 2.9713l13.3333 24c.3528.6349 1.022 1.0287 1.7483 1.0287H138.47c.726 0 1.395-.3938 1.748-1.0287l13.333-24c.741-1.33308-.223-2.97129-1.748-2.97129zM100 44h38.47c3.631 0 6.977-1.9689 8.741-5.1436L158 19.4365V172.563l-10.789-19.419c-1.764-3.175-5.11-5.144-8.741-5.144H100V44zm-8 0H53.5304c-3.6316 0-6.9778-1.9689-8.7415-5.1436L34 19.4365V172.564l10.7889-19.42c1.7636-3.175 5.1098-5.144 8.7415-5.144H92V44zM53.5304 156c-.7263 0-1.3955.394-1.7483 1.029l-13.3333 24c-.7406 1.333.2233 2.971 1.7483 2.971H151.803c1.525 0 2.489-1.638 1.748-2.971l-13.333-24c-.353-.635-1.022-1.029-1.748-1.029H53.5304z"/>
</svg>