<svg xmlns="http://www.w3.org/2000/svg" width="192" height="192" fill="#000" viewBox="0 0 192 192">
  <path fill-rule="evenodd" d="M96 0c1.267 0 2.459.600209 3.2135 1.61802L152.213 73.118c1.165 1.5712 1.023 3.754-.336 5.1608-1.358 1.4067-3.535 1.6248-5.146.5155L96 43.8568 45.2688 78.7943c-1.6107 1.1093-3.7873.8912-5.146-.5155-1.3586-1.4068-1.5008-3.5896-.3362-5.1608l53-71.49998C93.5411.600209 94.7331 0 96 0zM60.5262 58.5733l33.2051-22.8677c1.3662-.9408 3.1713-.9408 4.5375 0l33.2052 22.8677L96 10.7171 60.5262 58.5733zM50.0524 96.5L96 128.143 141.948 96.5 96 64.8568 50.0524 96.5zm43.6789-39.7944c1.3662-.9408 3.1713-.9408 4.5375 0l53.0002 36.5001c1.084.7464 1.731 1.9782 1.731 3.2943 0 1.3161-.647 2.5479-1.731 3.2943L98.2688 136.294c-1.3662.941-3.1713.941-4.5375 0l-53-36.4997C39.6474 99.0479 39 97.8161 39 96.5c0-1.3161.6474-2.5479 1.7313-3.2943l53-36.5001zM40.1228 113.721c1.3587-1.407 3.5353-1.625 5.146-.515L96 148.143l50.731-34.937c1.611-1.11 3.788-.892 5.146.515 1.359 1.407 1.501 3.59.336 5.161l-52.9995 71.5C98.459 191.4 97.267 192 96 192c-1.2669 0-2.4589-.6-3.2134-1.618l-53-71.5c-1.1646-1.571-1.0224-3.754.3362-5.161zm20.4034 19.706L96 181.283l35.474-47.856-33.2052 22.867c-1.3662.941-3.1713.941-4.5375 0l-33.2051-22.867z"/>
</svg>