<svg xmlns="http://www.w3.org/2000/svg" width="192" height="192" fill="#000" viewBox="0 0 192 192">
  <path fill-rule="evenodd" d="M33.4227 79.5556C32.4157 84.8829 31.8889 90.3799 31.8889 96c0 5.62.5268 11.117 1.5338 16.444h66.0217c2.2096 0 3.9996 1.791 3.9996 4 0 2.21-1.79 4-3.9996 4h-64.116C45.9211 157.153 79.7698 184 119.889 184c22.438 0 42.906-8.392 58.451-22.215 1.651-1.468 4.179-1.32 5.647.331s1.32 4.179-.331 5.647C166.703 182.838 144.361 192 119.889 192c-44.5721 0-82.0494-30.376-92.8602-71.556H11c-2.20914 0-4-1.79-4-4 0-2.209 1.79086-4 4-4h14.2919c-.9224-5.343-1.403-10.837-1.403-16.444 0-5.6067.4806-11.1012 1.403-16.4444H11c-2.20914 0-4-1.7909-4-4 0-2.2092 1.79086-4 4-4h16.0288C37.8396 30.3758 75.3169 0 119.889 0c24.472 0 46.814 9.16209 63.767 24.2371 1.651 1.468 1.799 3.9963.331 5.6471-1.468 1.6509-3.996 1.7992-5.647.3313C162.795 16.3924 142.327 8 119.889 8 79.7698 8 45.9211 34.847 35.3284 71.5556h64.116c2.2096 0 3.9996 1.7908 3.9996 4 0 2.2091-1.79 4-3.9996 4H33.4227z"/>
</svg>