<svg xmlns="http://www.w3.org/2000/svg" width="192" height="192" fill="#000" viewBox="0 0 192 192">
  <path fill-rule="evenodd" d="M96.0001 0c1.0608 7.2e-7 2.0782.421428 2.8284 1.17157L125.828 28.1716c1.563 1.5621 1.563 4.0947 0 5.6568-1.562 1.5621-4.094 1.5621-5.656 0L100 13.6569V66c0 2.2091-1.7908 4-3.9999 4-2.2092 0-4-1.7909-4-4V13.6568L71.8284 33.8284c-1.5621 1.5621-4.0947 1.5621-5.6568 0s-1.5621-4.0947 0-5.6568l27-27.00003C93.9218.421426 94.9392-4.8e-7 96.0001 0zM48 84c0-2.2091 1.7909-4 4-4h88c2.209 0 4 1.7909 4 4 0 2.2091-1.791 4-4 4H52c-2.2091 0-4-1.7909-4-4zm0 24c0-2.209 1.7909-4 4-4h88c2.209 0 4 1.791 4 4s-1.791 4-4 4H52c-2.2091 0-4-1.791-4-4zm48 14c2.2091 0 4 1.791 4 4l-.0001 52.343 20.1721-20.171c1.562-1.563 4.094-1.563 5.656 0 1.563 1.562 1.563 4.094 0 5.656l-26.9996 27c-.7502.751-1.7676 1.172-2.8285 1.172-1.0608 0-2.0782-.421-2.8284-1.172l-26.9999-27c-1.5621-1.562-1.5621-4.094 0-5.656 1.5621-1.563 4.0947-1.563 5.6568 0l20.1715 20.171L92 126c0-2.209 1.7908-4 4-4z"/>
</svg>