<svg xmlns="http://www.w3.org/2000/svg" width="192" height="192" fill="#000" viewBox="0 0 192 192">
  <path fill-rule="evenodd" d="M161.005 11.9951c-5.327-5.32678-13.963-5.32678-19.29 0l-18.376 18.3758 19.29 19.2899 18.376-18.3759c5.327-5.3268 5.327-13.9631 0-19.2898zm-12.96 43.5631l18.617-18.6165c8.451-8.4509 8.451-22.1526 0-30.6035-8.451-8.45093-22.153-8.45093-30.604 0l-18.616 18.6167c-4.068-2.3897-9.387-1.8389-12.878 1.6525-3.491 3.491-4.042 8.8086-1.653 12.8764L40.0939 102.3c-.9182.919-1.3336 2.225-1.114 3.505l1.3634 7.947c.071.413-.0632.836-.3598 1.132l-13.8119 13.812c-.7502.75-1.1716 1.768-1.1716 2.829 0 1.06.4214 2.078 1.1716 2.828l12.4733 12.473c1.5621 1.562 4.0948 1.562 5.6569 0l13.8119-13.812c.2966-.296.7187-.43 1.1321-.359l7.9468 1.363c1.2798.22 2.5866-.196 3.5048-1.114l62.8156-62.8159c4.069 2.3913 9.388 1.8409 12.88-1.6512 3.492-3.4916 4.043-8.8106 1.652-12.8787zm-33.237-22.4045c.015.0154.03.0308.046.046L139.8 58.1464c.015.0152.031.0302.046.0451l.891.8904c1.021 1.0212 1.021 2.677 0 3.6982-1.022 1.0212-2.677 1.0212-3.699 0l-26.817-26.8177c-1.022-1.0212-1.022-2.6769 0-3.6982 1.021-1.0212 2.677-1.0212 3.698 0l.889.8895zm-6.483 12.2296L71.2908 82.4172H109.87l17.745-17.7441-19.29-19.2898zm-6.455 45.0339H63.2908l-16.076 16.0758 1.0133 5.906c.5101 2.973-.4547 6.009-2.5877 8.142l-10.9835 10.984 6.8164 6.816 10.9836-10.984c2.133-2.133 5.1686-3.097 8.1417-2.587l5.906 1.013L101.87 90.4172zM33.5 152c1.3245 0 2.5631.656 3.3078 1.751L33.5 156l-3.3078-2.249C30.9369 152.656 32.1755 152 33.5 152zm0 11.432c.5706.938 1.1742 1.954 1.7764 3.009 1.2772 2.237 2.5098 4.576 3.4116 6.661.9715 2.247 1.312 3.653 1.312 4.231 0 3.742-2.9693 6.667-6.5 6.667s-6.5-2.925-6.5-6.667c0-.578.3405-1.984 1.312-4.231.9018-2.085 2.1344-4.424 3.4116-6.661.6022-1.055 1.2058-2.071 1.7764-3.009zm0-7.432c-3.3078-2.249-3.3075-2.25-3.3078-2.249l-.0012.002-.0023.003-.033.049-.0382.056c-.0163.025-.0351.052-.0563.084-.0815.122-.1992.298-.3479.522-.2972.449-.719 1.093-1.2241 1.883-1.0078 1.577-2.3575 3.751-3.7128 6.124-1.3478 2.36-2.7402 4.986-3.8071 7.453C19.972 172.233 19 174.966 19 177.333 19 185.374 25.4327 192 33.5 192S48 185.374 48 177.333c0-2.367-.972-5.1-1.9693-7.406-1.0669-2.467-2.4593-5.093-3.8071-7.453-1.3553-2.373-2.705-4.547-3.7128-6.124-.5051-.79-.9269-1.434-1.2241-1.883-.1487-.224-.2664-.4-.3479-.522-.0407-.061-.0725-.108-.0945-.14l-.0353-.052-.0012-.002c-.0003-.001 0 0-3.3078 2.249z"/>
</svg>