<svg xmlns="http://www.w3.org/2000/svg" width="192" height="192" fill="#000" viewBox="0 0 192 192">
  <path fill-rule="evenodd" d="M96 8C47.3989 8 8 47.3989 8 96c0 48.601 39.3989 88 88 88 48.601 0 88-39.399 88-88 0-48.6011-39.399-88-88-88zM0 96C0 42.9807 42.9807 0 96 0c53.019 0 96 42.9807 96 96 0 53.019-42.981 96-96 96-53.0193 0-96-42.981-96-96zm69.5973 18.805c1.7662-1.327 4.2737-.971 5.6007.795C79.9483 121.923 87.4975 126 96 126c8.503 0 16.052-4.077 20.802-10.4 1.327-1.766 3.835-2.122 5.601-.795s2.122 3.834.795 5.601C117.002 128.653 107.125 134 96 134c-11.1246 0-21.0016-5.347-27.198-13.594-1.3269-1.767-.9709-4.274.7953-5.601z"/>
  <path d="M79 85c0 4.4183-3.5817 8-8 8s-8-3.5817-8-8 3.5817-8 8-8 8 3.5817 8 8zM129 85c0 4.4183-3.582 8-8 8s-8-3.5817-8-8 3.582-8 8-8 8 3.5817 8 8z"/>
</svg>