<svg xmlns="http://www.w3.org/2000/svg" width="192" height="192" fill="#000" viewBox="0 0 192 192">
  <path fill-rule="evenodd" d="M96 8C47.3989 8 8 47.3989 8 96c0 48.601 39.3989 88 88 88 48.601 0 88-39.399 88-88 0-48.6011-39.399-88-88-88zM0 96C0 42.9807 42.9807 0 96 0c53.019 0 96 42.9807 96 96 0 53.019-42.981 96-96 96-53.0193 0-96-42.981-96-96z"/>
  <path fill-rule="evenodd" d="M122.403 133.198c-1.766 1.327-4.274.971-5.601-.795-4.75-6.323-12.299-10.4-20.802-10.4-8.5025 0-16.0517 4.077-20.802 10.4-1.327 1.766-3.8345 2.122-5.6007.795s-2.1222-3.835-.7953-5.601c6.1964-8.247 16.0734-13.594 27.198-13.594 11.125 0 21.002 5.347 27.198 13.594 1.327 1.766.971 4.274-.795 5.601z"/>
  <path d="M79 85c0 4.4183-3.5817 8-8 8s-8-3.5817-8-8 3.5817-8 8-8 8 3.5817 8 8zM129 85c0 4.4183-3.582 8-8 8s-8-3.5817-8-8 3.582-8 8-8 8 3.5817 8 8z"/>
</svg>