<svg xmlns="http://www.w3.org/2000/svg" width="192" height="192" fill="#000" viewBox="0 0 192 192">
  <path fill-rule="evenodd" d="M96 8C47.3989 8 8 47.3989 8 96c0 48.601 39.3989 88 88 88 48.601 0 88-39.399 88-88 0-48.6011-39.399-88-88-88zM0 96C0 42.9807 42.9807 0 96 0c53.019 0 96 42.9807 96 96 0 53.019-42.981 96-96 96-53.0193 0-96-42.981-96-96z"/>
  <path fill-rule="evenodd" d="M59.8785 102.722c2.1715-.405 4.2609 1.026 4.6667 3.197C67.3195 120.764 80.3517 132 95.9995 132c9.3225 0 17.7095-3.982 23.5635-10.349 1.495-1.626 4.025-1.732 5.652-.237 1.626 1.495 1.732 4.025.237 5.652C118.147 135.012 107.653 140 95.9995 140c-19.5696 0-35.8493-14.049-39.3181-32.611-.4059-2.171 1.0255-4.261 3.1971-4.667z"/>
  <path d="M132 88c0 4.4183-3.582 8-8 8s-8-3.5817-8-8 3.582-8 8-8 8 3.5817 8 8z"/>
  <path fill-rule="evenodd" d="M44 88c0-8.8366 7.1634-16 16-16s16 7.1634 16 16c0 2.2091-1.7909 4-4 4-2.2091 0-4-1.7909-4-4 0-4.4183-3.5817-8-8-8s-8 3.5817-8 8c0 2.2091-1.7909 4-4 4-2.2091 0-4-1.7909-4-4z"/>
</svg>