<svg xmlns="http://www.w3.org/2000/svg" width="192" height="192" fill="#000" viewBox="0 0 192 192">
  <path fill-rule="evenodd" d="M93 8c-.9374 0-1.936.65106-2.1393 1.56614l-.2072.93216c-.7726 3.4767-3.336 6.2801-6.7298 7.3599L70.7872 22.038C69.1273 22.5662 68 24.1078 68 25.8497c0 .7184.0501 1.4076.3493 2.0757l7.242 16.1738c4.9506 11.0565 5.5121 23.5817 1.5706 35.0368C75.7306 83.2957 75 87.6643 75 92.0634v10.8786c0 1.906 1.3458 3.548 3.2155 3.922L96 110.421l17.784-3.557c1.87-.374 3.216-2.016 3.216-3.922V92.0634c0-4.3991-.731-8.7677-2.162-12.9274-3.941-11.4551-3.38-23.9803 1.571-35.0368l7.242-16.1738c.299-.6681.349-1.3573.349-2.0757 0-1.7419-1.127-3.2835-2.787-3.8117l-13.137-4.1798c-3.394-1.0798-5.957-3.8832-6.73-7.3599l-.207-.93216C100.936 8.65107 99.9374 8 99 8h-6zm-1 109.779l-15.3534-3.07C71.0375 113.587 67 108.662 67 102.942V92.0634c0-5.2849.8777-10.533 2.5972-15.5303 3.2809-9.5352 2.8135-19.9612-1.3074-29.1646l-7.242-16.1738C60.2868 29.4952 60 27.699 60 25.8497c0-5.2257 3.3818-9.8506 8.3616-11.4351l13.1364-4.1798C82.6253 9.87616 82.7767 9.00466 83 8c1.0168-4.57538 5.313-8 10-8h6c4.687 0 8.983 3.42462 10 8 .223 1.00466.375 1.87616 1.502 2.2348l13.136 4.1798c4.98 1.5845 8.362 6.2094 8.362 11.4351 0 1.8493-.287 3.6455-1.048 5.345l-7.242 16.1738c-4.121 9.2034-4.588 19.6294-1.307 29.1646C124.122 81.5304 125 86.7785 125 92.0634v10.8786c0 5.72-4.038 10.645-9.647 11.767L100 117.779V184h17c2.209 0 4 1.791 4 4s-1.791 4-4 4H75c-2.2091 0-4-1.791-4-4s1.7909-4 4-4h17v-66.221z"/>
</svg>