<svg xmlns="http://www.w3.org/2000/svg" width="192" height="192" fill="#000" viewBox="0 0 192 192">
  <path fill-rule="evenodd" d="M106.709 22.6818c-10.0771 4.0199-18.1328 8.5138-22.7251 13.1061-3.49 3.49-6.6621 7.2627-9.4947 11.2268h35.3418c2.209 0 4 1.7909 4 4 0 2.2092-1.791 4-4 4H69.3717c-2.7766 4.8726-5.072 9.9248-6.8524 15.0119H86.82c2.2091 0 4 1.7908 4 4 0 2.2091-1.7909 4-4 4H60.1509c-.4056 1.6743-.7534 3.3442-1.0422 5.0045-2.5844 14.8568-.379 28.3519 6.6583 37.5449L178.26 8.08337c-2.335-.13972-5.25-.10543-8.65.11512-8.299.53822-19.012 2.15251-30.203 4.65201-11.186 2.4984-22.727 5.8541-32.698 9.8313zm77.208-8.9416c.172 2.8765.079 6.6033-.29 10.9871-.771 9.1667-2.707 20.7755-5.577 32.5814l-27.654 19.0899c-1.029.7099-1.666 1.8598-1.724 3.1083-.057 1.2484.473 2.4519 1.432 3.2532l14.804 12.3684c-2.812 5.5325-5.749 9.9405-8.696 12.8875-13.319 13.32-30.755 22.007-47.243 24.875-14.8569 2.584-28.3519.379-37.5451-6.658L183.917 13.7402zM60.069 126.274L1.17157 185.172c-1.562094 1.562-1.562095 4.094 0 5.656 1.5621 1.563 4.09476 1.563 5.65686 0l58.89747-58.897c11.5838 9.397 28.0675 11.72 44.6141 8.842 18.11-3.15 37.043-12.614 51.529-27.1 4.367-4.368 8.245-10.711 11.629-17.9013.774-1.6458.341-3.6068-1.055-4.7729L159.27 79.9936l24.574-16.9634c.801-.5531 1.373-1.3795 1.609-2.3243 3.151-12.642 5.301-25.2625 6.146-35.3083.421-5.0091.528-9.4958.237-13.0757-.145-1.786-.397-3.46061-.809-4.91198-.389-1.36888-1.036-2.96845-2.252-4.18459-1.124-1.12336-2.564-1.75226-3.813-2.14128-1.312-.40858-2.807-.67131-4.385-.836915-3.161-.3316512-7.095-.3166346-11.485-.031877-8.808.571293-19.942 2.262082-31.429 4.827642-11.492 2.56669-23.459 6.0361-33.918 10.2083-10.3524 4.1296-19.6475 9.1095-25.4179 14.8798C63.8409 44.6171 54.3773 63.5499 51.227 81.6601c-2.8783 16.5466-.5553 33.0299 8.842 44.6139z"/>
</svg>