<svg xmlns="http://www.w3.org/2000/svg" width="192" height="192" fill="#000" viewBox="0 0 192 192">
  <path fill-rule="evenodd" d="M.981638 19.3753c1.449592-1.667 3.976112-1.8433 5.643132-.3937L92.0001 93.221V22.0001c0-2.2092 1.7908-4 4-4 2.2091 0 3.9999 1.7908 3.9999 4V93.221l85.375-74.2394c1.667-1.4496 4.194-1.2733 5.643.3937 1.45 1.6671 1.274 4.1936-.393 5.6432L100 103.823V170c0 2.209-1.7908 4-3.9999 4-2.2092 0-4-1.791-4-4v-66.177L1.37534 25.0185c-1.667023-1.4496-1.843292-3.9761-.393702-5.6432z"/>
</svg>