<svg xmlns="http://www.w3.org/2000/svg" width="192" height="192" fill="#000" viewBox="0 0 192 192">
  <path fill-rule="evenodd" d="M96 8c-10.4934 0-19 8.5066-19 19s8.5066 19 19 19c10.493 0 19-8.5066 19-19S106.493 8 96 8zM69 27C69 12.0883 81.0883 0 96 0c14.912 0 27 12.0883 27 27s-12.088 27-27 27c-14.9117 0-27-12.0883-27-27zm-.7206 26.2946c1.4534-1.3486 3.6755-1.4289 5.2225-.1887C79.6658 58.0471 87.4826 61 96 61c8.517 0 16.334-2.9529 22.498-7.8941 1.547-1.2402 3.769-1.1599 5.223.1887l17 15.7731C141.536 69.8246 142 70.8872 142 72v57c0 1.55-.895 2.96-2.297 3.62L125 139.539V182c0 5.523-4.477 10-10 10H77c-5.5229 0-10-4.477-10-10v-42.461l-14.7032-6.919C50.8948 131.96 50 130.55 50 129V72c0-1.1128.4636-2.1754 1.2794-2.9323l17-15.7731zm3.0127 8.1178L58 73.7452v52.7168l14.7032 6.919c1.402.66 2.2968 2.07 2.2968 3.619v45c0 1.105.8954 2 2 2h38c1.105 0 2-.895 2-2v-45c0-1.549.895-2.959 2.297-3.619L134 126.462V73.7452l-13.292-12.3328C113.664 66.2002 105.155 69 96 69c-9.1548 0-17.6642-2.7998-24.7079-7.5876z"/>
</svg>