<svg xmlns="http://www.w3.org/2000/svg" width="192" height="192" fill="#000" viewBox="0 0 192 192">
  <path fill-rule="evenodd" d="M89.9997 14c-1.1046 0-2.0001.8954-2.0001 2s.8955 2 2.0001 2c1.1046 0 2.0001-.8954 2.0001-2s-.8955-2-2.0001-2zM96 7.99927C94.3286 6.74389 92.251 6 89.9997 6c-5.5232 0-10.0006 4.4772-10.0006 10s4.4774 10 10.0006 10c.6849 0 1.3538-.0689 2.0001-.2V38h-9.9973c-.7749-1.5124-1.9867-2.8278-3.5837-3.7758C72.3034 30.5944 60.7357 26 41.4971 26c-19.2387 0-30.8063 4.5944-36.92171 8.2242-5.140948 3.0515-5.90291 9.4491-2.52125 13.8564 1.85585 2.4187 4.50842 5.4391 8.01026 8.3924-2.18077.9225-3.9995 1.8671-5.48901 2.7512-5.140948 3.0515-5.90291 9.4491-2.52125 13.8564C7.56741 80.2659 20.3313 93 41.4971 93 62.6628 93 75.4267 80.2659 80.94 73.0806c.5007-.6526.9148-1.3512 1.2372-2.0806h9.8226v95.832c-3.532 1.543-6.0003 5.067-6.0003 9.168 0 5.523 4.4774 10 10.0005 10 5.523 0 10.001-4.477 10.001-10 0-4.101-2.469-7.625-6.001-9.168V71h9.823c.322.7294.736 1.428 1.237 2.0806C116.573 80.2659 129.337 93 150.503 93c21.166 0 33.93-12.7341 39.443-19.9194 3.382-4.4073 2.62-10.8049-2.521-13.8564-1.49-.8841-3.309-1.8287-5.489-2.7512 3.501-2.9533 6.154-5.9737 8.01-8.3924 3.382-4.4073 2.62-10.8049-2.521-13.8564C181.309 30.5944 169.742 26 150.503 26c-19.239 0-30.806 4.5944-36.922 8.2242-1.597.948-2.809 2.2634-3.583 3.7758H100V25.8c.646.1311 1.315.2 2 .2 5.523 0 10.001-4.4772 10.001-10S107.523 6 102 6c-2.251 0-4.3286.74389-6 1.99927zM100 16c0 1.1046.896 2 2 2 1.105 0 2-.8954 2-2s-.895-2-2-2c-1.104 0-2 .8954-2 2zm-8.0002 30h-9.8226c-.3223.7293-.7365 1.428-1.2372 2.0806-1.8558 2.4187-4.5084 5.4391-8.0103 8.3924 2.1808.9225 3.9995 1.8671 5.4891 2.7512 1.597.948 2.8089 2.2634 3.5837 3.7758h9.9973V46zM100 63V46h9.823c.322.7293.736 1.428 1.237 2.0806 1.856 2.4187 4.508 5.4391 8.01 8.3924-2.181.9225-3.999 1.8671-5.489 2.7512-1.597.948-2.809 2.2634-3.583 3.7758H100zm27.155-.945c-4.297 1.3022-7.394 2.8047-9.49 4.0486-.279.1655-.431.343-.517.4899-.089.151-.141.3244-.146.5205-.008.2791.079.6708.405 1.0968C122.206 74.4641 132.895 85 150.503 85c17.608 0 28.297-10.5359 33.095-16.7892.388-.5045.44-.9601.391-1.255-.045-.2698-.198-.5852-.648-.8522-2.096-1.2439-5.193-2.7464-9.49-4.0486C167.639 65.4907 159.874 68 150.503 68c-9.371 0-17.136-2.5093-23.348-5.945zm-62.3101 0C58.6327 65.4907 50.8682 68 41.4971 68c-9.3712 0-17.1356-2.5093-23.3479-5.945-4.2968 1.3022-7.3945 2.8047-9.49008 4.0486-.44984.267-.60335.5824-.64819.8522-.04903.2949.00351.7505.3906 1.255C13.1997 74.4641 23.8888 85 41.4971 85s28.2974-10.5359 33.0955-16.7892c.3269-.426.4137-.8177.4058-1.0968-.0056-.1961-.0573-.3695-.1461-.5205-.0864-.1469-.2384-.3244-.5173-.4899-2.0956-1.2439-5.1932-2.7464-9.4901-4.0486zM41.4971 34c-17.9069 0-28.0461 4.2593-32.83798 7.1036-.44984.267-.60335.5824-.64819.8522-.04903.2949.00351.7505.3906 1.255 2.46467 3.2122 6.54137 7.6167 12.33727 11.1034C26.1021 57.5407 32.9632 60 41.4971 60c8.5338 0 15.3949-2.4593 20.7582-5.6858 5.7959-3.4867 9.8726-7.8912 12.3373-11.1034.3269-.426.4137-.8177.4058-1.0968-.0056-.1961-.0573-.3695-.1461-.5205-.0864-.1469-.2384-.3244-.5173-.4899C69.5431 38.2593 59.404 34 41.4971 34zm109.0059 0c-17.907 0-28.046 4.2593-32.838 7.1036-.279.1655-.431.343-.517.4899-.089.151-.141.3244-.146.5205-.008.2791.079.6708.405 1.0968 2.465 3.2122 6.542 7.6167 12.338 11.1034C135.108 57.5407 141.969 60 150.503 60c8.534 0 15.395-2.4593 20.758-5.6858 5.796-3.4867 9.873-7.8912 12.337-11.1034.388-.5045.44-.9601.391-1.255-.045-.2698-.198-.5852-.648-.8522C178.549 38.2593 168.41 34 150.503 34zM96 174c-1.1046 0-2.0001.895-2.0001 2s.8955 2 2.0001 2c1.1046 0 2.0001-.895 2.0001-2s-.8955-2-2.0001-2z"/>
</svg>