<svg xmlns="http://www.w3.org/2000/svg" width="192" height="192" fill="#000" viewBox="0 0 192 192">
  <path fill-rule="evenodd" d="M51.9999 12c0-6.62742 5.3726-12 12-12H128c6.627 0 12 5.37258 12 12v24h36c8.837 0 16 7.1634 16 16v124c0 8.837-7.163 16-16 16H16c-8.83656 0-16-7.163-16-16V52c0-8.8366 7.16344-16 16-16h35.9999V12zm8 24H132V12c0-2.20913-1.791-4-4-4H63.9999c-2.2091 0-4 1.79086-4 4v24zM16 44c-4.4183 0-8 3.5817-8 8v124c0 4.418 3.5817 8 8 8h160c4.418 0 8-3.582 8-8V52c0-4.4183-3.582-8-8-8H16zm80 36c2.2091 0 4 1.7909 4 4v26h26c2.209 0 4 1.791 4 4s-1.791 4-4 4h-26v26c0 2.209-1.7909 4-4 4-2.2091 0-4-1.791-4-4v-26H66c-2.2091 0-4-1.791-4-4s1.7909-4 4-4h26V84c0-2.2091 1.7909-4 4-4z"/>
</svg>