<svg xmlns="http://www.w3.org/2000/svg" width="192" height="192" fill="#000" viewBox="0 0 192 192">
  <path fill-rule="evenodd" d="M29.5898 58.1648C16.4941 68.1833 8 81.6266 8 96c0 14.373 8.4941 27.817 21.5898 37.835C41.5904 143.016 57.032 148.963 72 149.877V42.1232c-14.968.9142-30.4096 6.8609-42.4102 16.0416zM80 92V38c0-2.2091-1.7909-4-4-4-18.0619 0-36.9048 6.8204-51.2711 17.8109C10.3851 62.7842 0 78.3408 0 96c0 17.659 10.3851 33.216 24.7289 44.189C39.0952 151.18 57.9381 158 76 158c2.2091 0 4-1.791 4-4v-54h19v51c0 2.209 1.791 4 4 4s4-1.791 4-4v-51h15v41c0 2.209 1.791 4 4 4s4-1.791 4-4v-41h15v31c0 2.209 1.791 4 4 4s4-1.791 4-4v-31h15.219l16.808 18.676c1.478 1.642 4.007 1.775 5.649.297 1.642-1.478 1.775-4.007.297-5.649L175.381 96l15.592-17.3241c1.478-1.6421 1.345-4.1712-.297-5.6491-1.642-1.4778-4.171-1.3447-5.649.2973L168.219 92H153V61c0-2.2091-1.791-4-4-4s-4 1.7909-4 4v31h-15V51c0-2.2091-1.791-4-4-4s-4 1.7909-4 4v41h-15V41c0-2.2091-1.791-4-4-4s-4 1.7909-4 4v51H80z"/>
</svg>