<svg xmlns="http://www.w3.org/2000/svg" width="193" height="192" fill="#000" viewBox="0 0 193 192">
  <path d="M157.996 94c2.209 0 4-1.7909 4-4 0-2.2091-1.791-4-4-4s-4 1.7909-4 4c0 2.2091 1.791 4 4 4z"/>
  <path fill-rule="evenodd" d="M99.0268 40.551c8.1452 2.7428 17.1462 7.6592 25.3892 12.737 13.476 1.8711 27.363 6.94 39.281 13.3923 12.117 6.5604 22.586 14.7613 28.532 22.9108 1.162 1.5926.991 3.7945-.404 5.1877l-8.596 8.5852 8.596 8.586c1.395 1.393 1.566 3.595.404 5.188-8.422 11.543-26.043 23.342-45.026 30.403-7.196 2.677-14.69 4.713-22.086 5.8-8.456 5.311-17.553 10.347-25.7906 13.103-8.1508 2.728-17.1433 3.775-23.3052-1.827-6.5723-5.975-6.9848-14.785-6.0699-21.72-10.629-5.41-20.0024-12.311-26.4784-19.588-5.7651 4.261-18.3177 13.531-25.1218 18.507l-.0376.027c-4.8308 3.447-10.41135 2.277-13.81024-.866-3.41308-3.155-4.988683-8.658-1.71249-13.681l9.51273-14.584c3.7191-5.702 3.7191-12.9927 0-18.6946L2.79077 79.4329C-.485423 74.41 1.09018 68.9071 4.50326 65.7516c3.39889-3.1423 8.97944-4.3128 13.81024-.8655.0154.011.0307.0221.0459.0333 5.0064 3.6807 12.0448 8.8677 17.8305 13.1336 2.8673 2.1141 5.4273 4.0023 7.2806 5.3694 6.4696-7.2708 15.8317-14.1659 26.4485-19.5736-.871-6.9356-.4055-15.8138 6.1022-21.7299 3.0296-2.7541 6.8552-3.797 10.7628-3.8453 3.8646-.0477 8.0496.8653 12.2428 2.2774zm-17.6242 7.4875c1.179-1.0719 2.9047-1.7337 5.4802-1.7655 2.6184-.0323 5.8484.5993 9.5909 1.8596 3.4031 1.1461 7.0493 2.7484 10.7953 4.6398-10.0929.8356-20.27 3.5931-29.6454 7.5106-.2587-4.9912.7105-9.455 3.779-12.2445zm-3.7653 98.4135c9.5829 4.002 20.0031 6.793 30.3137 7.558-3.886 1.999-7.654 3.673-11.1633 4.848-7.854 2.628-12.7642 2.222-15.3851-.161-3.1198-2.836-4.0634-7.258-3.7653-12.245zM47.3101 115.41c-1.3279-1.731-3.7982-2.079-5.5524-.781-.6718.496-1.3436.993-2.0154 1.49-8.6857 6.423-17.3716 12.846-26.0915 19.223-1.32.932-2.7083.693-3.71673-.239-.99823-.923-1.26935-2.169-.44265-3.436l9.51278-14.585c5.4515-8.358 5.4515-19.0771 0-27.4351L9.49142 75.0624c-.8267-1.2675-.55558-2.5137.44265-3.4366 1.00753-.9315 2.39433-1.1708 3.71333-.2413 9.0396 6.6461 18.0683 13.3071 27.0969 19.9682l1.017.7503c1.7542 1.2944 4.2219.9457 5.5488-.7841 5.9081-7.7022 16.3039-15.6499 28.7364-21.5717 11.7834-5.6126 25.0525-9.2399 37.5225-9.2399 2.91 0 5.907.2062 8.959.5992 12.582 1.6203 25.868 6.3875 37.36 12.6089 10.066 5.4498 18.461 11.8549 23.75 17.9335l-8.895 8.8851c-.752.751-1.174 1.769-1.174 2.83 0 1.062.422 2.08 1.174 2.83l8.895 8.886c-7.518 8.641-21.214 17.829-36.714 23.997-8.175-9.457-13.355-22.359-13.355-35.713 0-6.953 1.334-13.5853 3.755-19.6617.818-2.0522-.183-4.3787-2.235-5.1965-2.052-.8178-4.379.1829-5.197 2.2351-2.79 7.0029-4.323 14.6391-4.323 22.6231 0 14.252 5.104 27.983 13.351 38.567-5.257 1.656-10.566 2.896-15.755 3.607-3.271.448-6.483.684-9.596.684-12.453 0-25.7035-3.618-37.4753-9.218-12.453-5.924-22.8679-13.882-28.7836-21.594z"/>
</svg>