<svg xmlns="http://www.w3.org/2000/svg" width="192" height="192" fill="#000" viewBox="0 0 192 192">
  <path fill-rule="evenodd" d="M93.6928.50783c1.5655-.874288 3.5215-.6000167 4.7861.67111C112.661 15.4335 124.919 32.2221 130.432 51.3519c4.87 16.8992 4.402 35.3823-4.27 55.1521 4.159-2.546 7.126-6.7211 9.263-11.2676 1.625-3.4589 2.652-6.9135 3.271-9.5257.307-1.2987.51-2.3705.634-3.1063.062-.3675.105-.6498.131-.8332.006-.0426.011-.0798.015-.1115.005-.0365.009-.0656.012-.0872l.005-.0391V81.531c.211-1.7887 1.592-3.2158 3.373-3.4857 1.782-.2701 3.524.6847 4.255 2.3319 7.577 17.0676 13.165 34.9458 13.165 50.7648 0 33.097-24.894 59.382-61.519 60.798-.7467.04-1.5026.06-2.267.06-.1204 0-.2406 0-.3606-.001-.1651.001-.3305.001-.4962.001C57.3171 192 31 165.172 31 131.142c0-13.682 4.9901-25.37 11.9476-35.8854 5.8912-8.9036 13.3609-17.1956 20.5648-25.1924 1.2264-1.3614 2.4451-2.7142 3.647-4.0601C84.0309 47.1118 97.6456 29.4511 91.754 4.93474c-.419-1.74341.3734-3.55262 1.9388-4.42691zm4.726 183.44017c-.7505.028-1.5071.045-2.2695.05C80.1675 183.841 70 172.951 70 159.571c0-2.699.3976-5.64 1.1273-8.751 3.0126 1.755 7.3671 3.238 13.6003 3.671 1.4612.101 2.8609-.604 3.6487-1.839.7879-1.235.838-2.801.1306-4.084-5.5831-10.121-6.0686-19.153-3.7287-27.224 1.4575-5.028 4.0484-9.803 7.3856-14.297 1.6948 9.622 8.1662 17.259 14.1852 23.96.64.712 1.275 1.414 1.904 2.108 3.637 4.018 7.049 7.786 9.742 11.833 3.096 4.651 5.005 9.347 5.005 14.623 0 12.937-9.505 23.547-24.5812 24.377zm27.9952-7.629c16.243-9.251 25.872-25.965 25.872-45.177 0-11.035-3.076-23.593-7.944-36.5042-.484 1.301-1.04 2.6461-1.677 4.001-3.804 8.0952-10.998 17.4522-23.887 18.3512-1.459.102-2.858-.601-3.647-1.833-.789-1.233-.842-2.797-.138-4.08 11.599-21.1512 12.708-40.3135 7.752-57.5097-3.937-13.6622-11.763-26.2783-21.593-37.7376.224 22.497-13.9162 39.7037-28.0256 55.5031-1.2484 1.3979-2.4969 2.7848-3.7393 4.1647-7.2226 8.0224-14.2342 15.8104-19.7677 24.1736C43.1974 109.377 39 119.538 39 131.142c0 20.221 10.6671 37.674 28.4856 46.572C63.9685 172.57 62 166.347 62 159.571c0-5.576 1.3169-11.522 3.299-17.357.5344-1.574 1.9859-2.653 3.6466-2.711 1.6033-.057 3.0791.849 3.7586 2.291.0208.034.0723.116.163.234.2139.279.6632.783 1.477 1.36.812.574 2.0406 1.257 3.8419 1.846-3.4265-9.26-3.4382-18.023-1.0916-26.118 2.9032-10.015 9.3197-18.692 16.5781-25.9454 1.2675-1.2665 3.2227-1.5357 4.7852-.6586 1.5622.877 2.3512 2.6862 1.9302 4.4279-2.6901 11.1291 3.371 19.2121 11.913 28.7211.593.66 1.198 1.328 1.811 2.004 3.617 3.991 7.49 8.263 10.543 12.851 3.634 5.459 6.345 11.688 6.345 19.055 0 6.174-1.635 11.89-4.586 16.748zm-53.6507-34.394c.0001 0 .0002 0 .0003.001l-.0003-.001z"/>
</svg>