<svg xmlns="http://www.w3.org/2000/svg" width="192" height="192" fill="#000" viewBox="0 0 192 192">
  <path fill-rule="evenodd" d="M46.9964.00000143C46.9976 4.8e-7 46.9988 0 47 0l110.686.0000019c3.183 0 6.235 1.2642881 8.486 3.5147181l22.313 22.31368c2.251 2.2505 3.515 5.3027 3.515 8.4853V180c0 6.627-5.373 12-12 12H12c-6.62742 0-12-5.373-12-12L.0000012 12C.0000012 5.37258 5.37259.00000143 12 .00000143h34.9964zM43 8H12c-2.20914 0-4 1.79086-4 4v168c0 2.209 1.79086 4 4 4h168c2.209 0 4-1.791 4-4V34.3137c0-1.0608-.421-2.0783-1.172-2.8284L160.515 9.17158C159.765 8.42143 158.747 8 157.686 8H149v39c0 12.1503-9.85 22-22 22H65c-12.1503 0-22-9.8497-22-22V8zm98 .00001L51 8v39c0 7.732 6.268 14 14 14h62c7.732 0 14-6.268 14-14V8.00001zM71 123c0 13.807 11.1929 25 25 25 13.807 0 25-11.193 25-25s-11.193-25-25-25c-13.8071 0-25 11.193-25 25zm-8 0c0-18.225 14.7746-33 33-33 18.225 0 33 14.775 33 33s-14.775 33-33 33c-18.2254 0-33-14.775-33-33z"/>
</svg>