<svg xmlns="http://www.w3.org/2000/svg" width="192" height="192" fill="#000" viewBox="0 0 192 192">
  <path fill-rule="evenodd" d="M96 31c-20.637 0-38.0802 13.7442-43.666 32.5995-.5232 1.7658-2.1845 2.9463-4.0242 2.8593-.6121-.0289-1.2283-.0436-1.8483-.0436C25.2231 66.4152 8 83.6482 8 104.913v7.084c0 2.209-1.79086 4-4 4s-4-1.791-4-4v-7.084c0-25.3937 20.3427-46.0386 45.6154-46.4902C53.0475 37.7727 72.7938 23 96 23c28.271 0 51.419 21.9282 53.401 49.7109 1.061-.0859 2.133-.1296 3.214-.1296 21.755 0 39.385 17.6501 39.385 39.4157 0 2.209-1.791 4-4 4s-4-1.791-4-4c0-17.3539-14.055-31.4157-31.385-31.4157-2.156 0-4.257.2171-6.285.6293-1.186.2411-2.417-.0678-3.349-.8403-.932-.7724-1.464-1.9253-1.447-3.1356.003-.2174.004-.4352.004-.6534C141.538 51.4042 121.147 31 96 31zm-86 98c0-2.209 1.7909-4 4-4h85c2.209 0 4 1.791 4 4s-1.791 4-4 4H14c-2.2091 0-4-1.791-4-4zm118 0c0-2.209 1.791-4 4-4h56c2.209 0 4 1.791 4 4s-1.791 4-4 4h-56c-2.209 0-4-1.791-4-4zM0 147c0-2.209 1.79086-4 4-4h35c2.2091 0 4 1.791 4 4s-1.7909 4-4 4H4c-2.20914 0-4-1.791-4-4zm68 0c0-2.209 1.7909-4 4-4h106c2.209 0 4 1.791 4 4s-1.791 4-4 4H72c-2.2091 0-4-1.791-4-4zm-58 18c0-2.209 1.7909-4 4-4h115c2.209 0 4 1.791 4 4s-1.791 4-4 4H14c-2.2091 0-4-1.791-4-4zm148 0c0-2.209 1.791-4 4-4h26c2.209 0 4 1.791 4 4s-1.791 4-4 4h-26c-2.209 0-4-1.791-4-4z"/>
</svg>