<svg xmlns="http://www.w3.org/2000/svg" width="192" height="192" fill="#000" viewBox="0 0 192 192">
  <path fill-rule="evenodd" d="M10 18c-1.10457 0-2 .8954-2 2v152c0 1.105.89543 2 2 2h172c1.105 0 2-.895 2-2V44c0-1.1046-.895-2-2-2H83.9671c-2.4809 0-4.8215-1.151-6.3361-3.1159L61.5329 18H10zM0 20c0-5.5228 4.47715-10 10-10h51.5329c2.4809 0 4.8214 1.151 6.3361 3.1159L83.9671 34H182c5.523 0 10 4.4772 10 10v128c0 5.523-4.477 10-10 10H10c-5.52285 0-10-4.477-10-10V20zm96 49c2.2091 0 4 1.7909 4 4l-.0001 62.343 20.1721-20.171c1.562-1.563 4.094-1.563 5.656 0 1.563 1.562 1.563 4.094 0 5.656l-26.9996 27c-.7502.751-1.7676 1.172-2.8285 1.172-1.0608 0-2.0782-.421-2.8284-1.172l-27-27c-1.562-1.562-1.562-4.094.0001-5.656 1.5621-1.563 4.0947-1.563 5.6568 0l20.1715 20.171L92 73c0-2.2091 1.7908-4 4-4z"/>
</svg>