<svg xmlns="http://www.w3.org/2000/svg" width="192" height="192" fill="#000" viewBox="0 0 192 192">
  <path fill-rule="evenodd" d="M10 18c-1.10457 0-2 .8954-2 2v152c0 1.105.89543 2 2 2h172c1.105 0 2-.895 2-2V44c0-1.1046-.895-2-2-2H83.9671c-2.4809 0-4.8215-1.151-6.3361-3.1159L61.5329 18H10zM0 20c0-5.5228 4.47715-10 10-10h51.5329c2.4809 0 4.8214 1.151 6.3361 3.1159L83.9671 34H182c5.523 0 10 4.4772 10 10v128c0 5.523-4.477 10-10 10H10c-5.52285 0-10-4.477-10-10V20zm96.0667 55.2565c1.5517 0 2.9633.8974 3.6219 2.3024l7.8884 16.8308 17.907 2.7397c1.481.2267 2.711 1.2623 3.187 2.6833.476 1.4213.118 2.9883-.927 4.0623l-13.089 13.433 3.061 18.792c.247 1.513-.392 3.033-1.645 3.914-1.253.882-2.899.971-4.24.229l-15.7643-8.727-15.7645 8.727c-1.3404.742-2.9869.653-4.2397-.229-1.2528-.881-1.8918-2.401-1.6455-3.914l3.061-18.792-13.0882-13.433c-1.0458-1.074-1.4039-2.641-.9278-4.0623.4761-1.421 1.7065-2.4566 3.1878-2.6833l17.9063-2.7397 7.8887-16.8308c.6585-1.405 2.0702-2.3024 3.6219-2.3024zm0 13.4251l-4.5149 9.6325c-.9769 2.0839-2.9285 3.5469-5.2063 3.8949l-10.7995 1.652 8.046 8.259c1.5291 1.569 2.2223 3.771 1.8702 5.932l-1.8244 11.201 9.0872-5.031c2.0793-1.151 4.6041-1.151 6.6834 0l9.0876 5.031-1.825-11.201c-.352-2.161.341-4.363 1.87-5.932l8.046-8.259-10.799-1.652c-2.278-.348-4.23-1.811-5.206-3.8949l-4.5153-9.6325z"/>
</svg>