<svg xmlns="http://www.w3.org/2000/svg" width="192" height="192" fill="#000" viewBox="0 0 192 192">
  <path fill-rule="evenodd" d="M10 18c-1.10457 0-2 .8954-2 2v152c0 1.105.89543 2 2 2h172c1.105 0 2-.895 2-2V44c0-1.1046-.895-2-2-2H83.9671c-2.4809 0-4.8215-1.151-6.3361-3.1159L61.5329 18H10zM0 20c0-5.5228 4.47715-10 10-10h51.5329c2.4809 0 4.8214 1.151 6.3361 3.1159L83.9671 34H182c5.523 0 10 4.4772 10 10v128c0 5.523-4.477 10-10 10H10c-5.52285 0-10-4.477-10-10V20zm96 66c-9.4168 0-17.3714 6.2491-19.9165 14.811-.5243 1.764-2.1843 2.942-4.0224 2.856-.2749-.013-.5517-.02-.8303-.02-9.526 0-17.2308 7.7-17.2308 17.177C54 130.3 61.7048 138 71.2308 138h53.0772c7.571 0 13.692-6.12 13.692-13.647s-6.121-13.647-13.692-13.647c-.945 0-1.863.095-2.747.274-1.186.24-2.417-.069-3.348-.842-.931-.772-1.463-1.925-1.446-3.135.002-.099.002-.198.002-.297C116.769 95.28 107.48 86 96 86zm-26.5823 9.7111C73.743 85.3115 84.015 78 96 78c14.521 0 26.542 10.7389 28.492 24.707 11.886.099 21.508 9.743 21.508 21.646 0 11.965-9.722 21.647-21.692 21.647H71.2308C57.3059 146 46 134.738 46 120.824c0-13.306 10.3376-24.1858 23.4177-25.1129z"/>
</svg>