<svg xmlns="http://www.w3.org/2000/svg" width="192" height="192" fill="#000" viewBox="0 0 192 192">
  <path fill-rule="evenodd" d="M13 0c2.2091 0 4 1.79086 4 4v37h66V10c0-5.52285 4.4771-10 10-10h21.783c2.481 0 4.821 1.15102 6.336 3.11594L127.967 12H173c5.523 0 10 4.4772 10 10v58c0 5.5229-4.477 10-10 10H93c-5.5229 0-10-4.4771-10-10V49H17v90c0 2.209 1.7909 4 4 4h62v-31c0-5.523 4.4771-10 10-10h21.783c2.481 0 4.821 1.151 6.336 3.116l6.848 8.884H173c5.523 0 10 4.477 10 10v58c0 5.523-4.477 10-10 10H93c-5.5229 0-10-4.477-10-10v-31H21c-6.6274 0-12-5.373-12-12V4c0-2.20914 1.7909-4 4-4zm78 182c0 1.105.8954 2 2 2h80c1.105 0 2-.895 2-2v-58c0-1.105-.895-2-2-2h-45.033c-2.481 0-4.821-1.151-6.336-3.116L114.783 110H93c-1.1046 0-2 .895-2 2v70zM93 8c-1.1046 0-2 .89543-2 2v70c0 1.1046.8954 2 2 2h80c1.105 0 2-.8954 2-2V22c0-1.1046-.895-2-2-2h-45.033c-2.481 0-4.821-1.151-6.336-3.1159L114.783 8H93z"/>
</svg>