<svg xmlns="http://www.w3.org/2000/svg" width="192" height="192" fill="#000" viewBox="0 0 192 192">
  <path fill-rule="evenodd" d="M10 18c-1.10457 0-2 .8954-2 2v152c0 1.105.89543 2 2 2h172c1.105 0 2-.895 2-2V44c0-1.1046-.895-2-2-2H83.9671c-2.4809 0-4.8215-1.151-6.3361-3.1159L61.5329 18H10zM0 20c0-5.5228 4.47715-10 10-10h51.5329c2.4809 0 4.8214 1.151 6.3361 3.1159L83.9671 34H182c5.523 0 10 4.4772 10 10v128c0 5.523-4.477 10-10 10H10c-5.52285 0-10-4.477-10-10V20zm103.092 67.6778c-7.5699-7.5704-19.8439-7.5704-27.4142 0-7.5704 7.5703-7.5704 19.8442 0 27.4142 7.5703 7.571 19.8443 7.571 27.4142 0 7.571-7.57 7.571-19.8439 0-27.4142zm-33.0711-5.6569c10.6946-10.6945 28.0338-10.6945 38.7281 0 9.734 9.7338 10.609 24.9721 2.624 35.6951l17.455 17.456c1.563 1.562 1.563 4.094 0 5.656-1.562 1.563-4.094 1.563-5.656 0l-17.456-17.455c-10.723 7.985-25.9613 7.11-35.6951-2.624-10.6945-10.694-10.6945-28.0335 0-38.7281z"/>
</svg>