<svg xmlns="http://www.w3.org/2000/svg" width="192" height="192" fill="#000" viewBox="0 0 192 192">
  <path fill-rule="evenodd" d="M10 18c-1.10457 0-2 .8954-2 2v152c0 1.105.89543 2 2 2h172c1.105 0 2-.895 2-2V44c0-1.1046-.895-2-2-2H83.9671c-2.4809 0-4.8215-1.151-6.3361-3.1159L61.5329 18H10zM0 20c0-5.5228 4.47715-10 10-10h51.5329c2.4809 0 4.8214 1.151 6.3361 3.1159L83.9671 34H182c5.523 0 10 4.4772 10 10v128c0 5.523-4.477 10-10 10H10c-5.52285 0-10-4.477-10-10V20zm96 54c2.2091 0 4 1.7909 4 4v26h26c2.209 0 4 1.791 4 4s-1.791 4-4 4h-26v26c0 2.209-1.7909 4-4 4-2.2091 0-4-1.791-4-4v-26H66c-2.2091 0-4-1.791-4-4s1.7909-4 4-4h26V78c0-2.2091 1.7909-4 4-4z"/>
</svg>