<svg xmlns="http://www.w3.org/2000/svg" width="192" height="192" fill="#000" viewBox="0 0 192 192">
  <path fill-rule="evenodd" d="M10 18c-1.10457 0-2 .8954-2 2v152c0 1.105.89543 2 2 2h172c1.105 0 2-.895 2-2V44c0-1.1046-.895-2-2-2H83.9671c-2.4809 0-4.8215-1.151-6.3361-3.1159L61.5329 18H10zM0 20c0-5.5228 4.47715-10 10-10h51.5329c2.4809 0 4.8214 1.151 6.3361 3.1159L83.9671 34H182c5.523 0 10 4.4772 10 10v128c0 5.523-4.477 10-10 10H10c-5.52285 0-10-4.477-10-10V20zm75.8997 73.5559C72.9735 97.6208 71.25 102.609 71.25 108c0 13.669 11.081 24.75 24.75 24.75 5.391 0 10.379-1.724 14.444-4.65L75.8997 93.5559zm5.6569-5.6567l34.5444 34.5438c2.926-4.064 4.649-9.052 4.649-14.443 0-13.669-11.081-24.75-24.75-24.75-5.3906 0-10.3787 1.7234-14.4434 4.6492zM63.25 108c0-18.0873 14.6627-32.75 32.75-32.75 18.087 0 32.75 14.6627 32.75 32.75 0 18.087-14.663 32.75-32.75 32.75-18.0873 0-32.75-14.663-32.75-32.75z"/>
</svg>