<svg xmlns="http://www.w3.org/2000/svg" width="192" height="192" fill="#000" viewBox="0 0 192 192">
  <path fill-rule="evenodd" d="M10 18c-1.10457 0-2 .8954-2 2v152c0 1.105.89543 2 2 2h172c1.105 0 2-.895 2-2V44c0-1.1046-.895-2-2-2H83.9671c-2.4809 0-4.8215-1.151-6.3361-3.1159L61.5329 18H10zM0 20c0-5.5228 4.47715-10 10-10h51.5329c2.4809 0 4.8214 1.151 6.3361 3.1159L83.9671 34H182c5.523 0 10 4.4772 10 10v128c0 5.523-4.477 10-10 10H10c-5.52285 0-10-4.477-10-10V20zm81.6566 64.6966c-7.1509 0-12.96 5.7778-12.96 12.872 0 4.3634.9491 7.6794 4.6855 12.2924 3.9059 4.823 10.675 10.828 22.3252 20.269 11.6517-9.441 18.4217-15.445 22.3277-20.268 3.734-4.612 4.684-7.928 4.684-12.2934 0-7.0654-5.78-12.872-12.96-12.872-2.449 0-4.326.4461-5.971 1.2444-1.68.8152-3.325 2.0978-5.1742 4.0529-.7555.7988-1.8065 1.2513-2.9059 1.2513-1.0995 0-2.1505-.4525-2.906-1.2513-1.8493-1.9551-3.4939-3.2377-5.1741-4.0529-1.6451-.7983-3.522-1.2444-5.9712-1.2444zm-20.96 12.872c0-11.5654 9.4439-20.872 20.96-20.872 3.5035 0 6.5982.6566 9.4635 2.0469 1.6563.8036 3.1669 1.8191 4.5878 3.0019 1.4208-1.1828 2.9314-2.1983 4.5881-3.0019 2.865-1.3903 5.96-2.0469 9.463-2.0469 11.571 0 20.96 9.3608 20.96 20.872 0 6.2664-1.623 11.3464-6.467 17.3274-4.591 5.67-12.204 12.308-24.13 21.952l-.9404.819c-1.9916 1.733-4.9558 1.733-6.9475 0l-.9229-.803c-11.9359-9.654-19.5532-16.297-24.146-21.968-4.8459-5.983-6.4686-11.062-6.4686-17.3274z"/>
</svg>