<svg xmlns="http://www.w3.org/2000/svg" width="192" height="192" fill="#000" viewBox="0 0 192 192">
  <path fill-rule="evenodd" d="M10 18c-1.10457 0-2 .8954-2 2v152c0 1.105.89543 2 2 2h172c1.105 0 2-.895 2-2V44c0-1.1046-.895-2-2-2H83.9671c-2.4809 0-4.8215-1.151-6.3361-3.1159L61.5329 18H10zM0 20c0-5.5228 4.47715-10 10-10h51.5329c2.4809 0 4.8214 1.151 6.3361 3.1159L83.9671 34H182c5.523 0 10 4.4772 10 10v128c0 5.523-4.477 10-10 10H10c-5.52285 0-10-4.477-10-10V20zm128.199 54.659c1.846 1.2147 2.357 3.6953 1.142 5.5405l-39.5 59.9995c-.6833 1.038-1.8103 1.7-3.0497 1.79-1.2394.091-2.4505-.4-3.2774-1.328l-20.5-23c-1.4698-1.649-1.3245-4.177.3246-5.647 1.6492-1.47 4.1777-1.325 5.6476.325l17.0358 19.113 36.6371-55.6515c1.215-1.8452 3.695-2.3562 5.54-1.1415z"/>
</svg>