<svg xmlns="http://www.w3.org/2000/svg" width="192" height="192" fill="#000" viewBox="0 0 192 192">
  <path fill-rule="evenodd" d="M10 18c-1.10457 0-2 .8954-2 2v152c0 1.105.89543 2 2 2h172c1.105 0 2-.895 2-2V44c0-1.1046-.895-2-2-2H83.9671c-2.4809 0-4.8215-1.151-6.3361-3.1159L61.5329 18H10zM0 20c0-5.5228 4.47715-10 10-10h51.5329c2.4809 0 4.8214 1.151 6.3361 3.1159L83.9671 34H182c5.523 0 10 4.4772 10 10v128c0 5.523-4.477 10-10 10H10c-5.52285 0-10-4.477-10-10V20zm41 64c0-5.5229 4.4772-10 10-10h59.111c5.523 0 10 4.4771 10 10v5.4344l17.321-14.5014c.72-.6027 1.629-.933 2.568-.933h7.222c2.209 0 4 1.7909 4 4v60c0 2.209-1.791 4-4 4H140c-.939 0-1.848-.33-2.568-.933l-17.321-14.501V132c0 5.523-4.477 10-10 10H51c-5.5228 0-10-4.477-10-10V84zm79.111 32.132L141.453 134h1.769V82h-1.769l-21.342 17.8679v16.2641zm-8-32.132c0-1.1046-.895-2-2-2H51c-1.1046 0-2 .8954-2 2v48c0 1.105.8954 2 2 2h59.111c1.105 0 2-.895 2-2V84z"/>
</svg>