<svg xmlns="http://www.w3.org/2000/svg" width="192" height="192" fill="#000" viewBox="0 0 192 192">
  <path fill-rule="evenodd" d="M10 18c-1.10457 0-2 .8954-2 2v152c0 1.105.89543 2 2 2h172c1.105 0 2-.895 2-2V44c0-1.1046-.895-2-2-2H83.9671c-2.4809 0-4.8215-1.151-6.3361-3.1159L61.5329 18H10zM0 20c0-5.5228 4.47715-10 10-10h51.5329c2.4809 0 4.8214 1.151 6.3361 3.1159L83.9671 34H182c5.523 0 10 4.4772 10 10v128c0 5.523-4.477 10-10 10H10c-5.52285 0-10-4.477-10-10V20zm71.9584 63.9584c1.5621-1.5621 4.0947-1.5621 5.6568 0L96 102.343l18.385-18.3846c1.562-1.5621 4.095-1.5621 5.657 0 1.562 1.5621 1.562 4.0947 0 5.6568L101.657 108l18.385 18.385c1.562 1.562 1.562 4.095 0 5.657-1.562 1.562-4.095 1.562-5.657 0L96 113.657l-18.3848 18.385c-1.5621 1.562-4.0947 1.562-5.6568 0s-1.5621-4.095 0-5.657L90.3431 108 71.9584 89.6152c-1.5621-1.5621-1.5621-4.0947 0-5.6568z"/>
</svg>