<svg xmlns="http://www.w3.org/2000/svg" width="192" height="192" fill="#000" viewBox="0 0 192 192">
  <path fill-rule="evenodd" d="M10 18c-1.10457 0-2 .8954-2 2v152c0 1.105.89543 2 2 2h172c1.105 0 2-.895 2-2V44c0-1.1046-.895-2-2-2H83.9671c-2.4809 0-4.8215-1.151-6.3361-3.1159L61.5329 18H10zM0 20c0-5.5228 4.47715-10 10-10h51.5329c2.4809 0 4.8214 1.151 6.3361 3.1159L83.9671 34H182c5.523 0 10 4.4772 10 10v128c0 5.523-4.477 10-10 10H10c-5.52285 0-10-4.477-10-10V20zm96.0001 49c1.0608 0 2.0782.4214 2.8284 1.1716l26.9995 27c1.563 1.5621 1.563 4.0944 0 5.6564-1.562 1.563-4.094 1.563-5.656 0L100 82.6569V145c0 2.209-1.7908 4-3.9999 4-2.2092 0-4-1.791-4-4V82.6568L71.8284 102.828c-1.5621 1.563-4.0947 1.563-5.6568 0-1.5621-1.562-1.5621-4.0943 0-5.6564l27-27C93.9218 69.4214 94.9392 69 96.0001 69z"/>
</svg>