<svg xmlns="http://www.w3.org/2000/svg" width="192" height="192" fill="#000" viewBox="0 0 192 192">
  <path fill-rule="evenodd" d="M10 18c-1.10457 0-2 .8954-2 2v152c0 1.105.89543 2 2 2h172c1.105 0 2-.895 2-2V44c0-1.1046-.895-2-2-2H83.9671c-2.4809 0-4.8215-1.151-6.3361-3.1159L61.5329 18H10zM0 20c0-5.5228 4.47715-10 10-10h51.5329c2.4809 0 4.8214 1.151 6.3361 3.1159L83.9671 34H182c5.523 0 10 4.4772 10 10v128c0 5.523-4.477 10-10 10H10c-5.52285 0-10-4.477-10-10V20zm78.6087 72.163c0-9.3408 7.5722-16.913 16.913-16.913 9.3413 0 16.9133 7.5722 16.9133 16.913v12.759c4.333 1.81 7.379 6.088 7.379 11.078v12.75c0 6.627-5.373 12-12 12H83.2298c-6.6274 0-12-5.373-12-12V116c0-4.99 3.0454-9.268 7.3789-11.078V92.163zm8 11.837h17.8263V92.163c0-4.9225-3.991-8.913-8.9133-8.913-4.9225 0-8.913 3.9905-8.913 8.913V104zm-3.3789 8c-2.2091 0-4 1.791-4 4v12.75c0 2.209 1.7909 4 4 4h24.5842c2.209 0 4-1.791 4-4V116c0-2.209-1.791-4-4-4H83.2298z"/>
</svg>