<svg xmlns="http://www.w3.org/2000/svg" width="192" height="192" fill="#000" viewBox="0 0 192 192">
  <path fill-rule="evenodd" d="M10 18c-1.10457 0-2 .8954-2 2v152c0 1.105.89543 2 2 2h172c1.105 0 2-.895 2-2V44c0-1.1046-.895-2-2-2H83.9671c-2.4809 0-4.8215-1.151-6.3361-3.1159L61.5329 18H10zM0 20c0-5.5228 4.47715-10 10-10h51.5329c2.4809 0 4.8214 1.151 6.3361 3.1159L83.9671 34H182c5.523 0 10 4.4772 10 10v128c0 5.523-4.477 10-10 10H10c-5.52285 0-10-4.477-10-10V20zm62 56c0-5.5228 4.4772-10 10-10h48c5.523 0 10 4.4772 10 10v48c0 5.523-4.477 10-10 10H72c-5.5228 0-10-4.477-10-10V76zm8 44.957V124c0 1.105.8954 2 2 2h48c1.105 0 2-.895 2-2v-3.043H70zm32.584-8H122v-4.953l-13.108-13.108-12.2551 12.255 5.9471 5.806zm-11.6877-11.379l15.1677-15.1673c.75-.7501 1.767-1.1716 2.828-1.1716s2.079.4215 2.829 1.1716L122 96.6899V76c0-1.1046-.895-2-2-2H72c-1.1046 0-2 .8954-2 2v26.466l7.9837-7.9152c1.5445-1.5314 4.0297-1.5479 5.5945-.0373l7.3181 7.0645zm-20.1141 11.379h20.3489l-2.9636-2.893-.0159-.016-7.3143-7.061-10.0551 9.97z"/>
</svg>