<svg xmlns="http://www.w3.org/2000/svg" width="192" height="192" fill="#000" viewBox="0 0 192 192">
  <path fill-rule="evenodd" d="M190.829 1.17107c1.562 1.56208 1.562 4.09474 0 5.65685l-8.345 8.34508c9.88 12.6662 8.995 31.0049-2.655 42.6551-11.65 11.6501-29.989 12.535-42.655 2.6549l-6.516 6.5166 12.929 12.929c3.905 3.9053 3.905 10.237 0 14.1422l-11.515 11.5152c-3.905 3.905-10.237 3.905-14.142 0l-12.929-12.9294-6.3436 6.3432 17.1716 17.1712c1.562 1.563 1.562 4.095 0 5.657-1.562 1.562-4.095 1.562-5.657 0l-17.1715-17.171L86.6572 111l12.9291 12.929c3.9047 3.905 3.9057 10.237 0 14.142l-11.5148 11.515c-3.9053 3.905-10.2369 3.905-14.1422 0l-12.929-12.929L54.657 143l17.1717 17.172c1.5621 1.562 1.5621 4.095 0 5.657-1.5621 1.562-4.0947 1.562-5.6568 0l-17.1717-17.172-42.17177 42.172c-1.5621 1.562-4.09476 1.562-5.65686 0-1.562094-1.562-1.562094-4.095 0-5.657L43.3433 143l-17.1716-17.172c-1.5621-1.562-1.5621-4.094 0-5.656 1.5621-1.562 4.0948-1.562 5.6569 0l17.1716 17.171L55.3434 131l-12.9289-12.929c-3.9053-3.905-3.9053-10.237 0-14.142l11.5147-11.5149c3.9053-3.9052 10.2369-3.9052 14.1422 0l12.929 12.9289 6.3433-6.3432L70.172 81.8282c-1.5621-1.5621-1.5621-4.0948 0-5.6569s4.0948-1.5621 5.6569 0l17.1716 17.1716 6.3433-6.3432-12.929-12.929c-3.9053-3.9052-3.9053-10.2369-.0001-14.1421l11.5148-11.5148c3.9055-3.9052 10.2365-3.9053 14.1425 0l12.929 12.929 6.516-6.5167c-9.88-12.6662-8.995-31.0049 2.655-42.655C145.822.520952 164.161-.36403 176.827 9.51611l8.345-8.34501c1.562-1.562105 4.095-1.56212 5.657-.00003zM174.172 17.8279c-9.483-9.48364-24.859-9.48364-34.343 0-9.483 9.4836-9.483 24.8597 0 34.3433 9.484 9.4836 24.86 9.4836 34.343 0 9.484-9.4836 9.484-24.8597 0-34.3433zm-67.757 36.2427c-.781-.781-2.048-.781-2.829 0L92.0716 65.5854c-.781.7811-.781 2.0474 0 2.8285l31.5144 31.5148c.782.7813 2.048.7813 2.829 0l11.515-11.5148c.781-.781.781-2.0473 0-2.8284l-31.515-31.5149zM62.4145 98.071c-.781-.7811-2.0474-.7811-2.8284 0l-11.5148 11.515c-.781.781-.781 2.047 0 2.828l31.5149 31.515c.781.781 2.0474.781 2.8284 0l11.5148-11.515c.781-.781.781-2.047 0-2.828L62.4145 98.071z"/>
</svg>