<svg xmlns="http://www.w3.org/2000/svg" width="192" height="192" fill="#000" viewBox="0 0 192 192">
  <path fill-rule="evenodd" d="M31.0101 36.6669C16.7177 52.3132 8 73.1385 8 96c0 48.601 39.3989 88 88 88 22.861 0 43.687-8.718 59.333-23.01L31.0101 36.6669zm5.6568-5.6568L160.99 155.333C175.282 139.687 184 118.861 184 96c0-48.6011-39.399-88-88-88-22.8615 0-43.6868 8.7177-59.3331 23.0101zM0 96C0 42.9807 42.9807 0 96 0c53.019 0 96 42.9807 96 96 0 53.019-42.981 96-96 96-53.0193 0-96-42.981-96-96z"/>
</svg>