<svg xmlns="http://www.w3.org/2000/svg" width="192" height="192" fill="#000" viewBox="0 0 192 192">
  <path fill-rule="evenodd" d="M10 0h4c14.9504 0 48.946 9.82436 70.6262 45.7846 3.7242-.4757 7.5204-.7209 11.3738-.7209 3.8534 0 7.65.2452 11.374.7209C129.054 9.82436 163.05 0 178 0h4v4.0837c0 12.4441 0 32.1833-1.82 48.8898-.909 8.3351-2.298 16.2074-4.495 22.1167-1.097 2.9475-2.489 5.6731-4.333 7.7354-.483.5399-1.008 1.0447-1.573 1.4986C179.388 98.5547 185 115.714 185 134.184v4h-4c-35.913 0-66.926 21.053-81.3861 51.531C98.9517 191.11 97.5449 192 96 192c-1.5449 0-2.9517-.89-3.6139-2.285C77.9263 159.237 46.9126 138.184 11 138.184H7v-4c0-18.47 5.6116-35.6293 15.2214-49.8598-.5659-.4539-1.0903-.9587-1.573-1.4986-1.8441-2.0623-3.2367-4.7879-4.333-7.7354-2.1978-5.9093-3.5867-13.7816-4.495-22.1167C9.99995 36.2671 9.99998 16.528 10 4.08389V0zm19.9103 87.2717c-8.6845 12.2487-14.0592 27.0163-14.8176 42.9963 23.2737.957 44.4508 10.037 60.7832 24.479-.4213-7.573-1.9063-14.862-4.3078-21.72-9.3284 2.452-19.6852-3.299-25.0335-12.576-4.464-7.743-5.0411-17.01-1.3218-23.9127-4.708-3.6376-9.8374-6.7551-15.3025-9.2666zm21.6368 14.7163c-1.3885 3.966-1.0504 9.318 1.9181 14.467 3.8931 6.753 10.0938 9.611 14.9957 8.99-4.173-8.84-9.9336-16.783-16.9138-23.457zm32.3831 60.752c4.5771 5.097 8.6288 10.675 12.0698 16.651 3.441-5.976 7.493-11.554 12.07-16.651-.047-1.168-.07-2.342-.07-3.521 0-34.478 20.002-64.2731 49.012-78.3943-14.849-17.0144-36.679-27.761-61.012-27.761-24.3331 0-46.1628 10.7466-61.0116 27.761C63.9982 94.9459 84 124.741 84 159.219c0 1.179-.0234 2.353-.0698 3.521zM165 77.8902c.123-.1139.252-.2454.388-.397.907-1.0149 1.873-2.7043 2.798-5.1919 1.846-4.961 3.152-12.0395 4.041-20.1944 1.58-14.4985 1.752-31.4775 1.771-43.86366-13.837 1.55377-39.983 10.93596-58.135 39.04796 19.648 4.4848 36.821 15.4802 49.137 30.599zm-2.91 9.3815c-5.469 2.5133-10.602 5.6335-15.313 9.2744 3.715 6.9019 3.136 16.1649-1.326 23.9049-5.346 9.272-15.695 15.022-25.02 12.579-2.401 6.857-3.886 14.145-4.307 21.717 16.332-14.442 37.51-23.522 60.783-24.479-.758-15.98-6.133-30.7476-14.817-42.9963zm-38.552 38.1753c4.9.614 11.093-2.246 14.982-8.992 2.966-5.144 3.306-10.492 1.922-14.457-6.976 6.673-12.733 14.612-16.904 23.449zM26.9997 77.8902c-.1229-.1139-.2521-.2454-.3877-.397-.9074-1.0149-1.8732-2.7043-2.7984-5.1919-1.8452-4.961-3.1516-12.0395-4.0403-20.1944-1.5798-14.4985-1.7522-31.4775-1.771-43.86366C31.8395 9.79701 57.985 19.1792 76.1374 47.2912c-19.6486 4.4848-36.8217 15.4802-49.1377 30.599z"/>
</svg>