<svg xmlns="http://www.w3.org/2000/svg" width="192" height="192" fill="#000" viewBox="0 0 192 192">
  <path fill-rule="evenodd" d="M35 0c2.2091 0 4 1.79086 4 4v27h114V4c0-2.20914 1.791-4 4-4s4 1.79086 4 4v27h27c2.209 0 4 1.7909 4 4 0 2.2091-1.791 4-4 4h-27v114h27c2.209 0 4 1.791 4 4s-1.791 4-4 4h-27v27c0 2.209-1.791 4-4 4s-4-1.791-4-4v-27H39v27c0 2.209-1.7909 4-4 4-2.2091 0-4-1.791-4-4v-27H4c-2.20914 0-4-1.791-4-4s1.79086-4 4-4h27V39H4c-2.20914 0-4-1.7909-4-4 0-2.2091 1.79086-4 4-4h27V4c0-2.20914 1.7909-4 4-4zm4 39v114h114V39H39z"/>
</svg>