<svg xmlns="http://www.w3.org/2000/svg" width="192" height="192" fill="#000" viewBox="0 0 192 192">
  <path fill-rule="evenodd" d="M61.3484 35.3276C61.3506 24.6526 70.005 16 80.68 16c10.6765 0 19.332 8.6551 19.332 19.3316v95.3424c0 6.255 5.07 11.326 11.326 11.326 6.254 0 11.324-5.069 11.326-11.323l.012-53.3498C122.679 66.6523 131.333 58 142.008 58c10.677 0 19.332 8.6551 19.332 19.3318V114c0 6.627 5.373 12 12 12H188c2.209 0 4 1.791 4 4s-1.791 4-4 4h-14.66c-11.046 0-20-8.954-20-20V77.3318C153.34 71.0734 148.267 66 142.008 66c-6.257 0-11.33 5.0718-11.332 11.3291l-.012 53.3499C130.661 141.35 122.009 150 111.338 150c-10.674 0-19.3264-8.653-19.3264-19.326V35.3316C92.0116 29.0733 86.9382 24 80.68 24c-6.2574 0-11.3303 5.0719-11.3316 11.3292l-.0252 121.3428C69.321 167.347 60.6666 176 49.9916 176c-10.6765 0-19.3316-8.655-19.3316-19.332V78c0-6.6274-5.3726-12-12-12H4c-2.20914 0-4-1.7909-4-4 0-2.2091 1.79086-4 4-4h14.66c11.0457 0 20 8.9543 20 20v78.668c0 6.259 5.0733 11.332 11.3316 11.332 6.2573 0 11.3303-5.072 11.3316-11.329l.0252-121.3434z"/>
</svg>