<svg xmlns="http://www.w3.org/2000/svg" width="192" height="192" fill="#000" viewBox="0 0 192 192">
  <path fill-rule="evenodd" d="M166 174c0 9.941-8.059 18-18 18H44c-9.9411 0-18-8.059-18-18V18C26 8.05887 34.0589-8.7e-7 44 0l104 .0000091C157.941.00000995 166 8.05888 166 18v156zm-18 10c5.523 0 10-4.477 10-10V18c0-5.5228-4.477-9.99999-10-9.99999L44 8c-5.5228 0-10 4.4771-10 10v156c0 5.523 4.4771 10 10 10h104z"/>
  <path fill-rule="evenodd" d="M63 156v-28c0-2.209 1.7909-4 4-4 2.2092 0 4 1.791 4 4v28c0 2.209-1.7908 4-4 4-2.2091 0-4-1.791-4-4z"/>
  <path fill-rule="evenodd" d="M53 138h28c2.2092 0 4 1.791 4 4s-1.7908 4-4 4H53c-2.2091 0-4-1.791-4-4s1.7909-4 4-4zM147 85c0 5.5228-4.477 10-10 10H55c-5.5228 0-10-4.4772-10-10V29c0-5.5228 4.4772-10 10-10h82c5.523 0 10 4.4771 10 10v56zm-10 2c1.105 0 2-.8954 2-2V29c0-1.1046-.895-2-2-2H55c-1.1046 0-2 .8954-2 2v56c0 1.1046.8954 2 2 2h82z"/>
  <path d="M147 132c0 4.418-3.582 8-8 8s-8-3.582-8-8 3.582-8 8-8 8 3.582 8 8zM124 152c0 4.418-3.582 8-8 8s-8-3.582-8-8 3.582-8 8-8 8 3.582 8 8z"/>
</svg>