<svg xmlns="http://www.w3.org/2000/svg" width="192" height="192" fill="#000" viewBox="0 0 192 192">
  <path d="M153 119c0 4.418-3.582 8-8 8s-8-3.582-8-8 3.582-8 8-8 8 3.582 8 8zM137 135c0 4.418-3.582 8-8 8s-8-3.582-8-8 3.582-8 8-8 8 3.582 8 8zM169 135c0 4.418-3.582 8-8 8s-8-3.582-8-8 3.582-8 8-8 8 3.582 8 8zM153 151c0 4.418-3.582 8-8 8s-8-3.582-8-8 3.582-8 8-8 8 3.582 8 8z"/>
  <path fill-rule="evenodd" d="M26 8c2.2091 0 4 1.79086 4 4v5.0824C30 26.978 38.022 35 47.9177 35H84c8.8366 0 16 7.1634 16 16s-7.1634 16-16 16H62.9992c-4.4183 0-8 3.5817-8 8v11H176c8.837 0 16 7.1635 16 16v66c0 8.837-7.163 16-16 16H16C7.16344 184-9.5e-7 176.837 0 168l.00000572-66C.00000644 93.1634 7.16345 86 16 86h30.9992V75c0-8.8366 7.1634-16 16-16H84c4.4183 0 8-3.5817 8-8s-3.5817-8-8-8H47.9177C33.6037 43 22 31.3963 22 17.0824V12c0-2.20914 1.7909-4 4-4zm24.9893 86H16c-4.4183 0-7.99999 3.5817-7.99999 8L8 168c0 4.418 3.5817 8 8 8h160c4.418 0 8-3.582 8-8v-66c0-4.4183-3.582-8-8-8H50.9893zM39 114c2.2091 0 4 1.791 4 4v13h13c2.2092 0 4 1.791 4 4s-1.7908 4-4 4H43v13c0 2.209-1.7908 4-4 4-2.2091 0-4-1.791-4-4v-13H22c-2.2091 0-4-1.791-4-4s1.7909-4 4-4h13v-13c0-2.209 1.7909-4 4-4zm36 46c0-2.209 1.7909-4 4-4h8c2.2092 0 4 1.791 4 4s-1.7908 4-4 4h-8c-2.2091 0-4-1.791-4-4zm26 0c0-2.209 1.791-4 4-4h8c2.209 0 4 1.791 4 4s-1.791 4-4 4h-8c-2.209 0-4-1.791-4-4z"/>
</svg>