<svg xmlns="http://www.w3.org/2000/svg" width="192" height="192" fill="#000" viewBox="0 0 192 192">
  <path fill-rule="evenodd" d="M80 10c0-5.52286 4.4772-10 10-10h12c5.523 0 10 4.47714 10 10v4.4082c0 6.367 4.852 12.2578 11.699 15.1138 6.763 2.8209 14.134 2.0189 18.675-2.5229l3.123-3.1236c3.906-3.9055 10.237-3.9056 14.143-.0002l8.485 8.4852c3.905 3.9052 3.905 10.2366 0 14.1419L165 49.6277c-4.541 4.5415-5.342 11.9115-2.522 18.6737 2.856 6.8467 8.747 11.6985 15.113 11.6985L182 80c5.523 0 10 4.4771 10 10v12c0 5.523-4.477 10-10 10h-4.408c-6.367 0-12.258 4.852-15.114 11.699-2.821 6.762-2.019 14.132 2.522 18.673l3.125 3.126c3.905 3.905 3.905 10.236 0 14.141l-8.485 8.486c-3.906 3.905-10.238 3.905-14.143-.001l-3.123-3.123c-4.542-4.542-11.912-5.344-18.675-2.523-6.847 2.856-11.699 8.747-11.699 15.114V182c0 5.523-4.477 10-10 10H90c-5.5228 0-10-4.477-10-10v-4.408c0-6.367-4.8519-12.258-11.6988-15.114-6.7629-2.821-14.1337-2.019-18.6753 2.523l-3.1233 3.123c-3.9052 3.906-10.237 3.906-14.1424.001l-8.4852-8.486c-3.9052-3.905-3.9053-10.236-.0003-14.141l3.1251-3.126c4.5411-4.541 5.3427-11.911 2.5221-18.673C26.666 116.852 20.7754 112 14.4085 112H9.99993C4.47711 112 0 107.523 0 102l.00000238-12.0001C.0000031 84.4771 4.47711 80 9.99993 79.9999h4.40867c6.3668 0 12.2574-4.8518 15.1133-11.6985 2.8206-6.7622 2.0189-14.1322-2.5222-18.6736l-3.1251-3.1253c-3.9051-3.9053-3.905-10.2368.0002-14.1419l8.4853-8.4853c3.9053-3.9053 10.2371-3.9052 14.1423.0002l3.1235 3.1236c4.5415 4.5419 11.9124 5.3438 18.6753 2.5229C75.148 26.666 80 20.7752 80 14.4081V10zm10-2c-1.1046 0-2 .89543-2 2v4.4081c0 10.5823-7.8229 18.8283-16.6191 22.4973-8.877 3.7028-19.9714 3.1915-27.412-4.2496l-3.1235-3.1236c-.781-.7811-2.0474-.7811-2.8285-.0001l-8.4852 8.4853c-.7811.7811-.7811 2.0474-.0001 2.8284l3.1251 3.1253c7.44 7.4405 7.951 18.5338 4.2486 27.41-3.6689 8.796-11.9146 16.6187-22.4967 16.6188H9.99999C8.89543 88 8 88.8954 8 89.9999V102c0 1.105.89542 2 1.99999 2h4.40861c10.5821 0 18.8278 7.823 22.4967 16.619 3.7024 8.876 3.1915 19.969-4.2485 27.41l-3.125 3.125c-.781.781-.781 2.048 0 2.829l8.4853 8.485c.7811.781 2.0474.781 2.8285 0l3.1233-3.124c7.4406-7.441 18.535-7.952 27.412-4.249C80.1771 158.764 88 167.01 88 177.592V182c0 1.105.8954 2 2 2h12c1.105 0 2-.895 2-2v-4.408c0-10.582 7.823-18.828 16.619-22.497 8.877-3.703 19.972-3.192 27.412 4.249l3.123 3.124c.781.781 2.048.781 2.829 0l8.485-8.485c.781-.781.781-2.048 0-2.829l-3.125-3.125c-7.44-7.441-7.951-18.534-4.248-27.41 3.669-8.796 11.914-16.619 22.496-16.619H182c1.105 0 2-.895 2-2V90c0-1.1046-.895-2-2-2l-4.409-.0001c-10.582 0-18.827-7.8228-22.496-16.6188-3.703-8.8763-3.192-19.9695 4.248-27.41l3.125-3.1253c.781-.7811.781-2.0474 0-2.8284l-8.485-8.4853c-.781-.7811-2.048-.781-2.829.0001l-3.123 3.1235c-7.441 7.4412-18.535 7.9524-27.412 4.2497C111.823 33.2364 104 24.9904 104 14.4082V10c0-1.10457-.895-2-2-2H90zm6 56c-17.6731 0-32 14.3269-32 32 0 17.673 14.3269 32 32 32 17.673 0 32-14.327 32-32 0-17.6731-14.327-32-32-32zM56 96c0-22.0914 17.9086-40 40-40 22.091 0 40 17.9086 40 40 0 22.091-17.909 40-40 40-22.0914 0-40-17.909-40-40z"/>
</svg>