<svg xmlns="http://www.w3.org/2000/svg" width="192" height="192" fill="#000" viewBox="0 0 192 192">
  <path fill-rule="evenodd" d="M33 8c-9.3888 0-17 7.6112-17 17s7.6112 17 17 17 17-7.6112 17-17S42.3888 8 33 8zM8 25C8 11.1929 19.1929 0 33 0s25 11.1929 25 25c0 12.4456-9.0943 22.7672-21 24.6817v53.7763C43.0516 96.4417 52.0071 92 62 92h68c13.807 0 25-11.1929 25-25V49.6817C143.094 47.7672 134 37.4456 134 25c0-13.8071 11.193-25 25-25s25 11.1929 25 25c0 12.4456-9.094 22.7672-21 24.6817V67c0 18.2254-14.775 33-33 33H62c-13.8071 0-25 11.193-25 25v17.318c11.9057 1.915 21 12.236 21 24.682 0 13.807-11.1929 25-25 25S8 180.807 8 167c0-12.446 9.0943-22.767 21-24.682V49.6817C17.0943 47.7672 8 37.4456 8 25zM159 8c-9.389 0-17 7.6112-17 17s7.611 17 17 17 17-7.6112 17-17-7.611-17-17-17zM33 150c-9.3888 0-17 7.611-17 17s7.6112 17 17 17 17-7.611 17-17-7.6112-17-17-17z"/>
</svg>