<svg xmlns="http://www.w3.org/2000/svg" width="192" height="192" fill="#000" viewBox="0 0 192 192">
  <path fill-rule="evenodd" d="M33 8c-9.3888 0-17 7.6112-17 17s7.6112 17 17 17 17-7.6112 17-17S42.3888 8 33 8zM8 25C8 11.1929 19.1929 0 33 0s25 11.1929 25 25c0 12.3956-9.0214 22.6842-20.8567 24.6582C39.0077 73.3531 58.8262 92 83 92h51.318c1.915-11.9057 12.236-21 24.682-21 13.807 0 25 11.1929 25 25 0 13.807-11.193 25-25 25-12.446 0-22.767-9.094-24.682-21H83c-19.4467 0-36.4925-10.2795-46-25.7013v68.0193c11.9057 1.915 21 12.236 21 24.682 0 13.807-11.1929 25-25 25S8 180.807 8 167c0-12.446 9.0943-22.767 21-24.682V49.6817C17.0943 47.7672 8 37.4456 8 25zm151 54c-9.389 0-17 7.6112-17 17 0 9.389 7.611 17 17 17s17-7.611 17-17c0-9.3888-7.611-17-17-17zM33 150c-9.3888 0-17 7.611-17 17s7.6112 17 17 17 17-7.611 17-17-7.6112-17-17-17z"/>
</svg>