<svg xmlns="http://www.w3.org/2000/svg" width="192" height="192" fill="#000" viewBox="0 0 192 192">
  <path fill-rule="evenodd" d="M44 8c-9.3888 0-17 7.6112-17 17s7.6112 17 17 17 17-7.6112 17-17S53.3888 8 44 8zM19 25C19 11.1929 30.1929 0 44 0s25 11.1929 25 25c0 12.4456-9.0943 22.7672-21 24.6817v92.6363c11.9057 1.915 21 12.236 21 24.682 0 13.807-11.1929 25-25 25s-25-11.193-25-25c0-12.446 9.0943-22.767 21-24.682V49.6817C28.0943 47.7672 19 37.4456 19 25zM98.1706 1.17191C98.9207.421767 99.9381.0003395 100.999.0003395l42 .00000358c2.209 2.4e-7 4 1.79085692 4 3.99999692s-1.791 4-4 4h-32.343l16.74 16.74016c15.753 15.753 24.603 37.1187 24.603 59.3969v58.1816c11.906 1.914 21 12.236 21 24.681 0 13.807-11.193 25-25 25s-25-11.193-25-25c0-12.445 9.094-22.767 21-24.681V84.1374c0-20.1564-8.007-39.4873-22.26-53.7401l-16.74-16.7401v32.3431c0 2.2092-1.791 4-4 4-2.2091 0-4-1.7908-4-4V4.00034c0-1.06087.4214-2.07828 1.1716-2.82843zM44 150c-9.3888 0-17 7.611-17 17s7.6112 17 17 17 17-7.611 17-17-7.6112-17-17-17zm103.999 0c-9.389 0-17 7.611-17 17s7.611 17 17 17 17-7.611 17-17-7.611-17-17-17z"/>
</svg>