<svg xmlns="http://www.w3.org/2000/svg" width="193" height="192" fill="#000" viewBox="0 0 193 192">
  <path fill-rule="evenodd" d="M96.0019 79c-9.3889 0-17 7.6112-17 17 0 9.389 7.6111 17 17 17 9.3891 0 17.0001-7.611 17.0001-17 0-9.3888-7.611-17-17.0001-17zM71.3201 92c1.9146-11.9057 12.2361-21 24.6818-21 12.4451 0 22.7671 9.0943 24.6821 21h67.318c2.209 0 4 1.7908 4 4 0 2.2091-1.791 4-4 4h-67.318c-1.915 11.906-12.237 21-24.6821 21-12.4457 0-22.7672-9.094-24.6818-21H4c-2.20913 0-3.99999368-1.7908-4-4-.00000632-2.2091 1.79086-4 4-4h67.3201z"/>
</svg>