<svg xmlns="http://www.w3.org/2000/svg" width="192" height="192" fill="#000" viewBox="0 0 192 192">
  <path fill-rule="evenodd" d="M44 8c-9.3888 0-17 7.6112-17 17s7.6112 17 17 17 17-7.6112 17-17S53.3888 8 44 8zM19 25C19 11.1929 30.1929 0 44 0s25 11.1929 25 25c0 12.4456-9.0943 22.7672-21 24.6817v58.1813c0 20.156 8.0071 39.487 22.2599 53.74L87 178.343V146c0-2.209 1.7909-4 4-4 2.2091 0 4 1.791 4 4v42c0 2.209-1.7909 4-4 4H49c-2.2091 0-4-1.791-4-4s1.7909-4 4-4h32.3431L64.603 167.26C48.85 151.507 40 130.141 40 107.863V49.6817C28.0943 47.7672 19 37.4456 19 25zM98.1716 1.17158C98.9217.421433 99.9391.00000596 101 .0000062l42 .00000358C145.209.00001 147 1.79087 147 4.00001c0 2.20914-1.791 4-4 4h-32.343l16.74 16.74009C143.15 40.4932 152 61.8589 152 84.1371v58.1809c11.906 1.915 21 12.236 21 24.682 0 13.807-11.193 25-25 25s-25-11.193-25-25c0-12.446 9.094-22.767 21-24.682V84.1371c0-20.1565-8.007-39.4874-22.26-53.7401L105 13.6569V46c0 2.2091-1.791 4-4 4-2.2091 0-4-1.7909-4-4V4.00001c0-1.06087.4214-2.07829 1.1716-2.82843zM148 150c-9.389 0-17 7.611-17 17s7.611 17 17 17 17-7.611 17-17-7.611-17-17-17z"/>
</svg>