<svg xmlns="http://www.w3.org/2000/svg" width="192" height="192" fill="#000" viewBox="0 0 192 192">
  <path fill-rule="evenodd" d="M92.7473 8.09278C81.1764 22.4069 73.9558 40.374 73.0882 60h45.8238c-.868-19.626-8.088-37.5931-19.6592-51.90722C98.1768 8.03122 97.0922 8 96 8s-2.1767.03122-3.2527.09278zm17.7767 1.80838C120.231 24.3221 126.168 41.4958 126.919 60h24.94c-1.703-24.126-18.689-44.0349-41.335-50.09884zM151.859 68h-24.94c-.751 18.5042-6.688 35.678-16.395 50.099 9.618-2.576 18.215-7.649 25.054-14.481l.02-.02.019-.019c9.242-9.2513 15.264-21.7193 16.242-35.579zm-7.864 38.339C153.956 95.0561 160 80.2344 160 64c0-33.4616-25.677-60.92167-58.405-63.758561C99.7505.0815406 97.8843 0 96 0c-1.8843 0-3.7505.0815401-5.5952.241439C76.3711 1.45789 63.6339 7.20175 53.6617 16.0048l-7.7922-7.79215c.4106-.36967.8243-.73396 1.241-1.0929 1.6737-1.44184 1.8617-3.96752.4198-5.64125-1.4418-1.673729-3.9675-1.86171-5.6412-.41986-1.5666 1.34952-3.0942 2.76673-4.579 4.25152C4.8966 37.7237 4.89664 90.2763 37.3102 122.69c15.188 15.188 34.8052 23.26 54.6896 24.214V184H40.0017c-2.2091 0-4 1.791-4 4s1.7909 4 4 4H151.999c2.209 0 4-1.791 4-4s-1.791-4-4-4H99.9998v-37.096c19.8842-.954 39.5022-9.026 54.6902-24.214 1.485-1.485 2.902-3.013 4.251-4.579 1.442-1.674 1.254-4.199-.42-5.641-1.673-1.442-4.199-1.254-5.641.42-.359.416-.723.83-1.093 1.241l-7.792-7.792zm-5.657 5.656c-9.972 8.803-22.709 14.547-36.743 15.764-1.8445.159-3.7107.241-5.595.241-1.8843 0-3.7505-.082-5.5952-.241C57.6767 124.922 32 97.4616 32 64c0-16.2343 6.0439-31.056 16.0046-42.3385l-7.7919-7.7919C13.7084 43.314 14.6265 88.6925 42.967 117.033 57.6124 131.678 76.7995 139 95.9998 139c17.9562 0 35.9012-6.404 50.1302-19.213l-7.792-7.792zM56.3835 24.4204C47.1416 33.6714 41.119 46.1398 40.1407 60H65.081c.751-18.5042 6.6882-35.6779 16.3948-50.09884-9.6185 2.57564-18.2161 7.64894-25.0553 14.48234-.0062.0062-.0123.0124-.0185.0185-.0061.0062-.0123.0123-.0185.0184zM65.081 68H40.1407c1.7029 24.126 18.6898 44.035 41.3351 50.099C71.7692 103.678 65.832 86.5042 65.081 68zm27.6663 51.907c1.076.062 2.1605.093 3.2527.093s2.1768-.031 3.2528-.093C110.824 105.593 118.044 87.626 118.912 68H73.0882c.8676 19.626 8.0882 37.593 19.6591 51.907z"/>
</svg>