<svg xmlns="http://www.w3.org/2000/svg" width="192" height="192" fill="#000" viewBox="0 0 192 192">
  <path fill-rule="evenodd" d="M44 28.5c0-2.2091 1.7909-4 4-4h26c2.2091 0 4 1.7909 4 4 0 2.2091-1.7909 4-4 4H48c-2.2091 0-4-1.7909-4-4zm-22 14c-7.732 0-13.99999 6.268-13.99999 14L8 145.5c0 7.732 6.268 14 14 14h148c7.732 0 14-6.268 14-14v-28.029c-3.804 3.142-8.681 5.029-14 5.029h-44c-12.15 0-22-9.85-22-22v-44c0-5.3185 1.887-10.1962 5.029-14H22zm0-8C9.84975 34.5.00001407 44.3497.0000124 56.5L0 145.5c-.0000019 12.15 9.84973 22 22 22h148c12.15 0 22-9.85 22-22v-44.982V56.5c0-12.1503-9.85-22-22-22H22zm148 8h-44c-7.732 0-14 6.268-14 14v44c0 7.732 6.268 14 14 14h44c7.727 0 13.992-6.26 14-13.985V56.5c0-7.732-6.268-14-14-14zm-141 17c-2.2091 0-4 1.7909-4 4v56c0 2.209 1.7909 4 4 4h54c2.2091 0 4-1.791 4-4v-56c0-2.2091-1.7909-4-4-4H29zm-12 4c0-6.6274 5.3726-12 12-12h54c6.6274 0 12 5.3726 12 12v56c0 6.627-5.3726 12-12 12H29c-6.6274 0-12-5.373-12-12v-56zm131 4c-6.075 0-11 4.9249-11 11s4.925 11 11 11 11-4.9249 11-11-4.925-11-11-11zm-19 11c0-10.4934 8.507-19 19-19s19 8.5066 19 19-8.507 19-19 19-19-8.5066-19-19z"/>
</svg>