<svg xmlns="http://www.w3.org/2000/svg" width="192" height="192" fill="#000" viewBox="0 0 192 192">
  <path fill-rule="evenodd" d="M20 20c-6.6274 0-11.99998 5.3726-11.99998 12L8 160c0 6.627 5.3726 12 12 12h152c6.627 0 12-5.373 12-12V32c0-6.6274-5.373-12-12-12H20zM.0000174 32C.00001907 20.9543 8.95432 12 20 12h152c11.046 0 20 8.9543 20 20v128c0 11.046-8.954 20-20 20H20c-11.0457 0-20.00000143-8.954-20-20L.0000174 32zM14 36c0-5.5228 4.4772-10 10-10h144c5.523 0 10 4.4772 10 10v102c0 5.523-4.477 10-10 10H24c-5.5228 0-10-4.477-10-10V36zm10-2c-1.1046 0-2 .8954-2 2v76.843L88.3431 46.5l-12.5-12.5H24zm63.1568 0L113 59.8432 138.843 34H87.1568zm63.0002 0l-31.5 31.5L170 116.843V36c0-1.1045-.895-2-2-2h-17.843zM170 128.157L94 52.1569 22 124.157V138c0 1.105.8954 2 2 2h144c1.105 0 2-.895 2-2v-9.843zM96 80c1.5925 0 3.0333.9447 3.6683 2.4051l19.9997 45.9999c.608 1.397.369 3.018-.616 4.181-.985 1.162-2.544 1.664-4.022 1.295L96 129.123l-19.0299 4.758c-1.4779.369-3.0375-.133-4.0222-1.295-.9847-1.163-1.2236-2.784-.6162-4.181l20-45.9999C92.9667 80.9447 94.4075 80 96 80zm4 41.877l9.095 2.274L100 103.232v18.645zm-8-18.645v18.645l-9.0951 2.274L92 103.232zM78 160c0-2.209 1.7909-4 4-4h28c2.209 0 4 1.791 4 4s-1.791 4-4 4H82c-2.2091 0-4-1.791-4-4z"/>
</svg>