<svg xmlns="http://www.w3.org/2000/svg" width="192" height="192" fill="#000" viewBox="0 0 192 192">
  <path d="M141 38c2.209 0 4-1.7909 4-4 0-2.2091-1.791-4-4-4s-4 1.7909-4 4c0 2.2091 1.791 4 4 4z"/>
  <path fill-rule="evenodd" d="M132.5 0c-20.158 0-36.4999 16.3416-36.4999 36.5V92h-79c-2.2091 0-4 1.7909-4 4v2c0 15.49 4.8957 29.846 13.2219 41.592L1.25869 163.087c-1.1942 1.124-1.581378 2.863-.976824 4.388C.886419 168.999 2.36022 170 4.00014 170H91.0001v18c0 2.209 1.7909 4 4 4 2.2092 0 4-1.791 4-4v-18H111v18c0 2.209 1.791 4 4 4s4-1.791 4-4v-18.146c27.956-2.047 50-25.376 50-53.854V40.4883c2.121.0102 4.368.0784 6.666.3575 3.786.4598 7.274 1.4553 10.009 3.4091 1.798 1.2841 4.296.8677 5.58-.9299 1.284-1.7977.868-4.2959-.93-5.5799-4.265-3.0462-9.246-4.3007-13.694-4.8409-2.764-.3356-5.491-.4097-7.849-.418C166.784 14.2163 151.302 0 132.5 0zm3.5 126c0-18.106-14.153-32.9069-32-33.9422V36.5C104 20.7599 116.76 8 132.5 8S161 20.7599 161 36.5V116c0 25.405-20.595 46-46 46H85.0001c-20.3998 0-38.5692-9.54-50.2952-24.418-8.2005-10.405-13.2394-23.409-13.6741-37.582H102c14.36 0 26 11.641 26 26v5c0 2.209 1.791 4 4 4s4-1.791 4-4v-5zM31.2208 145.874c5.8472 6.563 12.8805 12.051 20.7636 16.126H14.0865l17.1343-16.126z"/>
</svg>