<svg xmlns="http://www.w3.org/2000/svg" width="193" height="192" fill="#000" viewBox="0 0 193 192">
  <path fill-rule="evenodd" d="M.00104943 49C.00104943 24.6995 19.7005 5 44.001 5h104c24.301 0 44 19.6995 44 44v9c0 2.2091-1.791 4-4 4H4.00105C1.79191 62 .00104943 60.2091.00104943 58v-9zM44.001 13C24.1188 13 8.00105 29.1178 8.00105 49v5H184.001v-5c0-19.8822-16.118-36-36-36h-104zM27.3853 71.782c5.7638-2.376 12.2579-2.376 18.0217 0l4.9484 2.0398c1.8541.7643 3.8259 1.1574 5.8031 1.1774 1.9772-.02 3.949-.4131 5.8031-1.1774L66.91 71.782c5.7638-2.376 12.2579-2.376 18.0218 0l4.9483 2.0398c2.01.8285 4.1582 1.2208 6.3015 1.1745.0779-.0017.1554-.0011.2324.0016 1.9453-.0314 3.884-.4241 5.708-1.1761l4.948-2.0398c5.764-2.376 12.258-2.376 18.022 0l4.948 2.0398c1.855.7643 3.826 1.1574 5.804 1.1774 1.977-.02 3.949-.4131 5.803-1.1774l4.948-2.0398c5.764-2.376 12.258-2.376 18.022 0l4.948 2.0398c3.811 1.5709 8.113 1.5709 11.924 0l4.988-2.0559c2.042-.8419 4.38.1313 5.222 2.1737.842 2.0424-.131 4.3806-2.174 5.2225l-4.987 2.0559c-5.764 2.376-12.258 2.376-18.022 0l-4.948-2.0398c-3.811-1.5709-8.113-1.5709-11.924 0l-4.948 2.0398c-2.824 1.164-5.821 1.7571-8.82 1.7812-.022.0002-.043.0002-.065 0-2.998-.0241-5.996-.6172-8.819-1.7812l-4.949-2.0398c-3.811-1.5709-8.113-1.5709-11.924 0l-4.948 2.0398c-2.843 1.1719-5.862 1.7651-8.8811 1.7816-.0469.0003-.0935-.0003-.14-.0016-3.1647.0411-6.3385-.5515-9.3186-1.78l-4.9484-2.0398c-3.811-1.5709-8.1131-1.5709-11.9241 0l-4.9483 2.0398c-2.8237 1.164-5.8211 1.7571-8.8197 1.7812-.0215.0002-.043.0002-.0645 0-2.9987-.0241-5.9961-.6172-8.8198-1.7812l-4.9483-2.0398c-3.811-1.5709-8.1131-1.5709-11.9241 0l-4.9483 2.0398c-5.7639 2.376-12.2579 2.376-18.02182 0l-4.98736-2.0559C.434202 78.3202-.538993 75.982.302927 73.9396c.841923-2.0424 3.180133-3.0156 5.222553-2.1737l4.98732 2.0559c3.8111 1.5709 8.1131 1.5709 11.9241 0l4.9484-2.0398zM.00104943 105.5C.00104943 97.4919 6.49291 91 14.501 91h163c8.008 0 14.5 6.4919 14.5 14.5 0 8.008-6.492 14.5-14.5 14.5h-163C6.49292 120 .00104943 113.508.00104943 105.5zM14.501 99c-3.5898 0-6.49995 2.91-6.49995 6.5S10.9112 112 14.501 112h163c3.59 0 6.5-2.91 6.5-6.5s-2.91-6.5-6.5-6.5h-163zM.00104943 134c0-2.209 1.79086057-4 4.00000057-4H96.0011c.9646 0 1.8967.349 2.6247.982l20.3752 17.717 20.375-17.717c.728-.633 1.66-.982 2.625-.982h46c2.209 0 4 1.791 4 4v9c0 24.301-19.699 44-44 44h-104C19.7005 187 .00104943 167.301.00104943 143v-9zM8.00105 138v5c0 19.882 16.11775 36 35.99995 36h104c19.882 0 36-16.118 36-36v-5h-40.504l-21.871 19.018c-1.505 1.309-3.745 1.309-5.25 0L94.5052 138H8.00105z"/>
</svg>