<svg xmlns="http://www.w3.org/2000/svg" width="192" height="192" fill="#000" viewBox="0 0 192 192">
  <path fill-rule="evenodd" d="M80 26c0-12.0378 10.4542-21 22-21 11.546 0 22 8.9622 22 21v11c0 16.4148 14.157 30.2409 30.766 37.5931C175.865 83.9327 192 102.266 192 127.206c0 18.406-7.501 33.467-19.69 43.866C160.181 181.421 143.609 187 125.568 187H62c-.0075 0-.0149-.001-.0223-.001H20.4444C9.14058 186.999 4.8e-7 177.809 0 166.499c-4.8e-7-11.309 9.14058-20.5 20.4444-20.5h6.2934c-2.1651-3.061-3.4378-6.797-3.4378-10.833 0-6.03 2.8408-11.389 7.2545-14.833C26.1408 116.888 23.3 111.53 23.3 105.5c0-6.0305 2.8408-11.3892 7.2547-14.8337C26.1408 87.2216 23.3 81.8628 23.3 75.8327c0-10.419 8.4807-18.8333 18.9028-18.8333l27.1944-.0001c3.9882 0 7.6243 1.2229 10.6028 3.3027V26zm0 49.833c0-6.0725-4.6697-10.8337-10.6028-10.8337l-27.1944.0001c-6.0391 0-10.9028 4.8678-10.9028 10.8333 0 5.9656 4.8638 10.8336 10.9028 10.8336h27.1944C75.3304 86.6663 80 81.9054 80 75.833zm.9341 14.8334C85.2779 87.2038 88 81.8203 88 75.833V26c0-7.0603 6.2917-13 14-13 7.708 0 14 5.9397 14 13v11c0 21.1886 17.856 37.0858 35.528 44.9085C170.555 90.3309 184 106.243 184 127.206c0 16.063-6.474 28.9-16.882 37.78-10.467 8.931-25.11 14.014-41.55 14.014H62.5779c-.0074-.001-.0149-.001-.0223-.001H20.4444C13.5843 178.999 8 173.416 8 166.499c0-6.916 5.5843-12.5 12.4444-12.5l48.9528.001C79.925 154 88 145.479 88 135.167c0-5.988-2.722-11.371-7.0658-14.834C85.278 116.871 88 111.487 88 105.5c0-5.9872-2.722-11.3709-7.0659-14.8336zM69.3972 116.333C75.3306 116.333 80 111.572 80 105.5c0-6.0725-4.6697-10.8337-10.6028-10.8337H42.2028C36.1637 94.6663 31.3 99.5342 31.3 105.5c0 5.965 4.8636 10.833 10.9028 10.833h27.1944zm-27.1944 8h27.1944c5.9331 0 10.6028 4.761 10.6028 10.834C80 141.239 75.3306 146 69.3972 146H42.2028C36.1637 146 31.3 141.132 31.3 135.166c0-5.965 4.8637-10.833 10.9028-10.833z"/>
</svg>