<svg xmlns="http://www.w3.org/2000/svg" width="192" height="192" fill="#000" viewBox="0 0 192 192">
  <path fill-rule="evenodd" d="M95.5007 8c-8.0082 0-14.5 6.4919-14.5 14.5V93c0 2.2091-1.7909 4-4 4-2.2092 0-4-1.7909-4-4V70.5c0-8.0081-6.4919-14.5-14.5-14.5-8.0082 0-14.5 6.4919-14.5 14.5V122c0 2.209-1.7909 4-4 4-2.2092 0-4-1.791-4-4v-10.322l-3.2466-1.874c-7.8918-4.556-17.9831-1.852-22.5394 6.039-4.55633 7.892-1.85249 17.983 6.0392 22.54 0 0-.0001 0 0 0l61.0682 35.252c.0315.018.0628.037.0939.056C88.0591 180.229 100.583 184 114.001 184c38.66 0 70-31.34 70-70V70.5c0-8.0081-6.492-14.5-14.5-14.5s-14.5 6.4919-14.5 14.5V93c0 2.2091-1.791 4-4 4s-4-1.7909-4-4V70.5c0-8.0081-6.492-14.5-14.5-14.5s-14.5 6.4919-14.5 14.5V93c0 2.2091-1.791 4-4 4s-4-1.7909-4-4V22.5c0-8.0081-6.492-14.5-14.5003-14.5zm22.5003 45.2947V22.5c0-12.4264-10.074-22.5-22.5003-22.5-12.4264 0-22.5 10.0736-22.5 22.5v30.7947C69.0847 49.991 64.0252 48 58.5007 48c-12.4264 0-22.5 10.0736-22.5 22.5v31.958c-11.5996-6.1731-26.0929-2.083-32.71423 9.385-6.76549 11.719-2.75055 26.703 8.96763 33.468l61.0218 35.226C85.1324 187.808 99.0831 192 114.001 192c43.078 0 78-34.922 78-78V70.5c0-12.4264-10.074-22.5-22.5-22.5-7.667 0-14.438 3.8345-18.5 9.6902C146.938 51.8345 140.167 48 132.501 48c-5.525 0-10.584 1.991-14.5 5.2947z"/>
</svg>