<svg xmlns="http://www.w3.org/2000/svg" width="192" height="192" fill="#000" viewBox="0 0 192 192">
  <path fill-rule="evenodd" d="M129 22.5C129 10.0736 139.074 0 151.5 0S174 10.0736 174 22.5V114c0 43.078-34.922 78-78 78-43.0782 0-78-34.922-78-78V32.5C18 20.0736 28.0736 10 40.5 10S63 20.0736 63 32.5v20.7947C66.916 49.991 71.9755 48 77.5 48c7.6666 0 14.4377 3.8345 18.5 9.6902C100.062 51.8345 106.833 48 114.5 48c5.525 0 10.584 1.991 14.5 5.2947V22.5zm8 66.5h13c6.147 0 11.754 2.3108 16 6.1111V22.5c0-8.0081-6.492-14.5-14.5-14.5S137 14.4919 137 22.5V89zm29 24c0-8.837-7.163-16-16-16H79.5c-9.1127 0-16.5 7.387-16.5 16.5S70.3873 130 79.5 130h35c2.209 0 4 1.791 4 4s-1.791 4-4 4h-35C65.969 138 55 127.031 55 113.5c0-.119.0008-.238.0025-.356-.0016-.048-.0025-.096-.0025-.144V32.5C55 24.4919 48.5081 18 40.5 18 32.4919 18 26 24.4919 26 32.5V114c0 38.66 31.3401 70 70 70 38.66 0 70-31.34 70-70v-1zM63 95.389C67.3539 91.4201 73.1443 89 79.5 89H92V70.5C92 62.4919 85.5081 56 77.5 56 69.4919 56 63 62.4919 63 70.5v24.889zM100 70.5V89h29V70.5c0-8.0081-6.492-14.5-14.5-14.5S100 62.4919 100 70.5z"/>
</svg>