<svg xmlns="http://www.w3.org/2000/svg" width="192" height="192" fill="#000" viewBox="0 0 192 192">
  <path fill-rule="evenodd" d="M27.1082 24.5945C25.8191 11.417 36.1737 0 49.4142 0 60.9467 0 70.5968 8.75171 71.72 20.2294l3.1037 31.714 3.1037-31.714C79.0507 8.75171 88.7007 0 100.233 0c13.241 0 23.595 11.417 22.306 24.5945l-2.669 27.2822C123.47 49.4299 127.818 48 132.501 48c7.666 0 14.437 3.8345 18.5 9.6902C155.063 51.8345 161.834 48 169.501 48c12.426 0 22.5 10.0736 22.5 22.5V114c0 43.078-34.922 78-78 78-14.9179 0-28.8687-4.192-40.7252-11.463l-61.0215-35.226c-11.718212-6.765-15.73338-21.749-8.96789-33.468 6.36864-11.03 20.01989-15.2352 31.37409-10.047l-7.5523-77.2015zM35.605 111.45l-2.851-1.646c-7.8918-4.556-17.983-1.852-22.5394 6.039-4.55629 7.892-1.85244 17.983 6.0392 22.54.0001 0-.0001 0 0 0l61.0682 35.252c.0316.018.0629.037.0939.056C88.0591 180.229 100.583 184 114.001 184c38.66 0 70-31.34 70-70V70.5c0-8.0081-6.492-14.5-14.5-14.5-8.009 0-14.5 6.4919-14.5 14.5V93c0 2.2091-1.791 4-4 4-2.21 0-4-1.7909-4-4V70.5c0-8.0081-6.492-14.5-14.5-14.5-6.885 0-12.657 4.8018-14.134 11.2418l-2.558 26.1476c-.215 2.1987-2.171 3.8067-4.37 3.5916-2.199-.2151-3.807-2.1718-3.592-4.3704l6.73-68.795C115.406 15.3418 108.748 8 100.233 8c-7.4158 0-13.6213 5.6278-14.3436 13.0086l-7.0836 72.381c-.2024 2.0682-1.9459 3.6137-3.9821 3.6107-2.0362.003-3.7796-1.5425-3.982-3.6107l-7.0836-72.381C63.0358 13.6278 56.8303 8 49.4142 8c-8.5143 0-15.1729 7.3418-14.344 15.8156l9.4944 97.0534c.2151 2.199-1.3929 4.156-3.5916 4.371-2.1986.215-4.1553-1.393-4.3704-3.592l-.9976-10.198z"/>
</svg>