<svg xmlns="http://www.w3.org/2000/svg" width="192" height="192" fill="#000" viewBox="0 0 192 192">
  <path fill-rule="evenodd" d="M0 96c.0000019-43.0782 34.9218-78 78-78h91.5c12.426 0 22.5 10.0736 22.5 22.5S181.926 63 169.5 63h-30.795c3.304 3.916 5.295 8.9755 5.295 14.5 0 7.6667-3.834 14.4377-9.69 18.5 5.856 4.062 9.69 10.833 9.69 18.5s-3.834 14.438-9.69 18.5c5.856 4.062 9.69 10.833 9.69 18.5 0 12.426-10.074 22.5-22.5 22.5H78C34.9218 174-.0000019 139.078 0 96zm86.5 70h35c8.008 0 14.5-6.492 14.5-14.5s-6.492-14.5-14.5-14.5h-35c-8.0081 0-14.5 6.492-14.5 14.5S78.4919 166 86.5 166zm35-37c8.008 0 14.5-6.492 14.5-14.5s-6.492-14.5-14.5-14.5H103v12.5c0 6.356-2.42 12.146-6.389 16.5H121.5zm-50.9878 6.668C66.4863 139.734 64 145.326 64 151.5c0 5.247 1.7962 10.075 4.8073 13.902C34.4916 160.9 8 131.544 8 96c0-38.6599 31.3401-70 70-70h1.0012C87.8372 26.0006 95 33.1638 95 42v70.5c0 9.113-7.3873 16.5-16.5 16.5S62 121.613 62 112.5v-35c0-2.2091-1.7909-4-4-4-2.2091 0-4 1.7909-4 4v35c0 10.734 6.9032 19.856 16.5122 23.168zM96.8889 26C100.689 30.2461 103 35.8532 103 42v13h66.5c8.008 0 14.5-6.4919 14.5-14.5 0-8.0081-6.492-14.5-14.5-14.5H96.8889zM103 63v29h18.5c8.008 0 14.5-6.4919 14.5-14.5 0-8.0061-6.489-14.4968-14.494-14.5H103z"/>
</svg>