<svg xmlns="http://www.w3.org/2000/svg" width="192" height="192" fill="#000" viewBox="0 0 192 192">
  <path fill-rule="evenodd" d="M95.1111 26H22.5C14.4919 26 8 32.4919 8 40.5 8 48.5081 14.4919 55 22.5 55H89V42c0-6.1468 2.3108-11.7539 6.1111-16zm17.8879-8H22.5C10.0736 18-4.8e-7 28.0736 0 40.5 4.8e-7 52.9264 10.0736 63 22.5 63h30.7947C49.991 66.916 48 71.9755 48 77.5c0 7.6667 3.8345 14.4377 9.6902 18.5C51.8345 100.062 48 106.833 48 114.5s3.8345 14.438 9.6902 18.5C51.8345 137.062 48 143.833 48 151.5c0 12.426 10.0736 22.5 22.5 22.5H114c43.078 0 78-34.922 78-78 0-43.0782-34.922-78-78-78h-1-.001zM114 26h-1-.001C104.163 26.0006 97 33.1638 97 42v70.5c0 9.113 7.387 16.5 16.5 16.5s16.5-7.387 16.5-16.5v-35c0-2.2091 1.791-4 4-4s4 1.7909 4 4v35c0 10.734-6.903 19.856-16.512 23.168 4.026 4.066 6.512 9.658 6.512 15.832 0 5.247-1.796 10.075-4.807 13.902C157.508 160.9 184 131.544 184 96c0-38.6599-31.34-70-70-70zM95.389 129C91.4201 124.646 89 118.856 89 112.5V100H70.5c-8.0081 0-14.5 6.492-14.5 14.5S62.4919 129 70.5 129h24.889zM70.5 137c-8.0081 0-14.5 6.492-14.5 14.5S62.4919 166 70.5 166h35c8.008 0 14.5-6.492 14.5-14.5s-6.492-14.5-14.5-14.5h-35zm0-45H89V63H70.494C62.4886 63.0032 56 69.4939 56 77.5 56 85.5081 62.4919 92 70.5 92z"/>
</svg>