<svg xmlns="http://www.w3.org/2000/svg" width="192" height="192" fill="#000" viewBox="0 0 192 192">
  <path fill-rule="evenodd" d="M72.5 8C44.6096 8 22 30.6096 22 58.5c0 2.2091-1.7909 4-4 4-2.2091 0-4-1.7909-4-4C14 26.1913 40.1913 0 72.5 0 104.809 0 131 26.1913 131 58.5c0 2.2091-1.791 4-4 4s-4-1.7909-4-4C123 30.6096 100.39 8 72.5 8zm0 20C55.6553 28 42 41.6553 42 58.5c0 2.2091-1.7909 4-4 4-2.2091 0-4-1.7909-4-4C34 37.237 51.237 20 72.5 20S111 37.237 111 58.5c0 2.2091-1.791 4-4 4s-4-1.7909-4-4C103 41.6553 89.3447 28 72.5 28zm.1522 20c-5.787 0-10.4783 4.6913-10.4783 10.4783v77.8697c0 2.209-1.7908 4-4 4-2.2091 0-4-1.791-4-4v-7.576l-2.106-1.216c-5.7603-3.326-13.126-1.352-16.4517 4.408-3.3257 5.761-1.3521 13.126 4.408 16.452.0001 0-.0001 0 0 0l47.7925 27.589c.0316.018.0628.037.0939.056C96.107 181.096 105.752 184 116.087 184 145.862 184 170 159.862 170 130.087V96.0435c0-5.787-4.691-10.4783-10.478-10.4783s-10.479 4.6913-10.479 10.4783c0 2.2091-1.79 3.9995-4 3.9995-2.209 0-4-1.7904-4-3.9995 0-5.787-4.691-10.4783-10.478-10.4783s-10.478 4.6913-10.478 10.4783c0 2.2091-1.791 3.9995-4 3.9995s-4-1.7904-4-3.9995c0-5.787-4.691-10.4783-10.478-10.4783-5.7873 0-10.4786 4.6913-10.4786 10.4783 0 2.2091-1.7908 3.9995-4 3.9995-2.2091 0-4-1.7904-4-3.9995 0-.0892.0007-.1783.0019-.2671-.0012-.0413-.0019-.0827-.0019-.1242V58.4783C83.1304 52.6913 78.4392 48 72.6522 48zm18.4782 32.8213v-22.343C91.1304 48.273 82.8574 40 72.6522 40c-10.2053 0-18.4783 8.273-18.4783 18.4783v61.1847c-9.2525-4.118-20.3096-.664-25.4859 8.301-5.5349 9.587-2.2502 21.845 7.3364 27.38l47.7463 27.563C93.1804 188.675 104.252 192 116.087 192 150.281 192 178 164.281 178 130.087V96.0435c0-10.2053-8.273-18.4783-18.478-18.4783-5.866 0-11.094 2.7332-14.479 6.9955-3.385-4.2623-8.612-6.9955-14.478-6.9955s-11.093 2.7332-14.478 6.9955c-3.385-4.2623-8.612-6.9955-14.478-6.9955-3.891 0-7.5009 1.2025-10.4786 3.2561z"/>
</svg>