<svg xmlns="http://www.w3.org/2000/svg" width="192" height="192" fill="#000" viewBox="0 0 192 192">
  <path fill-rule="evenodd" d="M166.486.0005815C166.509.00019431 166.532 0 166.555 0 177.859-4.8e-7 187 9.19089 187 20.5c0 6.7607-3.267 12.7643-8.309 16.5 5.042 3.7357 8.309 9.7393 8.309 16.5s-3.267 12.7643-8.309 16.5c5.042 3.7357 8.309 9.7393 8.309 16.5s-3.267 12.7643-8.309 16.5c5.042 3.736 8.309 9.739 8.309 16.5 0 11.309-9.141 20.5-20.445 20.5h-42.189c-1.095 0-1.986.879-2 1.974l-.366 27.77C121.985 182.082 111.873 192 99.5 192c-12.382 0-22.5-9.933-22.5-22.284V158c0-17.471-14.935-31.769-32.6247-39.571C22.0512 108.582 5 89.2671 5 63c0-19.4022 7.9342-35.2652 20.8161-46.2166C38.638 5.88305 56.1653.00001526 75.2594.00001526h91.1586c.023 0 .046.0001893.068.00056624zm.001 7.9988485c-.023.00039-.046.00059-.069.00059H75.2594c-17.4999 0-33.1023 5.39158-44.2616 14.87848C19.8985 32.3144 13 45.9515 13 63c0 22.2734 14.3423 39.172 34.6037 48.109C66.2968 119.354 85 135.707 85 158v11.716C85 177.561 91.4474 184 99.5 184c8.053 0 14.5-6.439 14.5-14.284V169.664l.367-27.796c.072-5.471 4.527-9.868 9.999-9.868h42.189c6.86 0 12.445-5.584 12.445-12.5s-5.585-12.5-12.445-12.5c-2.209 0-4-1.791-4-4s1.791-4 4-4C173.415 99 179 93.4163 179 86.5S173.415 74 166.555 74c-2.209 0-4-1.7909-4-4 0-2.2091 1.791-4 4-4C173.415 66 179 60.4163 179 53.5S173.415 41 166.555 41c-2.209 0-4-1.7909-4-4 0-2.2091 1.791-4 4-4C173.415 33 179 27.4163 179 20.5S173.415 8 166.555 8c-.022 0-.045-.00019-.068-.00057z"/>
</svg>