<svg xmlns="http://www.w3.org/2000/svg" width="192" height="192" fill="#000" viewBox="0 0 192 192">
  <path fill-rule="evenodd" d="M147.001 40.5c0-12.4264 10.073-22.5 22.5-22.5 12.426 0 22.5 10.0736 22.5 22.5V114c0 43.078-34.922 78-78 78-14.9179 0-28.8687-4.192-40.7252-11.463l-61.0215-35.226c-11.718212-6.765-15.73338-21.749-8.96789-33.468 6.62133-11.468 21.11459-15.5581 32.71419-9.385V70.5c0-12.4264 10.0736-22.5 22.5-22.5 7.6667 0 14.4377 3.8345 18.5 9.6902C81.0629 51.8345 87.834 48 95.5006 48c7.6664 0 14.4374 3.8345 18.5004 9.6902C118.063 51.8345 124.834 48 132.501 48c5.524 0 10.584 1.991 14.5 5.2947V40.5zm8 52.5c0 2.2091-1.791 4-4 4-2.21 0-4-1.7909-4-4V70.5c0-8.0081-6.492-14.5-14.5-14.5-8.009 0-14.5 6.4919-14.5 14.5V93c0 2.2091-1.791 4-4 4-2.21 0-4-1.7909-4-4V70.5c0-8.0081-6.492-14.5-14.5004-14.5-8.0081 0-14.5 6.4919-14.5 14.5V93c0 2.2091-1.7909 4-4 4-2.2091 0-4-1.7909-4-4V70.5c0-8.0081-6.4919-14.5-14.5-14.5-8.0081 0-14.5 6.4919-14.5 14.5V122c0 2.209-1.7908 4-4 4-2.2091 0-4-1.791-4-4v-10.322l-3.2466-1.874c-7.8918-4.556-17.983-1.852-22.5394 6.039-4.55629 7.892-1.85245 17.983 6.0392 22.54.0001 0-.0001 0 0 0l61.0682 35.252c.0316.018.0629.037.0939.056C88.0591 180.229 100.583 184 114.001 184c38.66 0 70-31.34 70-70V40.5c0-8.0081-6.492-14.5-14.5-14.5-8.009 0-14.5 6.4919-14.5 14.5V93z"/>
</svg>