<svg xmlns="http://www.w3.org/2000/svg" width="192" height="192" fill="#000" viewBox="0 0 192 192">
  <path fill-rule="evenodd" d="M69.9998 22.2838C69.9998 9.93259 80.1178 0 92.4998 0 104.882 0 115 9.93259 115 22.2838V34c0 17.471 14.935 31.7692 32.624 39.5714C169.949 83.4177 187 102.733 187 129c0 19.402-7.934 35.265-20.816 46.217-12.822 10.9-30.35 16.783-49.444 16.783H25.7014C14.3142 192 5 182.867 5 171.5c0-6.785 3.31858-12.774 8.4157-16.5C8.31858 151.274 5 145.285 5 138.5s3.31858-12.774 8.4157-16.5C8.31858 118.274 5 112.285 5 105.5c0-6.7852 3.31858-12.7742 8.4157-16.5C8.31858 85.2743 5 79.2853 5 72.5 5 61.1326 14.3142 52 25.7014 52h31.5972c4.7766 0 9.1885 1.607 12.7012 4.3118v-34.028zm7.9272 48.4798c.0483.5722.073 1.1514.073 1.7364 0 6.7853-3.3186 12.7743-8.4157 16.5C74.6814 92.7258 78 98.7148 78 105.5c0 6.785-3.3186 12.774-8.4157 16.5C74.6814 125.726 78 131.715 78 138.5s-3.3186 12.774-8.4157 16.5C74.6814 158.726 78 164.715 78 171.5c0 4.715-1.6027 9.046-4.2911 12.5H116.74c17.5 0 33.103-5.392 44.262-14.879C172.101 159.686 179 146.049 179 129c0-22.273-14.343-39.1724-34.604-48.1089C125.703 72.6463 107 56.2934 107 34V22.2838C107 14.4393 100.552 8 92.4998 8c-8.0526 0-14.5 6.4393-14.5 14.2838V70c0 .2611-.0251.5164-.0728.7636zM57.3187 184C64.37 183.989 70 178.351 70 171.5c0-6.858-5.6407-12.5-12.7014-12.5H25.7014C18.6407 159 13 164.642 13 171.5S18.6407 184 25.7014 184h31.6173zm-31.6173-33h31.5972C64.3593 151 70 145.358 70 138.5S64.3593 126 57.2986 126H25.7014C18.6407 126 13 131.642 13 138.5S18.6407 151 25.7014 151zm0-33h31.5972C64.3593 118 70 112.358 70 105.5 70 98.6421 64.3593 93 57.2986 93H25.7014C18.6407 93 13 98.6421 13 105.5c0 6.858 5.6407 12.5 12.7014 12.5zm0-33h31.5972C64.3593 85 70 79.358 70 72.5 70 65.6421 64.3593 60 57.2986 60H25.7014C18.6407 60 13 65.6421 13 72.5 13 79.358 18.6407 85 25.7014 85z"/>
</svg>