<svg xmlns="http://www.w3.org/2000/svg" width="192" height="192" fill="#000" viewBox="0 0 192 192">
  <path fill-rule="evenodd" d="M55 22.5C55 10.0736 65.0736 0 77.5 0 85.1666 0 91.9377 3.83446 96 9.6902 100.062 3.83446 106.833 0 114.5 0s14.438 3.83446 18.5 9.6902C137.062 3.83446 143.833 0 151.5 0 163.926 0 174 10.0736 174 22.5V114c0 43.078-34.922 78-78 78-43.0782 0-78-34.922-78-78V40.5C18 28.0736 28.0736 18 40.5 18c5.5245 0 10.584 1.991 14.5 5.2947V22.5zm0 18C55 32.4919 48.5081 26 40.5 26 32.4919 26 26 32.4919 26 40.5V114c0 38.66 31.3401 70 70 70 38.66 0 70-31.34 70-70v-1c0-8.837-7.163-16-16-16H79.5c-9.1127 0-16.5 7.387-16.5 16.5S70.3873 130 79.5 130h35c2.209 0 4 1.791 4 4s-1.791 4-4 4h-35c-13.2506 0-24.0444-10.519-24.4859-23.662-.0094-.112-.0141-.224-.0141-.338V40.5zm8 54.889C67.3539 91.4201 73.1443 89 79.5 89H92V22.5C92 14.4919 85.5081 8 77.5 8 69.4919 8 63 14.4919 63 22.5v72.889zM100 89h29V22.5c0-8.0081-6.492-14.5-14.5-14.5S100 14.4919 100 22.5V89zm37 0h13c6.147 0 11.754 2.3108 16 6.1111V22.5c0-8.0081-6.492-14.5-14.5-14.5S137 14.4919 137 22.5V89z"/>
</svg>