<svg xmlns="http://www.w3.org/2000/svg" width="192" height="192" fill="#000" viewBox="0 0 192 192">
  <path fill-rule="evenodd" d="M122 169.717C122 182.068 111.882 192 99.5002 192c-12.3819 0-22.5-9.932-22.5-22.283V158c0-17.471-14.9349-31.769-32.6246-39.571-22.3242-9.846-39.37535-29.1614-39.37534-55.4285 0-19.4023 7.93424-35.2652 20.81604-46.2166C38.6382 5.88352 56.1655.00047684 75.2597.00047851l59.1593.00000517c.009 0 .017-.00001525.025-.00001525l32.112.0000028C177.859.00047224 187 9.19136 187 20.5005c0 6.7606-3.267 12.7643-8.309 16.5 5.042 3.7356 8.309 9.7393 8.309 16.5 0 6.7606-3.267 12.7643-8.309 16.5 5.042 3.7356 8.309 9.7393 8.309 16.5 0 6.7606-3.267 12.7643-8.309 16.4995 5.042 3.736 8.309 9.74 8.309 16.5 0 11.31-9.141 20.5-20.444 20.5h-32.112c-4.685 0-8.999-1.579-12.444-4.233v33.95zm-7.927-48.478c-.048-.573-.073-1.153-.073-1.739 0-6.76 3.267-12.764 8.309-16.5-5.042-3.7352-8.309-9.7389-8.309-16.4995 0-6.7607 3.267-12.7644 8.309-16.5-5.042-3.7357-8.309-9.7394-8.309-16.5 0-6.7607 3.267-12.7644 8.309-16.5-5.042-3.7357-8.309-9.7394-8.309-16.5 0-4.7024 1.58-9.0385 4.239-12.50002H75.2597c-17.5 0-33.1024 5.39152-44.2617 14.87852-11.0993 9.4359-17.9977 23.073-17.9977 40.1215 0 22.2733 14.3423 39.1725 34.6037 48.1085 18.6931 8.245 37.3962 24.598 37.3962 46.891v11.717c0 7.844 6.4474 14.283 14.5 14.283C107.553 184 114 177.561 114 169.717V122c0-.26.025-.514.073-.761zM134.425 8.00048C127.574 8.01113 122 13.5908 122 20.5005c0 6.9163 5.584 12.5 12.444 12.5h32.112c6.86 0 12.444-5.5837 12.444-12.5s-5.584-12.50003-12.444-12.50003H137.43c-.004 0-.008.00001-.011.00001l-2.975-.00001c-.006 0-.013.00001-.019.00001zm32.131 33.00002h-32.112c-6.86 0-12.444 5.5837-12.444 12.5s5.584 12.5 12.444 12.5h32.112c6.86 0 12.444-5.5837 12.444-12.5s-5.584-12.5-12.444-12.5zm0 33h-32.112c-6.86 0-12.444 5.5837-12.444 12.5s5.584 12.5 12.444 12.5h32.112c6.86 0 12.444-5.5837 12.444-12.5s-5.584-12.5-12.444-12.5zm0 32.9995h-32.112c-6.86 0-12.444 5.584-12.444 12.5 0 6.917 5.584 12.5 12.444 12.5h32.112c6.86 0 12.444-5.583 12.444-12.5 0-6.916-5.584-12.5-12.444-12.5z"/>
</svg>