<svg xmlns="http://www.w3.org/2000/svg" width="192" height="192" fill="#000" viewBox="0 0 192 192">
  <path fill-rule="evenodd" d="M123.613 8c-9.263 0-15.617 9.4355-12.1 18.0934L137.07 89h12.41c6.59 0 12.558 2.6557 16.895 6.9557-.308-3.6048-1.175-7.2113-2.554-10.6067l-28.109-69.1811c-.992-2.4418-2.66-4.4625-4.735-5.8843C128.85 8.8253 126.299 8 123.613 8zm41.803 103.589C164.704 103.415 157.839 97 149.48 97H78.9911c-9.1103 0-16.4968 7.387-16.4968 16.5S69.8808 130 78.9911 130h34.9949c2.209 0 4 1.791 4 4s-1.791 4-4 4H78.9911c-10.7315 0-19.8508-6.901-23.1638-16.508C51.7623 125.515 46.1713 128 40 128c-5.2522 0-10.084-1.8-13.9126-4.816C30.5417 157.51 59.7851 184 95.1713 184c35.8387 0 65.8477-27.3 69.3397-63.129l.905-9.282zM17.5 70.5C17.5 58.0736 27.5736 48 40 48c7.6666 0 14.4377 3.8345 18.5 9.6902C62.5623 51.8345 69.3334 48 77 48c12.4264 0 22.5 10.0736 22.5 22.5v1.3655l10.988-27.0426-6.386-15.7184C98.4638 15.2272 108.627 0 123.613 0c3.422 0 6.708.83076 9.626 2.33426C136.156.83076 139.443 0 142.865 0c14.985 0 25.149 15.2272 19.511 29.1045l-6.386 15.7184 15.242 37.5147c2.675 6.5836 3.795 13.8818 3.035 20.9134l-1.793 18.396C168.584 161.551 135.151 192 95.1713 192 52.2609 192 17.5 157.091 17.5 114.06V70.5zm134.172-36.3038l3.292-8.1028C158.481 17.4355 152.127 8 142.865 8c-.867 0-1.72.08592-2.549.25131 1.134 1.47878 2.083 3.12319 2.807 4.90519l8.549 21.0397zm-36.867 21.2535L101.173 89h27.262l-13.63-33.5503zM91.5 89H78.9911c-6.3517 0-12.1386 2.4176-16.4911 6.3829V70.5C62.5 62.4919 68.9919 56 77 56c8.0081 0 14.5 6.4919 14.5 14.5V89zm-37-18.5C54.5 62.4919 48.0081 56 40 56c-8.0081 0-14.5 6.4919-14.5 14.5v35c0 8.008 6.4919 14.5 14.5 14.5 8.0081 0 14.5-6.492 14.5-14.5v-35z"/>
</svg>