<svg xmlns="http://www.w3.org/2000/svg" width="192" height="192" fill="#000" viewBox="0 0 192 192">
  <path fill-rule="evenodd" d="M92 22.5C92 10.0736 102.074 0 114.5 0S137 10.0736 137 22.5v30.7947C140.916 49.991 145.975 48 151.5 48c12.426 0 22.5 10.0736 22.5 22.5V114c0 43.078-34.922 78-78 78-43.0782 0-78-34.922-78-78V70.5C18 58.0736 28.0736 48 40.5 48c7.6666 0 14.4377 3.8345 18.5 9.6902C63.0623 51.8345 69.8334 48 77.5 48c5.5245 0 10.584 1.991 14.5 5.2947V22.5zm8 66.5h29V22.5c0-8.0081-6.492-14.5-14.5-14.5S100 14.4919 100 22.5V89zm37 0h13c6.147 0 11.754 2.3108 16 6.1111V70.5c0-8.0081-6.492-14.5-14.5-14.5S137 62.4919 137 70.5V89zm29 24c0-8.837-7.163-16-16-16H79.5c-9.1127 0-16.5 7.387-16.5 16.5S70.3873 130 79.5 130h35c2.209 0 4 1.791 4 4s-1.791 4-4 4h-35c-10.7342 0-19.8561-6.903-23.1684-16.512C52.2663 125.514 46.6735 128 40.5 128c-5.2472 0-10.0749-1.796-13.9018-4.807C31.0996 157.508 60.4561 184 96 184c38.66 0 70-31.34 70-70v-1zM63 95.389C67.3539 91.4201 73.1443 89 79.5 89H92V70.5C92 62.4919 85.5081 56 77.5 56 69.4919 56 63 62.4919 63 70.5v24.889zM55 70.5C55 62.4919 48.5081 56 40.5 56 32.4919 56 26 62.4919 26 70.5v35c0 8.008 6.4919 14.5 14.5 14.5 8.0081 0 14.5-6.492 14.5-14.5v-35z"/>
</svg>