<svg xmlns="http://www.w3.org/2000/svg" width="192" height="192" fill="#000" viewBox="0 0 192 192">
  <path fill-rule="evenodd" d="M83.0257 24.5943C81.7378 11.4199 92.0829 0 105.319 0c11.528 0 21.17 8.75418 22.292 20.2297l3.098 31.6733 3.097-31.6733C134.929 8.75418 144.571 0 156.099 0c13.236 0 23.581 11.4199 22.293 24.5943l-9.488 97.0537C165.003 161.561 131.468 192 91.3872 192 48.3686 192 13.5 157.102 13.5 114.06V70.5C13.5 58.0763 23.565 48 35.9867 48c7.6619 0 14.4271 3.8335 18.4868 9.6869C58.5332 51.8335 65.2984 48 72.9602 48c4.7305 0 9.1192 1.4613 12.7404 3.9571l-2.6749-27.3628zm12.3528 44.137c-.0233-.3001-.0525-.5985-.0875-.8952l-4.3032-44.0202C90.1591 15.3388 96.815 8 105.319 8c7.406 0 13.608 5.6254 14.33 13.0084L126.299 89H97.3599l-1.9814-20.2687zm-8.0378.0031l.0658.6731c.0268.3606.0405.725.0405 1.0925V89H74.9588c-6.3503 0-12.1349 2.4185-16.4853 6.3846V70.5c0-8.0108 6.4886-14.5 14.4867-14.5 7.4014 0 13.5101 5.557 14.3805 12.7344zM50.4735 70.5c0-8.0108-6.4887-14.5-14.4868-14.5C27.9886 56 21.5 62.4892 21.5 70.5v35c0 8.011 6.4886 14.5 14.4867 14.5 7.9981 0 14.4868-6.489 14.4868-14.5v-35zm-28.3834 52.69C26.5605 157.505 55.8841 184 91.3872 184c35.9598 0 66.0538-27.31 69.5548-63.13l.575-5.881c-.08-.316-.123-.648-.123-.989v-1c0-8.839-7.16-16-15.986-16H74.9588c-9.1019 0-16.4853 7.385-16.4853 16.5S65.8569 130 74.9588 130h34.9752c2.209 0 4 1.791 4 4s-1.791 4-4 4H74.9588c-10.7282 0-19.8422-6.903-23.1532-16.509-4.0623 4.024-9.6499 6.509-15.8189 6.509-5.2461 0-10.0718-1.797-13.8966-4.81zM163.277 96.9892l7.153-73.1733C171.259 15.3389 164.603 8 156.099 8c-7.407 0-13.609 5.6254-14.331 13.0084L135.119 89h10.289c7.1 0 13.478 3.0858 17.869 7.9892z"/>
</svg>