<svg xmlns="http://www.w3.org/2000/svg" width="192" height="192" fill="#000" viewBox="0 0 192 192">
  <path fill-rule="evenodd" d="M39 13C21.8792 13 8 26.8792 8 44c0 8.448 3.374 16.1 8.857 21.6953 4.0498 4.1329 9.2402 7.132 15.0537 8.4913C34.1837 74.718 36.5564 75 39 75c11.9167 0 22.2696-6.7228 27.4613-16.6014.4029-.7666.6264-1.7453.6264-2.9057V32.5071c0-1.1604-.2235-2.1391-.6264-2.9057C61.2696 19.7228 50.9167 13 39 13zM0 44C0 22.4609 17.4609 5 39 5c15.0046 0 28.0234 8.4746 34.5429 20.8797 1.1356 2.1609 1.5448 4.4807 1.5448 6.6274v22.9858c0 2.1467-.4092 4.4665-1.5448 6.6274C67.0234 74.5254 54.0046 83 39 83c-1.3495 0-2.684-.0687-4-.2029V150.5c0 6.904-5.5964 12.5-12.5 12.5S10 157.404 10 150.5V70.0772C3.78664 63.1712 0 54.0242 0 44zm18 32.8685V136h9V81.1179c-3.2021-1.0345-6.2218-2.4711-9-4.2494zM27 144h-9v6.5c0 2.485 2.0147 4.5 4.5 4.5s4.5-2.015 4.5-4.5V144zm91.457-118.1203C124.977 13.4746 137.995 5 153 5c21.539 0 39 17.4609 39 39 0 10.0242-3.787 19.1712-10 26.0772V150.5c0 6.904-5.596 12.5-12.5 12.5s-12.5-5.596-12.5-12.5V82.7971c-1.316.1342-2.65.2029-4 .2029-15.005 0-28.023-8.4746-34.543-20.8797-1.135-2.1609-1.545-4.4807-1.545-6.6274V32.5071c0-2.1467.41-4.4665 1.545-6.6274zM165 81.1179V136h9V76.8685c-2.778 1.7783-5.798 3.2149-9 4.2494zM174 144h-9v6.5c0 2.485 2.015 4.5 4.5 4.5s4.5-2.015 4.5-4.5V144zM153 13c-11.917 0-22.27 6.7228-27.461 16.6014-.403.7666-.627 1.7453-.627 2.9057v22.9858c0 1.1604.224 2.1391.627 2.9057C130.73 68.2772 141.083 75 153 75c2.444 0 4.816-.282 7.089-.8134 5.814-1.3593 11.004-4.3584 15.054-8.4913C180.626 60.1 184 52.448 184 44c0-17.1208-13.879-31-31-31zM19 44c0-5.5228 4.4772-10 10-10h19c5.5228 0 10 4.4772 10 10s-4.4772 10-10 10H29c-5.5228 0-10-4.4772-10-10zm10-2c-1.1046 0-2 .8954-2 2s.8954 2 2 2h19c1.1046 0 2-.8954 2-2s-.8954-2-2-2H29zm105 2c0-5.5228 4.477-10 10-10h19c5.523 0 10 4.4772 10 10s-4.477 10-10 10h-19c-5.523 0-10-4.4772-10-10zm10-2c-1.105 0-2 .8954-2 2s.895 2 2 2h19c1.105 0 2-.8954 2-2s-.895-2-2-2h-19zM96.4862 87.2525c1.5642-.5838 3.3265-.1346 4.4208 1.1267l22.115 25.4998c1.413 1.63 1.28 4.088-.303 5.554L103.771 137l18.948 17.567c1.583 1.466 1.716 3.924.303 5.554l-22.115 25.5c-1.0943 1.261-2.8566 1.71-4.4208 1.126-1.5643-.583-2.6014-2.077-2.6014-3.747v-36.835l-19.1653 17.768c-1.6201 1.502-4.1509 1.407-5.6528-.214-1.502-1.62-1.4062-4.15.2138-5.652L92.0041 137l-22.7236-21.067c-1.62-1.502-1.7158-4.032-.2138-5.652 1.5019-1.621 4.0327-1.716 5.6528-.214l19.1653 17.768V91c0-1.6697 1.0371-3.1637 2.6014-3.7475zm5.3988 58.9075l12.558 11.643-12.558 14.48V146.16zm0-18.32v-26.123l12.558 14.48-12.558 11.643z"/>
</svg>