<svg xmlns="http://www.w3.org/2000/svg" width="192" height="192" fill="#000" viewBox="0 0 192 192">
  <path fill-rule="evenodd" d="M51.3272 31h89.3458C128.257 21.5836 112.783 16 96 16c-16.7832 0-32.2572 5.5836-44.6728 15zm98.2918 8H42.3808C29.7476 52.2774 22 70.2303 22 90c0 5.3568.5685 10.577 1.6475 15.605 2.0405-.652 4.1648-1.116 6.3525-1.372V102c0-5.5229 4.4772-10 10-10h13c5.5228 0 10 4.4771 10 10v72c0 5.523-4.4772 10-10 10H40c-5.5228 0-10-4.477-10-10v-2.233C13.1073 169.787 0 155.424 0 138c0-12.259 6.48777-23.002 16.2171-28.984C14.7669 102.909 14 96.5419 14 90c0-22.5601 9.1158-42.9988 23.8555-57.8206C52.7027 17.2495 73.2749 8 96 8c22.725 0 43.297 9.2495 58.145 24.1794C168.884 47.0012 178 67.4399 178 90c0 6.5419-.767 12.909-2.217 19.016C185.512 114.998 192 125.741 192 138c0 17.424-13.107 31.787-30 33.767V174c0 5.523-4.477 10-10 10h-13c-5.523 0-10-4.477-10-10v-72c0-5.5229 4.477-10 10-10h13c5.523 0 10 4.4771 10 10v2.233c2.188.256 4.312.72 6.353 1.372C169.431 100.577 170 95.3568 170 90c0-19.7697-7.748-37.7226-20.381-51zm19.621 75.548c-2.253-1.081-4.685-1.848-7.24-2.242v51.388c12.46-1.924 22-12.695 22-25.694 0-10.224-5.901-19.07-14.484-23.317-.094-.041-.186-.087-.276-.135zM154 102c0-1.105-.895-2-2-2h-13c-1.105 0-2 .895-2 2v72c0 1.105.895 2 2 2h13c1.105 0 2-.895 2-2v-72zM22.4836 114.683C13.9014 118.93 8 127.776 8 138c0 12.999 9.5396 23.77 22 25.694v-51.388c-2.555.394-4.9872 1.161-7.2396 2.242-.0899.048-.1822.094-.2768.135zM38 174c0 1.105.8954 2 2 2h13c1.1046 0 2-.895 2-2v-72c0-1.105-.8954-2-2-2H40c-1.1046 0-2 .895-2 2v72z"/>
</svg>