<svg xmlns="http://www.w3.org/2000/svg" width="192" height="192" fill="#000" viewBox="0 0 192 192">
  <path fill-rule="evenodd" d="M54.3145 19C28.8312 19 8 39.7265 8 65.3643c0 14.9209 3.4826 26.5711 15.6613 41.7027C44.1747 132.553 71.5756 151.556 96 172.939c24.425-21.383 51.83-40.384 72.342-65.872C180.515 91.9419 184 80.2894 184 65.3643 184 39.8375 163.28 19 137.686 19c-8.3 0-15.062 1.5391-21.141 4.5068-6.114 2.9851-11.74 7.5152-17.6306 13.781-.756.8042-1.8106 1.2603-2.9144 1.2603-1.1038 0-2.1584-.4561-2.9144-1.2603-5.8902-6.2658-11.5168-10.7959-17.6311-13.781C69.3761 20.5391 62.6137 19 54.3145 19zM0 65.3643C0 35.3019 24.4192 11 54.3145 11c9.3608 0 17.3473 1.7525 24.6498 5.3178C85.1135 19.3199 90.6321 23.5367 96 28.8219c5.368-5.2852 10.887-9.502 17.036-12.5041C120.338 12.7525 128.325 11 137.686 11 167.717 11 192 35.4385 192 65.3643c0 16.8131-4.149 30.2221-17.425 46.7187-13.026 16.185-34.98 35.52-70.527 64.443l-2.897 2.536c-2.951 2.584-7.351 2.584-10.3021 0l-2.8446-2.49c-35.5775-28.95-57.5439-48.299-70.5751-64.489C4.14692 95.5803 0 82.1736 0 65.3643z"/>
</svg>