<svg xmlns="http://www.w3.org/2000/svg" width="192" height="192" fill="#000" viewBox="0 0 192 192">
  <path d="M100 62c0-2.2091-1.7909-4-4-4-2.2091 0-4 1.7909-4 4v26H66c-2.2091 0-4 1.7909-4 4 0 2.2091 1.7909 4 4 4h26v26c0 2.209 1.7909 4 4 4 2.2091 0 4-1.791 4-4V96h26c2.209 0 4-1.7909 4-4 0-2.2091-1.791-4-4-4h-26V62z"/>
  <path fill-rule="evenodd" d="M54.3145 11C24.4192 11 0 35.3019 0 65.3643c0 16.8093 4.14692 30.216 17.4292 46.7187 13.0312 16.19 34.9976 35.539 70.5751 64.489l2.8446 2.49c2.9511 2.584 7.3511 2.584 10.3021 0l2.897-2.536c35.547-28.923 57.501-48.258 70.527-64.443C187.851 95.5864 192 82.1774 192 65.3643 192 35.4385 167.717 11 137.686 11c-9.361 0-17.348 1.7525-24.65 5.3178-6.149 3.0021-11.668 7.2189-17.036 12.5041-5.3679-5.2852-10.8865-9.502-17.0357-12.5041C71.6618 12.7525 63.6753 11 54.3145 11zM8 65.3643C8 39.7265 28.8312 19 54.3145 19c8.2992 0 15.0616 1.5391 21.14 4.5068 6.1143 2.9851 11.7409 7.5152 17.6311 13.781.756.8042 1.8106 1.2603 2.9144 1.2603 1.1038 0 2.1584-.4561 2.9144-1.2603 5.8906-6.2658 11.5166-10.7959 17.6306-13.781C122.624 20.5391 129.386 19 137.686 19 163.28 19 184 39.8375 184 65.3643c0 14.9251-3.485 26.5776-15.658 41.7027-14.677 18.237-32.882 33.153-51 47.997-7.204 5.902-14.393 11.792-21.342 17.875-6.9456-6.08-14.1319-11.969-21.3321-17.868-18.1194-14.847-36.3267-29.766-51.0066-48.004C11.4826 91.9354 8 80.2852 8 65.3643z"/>
</svg>