<svg xmlns="http://www.w3.org/2000/svg" width="192" height="192" fill="#000" viewBox="0 0 192 192">
  <path d="M160 119c0 2.209-1.791 4-4 4s-4-1.791-4-4 1.791-4 4-4 4 1.791 4 4zM47.1716 108.828c1.5621 1.563 4.0947 1.563 5.6568 0 1.5621-1.562 1.5621-4.094 0-5.656l-4-4.0004c-1.5621-1.5621-4.0947-1.5621-5.6568 0l-4 4.0004c-1.5621 1.562-1.5621 4.094 0 5.656 1.5621 1.563 4.0947 1.563 5.6568 0L46 107.657l1.1716 1.171zM81.8284 116.828c-1.5621 1.563-4.0947 1.563-5.6568 0L75 115.657l-1.1716 1.171c-1.5621 1.563-4.0947 1.563-5.6568 0-1.5621-1.562-1.5621-4.094 0-5.656l4-4c1.5621-1.563 4.0947-1.563 5.6568 0l4 4c1.5621 1.562 1.5621 4.094 0 5.656zM79.1716 94.8284c1.5621 1.5621 4.0947 1.5621 5.6568 0s1.5621-4.0947 0-5.6568l-4-4c-1.5621-1.5621-4.0947-1.5621-5.6568 0l-4 4c-1.5621 1.5621-1.5621 4.0947 0 5.6568s4.0947 1.5621 5.6568 0L78 93.6569l1.1716 1.1715zM117.828 88.8284c-1.562 1.5621-4.094 1.5621-5.656 0L111 87.6569l-1.172 1.1715c-1.562 1.5621-4.094 1.5621-5.656 0-1.563-1.5621-1.563-4.0947 0-5.6568l4-4c1.562-1.5621 4.094-1.5621 5.656 0l4 4c1.563 1.5621 1.563 4.0947 0 5.6568zM100.172 130.828c1.562 1.563 4.094 1.563 5.656 0 1.563-1.562 1.563-4.094 0-5.656l-4-4c-1.562-1.563-4.0943-1.563-5.6564 0l-4 4c-1.5621 1.562-1.5621 4.094 0 5.656 1.5621 1.563 4.0947 1.563 5.6568 0L99 129.657l1.172 1.171z"/>
  <path fill-rule="evenodd" d="M103.783 32.0775c1.451.2897 2.623 1.3563 3.048 2.7731l7.481 24.9367 17.541-11.162c1.095-.6971 2.461-.8191 3.663-.327 1.201.4921 2.09 1.5369 2.382 2.8023l4.986 21.6097 20.761-7.4739c1.611-.5799 3.413-.0702 4.481 1.268 1.068 1.3381 1.166 3.2078.244 4.6504l-11.661 18.2367 28.194 28.1215c4.543 4.532 7.097 10.68 7.097 17.093v1.226C192 149.189 181.147 160 167.78 160H42.4792c-3.8522 0-7.4769-1.833-9.7549-4.941L.771143 111.361c-.956054-1.307-1.029249-3.062-.185386-4.445.843863-1.383 2.438193-2.12 4.038103-1.867l14.66994 2.316 2.7147-41.6253c.1022-1.5672 1.1121-2.9296 2.5819-3.4831 1.4698-.5535 3.1275-.1956 4.238.915l14.5997 14.5997 19.2757-28.0374c.7746-1.1267 2.0709-1.7796 3.4373-1.7314 1.3664.0482 2.6134.791 3.3066 1.9694l7.0904 12.0536L99.9042 33.467c.9368-1.1448 2.4288-1.6793 3.8788-1.3895zm48.524 64.2224l-10.47 16.4681c-.954 1.501-2.785 2.191-4.493 1.695-1.708-.497-2.882-2.062-2.882-3.841v-1.009c0-3.35-2.726-6.084-6.11-6.084-3.384 0-6.11 2.734-6.11 6.084v3.92c0 3.412 1.745 6.592 4.636 8.431l21.269 13.534c1.154.734 1.853 2.007 1.853 3.375V152h17.78c8.968 0 16.22-7.248 16.22-16.168v-1.226c0-4.285-1.706-8.396-4.747-11.429l-26.946-26.8771zM142 152v-10.932l-19.417-12.354c-5.193-3.305-8.341-9.028-8.341-15.181v-3.92c0-7.788 6.327-14.0836 14.11-14.0836 4.643 0 8.767 2.2405 11.34 5.7016l8.537-13.4275 7.072-11.0607-13.946 5.0207c-1.076.3873-2.266.2957-3.27-.2517s-1.725-1.4982-1.983-2.6124l-4.727-20.4874-17.227 10.9626c-1.058.6728-2.369.8112-3.543.3742-1.175-.4371-2.076-1.3992-2.436-2.5994l-6.838-22.7927-22.2352 27.1762c-.8283 1.0124-2.0993 1.5559-3.4035 1.4552-1.3042-.1006-2.4768-.8326-3.14-1.96l-6.815-11.5855-18.4411 26.8235c-.6733.9793-1.7471 1.6085-2.9305 1.7171-1.1834.1087-2.3538-.3145-3.1941-1.1548L29.4167 75.0736 26.9915 112.26c-.0731 1.122-.6152 2.162-1.4934 2.864-.8781.702-2.0113 1.002-3.1219.827l-9.4265-1.488 26.2274 35.867c.7681 1.048 1.994 1.67 3.3021 1.67h27.959c-1.7928-6.269-7.6589-11-14.4382-11-2.2091 0-4-1.791-4-4s1.7909-4 4-4c11.222 0 20.7155 8.303 22.643 19H142z"/>
</svg>