<svg xmlns="http://www.w3.org/2000/svg" width="192" height="192" fill="#000" viewBox="0 0 192 192">
  <path fill-rule="evenodd" d="M98.8256 13.1734c-1.5615-1.5645-4.0897-1.5645-5.6512 0L28 78.4782V180h136V78.4782L98.8256 13.1734zM172 86.4942l13.169 13.195c1.56 1.5638 4.093 1.5658 5.657.0057 1.563-1.5606 1.566-4.0932.005-5.6569L104.488 7.52223c-4.6868-4.69631-12.2892-4.69631-16.9761 0L1.16875 94.038c-1.560537 1.5637-1.558007 4.0963.00565 5.6569 1.56366 1.5601 4.09631 1.5581 5.65685-.0057L20 86.4941V182c0 3.314 2.6863 6 6 6h140c3.314 0 6-2.686 6-6V86.4942z"/>
</svg>