<svg xmlns="http://www.w3.org/2000/svg" width="192" height="192" fill="#000" viewBox="0 0 192 192">
  <path fill-rule="evenodd" d="M158 8c-47.496 0-86 38.5035-86 86v90h92v-82h-22c-2.209 0-4-1.791-4-4 0-2.2091 1.791-4 4-4h22V82h-22c-2.209 0-4-1.7909-4-4 0-2.2091 1.791-4 4-4h22V62h-22c-2.209 0-4-1.7909-4-4 0-2.2091 1.791-4 4-4h22V42h-22c-2.209 0-4-1.7909-4-4 0-2.2091 1.791-4 4-4h22V8h-6zm14-4c0-1.06087-.421-2.07828-1.172-2.82843C170.078.421427 169.061 0 168 0h-10c-51.915 0-94 42.0852-94 94v18.424l-41.6552 18.935C20.9168 132.008 20 133.431 20 135v53c0 2.209 1.7909 4 4 4h144c2.209 0 4-1.791 4-4V4zM64 121.212l-36 16.364V184h36v-62.788z"/>
</svg>