<svg xmlns="http://www.w3.org/2000/svg" width="192" height="192" fill="#000" viewBox="0 0 192 192">
  <path fill-rule="evenodd" d="M98.8256 13.1734c-1.5615-1.5645-4.0897-1.5645-5.6512 0L28 78.4781V180h68v-69c0-2.209 1.7909-4 4-4h45c2.209 0 4 1.791 4 4v69h15V78.4782L98.8256 13.1734zM172 86.4941l13.169 13.1951c1.56 1.5638 4.093 1.5658 5.657.0057 1.563-1.5606 1.566-4.0932.005-5.6569L104.488 7.52223c-4.6868-4.69631-12.2892-4.69631-16.9761 0L1.16875 94.038c-1.560537 1.5637-1.558007 4.0963.00565 5.6569 1.56366 1.5601 4.09631 1.5581 5.65685-.0057L20 86.4941V182c0 3.314 2.6863 6 6 6h140c3.314 0 6-2.686 6-6V86.4941zM141 180v-65h-37v65h37zM77 46c0-2.2091 1.7909-4 4-4h30c2.209 0 4 1.7909 4 4v30c0 2.2091-1.791 4-4 4H81c-2.2091 0-4-1.7909-4-4V46zm8 4v22h22V50H85zm-42 61c0-2.209 1.7909-4 4-4h30c2.2091 0 4 1.791 4 4v30c0 2.209-1.7909 4-4 4H47c-2.2091 0-4-1.791-4-4v-30zm8 4v22h22v-22H51z"/>
</svg>