<svg xmlns="http://www.w3.org/2000/svg" width="192" height="192" fill="#000" viewBox="0 0 192 192">
  <path fill-rule="evenodd" d="M54 42C54 18.804 72.804 0 96 0s42 18.804 42 42v104c0 2.209-1.791 4-4 4h-24v28c0 7.732-6.268 14-14 14s-14-6.268-14-14v-28H58c-2.2091 0-4-1.791-4-4V42zm76 100V42c0-18.7777-15.222-34-34-34-18.7777 0-34 15.2223-34 34v100h68zm-40 8v28c0 3.314 2.6863 6 6 6s6-2.686 6-6v-28H90zM84 46c2.2091 0 4 1.7909 4 4v70c0 2.209-1.7909 4-4 4-2.2091 0-4-1.791-4-4V50c0-2.2091 1.7909-4 4-4zm24 0c2.209 0 4 1.7909 4 4v70c0 2.209-1.791 4-4 4s-4-1.791-4-4V50c0-2.2091 1.791-4 4-4z"/>
</svg>