<svg xmlns="http://www.w3.org/2000/svg" width="192" height="192" fill="#000" viewBox="0 0 192 192">
  <path fill-rule="evenodd" d="M54 42C54 18.804 72.804 0 96 0c3.9727 0 7.823.552694 11.475 1.58783 2.125.60244 3.36 2.8138 2.758 4.93921-.108.38035-.268.73218-.469 1.05006C108.006 10.6451 107 14.1991 107 18c0 11.598 9.402 21 21 21 1.672 0 3.294-.1946 4.845-.5608.366-.1101.754-.1692 1.155-.1692 2.105 0 3.83 1.626 3.988 3.6904.011.1355.015.2704.012.4043V146c0 2.209-1.791 4-4 4h-24v28c0 7.732-6.268 14-14 14s-14-6.268-14-14v-28H58c-2.2091 0-4-1.791-4-4V42zm76 100V46.932c-.661.0451-1.328.068-2 .068-16.016 0-29-12.9837-29-29 0-3.3923.584-6.6531 1.658-9.68412C99.1361 8.1077 97.5814 8 96 8 77.2223 8 62 23.2223 62 42v100h68zm-40 8v28c0 3.314 2.6863 6 6 6s6-2.686 6-6v-28H90zM84 46c2.2091 0 4 1.7909 4 4v70c0 2.209-1.7909 4-4 4-2.2091 0-4-1.791-4-4V50c0-2.2091 1.7909-4 4-4zm24 20c2.209 0 4 1.7909 4 4v50c0 2.209-1.791 4-4 4s-4-1.791-4-4V70c0-2.2091 1.791-4 4-4z"/>
</svg>