<svg xmlns="http://www.w3.org/2000/svg" width="192" height="192" fill="#000" viewBox="0 0 192 192">
  <path fill-rule="evenodd" d="M46 50C46 22.3858 68.3858 0 96 0c27.614 0 50 22.3858 50 50v78.75c0 6.489 5.261 11.75 11.75 11.75s11.75-5.261 11.75-11.75V102c0-2.2091 1.791-4 4-4s4 1.7909 4 4v26.75c0 10.908-8.842 19.75-19.75 19.75S138 139.658 138 128.75V95.5c0-4.1421-3.358-7.5-7.5-7.5-4.142 0-7.5 3.3579-7.5 7.5v67.25c0 6.489 5.261 11.75 11.75 11.75s11.75-5.261 11.75-11.75V157c0-2.209 1.791-4 4-4s4 1.791 4 4v5.75c0 10.908-8.842 19.75-19.75 19.75S115 173.658 115 162.75V95.5c0-4.1421-3.358-7.5-7.5-7.5-4.142 0-7.5 3.3579-7.5 7.5V188c0 2.209-1.7909 4-4 4-2.2091 0-4-1.791-4-4V95.5c0-4.1421-3.3579-7.5-7.5-7.5S77 91.3579 77 95.5v53c0 14.359-11.6406 26-26 26H39.5c-2.2091 0-4-1.791-4-4s1.7909-4 4-4H51c9.9411 0 18-8.059 18-18v-53c0-4.1421-3.3579-7.5-7.5-7.5S54 91.3579 54 95.5v48.25c0 8.146-6.6038 14.75-14.75 14.75s-14.75-6.604-14.75-14.75V131c0-2.209 1.7909-4 4-4 2.2091 0 4 1.791 4 4v12.75c0 3.728 3.0221 6.75 6.75 6.75s6.75-3.022 6.75-6.75V50zm8 31.9321C56.2225 80.7009 58.7794 80 61.5 80c4.562 0 8.6636 1.9708 11.5 5.1075C75.8364 81.9708 79.938 80 84.5 80s8.6636 1.9708 11.5 5.1075C98.8364 81.9708 102.938 80 107.5 80s8.664 1.9708 11.5 5.1075C121.836 81.9708 125.938 80 130.5 80c2.721 0 5.278.7009 7.5 1.9321V50c0-23.196-18.804-42-42-42S54 26.804 54 50v31.9321z"/>
</svg>