<svg xmlns="http://www.w3.org/2000/svg" width="192" height="192" fill="#000" viewBox="0 0 192 192">
  <path fill-rule="evenodd" d="M56 40C56 17.9086 73.9086 0 96 0c22.091 0 40 17.9086 40 40v22h17c5.523 0 10 4.4772 10 10v86c0 18.778-15.222 34-34 34H63c-18.7777 0-34-15.222-34-34V72c0-5.5228 4.4772-10 10-10h17V40zm8 22h64V40c0-17.6731-14.327-32-32-32-17.6731 0-32 14.3269-32 32v22zm-25 8c-1.1046 0-2 .8954-2 2v86c0 14.359 11.6406 26 26 26h66c14.359 0 26-11.641 26-26V72c0-1.1046-.895-2-2-2H39zm57 82c0-5.523 4.477-10 10-10h24c5.523 0 10 4.477 10 10v6c0 5.523-4.477 10-10 10h-24c-5.523 0-10-4.477-10-10v-6zm10-2c-1.105 0-2 .895-2 2v6c0 1.105.895 2 2 2h24c1.105 0 2-.895 2-2v-6c0-1.105-.895-2-2-2h-24z"/>
</svg>