<svg xmlns="http://www.w3.org/2000/svg" width="192" height="192" fill="#000" viewBox="0 0 192 192">
  <path fill-rule="evenodd" d="M167.598 24.402c-21.87-21.86934-57.327-21.86934-79.1963 0-16.1432 16.1432-20.3758 39.6965-12.6746 59.7291.5672 1.4753.2125 3.1462-.9051 4.2638L8 155.217v15.126l57.1716-57.171c1.5621-1.563 4.0947-1.563 5.6568 0 1.5621 1.562 1.5621 4.094 0 5.656L8 181.657V184h27.7855l7.1321-7.132.3983-16.835c.0505-2.135 1.7693-3.854 3.9043-3.904l14.6222-.346.3459-14.623c.0505-2.135 1.7693-3.853 3.9043-3.904l16.8349-.398 19.9605-19.961c1.131-1.131 2.827-1.479 4.312-.886 20.175 8.056 44.074 3.91 60.398-12.413 21.869-21.8694 21.869-57.3266 0-79.196zm-84.8532-5.6568c24.9932-24.99359 65.5162-24.99359 90.5092 0 24.994 24.9935 24.994 65.5161 0 90.5098-17.996 17.996-44.037 23.029-66.53 15.12l-19.2722 19.272c-.727.727-1.706 1.146-2.7338 1.171l-14.6222.346-.3459 14.622c-.0505 2.135-1.7693 3.854-3.9043 3.904l-14.6222.346-.3459 14.622c-.0244 1.028-.4435 2.007-1.1705 2.734l-9.4362 9.436c-.7501.75-1.7675 1.172-2.8284 1.172H4c-2.20914 0-4-1.791-4-4v-34.44c0-1.061.421427-2.078 1.17157-2.828L67.3691 84.534c-7.5414-22.3215-2.4232-47.9899 15.3757-65.7888zm70.0022 20.5074c-5.077-5.0769-13.308-5.0769-18.385 0-5.077 5.0768-5.077 13.3079 0 18.3847 5.077 5.0769 13.308 5.0769 18.385 0 5.077-5.0768 5.077-13.3079 0-18.3847zm-24.042-5.6569c8.201-8.201 21.498-8.201 29.699 0s8.201 21.4975 0 29.6985-21.498 8.201-29.699 0-8.201-21.4975 0-29.6985z"/>
</svg>