<svg xmlns="http://www.w3.org/2000/svg" width="192" height="192" fill="#000" viewBox="0 0 192 192">
  <path fill-rule="evenodd" d="M102.062 8.09598c-14.1574.85409-27.4384 7.37362-36.8038 18.17432l-6.4689 7.4601c-15.1154 17.4319-15.4682 43.2578-.834 61.0981 9.1596 11.1665 8.5434 27.4315-1.4364 37.8695L47 142.654V146h94.685v-1.658c0-1.178-.418-2.316-1.177-3.211l-20.638-24.315c-6.452-7.603-9.995-17.2576-9.995-27.2365v-9.8104l-16.3544-9.0593c-1.9324-1.0705-2.6312-3.5048-1.5608-5.4373 1.0705-1.9325 3.5048-2.6313 5.4373-1.5608l21.8289 12.0918c10.627 5.8863 23.857 4.0153 32.445-4.593l4.554-4.5651c2.76-2.7665 2.226-7.3895-1.083-9.4513l-45.926-28.6158c-4.451-2.7735-7.154-7.6511-7.154-12.8965V8.09598zm15.813 75.97582c13.274 6.0238 29.022 3.2513 39.459-7.2111l4.555-4.5651c6.39-6.4051 5.164-17.1055-2.516-21.8913l-45.926-28.6158c-2.102-1.3097-3.385-3.6178-3.385-6.1067V4.81603C110.062 2.1651 107.916 0 105.248 0 87.5875 0 70.7961 7.67225 59.214 21.0293l-6.4688 7.4601c-17.6692 20.377-18.0811 50.5593-.9751 71.4128 6.5946 8.0398 6.1499 19.7538-1.0336 27.2678l-10.6277 11.116C39.3972 139.03 39 140.02 39 141.05V150c0 2.209 1.7909 4 4 4h102.685c2.21 0 4-1.791 4-4v-5.658c0-3.072-1.09-6.046-3.078-8.388l-20.637-24.315c-5.225-6.155-8.095-13.9748-8.095-22.0595v-5.5077zm-6.305-42.4214c2.209 0 4 1.7908 4 4v1.1428c0 2.2092-1.791 4-4 4s-4-1.7908-4-4v-1.1428c0-2.2092 1.791-4 4-4zM32.8295 159.561C33.5867 158.577 34.7581 158 36 158h120c1.242 0 2.413.577 3.171 1.561l10 13c.537.699.829 1.557.829 2.439v13c0 2.209-1.791 4-4 4H26c-2.2091 0-4-1.791-4-4v-13c0-.882.2916-1.74.8295-2.439l10-13zM37.9696 166L30 176.36V184h132v-7.64L154.03 166H37.9696z"/>
</svg>