<svg xmlns="http://www.w3.org/2000/svg" width="192" height="192" fill="#000" viewBox="0 0 192 192">
  <path fill-rule="evenodd" d="M22 27c-2.2091 0-4 1.7909-4 4v109h110V78.0001c0-8.8366 7.163-16 16-16h30V31c0-2.2091-1.791-4-4-4H22zm160 36.1643V31c0-6.6274-5.373-12-12-12H22c-6.6274 0-12 5.3726-12 12v109H4c-2.20914 0-4 1.791-4 4v17c0 6.627 5.37258 12 12 12h164c8.837 0 16-7.163 16-16V78.0001c0-6.7168-4.136-12.4619-10-14.8358zM130.141 165H12c-2.20914 0-4-1.791-4-4v-13h68v1c0 5.523 4.4771 10 10 10h20c5.523 0 10-4.477 10-10v-1h12v9c0 2.914.779 5.647 2.141 8zM108 148H84v1c0 1.105.8954 2 2 2h20c1.105 0 2-.895 2-2v-1zm36 17h32c4.418 0 8-3.582 8-8V78.0001c0-3.96-2.881-7.255-6.662-7.8892-.432-.0726-.879-.1108-1.338-.1108h-32c-4.418 0-8 3.5817-8 8V157c0 4.418 3.582 8 8 8zm5.84-7.196c0-2.209 1.791-4 4-4h12.32c2.209 0 4 1.791 4 4s-1.791 4-4 4h-12.32c-2.209 0-4-1.791-4-4z"/>
</svg>