<svg xmlns="http://www.w3.org/2000/svg" width="192" height="192" fill="#000" viewBox="0 0 192 192">
  <path d="M109 57c4.418 0 8-3.5817 8-8s-3.582-8-8-8-8 3.5817-8 8 3.582 8 8 8zM141 49c0 4.4183-3.582 8-8 8s-8-3.5817-8-8 3.582-8 8-8 8 3.5817 8 8zM157 57c4.418 0 8-3.5817 8-8s-3.582-8-8-8-8 3.5817-8 8 3.582 8 8 8z"/>
  <path fill-rule="evenodd" d="M74 12c0-6.62741 5.3726-12 12-12h94c6.627 0 12 5.37258 12 12v74c0 5.946-4.325 10.8819-10 11.8341V159h6c1.061 0 2.078.421 2.828 1.172.751.75 1.172 1.767 1.172 2.828v17c0 6.627-5.373 12-12 12H12c-6.62743 0-12-5.373-12-12l.00000254-17C.00000273 160.791 1.79087 159 4 159h6V50c0-6.6274 5.3726-12 12-12h52V12zm100 147V98h-63.087c-.415 0-.82.1289-1.158.369l-29.44 20.893c-1.2201.866-2.8215.979-4.1508.292C74.835 118.867 74 117.496 74 116V46H22c-2.2091 0-4 1.7909-4 4v109h156zm-92-50.744V12c0-2.20914 1.7909-4 4-4h94c2.209 0 4 1.79086 4 4v74c0 2.2091-1.791 4-4 4h-69.087c-2.074 0-4.097.6447-5.788 1.8449L82 108.256zM116 167v1c0 5.523-4.477 10-10 10H86c-5.5229 0-10-4.477-10-10v-1H8v13c0 2.209 1.79086 4 4 4h168c2.209 0 4-1.791 4-4v-13h-68zm-32 0v1c0 1.105.8954 2 2 2h20c1.105 0 2-.895 2-2v-1H84z"/>
</svg>