<svg xmlns="http://www.w3.org/2000/svg" width="192" height="192" fill="#000" viewBox="0 0 192 192">
  <path fill-rule="evenodd" d="M22 27c-2.2091 0-4 1.7909-4 4v109h156V31c0-2.2091-1.791-4-4-4H22zm160 113V31c0-6.6274-5.373-12-12-12H22c-6.6274 0-12 5.3726-12 12v109H4c-2.20914 0-3.99999833 1.791-3.99999857 4L0 161c-4.8e-7 6.627 5.37258 12 12 12h168c6.627 0 12-5.373 12-12v-17c0-2.209-1.791-4-4-4h-6zm-66 8h68v13c0 2.209-1.791 4-4 4H12c-2.20914 0-4-1.791-4-4v-13h68v1c0 5.523 4.4771 10 10 10h20c5.523 0 10-4.477 10-10v-1zm-32 0v1c0 1.105.8954 2 2 2h20c1.105 0 2-.895 2-2v-1H84z"/>
</svg>