<svg xmlns="http://www.w3.org/2000/svg" width="192" height="192" fill="#000" viewBox="0 0 192 192">
  <path d="M61 120c0 7.18-5.8203 13-13 13s-13-5.82-13-13 5.8203-13 13-13 13 5.82 13 13z"/>
  <path fill-rule="evenodd" d="M33.1184 30.7859C17.1671 41.1023 8 54.8805 8 69.5c0 20.4125 18.0548 39.319 46.8399 49.015C67.1076 122.647 81.1082 125 96 125c24.749 0 46.97-6.496 62.882-16.786C174.833 97.8977 184 84.1195 184 69.5c0-14.6195-9.167-28.3977-25.118-38.7141C142.97 20.4955 120.749 14 96 14c-24.7495 0-46.9704 6.4955-62.8816 16.7859zm-4.3445-6.7175C46.1602 12.824 69.9393 6 96 6c26.061 0 49.84 6.824 67.226 18.0684C180.572 35.2868 192 51.2586 192 69.5c0 18.2414-11.428 34.213-28.774 45.432C145.84 126.176 122.061 133 96 133c-9.4437 0-18.579-.896-27.214-2.569C72.7049 136.138 75 143.05 75 150.5c0 19.606-15.8939 35.5-35.5 35.5H4c-2.20914 0-4-1.791-4-4s1.79086-4 4-4h35.5c15.1878 0 27.5-12.312 27.5-27.5 0-10.675-6.0821-19.937-14.9879-24.496C22.0332 115.824 0 94.9335 0 69.5c0-18.2414 11.4278-34.2132 28.7739-45.4316z"/>
</svg>