<svg xmlns="http://www.w3.org/2000/svg" width="193" height="192" fill="#000" viewBox="0 0 193 192">
  <path fill-rule="evenodd" d="M89.8117 17.168c3.9793-1.5573 8.3994-1.5573 12.3783 0l84.518 33.076c7.057 2.762 7.057 12.75 0 15.512L102.19 98.832c-3.9789 1.557-8.399 1.557-12.3783 0L5.29435 65.756c-7.05771-2.762-7.0577-12.75.00001-15.512L89.8117 17.168zm9.4633 7.4498c-2.1049-.8237-4.4429-.8237-6.5478 0L8.20986 57.6938c-.07379.0289-.10967.0552-.12419.0672-.01548.0127-.026.0249-.03524.0392-.021.0326-.04936.1012-.04936.1998 0 .0986.02837.1672.04936.1998.00924.0143.01976.0265.03524.0392.01452.0119.0504.0383.12418.0672l84.51735 33.076c2.1049.8237 4.4429.8237 6.5478 0l84.517-33.076c.074-.0289.11-.0553.124-.0672.016-.0127.026-.0249.036-.0392.021-.0326.049-.1012.049-.1998 0-.0986-.028-.1672-.049-.1998-.005-.0073-.01-.0141-.016-.0206-.006-.0063-.012-.0124-.02-.0186-.014-.012-.05-.0383-.124-.0672l-84.517-33.076zM.27551 97.5439c.80417-2.0576 3.12408-3.0736 5.18165-2.2695L92.7262 129.382c2.1049.824 4.4428.824 6.5477 0l87.2711-34.1076c2.058-.8041 4.377.212 5.182 2.2695.804 2.0576-.212 4.3771-2.27 5.1821l-87.268 34.106-.001.001c-3.9792 1.556-8.3986 1.556-12.3773-.001L2.54499 102.726c-2.057573-.805-3.073653-3.1245-2.26948-5.1821zm0 38.0001c.80417-2.058 3.12408-3.074 5.18165-2.27l87.26734 34.108h.0017c2.1049.824 4.4428.824 6.5477 0h.0017l87.2694-34.108c2.058-.804 4.377.212 5.182 2.27.804 2.058-.212 4.377-2.27 5.182l-87.268 34.106c-3.9789 1.557-8.399 1.557-12.3783 0L2.54499 140.726c-2.057573-.805-3.073653-3.125-2.26948-5.182z"/>
</svg>