<svg xmlns="http://www.w3.org/2000/svg" width="192" height="192" fill="#000" viewBox="0 0 192 192">
  <path fill-rule="evenodd" d="M98.6026.962468L96 4 93.3974.962468c1.4978-1.283291 3.7074-1.283291 5.2052 0zM100 176.888c36.799-2.073 66-32.571 66-69.888 0-12.512-4.426-25.4157-10.768-37.5436-6.361-12.1651-14.794-23.8258-23.15-33.9253-8.366-10.1115-16.72-18.7384-22.978-24.8348-3.132-3.05058-5.745-5.47356-7.581-7.13845-.918-.83259-1.6414-1.47598-2.1388-1.91389-.2488-.21897-.441-.3866-.5726-.50085-.0658-.05713-.1164-.10091-.1514-.1311l-.0408-.035062-.0149-.0128C98.6034.963201 98.6026.962468 96 4 93.3974.962468 93.3966.963201 93.3955.964148l-.0035.002975-.0114.009825-.0408.035062c-.035.03019-.0856.07397-.1514.1311-.1316.11425-.3238.28188-.5726.50085-.4974.43791-1.2213 1.0813-2.1392 1.91389-1.8354 1.66489-4.4485 4.08787-7.5802 7.13845-6.2584 6.0964-14.6128 14.7233-22.9784 24.8348-8.3555 10.0995-16.7894 21.7602-23.1502 33.9253C30.4264 81.5843 26 94.488 26 107c0 37.317 29.2012 67.815 66 69.888V188c0 2.209 1.7909 4 4 4 2.2091 0 4-1.791 4-4v-11.112zm0-8.015c32.378-2.062 58-28.975 58-61.873 0-10.7134-3.824-22.2974-9.857-33.8368-6.014-11.5021-14.081-22.6882-22.225-32.5324-8.134-9.8322-16.28-18.2457-22.397-24.2039-3.055-2.9767-5.5986-5.3345-7.3725-6.9436-.0501-.04546-.0996-.09033-.1485-.13459-.0489.04426-.0984.08913-.1485.13459-1.7739 1.6091-4.3171 3.9669-7.3729 6.9436-6.1166 5.9582-14.2622 14.3717-22.3966 24.2039-8.1445 9.8442-16.2106 21.0303-22.2248 32.5324C37.8236 84.7026 34 96.2866 34 107c0 32.898 25.6225 59.811 58 61.873v-19.216l-34.8284-34.829c-1.5621-1.562-1.5621-4.094 0-5.656 1.5621-1.563 4.0947-1.563 5.6568 0L92 138.343v-30.686L75.1716 90.8284c-1.5621-1.5621-1.5621-4.0947 0-5.6568s4.0947-1.5621 5.6568 0L92 96.3431V64c0-2.2091 1.7909-4 4-4 2.2091 0 4 1.7909 4 4v32.3431l11.172-11.1715c1.562-1.5621 4.094-1.5621 5.656 0 1.563 1.5621 1.563 4.0947 0 5.6568L100 107.657v30.686l29.172-29.171c1.562-1.563 4.094-1.563 5.656 0 1.563 1.562 1.563 4.094 0 5.656L100 149.657v19.216z"/>
</svg>