<svg xmlns="http://www.w3.org/2000/svg" width="192" height="192" fill="#000" viewBox="0 0 192 192">
  <path fill-rule="evenodd" d="M93.6473.765056c1.4026-1.020075 3.3028-1.020075 4.7054 0L186.353 64.7651C187.388 65.5178 188 66.7203 188 68v16c0 2.2091-1.791 4-4 4h-4v64h4c2.209 0 4 1.791 4 4v12c2.209 0 4 1.791 4 4v16c0 2.209-1.791 4-4 4H4c-2.20914 0-4-1.791-4-4v-16c0-2.209 1.79086-4 4-4v-12c0-2.209 1.79086-4 4-4h4V88H8c-2.20914 0-4-1.7909-4-4V68c0-1.2797.61234-2.4822 1.64731-3.2349L93.6473.765056zM20 88v64h8V88h-8zm16 0v64h24V88H36zm144-8v-8H12v8h168zM20.3007 64H171.699L96 8.94599 20.3007 64zM156 88h-24v64h24V88zm8 64h8V88h-8v64zm-152 8v8h168v-8H12zm172 16H8v8h176v-8zM84 152h24V88H84v64zm-8-64h-8v64h8V88zm40 0v64h8V88h-8zM96 36c-4.4183 0-8 3.5817-8 8s3.5817 8 8 8c4.418 0 8-3.5817 8-8s-3.582-8-8-8zm-16 8c0-8.8366 7.1634-16 16-16 8.837 0 16 7.1634 16 16s-7.163 16-16 16c-8.8366 0-16-7.1634-16-16z"/>
</svg>