<svg xmlns="http://www.w3.org/2000/svg" width="192" height="192" fill="#000" viewBox="0 0 192 192">
  <path fill-rule="evenodd" d="M84 8.81087V59.9348C87.7747 58.6793 91.8105 58 96 58c4.189 0 8.225.6793 12 1.9348V8.81087C104.078 8.27635 100.072 8 96 8c-4.0723 0-8.0781.27635-12 .81087zm32 1.47093v53.4017c4.996 3.0977 9.219 7.3206 12.316 12.3165h53.402c-7.561-32.5377-33.18-58.1573-65.718-65.7182zM183.189 84h-51.124c1.256 3.7748 1.935 7.8105 1.935 12 0 4.189-.679 8.225-1.935 12h51.124c.535-3.922.811-7.928.811-12 0-4.0723-.276-8.0781-.811-12zm-1.471 32h-53.402c-3.097 4.996-7.32 9.219-12.316 12.316v53.402c32.538-7.561 58.157-33.18 65.718-65.718zM108 183.189v-51.124c-3.775 1.256-7.811 1.935-12 1.935-4.1895 0-8.2253-.679-12-1.935v51.124c3.9219.535 7.9277.811 12 .811 4.072 0 8.078-.276 12-.811zm-32-1.471v-53.402c-4.9959-3.097-9.2188-7.32-12.3165-12.316H10.2818C17.8427 148.538 43.4623 174.157 76 181.718zM8.81087 108H59.9348C58.6793 104.225 58 100.189 58 96c0-4.1895.6793-8.2253 1.9348-12H8.81087C8.27635 87.9219 8 91.9277 8 96c0 4.072.27635 8.078.81087 12zm1.47093-32h53.4017C66.7812 71.0041 71.0041 66.7812 76 63.6835V10.2818C43.4623 17.8427 17.8427 43.4623 10.2818 76zM79.3091 1.44653C84.7325.495465 90.31 0 96 0c5.69 0 11.268.495465 16.691 1.44653 39.646 6.95239 70.91 38.21667 77.862 77.86257C191.505 84.7325 192 90.31 192 96c0 5.69-.495 11.268-1.447 16.691-6.952 39.646-38.216 70.91-77.862 77.862C107.268 191.505 101.69 192 96 192c-5.69 0-11.2675-.495-16.6909-1.447-39.6459-6.952-70.91018-38.216-77.86257-77.862C.495465 107.268 0 101.69 0 96c0-5.69.495465-11.2675 1.44653-16.6909C8.39892 39.6632 39.6632 8.39892 79.3091 1.44653zM96 66c-5.1109 0-9.9121 1.2748-14.115 3.5204-5.2448 2.8024-9.5622 7.1198-12.3646 12.3646C67.2748 86.0879 66 90.8891 66 96c0 5.111 1.2748 9.912 3.5204 14.115 2.8024 5.245 7.1198 9.562 12.3646 12.365C86.0879 124.725 90.8891 126 96 126c5.111 0 9.912-1.275 14.115-3.52 5.245-2.803 9.562-7.12 12.365-12.365 2.245-4.203 3.52-9.004 3.52-14.115 0-5.1109-1.275-9.9121-3.52-14.115-2.803-5.2448-7.12-9.5622-12.365-12.3646C105.912 67.2748 101.111 66 96 66z"/>
</svg>