<svg xmlns="http://www.w3.org/2000/svg" width="193" height="192" fill="#000" viewBox="0 0 193 192">
  <path fill-rule="evenodd" d="M60.0011 36c0-19.8823 16.1177-36 36-36 19.8819 0 35.9999 16.1177 35.9999 36v20h8c2.209 0 4 1.7909 4 4v12c0 2.2091-1.791 4-4 4h-7.86l3.725 108h52.135c2.209 0 4 1.791 4 4s-1.791 4-4 4H4.00109c-2.20914 0-4.00000475-1.791-4.00000475-4S1.79195 184 4.00109 184H56.1366l1.5813-45.858c.0004-.015.0008-.031.0014-.047l1.2492-36.227c.0005-.015.0012-.031.0019-.047L59.8608 76h-7.8597c-2.2092 0-4-1.7909-4-4V60c0-2.2091 1.7908-4 4-4h8V36zm8 20h24V40h-24v16zm.2835-24h55.4334c-1.941-13.5692-13.611-24-27.7169-24-14.1059 0-25.7755 10.4308-27.7165 24zm55.7164 8h-24v16h24V40zM56.0011 64v4h79.9999v-4H56.0011zm11.8644 12l-.7304 21.1826 57.3719-10.4314L124.137 76H67.8655zm56.9205 18.8318L66.8529 105.365l-.967 28.045 59.8551-10.883-.955-27.6952zM65.6037 141.592l60.4163-10.985L127.861 184h-15.86v-20c0-8.837-7.163-16-15.9999-16-8.8366 0-16 7.163-16 16v20H64.1414l1.4623-42.408zM88.0011 184h15.9999v-20c0-4.418-3.582-8-7.9999-8-4.4183 0-8 3.582-8 8v20zM.206352 26.7351C.904943 24.6393 3.17022 23.5067 5.266 24.2053l36 12c2.0958.6986 3.2284 2.9638 2.5298 5.0596-.6986 2.0958-2.9639 3.2284-5.0596 2.5298l-36.00003-12C.640401 31.0961-.492239 28.8309.206352 26.7351zm191.589648 0c.698 2.0958-.434 4.361-2.53 5.0596l-36 12c-2.096.6986-4.361-.434-5.06-2.5298-.698-2.0958.434-4.361 2.53-5.0596l36-12c2.096-.6986 4.361.434 5.06 2.5298zm-148.0002 24c.6986 2.0958-.434 4.361-2.5298 5.0596l-36 12c-2.09578.6986-4.361057-.434-5.059648-2.5298-.698591-2.0958.434049-4.361 2.529818-5.0596l36.00003-12c2.0957-.6986 4.361.434 5.0596 2.5298zm104.4102 0c.699-2.0958 2.964-3.2284 5.06-2.5298l36 12c2.096.6986 3.228 2.9638 2.53 5.0596-.699 2.0958-2.964 3.2284-5.06 2.5298l-36-12c-2.096-.6986-3.228-2.9638-2.53-5.0596z"/>
</svg>