<svg xmlns="http://www.w3.org/2000/svg" width="192" height="192" fill="#000" viewBox="0 0 192 192">
  <path fill-rule="evenodd" d="M78 8c-2.7614 0-5 2.2386-5 5v26h46V13c0-2.7614-2.239-4.99999-5-5H78zm49 31.6828V13c0-7.1797-5.82-12.99999428-13-12.99999523L78 0c-7.1797-9.5e-7-13 5.8203-13 13v26.6828C60.3392 41.3302 57 45.7751 57 51v75c0 6.627 5.3726 12 12 12h6v6c0 4.101 2.4682 7.625 6 9.168V188c0 2.209 1.7909 4 4 4 2.2091 0 4-1.791 4-4v-34h14v34c0 2.209 1.791 4 4 4s4-1.791 4-4v-34.832c3.532-1.543 6-5.067 6-9.168v-6h6c6.627 0 12-5.373 12-12V51c0-5.2249-3.339-9.6698-8-11.3172zM109 138H83v6c0 1.105.8954 2 2 2h22c1.105 0 2-.895 2-2v-6zm-30.0048-8H123c2.209 0 4-1.791 4-4V51c0-2.2091-1.791-4-4-4H69c-2.2091 0-4 1.7909-4 4v75c0 2.209 1.7909 4 4 4h9.9952zM83 12c2.2091 0 4 1.7909 4 4v15c0 2.2091-1.7909 4-4 4-2.2091 0-4-1.7909-4-4V16c0-2.2091 1.7909-4 4-4zm13 0c2.2091 0 4 1.7909 4 4v15c0 2.2091-1.7909 4-4 4-2.2091 0-4-1.7909-4-4V16c0-2.2091 1.7909-4 4-4zm13 0c2.209 0 4 1.7909 4 4v15c0 2.2091-1.791 4-4 4s-4-1.7909-4-4V16c0-2.2091 1.791-4 4-4z"/>
</svg>