<svg xmlns="http://www.w3.org/2000/svg" width="192" height="192" fill="#000" viewBox="0 0 192 192">
  <path fill-rule="evenodd" d="M98.1984 16.0938c21.4586-21.4584 56.2496-21.4584 77.7076 0 21.459 21.4584 21.459 56.2494 0 77.7078l-8.059 8.0594c-1.563 1.562-4.095 1.562-5.657 0-1.562-1.562-1.562-4.0945 0-5.6566l8.059-8.0596c18.335-18.3343 18.335-48.0599 0-66.3941-18.334-18.33426-48.06-18.33425-66.394 0L72.8566 52.7493c-18.3343 18.3342-18.3343 48.0597 0 66.3937 5.2709 5.271 11.4737 9.021 18.0735 11.261 2.092.709 3.2126 2.981 2.5028 5.073-.7097 2.092-2.981 3.212-5.073 2.502-7.7365-2.624-15.0022-7.021-21.1602-13.179-21.4584-21.458-21.4584-56.2491 0-77.7075l30.9987-30.9987zm.3687 40.4296c.7097-2.092 2.9809-3.2125 5.0729-2.5028 7.737 2.6248 15.002 7.0211 21.16 13.1791 21.459 21.4584 21.459 56.2493 0 77.7083l-30.9984 30.998c-21.4584 21.459-56.2494 21.459-77.7078 0-21.45841-21.458-21.4584-56.249 0-77.7076l8.0597-8.0597c1.5621-1.5621 4.0947-1.5621 5.6568 0s1.5621 4.0948 0 5.6569l-8.0596 8.0594c-18.33425 18.334-18.33426 48.06 0 66.394 18.3342 18.335 48.0598 18.335 66.3941 0l30.9982-30.998c18.335-18.335 18.335-48.0602 0-66.3944-5.271-5.2709-11.473-9.021-18.073-11.2601-2.0921-.7098-3.2127-2.9811-2.5029-5.0731z"/>
</svg>