<svg xmlns="http://www.w3.org/2000/svg" width="193" height="192" fill="#000" viewBox="0 0 193 192">
  <path fill-rule="evenodd" d="M97.26.203316c2.0969.695171 3.233 2.958604 2.5381 5.055514L64.8342 110.724l53.4908-18.5041c2.088-.7222 4.366.3848 5.088 2.4725.722 2.0878-.384 4.3657-2.472 5.0879L61.6642 120.286 40.5415 184H188.001c2.209 0 4 1.791 4 4s-1.791 4-4 4H35.0013c-1.2846 0-2.4911-.617-3.243-1.658-.752-1.042-.958-2.381-.5538-3.601l20.9398-63.162L5.30876 139.78c-2.08775.723-4.365676-.384-5.087882-2.472-.722206-2.088.384789-4.366 2.472542-5.088l52.62078-18.203L92.2045 2.74139C92.8997.644479 95.1631-.491855 97.26.203316z"/>
</svg>