<svg xmlns="http://www.w3.org/2000/svg" width="192" height="192" fill="#000" viewBox="0 0 192 192">
  <path fill-rule="evenodd" d="M132 13c-14.353 0-26 11.6558-26 26.0471 0 2.646 1.038 6.8146 3.033 12.136 1.948 5.1975 4.644 11.0779 7.601 16.9799 5.429 10.8335 11.621 21.5148 15.366 27.7838 3.745-6.269 9.937-16.9503 15.366-27.7838 2.957-5.902 5.653-11.7824 7.601-16.9799 1.995-5.3214 3.033-9.49 3.033-12.136C158 24.6558 146.353 13 132 13zm33.768 22.0498C163.792 18.1343 149.432 5 132 5c-17.432 0-31.792 13.1343-33.7681 30.0498H12c-6.62742 0-12 5.3726-12 12V175c0 6.627 5.37258 12 12 12h168c6.627 0 12-5.373 12-12V47.0498c0-6.6274-5.373-12-12-12h-14.232zm-.14 8c-.568 3.3516-1.736 7.1159-3.17 10.9411-2.086 5.5661-4.919 11.7255-7.94 17.7558-6.047 12.0684-12.986 23.8882-16.604 29.8933-2.7 4.48-9.128 4.48-11.828 0-3.618-6.0051-10.557-17.8249-16.604-29.8933-3.021-6.0303-5.854-12.1897-7.94-17.7558-1.434-3.8252-2.6021-7.5895-3.1695-10.9411H80.0002L80.0001 131H184V47.0498c0-2.2091-1.791-4-4-4h-14.372zM184 139H80.0001L80 179h100c2.209 0 4-1.791 4-4v-36zM72 179l.0001-40H8v36c0 2.209 1.79086 4 4 4h60zM8 131h64.0001l.0001-87.9502H12c-2.20914 0-4 1.7909-4 4V131zM132 30.5c-4.694 0-8.5 3.8056-8.5 8.5s3.806 8.5 8.5 8.5 8.5-3.8056 8.5-8.5-3.806-8.5-8.5-8.5zM115.5 39c0-9.1127 7.387-16.5 16.5-16.5s16.5 7.3873 16.5 16.5-7.387 16.5-16.5 16.5-16.5-7.3873-16.5-16.5z"/>
</svg>