<svg xmlns="http://www.w3.org/2000/svg" width="192" height="192" fill="#000" viewBox="0 0 192 192">
  <path fill-rule="evenodd" d="M96 8C65.078 8 40 33.1083 40 64.0942c0 6.0602 2.308 14.9726 6.3198 25.6759 3.9653 10.5789 9.4264 22.4799 15.373 34.3479 11.8894 23.729 25.5844 47.063 32.7577 58.968.7341 1.219 2.3649 1.219 3.099 0 7.1735-11.905 20.8685-35.239 32.7575-58.968 5.947-11.868 11.408-23.769 15.373-34.3479 4.012-10.7033 6.32-19.6157 6.32-25.6759C152 33.1083 126.922 8 96 8zM32 64.0942C32 28.7019 60.6479 0 96 0c35.352 0 64 28.7019 64 64.0942 0 7.5966-2.772 17.6595-6.829 28.4837-4.103 10.9481-9.7 23.1271-15.711 35.1241-12.026 24-25.843 47.538-33.058 59.513-3.844 6.38-12.9596 6.38-16.8039 0-7.2149-11.975-21.032-35.513-33.0577-59.513-6.0109-11.997-11.6082-24.176-15.7117-35.1241C34.7716 81.7537 32 71.6908 32 64.0942zM95.7079 32.5c1.4861 0 2.8498.824 3.541 2.1396l8.4731 16.1283 19.426 2.6515c1.537.2098 2.814 1.2895 3.277 2.7702.462 1.4807.027 3.0955-1.117 4.1431l-13.914 12.7409 3.233 17.7079c.271 1.4875-.319 3.001-1.526 3.9117-1.207.9107-2.825 1.0628-4.18.3933l-17.2131-8.5006-17.2128 8.5006c-1.3557.6695-2.9732.5174-4.1803-.3933-1.207-.9107-1.7974-2.4242-1.5258-3.9117l3.2332-17.7079-13.9145-12.7409c-1.1441-1.0476-1.5794-2.6624-1.1167-4.1431.4628-1.4807 1.7399-2.5604 3.277-2.7702l19.4252-2.6515 8.4736-16.1283c.6913-1.3156 2.0549-2.1396 3.5411-2.1396zm0 12.6003l-5.1851 9.8691c-1.1044 2.102-3.1784 3.3743-5.3481 3.6705l-11.374 1.5525 8.1576 7.4696c1.6358 1.4978 2.5006 3.744 2.078 6.0586l-1.948 10.669 10.3422-5.1076c2.0537-1.0142 4.501-1.0142 6.5547 0l10.3418 5.1076-1.948-10.669c-.422-2.3146.443-4.5608 2.078-6.0586l8.158-7.4696-11.374-1.5525c-2.17-.2962-4.244-1.5685-5.348-3.6705l-5.1851-9.8691z"/>
</svg>