<svg xmlns="http://www.w3.org/2000/svg" width="192" height="192" fill="#000" viewBox="0 0 192 192">
  <path fill-rule="evenodd" d="M96 8C65.078 8 40 33.1083 40 64.0942c0 6.0602 2.308 14.9726 6.3198 25.6759 3.9653 10.5789 9.4264 22.4799 15.373 34.3479 11.8894 23.729 25.5844 47.063 32.7577 58.968.7341 1.219 2.3649 1.219 3.099 0 7.1735-11.905 20.8685-35.239 32.7575-58.968 5.947-11.868 11.408-23.769 15.373-34.3479 4.012-10.7033 6.32-19.6157 6.32-25.6759C152 33.1083 126.922 8 96 8zM32 64.0942C32 28.7019 60.6479 0 96 0c35.352 0 64 28.7019 64 64.0942 0 7.5966-2.772 17.6595-6.829 28.4837-4.103 10.9481-9.7 23.1271-15.711 35.1241-12.026 24-25.843 47.538-33.058 59.513-3.844 6.38-12.9596 6.38-16.8039 0-7.2149-11.975-21.032-35.513-33.0577-59.513-6.0109-11.997-11.6082-24.176-15.7117-35.1241C34.7716 81.7537 32 71.6908 32 64.0942zM96 43c-11.598 0-21 9.402-21 21s9.402 21 21 21 21-9.402 21-21-9.402-21-21-21zM67 64c0-16.0163 12.9837-29 29-29 16.016 0 29 12.9837 29 29s-12.984 29-29 29c-16.0163 0-29-12.9837-29-29z"/>
</svg>