<svg xmlns="http://www.w3.org/2000/svg" width="192" height="192" fill="#000" viewBox="0 0 192 192">
  <path fill-rule="evenodd" d="M96 8C65.078 8 40 33.1083 40 64.0942c0 6.0602 2.308 14.9726 6.3198 25.6759 3.9653 10.5789 9.4264 22.4799 15.373 34.3479 11.8894 23.729 25.5844 47.063 32.7577 58.968.7341 1.219 2.3649 1.219 3.099 0 7.1735-11.905 20.8685-35.239 32.7575-58.968 5.947-11.868 11.408-23.769 15.373-34.3479 4.012-10.7033 6.32-19.6157 6.32-25.6759C152 33.1083 126.922 8 96 8zM32 64.0942C32 28.7019 60.6479 0 96 0c35.352 0 64 28.7019 64 64.0942 0 7.5966-2.772 17.6595-6.829 28.4837-4.103 10.9481-9.7 23.1271-15.711 35.1241-12.026 24-25.843 47.538-33.058 59.513-3.844 6.38-12.9596 6.38-16.8039 0-7.2149-11.975-21.032-35.513-33.0577-59.513-6.0109-11.997-11.6082-24.176-15.7117-35.1241C34.7716 81.7537 32 71.6908 32 64.0942zm49.6566-18.3976c-7.1509 0-12.96 5.7778-12.96 12.872 0 4.3638.9491 7.6793 4.6855 12.2929 3.9059 4.8227 10.675 10.8272 22.3252 20.268 11.6517-9.4405 18.4217-15.4443 22.3277-20.2677 3.734-4.6116 4.684-7.9278 4.684-12.2932 0-7.0654-5.78-12.872-12.96-12.872-2.449 0-4.326.4461-5.971 1.2444-1.68.8152-3.325 2.0978-5.1742 4.0529-.7555.7988-1.8065 1.2513-2.9059 1.2513-1.0995 0-2.1505-.4525-2.906-1.2513-1.8493-1.9551-3.4939-3.2377-5.1741-4.0529-1.6451-.7983-3.522-1.2444-5.9712-1.2444zm15.8287 46.9347l-.0028-.0024zM60.6966 58.5686c0-11.5654 9.4439-20.872 20.96-20.872 3.5035 0 6.5982.6566 9.4635 2.0469 1.6563.8036 3.1669 1.8191 4.5878 3.0019 1.4208-1.1828 2.9314-2.1983 4.5881-3.0019 2.865-1.3903 5.96-2.0469 9.463-2.0469 11.571 0 20.96 9.3608 20.96 20.872 0 6.2668-1.623 11.3461-6.467 17.3279-4.591 5.6693-12.204 12.3075-24.13 21.9519l-.9404.8182c-1.9916 1.7334-4.9558 1.7334-6.9475 0l-.9229-.803C79.3753 88.21 71.758 81.5674 67.1652 75.8964c-4.8459-5.9836-6.4686-11.0621-6.4686-17.3278z"/>
</svg>