<svg xmlns="http://www.w3.org/2000/svg" width="192" height="192" fill="#000" viewBox="0 0 192 192">
  <path fill-rule="evenodd" d="M34 18C19.6465 18 8 29.6558 8 44.0471c0 2.646 1.03807 6.8146 3.0326 12.136 1.9482 5.1975 4.6447 11.0779 7.6019 16.9799C24.0627 83.9965 30.2552 94.6777 34 100.947c3.7448-6.2693 9.9373-16.9505 15.3655-27.784 2.9572-5.902 5.6537-11.7824 7.6019-16.9799C58.9619 50.8617 60 46.6931 60 44.0471 60 29.6558 48.3535 18 34 18zM0 44.0471C0 25.2493 15.2164 10 34 10s34 15.2493 34 34.0471c0 4.1824-1.5017 9.5015-3.5416 14.9438-2.0863 5.5661-4.9189 11.7255-7.9405 17.7558C50.471 88.8151 43.5319 100.635 39.914 106.64c-2.6996 4.48-9.1284 4.48-11.828 0-3.6179-6.005-10.557-17.8249-16.6039-29.8933-3.02155-6.0303-5.85423-12.1897-7.94053-17.7558C1.50169 53.5486 0 48.2295 0 44.0471zM34 35.5c-4.6944 0-8.5 3.8056-8.5 8.5s3.8056 8.5 8.5 8.5 8.5-3.8056 8.5-8.5-3.8056-8.5-8.5-8.5zM17.5 44c0-9.1127 7.3873-16.5 16.5-16.5S50.5 34.8873 50.5 44 43.1127 60.5 34 60.5 17.5 53.1127 17.5 44zM158 44c-14.353 0-26 11.6558-26 26.0471 0 2.646 1.038 6.8146 3.033 12.136 1.948 5.1975 4.644 11.0779 7.601 16.9799 5.429 10.834 11.621 21.515 15.366 27.784 3.745-6.269 9.937-16.95 15.366-27.784 2.957-5.902 5.653-11.7824 7.601-16.9799 1.995-5.3214 3.033-9.49 3.033-12.136C184 55.6558 172.353 44 158 44zm-34 26.0471C124 51.2493 139.216 36 158 36s34 15.2493 34 34.0471c0 4.1824-1.502 9.5015-3.542 14.9438-2.086 5.5661-4.919 11.7255-7.94 17.7561-6.047 12.068-12.986 23.888-16.604 29.893-2.7 4.48-9.128 4.48-11.828 0-3.618-6.005-10.557-17.825-16.604-29.893-3.021-6.0306-5.854-12.19-7.94-17.7561-2.04-5.4423-3.542-10.7614-3.542-14.9438zM158 61.5c-4.694 0-8.5 3.8056-8.5 8.5s3.806 8.5 8.5 8.5 8.5-3.8056 8.5-8.5-3.806-8.5-8.5-8.5zM141.5 70c0-9.1127 7.387-16.5 16.5-16.5s16.5 7.3873 16.5 16.5-7.387 16.5-16.5 16.5-16.5-7.3873-16.5-16.5zM34 132c-4.4183 0-8 3.582-8 8s3.5817 8 8 8c3.8507 0 7.0742-2.725 7.8313-6.354.1101-.528.1687-1.078.1687-1.646 0-4.418-3.5817-8-8-8zm-16 8c0-8.837 7.1634-16 16-16 8.59 0 15.599 6.769 15.9834 15.264l93.6726 19.641C146.271 153.628 151.709 150 158 150c8.837 0 16 7.163 16 16s-7.163 16-16 16c-8.59 0-15.599-6.769-15.983-15.264l-93.6732-19.641C45.7291 152.372 40.2913 156 34 156c-8.8366 0-16-7.163-16-16zm140 18c-3.851 0-7.074 2.725-7.831 6.354-.11.528-.169 1.078-.169 1.646 0 4.418 3.582 8 8 8s8-3.582 8-8-3.582-8-8-8z"/>
</svg>