<svg xmlns="http://www.w3.org/2000/svg" width="192" height="192" fill="#000" viewBox="0 0 192 192">
  <path fill-rule="evenodd" d="M100 46c0-25.4051 20.595-46 46-46s46 20.5949 46 46v50c0 2.2091-1.791 4-4 4s-4-1.7909-4-4V46c0-20.9868-17.013-38-38-38s-38 17.0132-38 38v46h20c6.627 0 12 5.3726 12 12v76c0 6.627-5.373 12-12 12H12c-6.62742 0-12-5.373-12-12v-76c0-6.6274 5.37258-12 12-12h88V46zm-88 54c-2.20914 0-4 1.791-4 4v76c0 2.209 1.79086 4 4 4h116c2.209 0 4-1.791 4-4v-76c0-2.209-1.791-4-4-4H12z"/>
</svg>