<svg xmlns="http://www.w3.org/2000/svg" width="192" height="192" fill="#000" viewBox="0 0 192 192">
  <path fill-rule="evenodd" d="M93.1716 9.17157c1.5621-1.56209 4.0947-1.56209 5.6568 0L111.828 22.1716c1.563 1.5621 1.563 4.0947 0 5.6568l-12.9996 13c-1.5621 1.5621-4.0947 1.5621-5.6568 0l-13-13c-1.5621-1.5621-1.5621-4.0947 0-5.6568l13-13.00003zM88.6569 25L96 32.3431 103.343 25 96 17.6569 88.6569 25zM149 10c2.209 0 4 1.7909 4 4 0 6.0751 4.925 11 11 11 2.209 0 4 1.7909 4 4 0 2.2091-1.791 4-4 4-6.075 0-11 4.9249-11 11 0 2.2091-1.791 4-4 4s-4-1.7909-4-4c0-6.0751-4.925-11-11-11-2.209 0-4-1.7909-4-4 0-2.2091 1.791-4 4-4 6.075 0 11-4.9249 11-11 0-2.2091 1.791-4 4-4zm0 15.6633c-.97 1.2454-2.091 2.3669-3.337 3.3367 1.246.9698 2.367 2.0913 3.337 3.3367.97-1.2454 2.091-2.3669 3.337-3.3367-1.246-.9698-2.367-2.0913-3.337-3.3367zM57.5153 45.5148c1.5621-1.5621 4.0948-1.5621 5.6569 0l2.8284 2.8285 2.8284-2.8285c1.5621-1.5621 4.0948-1.5621 5.6569 0s1.5621 4.0948 0 5.6569l-2.8284 2.8284 2.8284 2.8284c1.5621 1.5621 1.5621 4.0948 0 5.6569s-4.0948 1.5621-5.6569 0l-2.8284-2.8284-2.8284 2.8284c-1.5621 1.5621-4.0948 1.5621-5.6569 0s-1.5621-4.0948 0-5.6569l2.8285-2.8284-2.8285-2.8284c-1.5621-1.5621-1.5621-4.0948 0-5.6569zM113 47.1885c1.061 0 2.078.4214 2.828 1.1716l19.812 19.8113c1.562 1.5621 1.562 4.0947 0 5.6568L26.6397 182.828c-1.562 1.562-4.0947 1.562-5.6568 0L1.17157 163.017C.421428 162.267 2.4e-7 161.249 0 160.188c0-1.06.421427-2.078 1.17157-2.828L110.172 48.3601c.75-.7502 1.767-1.1716 2.828-1.1716zM86.8453 83L101 97.1544l26.154-26.1546L113 56.8453 86.8453 83zm8.4976 19.811L81.1885 88.6569 9.65686 160.188l14.15444 14.155 71.5316-71.532zM166 61c2.209 0 4 1.7909 4 4 0 9.9411 8.059 18 18 18 2.209 0 4 1.7909 4 4 0 2.2091-1.791 4-4 4-9.941 0-18 8.0589-18 18 0 2.209-1.791 4-4 4s-4-1.791-4-4c0-9.9411-8.059-18-18-18-2.209 0-4-1.7909-4-4 0-2.2091 1.791-4 4-4 9.941 0 18-8.0589 18-18 0-2.2091 1.791-4 4-4zm0 17.8627c-2.072 3.2807-4.857 6.0658-8.137 8.1373 3.28 2.0715 6.065 4.8566 8.137 8.1373 2.072-3.2807 4.857-6.0658 8.137-8.1373-3.28-2.0715-6.065-4.8566-8.137-8.1373z"/>
</svg>