<svg xmlns="http://www.w3.org/2000/svg" width="192" height="192" fill="#000" viewBox="0 0 192 192">
  <path fill-rule="evenodd" d="M124.083 27.9167c-26.5554-26.55561-69.6106-26.55561-96.1663 0-26.55561 26.5557-26.55561 69.6109 0 96.1663 26.5557 26.556 69.6109 26.556 96.1663 0 26.556-26.5554 26.556-69.6106 0-96.1663zM22.2599 22.2599c29.6798-29.67986 77.8001-29.67986 107.4801 0 28.731 28.7311 29.65 74.7427 2.755 104.5791l58.333 58.333c1.563 1.562 1.563 4.094 0 5.656-1.562 1.563-4.094 1.563-5.656 0l-58.333-58.333c-29.8364 26.895-75.848 25.976-104.5791-2.755-29.67986-29.68-29.67986-77.8003 0-107.4801z"/>
</svg>