<svg xmlns="http://www.w3.org/2000/svg" width="192" height="192" fill="#000" viewBox="0 0 192 192">
  <path fill-rule="evenodd" d="M12 28c-2.20914 0-4 1.7909-4 4v21.3774l80.8229 35.1404c4.5778 1.9903 9.7764 1.9903 14.3541 0L184 53.3774V32c0-2.2091-1.791-4-4-4H12zm172 34.1008l-77.633 33.7536c-6.6124 2.8749-14.1216 2.8749-20.7339 0L8 62.1008V160c0 2.209 1.79086 4 4 4h168c2.209 0 4-1.791 4-4V62.1008zM0 32c0-6.6274 5.37258-12 12-12h168c6.627 0 12 5.3726 12 12v128c0 6.627-5.373 12-12 12H12c-6.62742 0-12-5.373-12-12V32z"/>
</svg>