<svg xmlns="http://www.w3.org/2000/svg" width="192" height="192" fill="none" viewBox="0 0 192 192">
  <path fill="#000" fill-rule="evenodd" d="M4 18c2.20914 0 4 1.7909 4 4 0 13.3231 10.5889 24 23.5 24C44.411 46 55 35.3231 55 22c0-2.2091 1.7909-4 4-4 2.2091 0 4 1.7909 4 4v111c0 16.871 12.661 30.786 29 32.76v-25.556c0-2.209 1.7909-4 4-4 2.2091 0 4 1.791 4 4v25.556c16.339-1.974 29-15.889 29-32.76V22c0-2.2091 1.791-4 4-4s4 1.7909 4 4c0 13.3231 10.589 24 23.5 24S184 35.3231 184 22c0-2.2091 1.791-4 4-4s4 1.7909 4 4c0 17.6049-14.035 32-31.5 32-9.364 0-17.742-4.1384-23.5-10.6911V133c0 22.644-18.356 41-41 41-22.6437 0-41-18.356-41-41V43.3089C49.2425 49.8616 40.8642 54 31.5 54 14.0354 54 0 39.6049 0 22c0-2.2091 1.79086-4 4-4z"/>
</svg>