<svg xmlns="http://www.w3.org/2000/svg" width="192" height="192" fill="none" viewBox="0 0 192 192">
  <path fill="#000" fill-rule="evenodd" d="M44 8c-3.3137 0-6 2.6863-6 6v12c0 3.3137 2.6863 6 6 6h104c3.314 0 6-2.6863 6-6V14c0-3.3137-2.686-6-6-6h-21v18c0 2.2091-1.791 4-4 4s-4-1.7909-4-4V8h-19v18c0 2.2091-1.7909 4-4 4-2.2091 0-4-1.7909-4-4V8H73v18c0 2.2091-1.7909 4-4 4-2.2091 0-4-1.7909-4-4V8H44zm0-8c-7.732 0-14 6.26801-14 14v12c0 7.6903 6.2006 13.9323 13.875 13.9995v7.0159c0 1.0272-.3952 2.0151-1.1037 2.7589L25.3112 68.1036C23.1856 70.335 22 73.2986 22 76.3803V180c0 6.627 5.3726 12 12 12h124c6.627 0 12-5.373 12-12V76.3803c0-3.0817-1.186-6.0453-3.311-8.2767l-17.46-18.3293c-.709-.7438-1.104-1.7317-1.104-2.7589v-7.0159C155.799 39.9323 162 33.6903 162 26V14c0-7.73199-6.268-14-14-14H44zm96.125 40h-88.25v7.0154c0 3.0817-1.1856 6.0453-3.3112 8.2767L31.1037 73.6214C30.3952 74.3652 30 75.3531 30 76.3803V155h132V76.3803c0-1.0272-.395-2.0151-1.104-2.7589l-17.46-18.3293c-2.125-2.2314-3.311-5.195-3.311-8.2767V40zM162 163H30v17c0 2.209 1.7909 4 4 4h124c2.209 0 4-1.791 4-4v-17zM96 62c2.2091 0 4 1.7909 4 4v26h26c2.209 0 4 1.7909 4 4 0 2.2091-1.791 4-4 4h-26v26c0 2.209-1.7909 4-4 4-2.2091 0-4-1.791-4-4v-26H66c-2.2091 0-4-1.7909-4-4 0-2.2091 1.7909-4 4-4h26V66c0-2.2091 1.7909-4 4-4z"/>
</svg>