<svg xmlns="http://www.w3.org/2000/svg" width="192" height="192" fill="#000" viewBox="0 0 192 192">
  <path fill-rule="evenodd" d="M156.431 0c1.06 0 2.078.421427 2.828 1.17157 43.655 43.65463 43.655 114.43243 0 158.08743-43.655 43.655-114.4328 43.655-158.08743 0C.421427 158.509 0 157.491 0 156.431c0-1.061.421427-2.079 1.17157-2.829L153.602 1.17157C154.352.421427 155.37 0 156.431 0zm-17.467 27.1236l-13.503 13.503 28.756 11.3599c-3.404-8.9407-8.487-17.3894-15.253-24.8629zm18.27 34.6562l-37.939-14.9873-33.4229 33.4228 53.0919 53.0907c18.052-19.942 24.147-46.8629 18.27-71.5262zm-23.927 77.1832L80.2153 85.8722 47.367 118.72l29.9018 40.622c19.9994.74 40.2132-6.053 56.0382-20.379zm-66.8076 19.244l-24.8542-33.765-14.5208 14.521c11.4182 10.337 25.1186 16.75 39.375 19.244zm-45.0383-13.581c15.2255 13.909 34.1971 21.448 53.4726 22.611 24.0294 1.45 48.5603-7.007 66.9283-25.375 22.784-22.784 30.316-55.0381 22.616-84.074-3.491-13.1613-10.11-25.6652-19.851-36.3277l11.75-11.74994C194.111 50.4163 193.186 114.019 153.602 153.602c-39.583 39.584-103.1857 40.509-143.89164 2.775l11.75074-11.751z"/>
</svg>