<svg xmlns="http://www.w3.org/2000/svg" width="192" height="192" fill="#000" viewBox="0 0 192 192">
  <path fill-rule="evenodd" d="M64.6586 6.35761c5.31-5.20756 13.8416-5.1334 19.06.16609L177.112 101.37c20.098 20.41 19.811 53.219-.64 73.276-20.447 20.052-53.308 19.766-73.402-.64L3.8688 73.2421c-5.22281-5.304-5.14809-13.8323.16643-19.0442 5.31-5.2076 13.84157-5.1335 19.05997.166l58.6255 59.5581c.0002 0-.0001 0 0 0 2.1227 2.155 5.5981 2.186 7.7582.067 2.1557-2.114 2.1857-5.568.0676-7.719l-73.456-74.5982c-5.416-5.5002-5.3385-14.3438.1726-19.7486 5.5065-5.40033 14.3541-5.32342 19.7656.1723l59.4644 60.3888c2.1227 2.1556 5.5979 2.186 7.7579.0674 2.156-2.1141 2.186-5.5684.068-7.7195L64.4922 25.4019c-5.2228-5.304-5.1481-13.8323.1664-19.04429zm13.3597 5.77919c-2.1227-2.15566-5.5979-2.18606-7.7582-.0675-2.1557 2.1141-2.1857 5.5684-.0676 7.7195l38.8265 39.4303c5.223 5.3041 5.148 13.8323-.166 19.0443-5.31 5.2076-13.8418 5.1334-19.0602-.1661L30.3284 17.7085c-2.3158-2.3518-6.107-2.3849-8.4638-.0736-2.3523 2.3069-2.3852 6.0765-.0738 8.4238l73.456 74.5983c5.2232 5.304 5.1482 13.832-.1664 19.044-5.31 5.207-13.8416 5.133-19.06-.166L17.3949 59.977c-.0002-.0002.0001.0002 0 0-2.1227-2.1551-5.5981-2.1859-7.75818-.0675-2.15571 2.1142-2.18578 5.5685-.0676 7.7196L108.77 168.393c16.998 17.262 44.803 17.505 62.1.541 17.293-16.959 17.535-44.694.542-61.951L78.0183 12.1368zM155.014 124.412c-7.803-7.788-20.458-7.788-28.261 0-7.799 7.783-7.799 20.398 0 28.18 7.803 7.788 20.458 7.788 28.261 0 7.798-7.782 7.798-20.397 0-28.18zm-33.912-5.663c10.926-10.904 28.637-10.904 39.563 0 10.93 10.908 10.93 28.598 0 39.506-10.926 10.904-28.637 10.904-39.563 0-10.931-10.908-10.931-28.598 0-39.506z"/>
</svg>