<svg xmlns="http://www.w3.org/2000/svg" width="192" height="192" fill="#000" viewBox="0 0 192 192">
  <path fill-rule="evenodd" d="M54 42C54 18.804 72.804 0 96 0c21.847 0 39.794 16.6772 41.812 37.998.208 2.1993-1.406 4.151-3.606 4.3591-2.199.2081-4.151-1.406-4.359-3.6053C128.214 21.4998 113.681 8 96 8 77.2223 8 62 23.2223 62 42v68c0 1.211.0631 2.405.186 3.581.2296 2.197-1.3654 4.164-3.5625 4.394-2.1972.23-4.1645-1.365-4.3942-3.563C54.0776 112.961 54 111.489 54 110V42zM190.829 1.17157c1.562 1.5621 1.562 4.09476 0 5.65686L6.82843 190.828c-1.5621 1.563-4.09476 1.563-5.65686 0-1.562095-1.562-1.562094-4.094 0-5.656L185.172 1.17157c1.562-1.562095 4.095-1.562093 5.657 0zM38 72c2.2091 0 4 1.7909 4 4v34c0 6.727 1.228 13.157 3.4686 19.086.781 2.066-.2612 4.375-2.3277 5.156-2.0665.781-4.3748-.261-5.1557-2.328C35.4083 125.095 34 117.708 34 110V76c0-2.2091 1.7909-4 4-4zm116 0c2.209 0 4 1.7909 4 4v34c0 34.242-27.758 62-62 62-15.5348 0-29.744-5.719-40.6219-15.16-1.6684-1.448-1.847-3.975-.3989-5.643 1.448-1.668 3.9744-1.847 5.6427-.399C70.1003 159.025 82.4641 164 96 164c29.823 0 54-24.177 54-54V76c0-2.2091 1.791-4 4-4zm-20 1.8c2.209 0 4 1.7909 4 4V110c0 23.196-18.804 42-42 42-9.9612 0-19.1222-3.473-26.3226-9.27-1.7207-1.386-1.9925-3.904-.6071-5.625 1.3855-1.72 3.9035-1.992 5.6242-.607C80.5249 141.193 87.9292 144 96 144c18.778 0 34-15.222 34-34V77.8c0-2.2091 1.791-4 4-4zM51 188c0-2.209 1.7909-4 4-4h82c2.209 0 4 1.791 4 4s-1.791 4-4 4H55c-2.2091 0-4-1.791-4-4z"/>
</svg>