<svg xmlns="http://www.w3.org/2000/svg" width="192" height="192" fill="#000" viewBox="0 0 192 192">
  <path fill-rule="evenodd" d="M54 42C54 18.804 72.804 0 96 0s42 18.804 42 42v68c0 23.196-18.804 42-42 42s-42-18.804-42-42V42zM96 8C77.2223 8 62 23.2223 62 42v68c0 18.778 15.2223 34 34 34 18.778 0 34-15.222 34-34V42c0-18.7777-15.222-34-34-34zM38 72c2.2091 0 4 1.7909 4 4v34c0 29.823 24.1766 54 54 54 29.823 0 54-24.177 54-54V76c0-2.2091 1.791-4 4-4s4 1.7909 4 4v34c0 34.242-27.758 62-62 62-34.2417 0-62-27.758-62-62V76c0-2.2091 1.7909-4 4-4zm13 116c0-2.209 1.7909-4 4-4h82c2.209 0 4 1.791 4 4s-1.791 4-4 4H55c-2.2091 0-4-1.791-4-4z"/>
</svg>