<svg xmlns="http://www.w3.org/2000/svg" width="192" height="192" fill="#000"  viewBox="0 0 192 192">
  <path fill-rule="evenodd" d="M43 10c0-5.52285 4.4772-10 10-10h54c5.523 0 10 4.47715 10 10v4.932l22.468 39.0741c.348.6066.532 1.2941.532 1.9939v41h39c1.14 0 2.227.4868 2.986 1.338.759.8511 1.118 1.986.988 3.119l-10 87c-.232 2.019-1.942 3.543-3.974 3.543h-46c-2.032 0-3.742-1.524-3.974-3.543l-.972-8.457H24c-2.2091 0-4-1.791-4-4V56c0-.6998.1836-1.3873.5324-1.9939L43 14.932V10zm6.3141 10l-18.4 32h56.7718l18.4001-32H49.3141zM113 24.0245L96.9141 52h32.1719L113 24.0245zM132 60H94v112h23.135l-8.109-70.543c-.13-1.133.229-2.2679.988-3.119C110.773 97.4868 111.86 97 113 97h19V60zm-14.514 45l9.081 79h38.866l7.414-64.5H148c-2.209 0-4-1.791-4-4s1.791-4 4-4h25.767l.747-6.5h-57.028zM86 172V60H28v112h58zm23-160H51v-2c0-1.10457.8954-2 2-2h54c1.105 0 2 .89543 2 2v2z"/>
</svg>