<svg xmlns="http://www.w3.org/2000/svg" width="192" height="192" fill="#000" viewBox="0 0 192 192">
  <path fill-rule="evenodd" d="M59 10c0-5.52285 4.4772-10 10-10h54c5.523 0 10 4.47715 10 10v4.932l22.468 39.0741c.348.6066.532 1.2941.532 1.9939v132c0 2.209-1.791 4-4 4H40c-2.2091 0-4-1.791-4-4V56c0-.6998.1836-1.3873.5324-1.9939L59 14.932V10zm6.3141 10l-18.4 32h56.7719l18.4-32H65.3141zM129 24.0245L112.914 52h32.172L129 24.0245zM148 60h-38v124h38V60zm-46 124V60H44v124h58zm23-172H67v-2c0-1.10457.8954-2 2-2h54c1.105 0 2 .89543 2 2v2z"/>
</svg>