<svg xmlns="http://www.w3.org/2000/svg" width="192" height="192" fill="#000" viewBox="0 0 192 192">
  <path fill-rule="evenodd" d="M60.2544 5.80768c1.1694.88292 1.7625 2.33461 1.5458 3.78382-.6287 4.2053-.9438 8.4837-.9438 12.8034 0 48.0756 39.5636 87.1541 88.4936 87.1541h.005c12.773.016 25.394-2.701 36.993-7.961 1.334-.605 2.892-.432 4.062.451 1.169.882 1.762 2.333 1.546 3.782C185.075 151.965 144.736 187 96.4939 187 43.2555 187 3e-8 144.449 3e-8 91.8414-.00049016 73.6275 5.2978 55.7998 15.2608 40.4714c9.9626-15.3278 24.1697-27.5112 40.9311-35.11413 1.3344-.60531 2.893-.43251 4.0625.45041zM53.078 15.8723c-12.5909 6.9858-23.284 16.9189-31.1096 28.9588C12.8451 58.8678 7.99955 75.1821 8 91.8413 8 139.922 47.5639 179 96.4939 179c41.8161 0 77.0491-28.637 86.1891-67.286-10.658 3.867-21.944 5.849-33.338 5.835-53.2357-.003-96.4886-42.5525-96.4886-95.1541 0-2.1829.0738-4.3582.2216-6.5226z"/>
</svg>