<svg xmlns="http://www.w3.org/2000/svg" width="192" height="192" fill="#000" viewBox="0 0 192 192">
  <path fill-rule="evenodd" d="M82 42c0-2.2091 1.7909-4 4-4h24c1.4 0 2.697.7315 3.422 1.9288l27.47 45.3852C145.486 83.187 150.604 82 156 82c19.882 0 36 16.1177 36 36 0 19.882-16.118 36-36 36s-36-16.118-36-36c0-11.621 5.506-21.9554 14.052-28.5376l-5.557-9.18-22.065 36.7756c-.723 1.205-2.025 1.942-3.43 1.942H71.9864C71.4567 138.42 55.5478 154 36 154c-19.8823 0-36-16.118-36-36 0-16.912 11.6612-31.0996 27.3814-34.9618L13.1716 68.8284C12.4214 68.0783 12 67.0609 12 66v-8c0-2.2091 1.7909-4 4-4h36c1.0609 0 2.0783.4214 2.8284 1.1716l14.6569 14.6568C70.2354 70.5786 71.2528 71 72.3137 71h.3726c1.0609 0 2.0783-.4214 2.8284-1.1716l4.6569-4.6568C80.9217 64.4214 81.9391 64 83 64h35.64l-10.895-18H86c-2.2091 0-4-1.7909-4-4zm41.482 30H84.6569l-3.4853 3.4853C78.9211 77.7357 75.8689 79 72.6863 79h-.3726c-3.1826 0-6.2348-1.2643-8.4853-3.5147L50.3431 62H20v2.3431l17.6961 17.6961C54.4234 82.8149 68.1658 95.0043 71.3192 111h29.4158l23.075-38.4582-.328-.5418zm-60.3634 39C60.0114 98.9248 49.0461 90 36 90c-15.464 0-28 12.536-28 28s12.536 28 28 28c15.1292 0 27.4559-11.999 27.9825-27H36c-2.2091 0-4-1.791-4-4s1.7909-4 4-4h27.1186zm75.1094-14.6378C131.983 101.497 128 109.284 128 118c0 15.464 12.536 28 28 28s28-12.536 28-28-12.536-28-28-28c-3.879 0-7.573.7886-10.932 2.2142l14.354 23.7148c1.144 1.89.539 4.349-1.351 5.493-1.89 1.144-4.349.539-5.493-1.351l-14.35-23.7088z"/>
</svg>