<svg xmlns="http://www.w3.org/2000/svg" width="192" height="192" fill="#000" viewBox="0 0 192 192">
  <path d="M160 92c2.209 0 4-1.7909 4-4 0-2.2091-1.791-4-4-4s-4 1.7909-4 4c0 2.2091 1.791 4 4 4z"/>
  <path fill-rule="evenodd" d="M11.9994 119h24.3469c-16.6942-16.749-15.1645-44.2878 4.7198-59.3459L59.341 45.8148c22.6921-17.1844 54.162-17.0758 76.734.2651l7.012 5.3873c3.181-3.9529 8.1-6.4672 13.587-6.4672 9.476 0 17.314 7.5317 17.314 17.0135 0 3.9351-1.36 7.5438-3.621 10.4119l12.274 9.4297c12.734 9.7832 12.428 27.7519-.643 37.0899l-4.992 3.567c-4.087 2.919-8.99 4.488-14.018 4.488H11.9994C9.80294 127 8 128.816 8 131s1.80294 4 3.9994 4h43.9967c6.6826 0 11.9994 5.533 11.9994 12.067 0 6.622-5.4039 11.933-11.9994 11.933H33.9978c-2.2092 0-4-1.791-4-4s1.7908-4 4-4h21.9983c2.2404 0 3.9994-1.792 3.9994-3.933 0-2.228-1.8461-4.067-3.9994-4.067H11.9994C5.35997 143 0 137.578 0 131s5.35997-12 11.9994-12zm52.1713-66.8076c19.8194-15.0089 47.3163-14.9138 67.0303.2315l46.566 35.7752c8.477 6.5119 8.279 18.0229-.419 24.2359l-4.993 3.567c-2.727 1.948-6.003 2.998-9.367 2.998H144.99c0-4.971-2.911-9.425-7.744-11.17l-.017-.006-12.896-4.592c-2.081-.741-4.369.345-5.11 2.426-.741 2.081.345 4.369 2.426 5.11l12.879 4.586.008.003c1.502.546 2.454 1.876 2.454 3.643h-35.997c0-4.971-2.911-9.425-7.7441-11.17l-.0168-.006-1.833-.653c5.7927-3.962 9.5939-10.6228 9.5939-18.171 0-12.15-9.8488-22-21.9986-22-2.2092 0-4 1.7909-4 4 0 2.2091 1.7908 4 4 4 7.7309 0 13.9986 6.2677 13.9986 14s-6.2677 14-13.9986 14c-1.9464 0-3.6103 1.401-3.9416 3.319-.3314 1.918.7661 3.796 2.5997 4.449l12.8791 4.586.0073.003c1.5027.546 2.4541 1.876 2.4541 3.643H51.9964c-1.8086 0-3.5724-.546-5.0578-1.563-18.3107-12.538-18.7916-37.9643-1.0428-51.4052l18.2749-13.8394zm99.8523 15.3592l-14.589-11.2082C151.132 54.3163 153.73 53 156.674 53c5.23 0 9.314 4.1209 9.314 9.0135 0 2.0744-.725 4.0001-1.965 5.5381z"/>
</svg>