<svg xmlns="http://www.w3.org/2000/svg" width="192" height="192" fill="#000" viewBox="0 0 192 192">
  <path fill-rule="evenodd" d="M109.451.311938c1.485-.623707 3.199-.2958852 4.349.831752l26.986 26.45841.02.0199c14.925 14.8417 14.925 38.9142 0 53.756l-10.015 9.9583c-1.566 1.5577-4.099 1.5506-5.656-.0159-1.558-1.5665-1.551-4.0991.015-5.6568l10.015-9.9584c11.777-11.7108 11.78-30.6865.009-42.4012l-.009-.0093L115 13.5236V159c0 10.384-4.085 18.78-10.962 24.511C97.2431 189.174 88.02 192 78 192c-10.0136 0-19.4518-2.822-26.4753-8.438C44.4116 177.874 40 169.479 40 159c0-10.502 4.4342-18.681 11.6041-24.124C58.6502 129.527 68.074 127 78 127c9.9297 0 19.1398 2.529 25.959 7.925 1.085.858 2.1 1.782 3.041 2.77V3.99986c0-1.61067.966-3.064215 2.451-3.687922zM107 159c0-8.098-3.093-13.915-8.0047-17.801C93.9661 137.22 86.6762 135 78 135c-8.6798 0-16.2561 2.222-21.5586 6.248C51.2629 145.179 48 151.001 48 159c0 8.022 3.2855 14.127 8.5209 18.314C61.8459 181.572 69.4078 184 78 184c8.5859 0 15.8628-2.423 20.9163-6.635C103.888 173.222 107 167.117 107 159z"/>
</svg>