<svg xmlns="http://www.w3.org/2000/svg" width="192" height="192" fill="#000" viewBox="0 0 192 192">
  <path fill-rule="evenodd" d="M154 8c-16.569 0-30 13.4315-30 30s13.431 30 30 30c16.569 0 30-13.4315 30-30S170.569 8 154 8zm-38 30c0-20.9868 17.013-38 38-38s38 17.0132 38 38-17.013 38-38 38-38-17.0132-38-38zm-96-7c-6.6274 0-12 5.3726-12 12v129c0 6.627 5.3726 12 12 12h129c6.627 0 12-5.373 12-12V96c0-2.2091 1.791-4 4-4s4 1.7909 4 4v76c0 11.046-8.954 20-20 20H20c-11.0457 0-20-8.954-20-20V43c0-11.0457 8.95431-20 20-20h76c2.2091 0 4 1.7909 4 4 0 2.2091-1.7909 4-4 4H20z"/>
</svg>