<svg xmlns="http://www.w3.org/2000/svg" width="192" height="192" fill="#000" viewBox="0 0 192 192">
  <path d="M90 79c0 2.2091-1.7909 4-4 4-2.2091 0-4-1.7909-4-4 0-2.2091 1.7909-4 4-4 2.2091 0 4 1.7909 4 4zM106 83c2.209 0 4-1.7909 4-4 0-2.2091-1.791-4-4-4s-4 1.7909-4 4c0 2.2091 1.791 4 4 4z"/>
  <path fill-rule="evenodd" d="M34 15c0-3.3137 2.6863-6 6-6h9.0118C58.9464 9 67 17.0536 67 26.9882c0 3.3714-.9474 6.6749-2.7342 9.5338L44.3451 68.395C42.8126 70.847 42 73.6804 42 76.5719V78c0 7.732 6.268 14 14 14 3.957 0 7.4328-2.0906 9.3717-5.2359C61.351 80.8434 59 73.6918 59 66c0-20.4345 16.5655-37 37-37 20.435 0 37 16.5655 37 37 0 7.6918-2.351 14.8434-6.372 20.7641C128.567 89.9094 132.043 92 136 92c7.732 0 14-6.268 14-14v-1.4281c0-2.8915-.813-5.7249-2.345-8.1769l-19.921-31.873c-1.787-2.8589-2.734-6.1624-2.734-9.5338C125 17.0536 133.054 9 142.988 9H152c3.314 0 6 2.6863 6 6v2c0 2.2091-1.791 4-4 4s-4-1.7909-4-4h-7.012c-5.516 0-9.988 4.4719-9.988 9.9882 0 1.872.526 3.7063 1.518 5.2938l19.921 31.873c2.327 3.7235 3.561 8.026 3.561 12.4169V78c0 12.1503-9.85 22-22 22-3.862 0-7.453-1.152-10.45-3.1296C127.491 104.421 134.344 110 142.5 110c9.665 0 17.5-7.835 17.5-17.5V91c0-8.8366 7.163-16 16-16h.857C185.22 75 192 81.7797 192 90.1429 192 93.3777 189.378 96 186.143 96H185c-2.209 0-4-1.7909-4-4 0-1.7666 1.145-3.2658 2.734-3.7955-.845-3.003-3.604-5.2045-6.877-5.2045H176c-4.418 0-8 3.5817-8 8v1.5c0 14.083-11.417 25.5-25.5 25.5-12.801 0-23.399-9.433-25.223-21.7265-.419.2952-.845.582-1.277.86V105c0 14.359 11.641 26 26 26h.74c3.657 0 7.179-1.383 9.858-3.871l4.591-4.263c3.368-3.128 7.795-4.866 12.391-4.866 11.83 0 21.42 9.59 21.42 21.42v5.38c0 2.872-2.328 5.2-5.2 5.2H184c-2.209 0-4-1.791-4-4 0-1.864 1.275-3.43 3-3.874v-2.706c0-7.412-6.008-13.42-13.42-13.42-2.577 0-5.059.975-6.947 2.728l-4.591 4.263c-4.16 3.862-9.626 6.009-15.302 6.009H142c-18.778 0-34-15.222-34-34v-3.991c-.331.114-.665.223-1 .327V165c0 5.523 4.477 10 10 10 4.899 0 8.975-3.522 9.833-8.173-1.64-.499-2.833-2.024-2.833-3.827 0-2.209 1.791-4 4-4h1c3.314 0 6 2.686 6 6 0 9.941-8.059 18-18 18s-18-8.059-18-18v-62.12c-.9901.079-1.9906.12-3 .12s-2.0099-.041-3-.12V147c0 9.941-8.0589 18-18 18s-18-8.059-18-18c0-3.314 2.6863-6 6-6h1c2.2091 0 4 1.791 4 4 0 1.803-1.1934 3.328-2.8335 3.827C66.0252 153.478 70.1012 157 75 157c5.5229 0 10-4.477 10-10v-45.664c-.3354-.104-.6688-.213-1-.327V105c0 18.778-15.2223 34-34 34h-.7401c-5.6761 0-11.1423-2.147-15.3017-6.009l-4.5907-4.263c-1.8886-1.753-4.3706-2.728-6.9479-2.728C15.0082 126 9 132.008 9 139.42v2.706c1.7252.444 3 2.01 3 3.874 0 2.209-1.7909 4-4 4H6.2c-2.87187 0-5.2-2.328-5.2-5.2v-5.38C1 127.59 10.5899 118 22.4196 118c4.5966 0 9.0231 1.738 12.3915 4.866l4.5907 4.263c2.6797 2.488 6.2013 3.871 9.8581 3.871H50c14.3594 0 26-11.641 26-26v-7.8665c-.432-.278-.8579-.5648-1.2773-.86C72.8992 108.567 62.3011 118 49.5 118 35.4167 118 24 106.583 24 92.5V91c0-4.4183-3.5817-8-8-8h-.8571c-3.2731 0-6.03203 2.2015-6.87677 5.2045C9.85472 88.7342 11 90.2334 11 92c0 2.2091-1.79086 4-4 4H5.85714C2.62234 96 0 93.3777 0 90.1429 0 81.7797 6.77969 75 15.1429 75H16c8.8366 0 16 7.1634 16 16v1.5c0 9.665 7.835 17.5 17.5 17.5 8.156 0 15.0088-5.579 16.9499-13.1296C63.4531 98.848 59.8622 100 56 100c-12.1503 0-22-9.8497-22-22v-1.4281c0-4.3909 1.2339-8.6934 3.5611-12.4169l19.9207-31.873C58.4739 30.6945 59 28.8602 59 26.9882 59 21.4719 54.5281 17 49.0118 17H42c0 2.2091-1.7909 4-4 4-2.2091 0-4-1.7909-4-4v-2zm62 22c-16.0163 0-29 12.9837-29 29 0 15.8147 13.3145 29 29 29 15.817 0 29-13.2659 29-29 0-16.0163-12.984-29-29-29z"/>
</svg>