<svg xmlns="http://www.w3.org/2000/svg" width="192" height="192" fill="#000" viewBox="0 0 192 192">
  <path fill-rule="evenodd" d="M73.0509 1.29766c1.4925-1.628749 4.0227-1.739216 5.6515-.24674C86.3522 8.06076 92.3405 16.9611 95.9931 27.0373c1.7594-4.1967 4.2969-8.4264 7.9569-12.087 10.242-10.24121 24.997-11.7544 31.446-11.93017 4.273-.11644 7.7 3.31084 7.584 7.58347-.176 6.4495-1.689 21.2049-11.93 31.4461-3.538 3.5374-7.606 6.0258-11.663 7.7769C148.233 59.5758 169 86.8627 169 119c0 40.317-32.683 73-73 73-40.3168 0-73-32.683-73-73 0-38.9326 30.4776-70.7469 68.8756-72.8854-1.0023-15.6019-7.996-29.4688-18.578-39.16547-1.6287-1.49248-1.7392-4.02273-.2467-5.65147zM100.039 45.9607c1.827-.0744 4.193-.272 6.823-.7378 6.109-1.0819 13.238-3.5372 18.531-8.83 7.673-7.6734 9.315-19.1396 9.568-25.3535-6.214.2531-17.68 1.8944-25.354 9.5678-5.293 5.2928-7.748 12.4218-8.83 18.5307-.466 2.6302-.663 4.9958-.738 6.8228zM96 54c-35.8985 0-65 29.1015-65 65 0 35.899 29.1015 65 65 65 35.899 0 65-29.101 65-65 0-35.8985-29.101-65-65-65z"/>
</svg>