<svg xmlns="http://www.w3.org/2000/svg" width="192" height="192" fill="#000" viewBox="0 0 192 192">
  <path d="M96 112c8.837 0 16-7.163 16-16 0-8.8366-7.163-16-16-16-8.8366 0-16 7.1634-16 16 0 8.837 7.1634 16 16 16z"/>
  <path fill-rule="evenodd" d="M96 36c-13.5659 0-26.0803 4.5022-36.1305 12.0939-3.2664-1.3612-7.1723-.713-9.8298 1.9445-2.6573 2.6574-3.3055 6.5631-1.9446 9.8295C40.5027 69.9184 36 82.4333 36 96c0 33.137 26.8629 60 60 60 33.137 0 60-26.863 60-60 0-33.1371-26.863-60-60-60zm0 8c-11.5628 0-22.2441 3.7739-30.8794 10.1573.7646 2.9802-.0197 6.2758-2.3529 8.609-2.3333 2.3333-5.6291 3.1176-8.6094 2.3529C47.7744 73.7547 44 84.4366 44 96c0 28.719 23.2812 52 52 52 28.719 0 52-23.281 52-52 0-28.7188-23.281-52-52-52z"/>
  <path fill-rule="evenodd" d="M169.305 157.99C183.463 141.265 192 119.629 192 96c0-19.3007-5.7-37.2808-15.508-52.336 6.488-7.8568 6.057-19.508-1.295-26.8598-7.352-7.35161-19.003-7.78349-26.86-1.2956C133.282 5.70011 115.301 0 96 0 42.9807 0 0 42.9807 0 96c0 20.816 6.62507 40.084 17.8817 55.812-4.4306 6.246-3.8473 14.959 1.7499 20.556 5.5972 5.597 14.3096 6.18 20.5561 1.75C55.9153 185.375 75.184 192 96 192c23.63 0 45.266-8.538 61.992-22.697 3.104.988 6.639.251 9.101-2.211 2.463-2.463 3.2-5.997 2.212-9.102zM96 8C47.3989 8 8 47.3989 8 96c0 18.847 5.9249 36.31 16.0138 50.629 5.9531-2.861 13.3101-1.824 18.2452 3.112 4.9352 4.935 5.9724 12.292 3.1117 18.245C59.6892 178.075 77.1527 184 96 184c21.381 0 40.982-7.625 56.23-20.305-1.1-3.159-.388-6.808 2.135-9.331 2.524-2.524 6.173-3.236 9.331-2.136C176.375 136.98 184 117.381 184 96c0-17.4071-5.05-33.6243-13.766-47.2787-7.528 3.8902-17.009 2.6793-23.321-3.6328-6.313-6.3122-7.524-15.7939-3.633-23.3222C129.625 13.0505 113.408 8 96 8zm55.566 15.5979c.198-.1851.38-.3931.542-.6235.023-.0339.047-.0681.069-.1026.127-.1392.258-.2761.392-.4107 4.687-4.6863 12.285-4.6863 16.971 0s4.686 12.2843 0 16.9706c-4.686 4.6862-12.284 4.6862-16.971 0-4.323-4.3239-4.658-11.1265-1.003-15.8338z"/>
</svg>