<svg xmlns="http://www.w3.org/2000/svg" width="192" height="192" fill="#000" viewBox="0 0 192 192">
  <path fill-rule="evenodd" d="M99.5 54C92.5964 54 87 59.5964 87 66.5S92.5964 79 99.5 79c6.904 0 12.5-5.5964 12.5-12.5S106.404 54 99.5 54zM95 66.5c0-2.4853 2.0147-4.5 4.5-4.5 2.485 0 4.5 2.0147 4.5 4.5s-2.015 4.5-4.5 4.5c-2.4853 0-4.5-2.0147-4.5-4.5zM158.5 54c-6.904 0-12.5 5.5964-12.5 12.5S151.596 79 158.5 79 171 73.4036 171 66.5 165.404 54 158.5 54zM154 66.5c0-2.4853 2.015-4.5 4.5-4.5s4.5 2.0147 4.5 4.5-2.015 4.5-4.5 4.5-4.5-2.0147-4.5-4.5z" clip-rule="evenodd"/>
  <path fill-rule="evenodd" d="M129 0C94.2062 0 66.0001 28.2061 66.0001 63c0 7.7828 1.4131 15.2444 4 22.1363v12.153c0 12.1997-4.8464 23.9007-13.4731 32.5267L1.17169 185.172c-1.1439924 1.144-1.486215 2.864-.867091 4.359C.923723 191.025 2.38227 192 4.00012 192H129.5c34.518 0 62.5-27.982 62.5-62.5V63c0-34.7939-28.206-63-63-63zM48.6569 184h6.8432C85.5996 184 110 159.6 110 129.5v-6.417c-13.0311-4.117-24.2263-12.351-32.0633-23.1768-.6481 13.3688-6.2444 26.0588-15.7528 35.5668L13.657 184h23.6861l37.8285-37.828c1.5621-1.563 4.0947-1.563 5.6568 0 1.5621 1.562 1.5621 4.094 0 5.656L48.6569 184zM118 129.5v-4.458c3.574.63 7.25.958 11 .958 23.628 0 44.218-13.007 55-32.2523V129.5c0 30.1-24.4 54.5-54.5 54.5H86.1169C105.147 173.286 118 152.894 118 129.5zm11-11.5c30.376 0 55-24.6243 55-55 0-13.9944-11.327-25-25.5-25S133 49.0056 133 63v20c0 2.2091-1.791 4-4 4s-4-1.7909-4-4V63c0-13.9944-11.327-25-25.4999-25-14.1731 0-25.5 11.0056-25.5 25 0 7.0431 1.3219 13.768 3.7275 19.9467C84.0614 99.2151 97.92 111.727 115.014 116.207 119.476 117.376 124.162 118 129 118zm0-110c20.154 0 37.776 10.84 47.354 27.0076C171.176 31.8226 165.048 30 158.5 30c-12.704 0-23.825 6.86-29.5 17.22C123.325 36.86 112.204 30 99.5001 30c-6.548 0-12.6756 1.8226-17.8537 5.0076C91.2243 18.84 108.846 8 129 8z"/>
</svg>