<svg xmlns="http://www.w3.org/2000/svg" width="192" height="192" fill="#000" viewBox="0 0 192 192">
  <path fill-rule="evenodd" d="M12 8c-2.20914 0-4 1.79086-4 4v34c0 2.2091 1.79086 4 4 4h138c2.209 0 4-1.7909 4-4V12c0-2.20914-1.791-4-4-4H12zm150 17V12c0-6.62742-5.373-12-12-12H12C5.37258 0 0 5.37258 0 12v34c0 6.6274 5.37259 12 12 12h138c6.627 0 12-5.3726 12-12V33h14c4.418 0 8 3.5817 8 8v26c0 4.4183-3.582 8-8 8H93c-8.8366 0-16 7.1634-16 16v19h-7c-5.5228 0-10 4.477-10 10v62c0 5.523 4.4771 10 10 10h22c5.5228 0 10-4.477 10-10v-62c0-5.523-4.4771-10-10-10h-7V91c0-4.4183 3.5817-8 8-8h83c8.837 0 16-7.1634 16-16V41c0-8.8366-7.163-16-16-16h-14zm-92 93c-1.1046 0-2 .895-2 2v62c0 1.105.8954 2 2 2h22c1.1046 0 2-.895 2-2v-62c0-1.105-.8954-2-2-2H70z"/>
</svg>