<svg xmlns="http://www.w3.org/2000/svg" width="192" height="192" fill="#000" viewBox="0 0 192 192">
  <path fill-rule="evenodd" d="M40 4c0-2.20914 1.7909-4 4-4h104c2.209 0 4 1.79086 4 4v184c0 2.209-1.791 4-4 4h-28.5c-1.917 0-3.565-1.361-3.928-3.243L96 87.1477 76.4278 188.757C76.0651 190.639 74.4174 192 72.5 192H44c-2.2091 0-4-1.791-4-4V4zm8 17h48c2.2091 0 4-1.7909 4-4 0-2.2091-1.7909-4-4-4H48V8h96v5h-9c-2.209 0-4 1.7909-4 4 0 2.2091 1.791 4 4 4h9v41.7873C133.823 61.3316 126 52.5794 126 42v-1c0-2.2091-1.791-4-4-4s-4 1.7909-4 4v1c0 15.0033 11.393 27.3455 26 28.8467V184h-21.197L99.9278 65.2434C99.5651 63.3606 97.9174 62 96 62c-1.9174 0-3.5651 1.3606-3.9278 3.2434L69.197 184H48V70.8467C62.6067 69.3455 74 57.0033 74 42v-1c0-2.2091-1.7909-4-4-4-2.2091 0-4 1.7909-4 4v1c0 10.5794-7.8231 19.3316-18 20.7873V21zm57-4c0-2.2091 1.791-4 4-4h13c2.209 0 4 1.7909 4 4 0 2.2091-1.791 4-4 4h-13c-2.209 0-4-1.7909-4-4z"/>
</svg>