<svg xmlns="http://www.w3.org/2000/svg" width="192" height="192" fill="#000" viewBox="0 0 192 192">
  <path fill-rule="evenodd" d="M56 8c-2.2091 0-4 1.79086-4 4v49h88V38h-18c-6.627 0-12-5.3726-12-12V8H56zm62 5.6569L134.343 30H122c-2.209 0-4-1.7909-4-4V13.6569zm30 31.1921V34c0-1.0609-.421-2.0783-1.172-2.8284l-30-30.00003C116.078.421427 115.061 0 114 0H56c-6.6274 0-12 5.37259-12 12v32.849H33c-5.5228 0-10 4.4772-10 10V182c0 5.523 4.4772 10 10 10h126c5.523 0 10-4.477 10-10V54.849c0-5.5228-4.477-10-10-10h-11zm0 8V61h1c2.209 0 4 1.7909 4 4 0 2.2091-1.791 4-4 4H43c-2.2091 0-4-1.7909-4-4 0-2.2091 1.7909-4 4-4h1v-8.151H33c-1.1046 0-2 .8955-2 2V84h130V54.849c0-1.1045-.895-2-2-2h-11zM161 92h-29v17c0 6.073 1.203 12.086 3.538 17.692l1.154 2.77c.85 2.039-.114 4.381-2.154 5.23-2.039.85-4.381-.114-5.23-2.154l-1.154-2.769C125.412 123.188 124 116.129 124 109V92h-8v32c0 6.073 1.203 12.086 3.538 17.692l1.154 2.77c.85 2.039-.114 4.381-2.154 5.23-2.039.85-4.381-.114-5.23-2.154l-1.154-2.769C109.412 138.188 108 131.129 108 124V92h-8v71c0 2.209-1.7909 4-4 4-2.2091 0-4-1.791-4-4V92h-8v32c0 7.129-1.4118 14.188-4.1538 20.769l-1.1539 2.769c-.8497 2.04-3.1916 3.004-5.2308 2.154-2.0392-.849-3.0035-3.191-2.1538-5.23l1.1538-2.77C74.7974 136.086 76 130.073 76 124V92h-8v17c0 7.129-1.4118 14.188-4.1538 20.769l-1.1539 2.769c-.8497 2.04-3.1916 3.004-5.2308 2.154-2.0392-.849-3.0035-3.191-2.1538-5.23l1.1538-2.77C58.7974 121.086 60 115.073 60 109V92H31v90c0 1.104.8954 2 2 2h126c1.105 0 2-.896 2-2V92z"/>
</svg>