<svg xmlns="http://www.w3.org/2000/svg" width="192" height="192" fill="#000" viewBox="0 0 192 192">
  <path fill-rule="evenodd" d="M191.05 34.4124c.937 1.1042 1.204 2.6285.698 3.9852l-44 118.0004c-.424 1.137-1.342 2.021-2.495 2.401-1.154.38-2.417.216-3.435-.446l-35.681-23.221-35.9667 23.228c-1.1316.731-2.5549.843-3.7869.299-1.2321-.545-2.1074-1.673-2.3288-3.001l-8.6681-52.009L2.18543 76.5648C.664603 75.7905-.197525 74.1367.0386564 72.4465.274837 70.7564 1.55731 69.4022 3.23212 69.0745l183.99988-36c1.421-.278 2.882.2337 3.818 1.3379zM63.433 103.266l5.7794 34.677 7.9748-25.152c.2602-.82.778-1.535 1.4765-2.038l67.3083-48.4367-82.539 40.9497zm96.142-56.6285L16.1526 74.6983l42.8707 21.8251L159.575 46.6375zm20.079 1.2968L88.0787 113.834l53.9183 35.09 37.657-100.9897zM83.2243 120.22l15.5682 10.132-23.6169 15.252 8.0487-25.384z"/>
</svg>