<svg xmlns="http://www.w3.org/2000/svg" width="192" height="192" fill="#000" viewBox="0 0 192 192">
  <path fill-rule="evenodd" d="M179 8L53 8.00001c-1.1046 0-2 .89543-2 1.99999v158c0 6.147-2.3108 11.754-6.1111 16H165c8.837 0 16-7.163 16-16V10c0-1.10457-.895-2-2-2zM27 184c8.8366 0 16-7.163 16-16V66H13c-1.1046 0-2 .8954-2 2v100c0 8.837 7.1634 16 16 16zM43 58V10C43 4.47716 47.4771.00000572 53 .00000548L179 0c5.523-4.8e-7 10 4.47716 10 10v158c0 13.255-10.745 24-24 24H27c-13.2548 0-23.99999-10.745-24-24V68c0-5.5228 4.47715-10 10-10h30z"/>
</svg>