<svg xmlns="http://www.w3.org/2000/svg" width="192" height="192" fill="#000" viewBox="0 0 192 192">
  <path fill-rule="evenodd" d="M133.761 16.974c13.323-13.29868 34.921-13.29868 48.244 0 13.327 13.3028 13.327 34.8737 0 48.1765L74.7644 172.196c-17.1034 17.072-44.8304 17.072-61.9338 0-17.10745-17.077-17.10746-44.766 0-61.842l91.6484-91.482c1.564-1.5607 4.096-1.5584 5.657.0051 1.561 1.5636 1.558 4.0962-.005 5.6569l-91.6487 91.482c-13.97639 13.951-13.97639 36.567 0 50.518 13.9804 13.955 36.65 13.955 50.6304 0L176.353 59.4885c10.196-10.1774 10.196-26.6751 0-36.8525-10.2-10.1813-26.74-10.1813-36.94 0L50.0459 111.84c-6.4154 6.404-6.4154 16.784 0 23.188 6.4195 6.407 16.8305 6.407 23.25 0l59.7051-59.5966c1.563-1.5607 4.096-1.5584 5.656.0051 1.561 1.5636 1.559 4.0962-.005 5.6569L78.9476 140.69c-9.5425 9.525-25.0109 9.525-34.5534 0-9.5465-9.53-9.5465-24.982 0-34.512l89.3668-89.204z"/>
</svg>