<svg xmlns="http://www.w3.org/2000/svg" width="192" height="192" fill="#000" viewBox="0 0 192 192">
  <path fill-rule="evenodd" d="M102.698 15.8091c1.169.8833 1.761 2.3349 1.544 3.7837-.414 2.762-.622 5.5736-.622 8.4141 0 31.5768 26.052 57.2932 58.333 57.2932h.005c8.423.0107 16.746-1.777 24.393-5.2371 1.334-.6038 2.892-.43 4.06.453 1.169.883 1.761 2.334 1.545 3.7825-3.876 25.9325-23.168 46.7255-48.205 53.4225-1.91 14.823-14.568 26.279-29.905 26.279H35.3846C15.839 164 0 148.142 0 128.588c0-19.099 15.1099-34.671 34.0253-35.3859 4.4526-11.7165 14.1636-20.8433 26.2532-24.484.9717-10.3969 4.4646-20.441 10.2184-29.2738 6.8517-10.5182 16.62-18.8748 28.1397-24.0884 1.3346-.6041 2.8924-.4302 4.0614.4532zM64.8842 75.7794c.0325-.0067.0648-.0139.0969-.0214C67.2421 75.2616 69.5907 75 72 75c18.0097 0 32.615 14.6133 32.615 32.647 0 .156-.001.312-.003.468-.017 1.211.515 2.364 1.447 3.136.932.772 2.164 1.081 3.35.84 1.43-.291 2.914-.444 4.437-.444 12.232 0 22.154 9.926 22.154 22.177 0 .143-.001.287-.004.43-.007.106-.01.213-.008.321-.396 11.903-10.161 21.425-22.142 21.425H35.3846C20.2638 156 8 143.731 8 128.588c0-15.142 12.2638-27.412 27.3846-27.412.4418 0 .8808.011 1.3169.032 1.8397.086 3.501-1.094 4.0241-2.8598 3.3395-11.2727 12.5961-19.993 24.1586-22.5688zm78.7968 53.6416c18.806-5.749 33.561-20.593 38.862-39.3312-6.635 2.131-13.586 3.2192-20.595 3.2103-36.57-.0027-66.3278-29.1738-66.3278-65.2932 0-.6837.0106-1.3663.0317-2.0477-7.4123 4.5046-13.7264 10.5977-18.4518 17.8516-4.6179 7.0891-7.5712 15.0603-8.6916 23.3373C69.6593 67.05 70.8238 67 72 67c21.0968 0 38.432 16.0956 40.424 36.68.472-.022.946-.033 1.422-.033 15.162 0 27.706 11.197 29.835 25.774z"/>
  <path d="M151 11c0 2.2091-1.791 4-4 4s-4-1.7909-4-4c0-2.20914 1.791-4 4-4s4 1.79086 4 4zM32 34c0 2.2091-1.7909 4-4 4-2.2091 0-4-1.7909-4-4 0-2.2091 1.7909-4 4-4 2.2091 0 4 1.7909 4 4zM12 181c0 2.209-1.7909 4-4 4-2.20914 0-4-1.791-4-4s1.79086-4 4-4c2.2091 0 4 1.791 4 4zM22 44c0 3.3137-2.6863 6-6 6s-6-2.6863-6-6 2.6863-6 6-6 6 2.6863 6 6zM172 160c0 2.209-1.791 4-4 4s-4-1.791-4-4 1.791-4 4-4 4 1.791 4 4zM180 32c0 3.3137-2.686 6-6 6s-6-2.6863-6-6 2.686-6 6-6 6 2.6863 6 6z"/>
</svg>