<svg xmlns="http://www.w3.org/2000/svg" width="192" height="192" fill="#000" viewBox="0 0 192 192">
  <path fill-rule="evenodd" d="M68.5 23.5c2.2091 0 4 1.7909 4 4v11.9185c0 2.2091-1.7909 4-4 4-2.2091 0-4-1.7909-4-4V27.5c0-2.2091 1.7909-4 4-4zM20.0632 43.5628c1.5621-1.5621 4.0948-1.5621 5.6569 0l8.4276 8.4277c1.5621 1.5621 1.5621 4.0947 0 5.6568s-4.0948 1.5621-5.6568 0l-8.4277-8.4276c-1.5621-1.5621-1.5621-4.0948 0-5.6569zm96.8738.0003c1.562 1.5621 1.562 4.0948 0 5.6569l-8.428 8.4276c-1.562 1.5621-4.095 1.5621-5.657 0-1.562-1.5621-1.562-4.0948 0-5.6569l8.428-8.4276c1.562-1.5621 4.095-1.5621 5.657 0zM68.5001 58.1415c-18.6997 0-33.8587 15.1591-33.8587 33.8587 0 11.9888 6.2306 22.5278 15.642 28.5468 4.9069-12.964 17.1998-22.2953 31.7419-22.8449 3.2453-8.5396 9.284-15.7035 17.001-20.3702-5.468-11.3585-17.0868-19.1904-30.5262-19.1904zm37.7469 15.7476c-6.7505-14.045-21.1113-23.7476-37.7469-23.7476-23.118 0-41.8587 18.7408-41.8587 41.8587 0 15.7878 8.7407 29.5278 21.6331 36.6558-.1812 1.452-.2745 2.931-.2745 4.432 0 19.554 15.839 35.412 35.3846 35.412h78.4614c16.657 0 30.154-13.514 30.154-30.176 0-16.663-13.497-30.177-30.154-30.177-.476 0-.95.011-1.422.033C158.432 87.5956 141.097 71.5 120 71.5c-4.828 0-9.458.8428-13.753 2.3891zM120 79.5c-14.778 0-27.2732 9.8421-31.2744 23.348-.5231 1.766-2.1844 2.946-4.0241 2.86-.4361-.021-.8751-.032-1.3169-.032C68.2638 105.676 56 117.946 56 133.088c0 15.143 12.2638 27.412 27.3846 27.412h78.4614c12.232 0 22.154-9.925 22.154-22.176 0-12.251-9.922-22.177-22.154-22.177-1.523 0-3.007.153-4.437.444-1.186.241-2.418-.068-3.35-.84-.932-.772-1.464-1.925-1.447-3.136.002-.156.003-.312.003-.468C152.615 94.1133 138.01 79.5 120 79.5zM0 92c0-2.2091 1.79086-4 4-4h11.9185c2.2091 0 4 1.7909 4 4 0 2.2091-1.7909 4-4 4H4c-2.20914 0-4-1.7909-4-4zm34.1476 34.352c1.5621 1.562 1.5621 4.095 0 5.657l-8.4276 8.428c-1.5621 1.562-4.0948 1.562-5.6569 0s-1.5621-4.095 0-5.657l8.4277-8.428c1.5621-1.562 4.0947-1.562 5.6568 0z"/>
</svg>