<svg xmlns="http://www.w3.org/2000/svg" width="192" height="192" fill="#000" viewBox="0 0 192 192">
  <path fill-rule="evenodd" d="M35 8c-2.2091 0-4 1.79086-4 4v168c0 2.209 1.7909 4 4 4h122c2.209 0 4-1.791 4-4V12c0-2.20914-1.791-4-4-4H35zm-12 4c0-6.62742 5.3726-12 12-12h122c6.627 0 12 5.37258 12 12v168c0 6.627-5.373 12-12 12H35c-6.6274 0-12-5.373-12-12V12zm71.4972 23.0307C87.4445 43.9397 82.9549 54.9628 82.1357 67h27.7283c-.819-12.0372-5.308-23.0603-12.3612-31.9693C97.0046 35.0103 96.5036 35 96 35c-.5036 0-1.0046.0103-1.5028.0307zm14.2808 2.3023c5.218 8.7807 8.457 18.8765 9.103 29.667h13.899c-1.506-13.6282-10.621-24.9654-23.002-29.667zM131.78 75h-13.899c-.646 10.7905-3.885 20.8863-9.103 29.667C121.159 99.9654 130.274 88.6282 131.78 75zm-34.2772 31.969C104.556 98.0603 109.045 87.0372 109.864 75H82.1357c.8192 12.0372 5.3088 23.0603 12.3615 31.969.4982.021.9992.031 1.5028.031.5036 0 1.0046-.01 1.5028-.031zm-14.2813-2.302c-5.217-8.7807-8.4567-18.8765-9.1022-29.667H60.2197c1.5068 13.6282 10.6217 24.9654 23.0018 29.667zM60.2197 67h13.8996c.6455-10.7905 3.8852-20.8863 9.1022-29.667C70.8414 42.0346 61.7265 53.3718 60.2197 67zm31.935-39.8341C93.4228 27.056 94.7053 27 96 27c1.2947 0 2.5772.056 3.8453.1659C122.347 29.1164 140 47.9945 140 71c0 23.0055-17.653 41.884-40.1547 43.834-1.2681.11-2.5506.166-3.8453.166-1.2947 0-2.5772-.056-3.8453-.166C69.6529 112.884 52 94.0055 52 71c0-23.0055 17.6529-41.8836 40.1547-43.8341zM63 147c0-2.209 1.7909-4 4-4h58c2.209 0 4 1.791 4 4s-1.791 4-4 4H67c-2.2091 0-4-1.791-4-4zm10 14c0-2.209 1.7909-4 4-4h38c2.209 0 4 1.791 4 4s-1.791 4-4 4H77c-2.2091 0-4-1.791-4-4z"/>
</svg>