<svg xmlns="http://www.w3.org/2000/svg" width="192" height="192" fill="#000" viewBox="0 0 192 192">
  <path fill-rule="evenodd" d="M96 0c2.2091 0 4 1.79086 4 4v15.6846c1.145-1.6458 2.454-3.2376 3.95-4.7343 10.242-10.24123 24.997-11.75442 31.446-11.93019 4.273-.11645 7.7 3.31084 7.584 7.58349-.176 6.4495-1.689 21.2049-11.93 31.4461-5.188 5.1878-11.519 8.1192-17.279 9.7781C121.188 57.2896 126 66.0828 126 76v13.7241c0 .6436.353 1.3938 1.123 1.9231C141.536 101.555 151 118.172 151 137c0 30.376-24.624 55-55 55-30.3757 0-55-24.624-55-55 0-18.828 9.4644-35.445 23.877-45.3528.7698-.5293 1.123-1.2795 1.123-1.9231V76c0-15.2123 11.3226-27.7801 26-29.7357V4c0-2.20914 1.7909-4 4-4zm4.039 45.9606c1.827-.0743 4.193-.2719 6.823-.7377 6.109-1.0819 13.238-3.5372 18.531-8.83 7.673-7.6734 9.315-19.1396 9.568-25.3535-6.214.2531-17.68 1.8944-25.354 9.5678-5.293 5.2928-7.748 12.4218-8.83 18.5307-.466 2.6301-.663 4.9958-.738 6.8227zM96 54c-12.1503 0-22 9.8497-22 22v13.7241c0 3.562-1.8951 6.6622-4.591 8.5155C57.0745 106.719 49 120.917 49 137c0 25.957 21.0426 47 47 47 25.957 0 47-21.043 47-47 0-16.083-8.074-30.281-20.409-38.7604-2.696-1.8533-4.591-4.9535-4.591-8.5155V76c0-12.1503-9.85-22-22-22z"/>
</svg>