<svg xmlns="http://www.w3.org/2000/svg" width="192" height="192" fill="#000" viewBox="0 0 192 192">
  <path fill-rule="evenodd" d="M154.093 9.36211c-1.817-1.81615-4.761-1.81615-6.577 0L134.033 22.8453l35.122 35.122 13.483-13.4831c1.816-1.8161 1.816-4.7607 0-6.5768L154.093 9.36211zm9.405 54.26209l-35.122-35.1221L9.36211 147.516C8.48996 148.388 8 149.571 8 150.804V184h33.1958c1.2334 0 2.4162-.49 3.2884-1.362L163.498 63.6242zM141.859 3.70525c4.94-4.94033 12.95-4.94033 17.89 0l28.546 28.54525c4.94 4.9403 4.94 12.9502 0 17.8906L50.1411 188.295c-2.3725 2.372-5.5902 3.705-8.9453 3.705H4c-2.20914 0-4-1.791-4-4v-37.196c0-3.355 1.33282-6.573 3.70525-8.945L141.859 3.70525z"/>
</svg>