<svg xmlns="http://www.w3.org/2000/svg" width="192" height="192" fill="#000" viewBox="0 0 192 192">
  <path fill-rule="evenodd" d="M93.965.555846c1.2549-.741128 2.8135-.741128 4.0684 0L137.033 23.5897c.368.2174.693.4886.968.8003l38.035 22.4639c1.218.7195 1.966 2.0292 1.966 3.4441v45.8574c.001.0796 0 .1591-.003.2384v45.2332c.003.198-.008.395-.033.59-.047.361-.142.707-.278 1.032-.321.767-.884 1.441-1.655 1.897l-38.026 22.458c-.272.311-.598.585-.974.806l-38.9996 23.034c-1.2549.741-2.8135.741-4.0684 0l-39-23.034c-.3757-.222-.7018-.495-.9746-.806l-38.0239-22.458c-.7711-.455-1.3333-1.129-1.6545-1.896-.1371-.326-.2323-.674-.2788-1.037-.0251-.194-.0361-.39-.0326-.586V96.2977c-.0008-.0473-.0008-.0946 0-.142V50.2982c0-1.4149.7476-2.7246 1.9659-3.4441l38.0263-22.4588c.2755-.3139.6021-.587.9722-.8056l39-23.033854zM57.0006 31.9099L25.8663 50.2982l31.1343 18.3884L88.135 50.2982 57.0006 31.9099zm35 25.3963l-31 18.309v36.4098l31-18.309V57.3062zm-39 54.4898V75.6152l-31-18.309v36.1804l31 18.3094zm-31-8.558v36.181l30.9986 18.308v-36.18l-30.9986-18.309zm39 59.446l30.9986 18.308v-36.641l-30.9986-18.308v36.641zm4.0601-43.534l30.9385 18.272 30.9408-18.274-30.9387-18.272-30.9406 18.274zm65.9383 6.892l-30.9998 18.309v36.641l30.9998-18.309v-36.641zm8 31.685l31-18.308V103.24l-31 18.309v36.178zm.003-45.933l31-18.3093V57.306l-31 18.309v36.179zm-4-43.1076l31.134-18.3884-31.134-18.3883-31.135 18.3883 31.135 18.3884zm-7.868-41.6525L95.9992 8.64555 64.8649 27.0339l31.1343 18.3883 31.1348-18.3883zm3.868 84.9931V75.615l-31-18.309v36.4124l31 18.3086z"/>
</svg>