<svg xmlns="http://www.w3.org/2000/svg" width="192" height="192" fill="#000" viewBox="0 0 192 192">
  <path fill-rule="evenodd" d="M93.9658.555846c1.2549-.741128 2.8135-.741128 4.0684 0L176.034 46.6236c1.218.7196 1.966 2.0292 1.966 3.4442v91.8642c0 1.415-.748 2.725-1.966 3.444l-77.9998 46.068c-1.2549.741-2.8135.741-4.0684 0l-78-46.068C14.7475 144.657 14 143.347 14 141.932V50.0678c0-1.415.7475-2.7246 1.9658-3.4442l78-46.067754zM22 57.0755L92 98.415v82.577l-66.1343-39.06 42.8611-25.314c1.9021-1.123 2.5334-3.576 1.4099-5.478-1.1234-1.902-3.5761-2.534-5.4783-1.41L22 134.924V57.0755zm78 123.9165l66.134-39.06-42.861-25.314c-1.902-1.123-2.533-3.576-1.41-5.478 1.124-1.902 3.576-2.534 5.479-1.41L170 134.924V57.0755L100 98.415v82.577zm-4-89.5056l70.134-41.4188L100 11.008v55.5976c0 2.2092-1.7909 4-4 4-2.2091 0-4-1.7908-4-4V11.008L25.8659 50.0676 96 91.4864z"/>
</svg>