<svg xmlns="http://www.w3.org/2000/svg" width="192" height="192" fill="#000" viewBox="0 0 192 192">
  <path fill-rule="evenodd" d="M37.3107.727372c6.632-2.138322 13.8646.554308 17.4836 6.508958L69.8289 31.9739c3.6042 5.9302 2.6874 13.5558-2.2196 18.4628L55.7804 62.2656c-2.0723 2.0724-2.5531 5.0616-1.3162 7.4609 4.8084 9.327 14.6485 26.4314 28.0134 39.7965 13.365 13.365 30.4694 23.205 39.7964 28.013 2.399 1.237 5.388.756 7.461-1.316l11.829-11.829c4.907-4.907 12.532-5.824 18.463-2.219l24.737 15.034c5.955 3.619 8.647 10.852 6.509 17.484l-1.043 3.236c-2.784 8.634-8.629 15.951-16.435 20.572l-14.253 8.44c-9.856 5.836-22.006 6.891-32.546 1.774-18.037-8.756-49.1947-25.938-73.482-50.226-24.2874-24.287-41.4699-55.4443-50.22587-73.4818-5.1163-10.5398-4.061785-22.6896 1.77419-32.5457L13.502 18.2052c4.6218-7.8053 11.9388-13.65062 20.5721-16.43426L37.3107.727372zM47.9579 11.3912c-1.6957-2.79009-5.0847-4.05177-8.1922-3.04982l-3.2366 1.04357C29.7544 11.5693 24.0125 16.1562 20.3858 22.2812l-8.4397 14.2534c-4.6038 7.775-5.2927 17.0827-1.4611 24.976 8.616 17.7492 25.3346 47.9674 48.6858 71.3194 23.3513 23.351 53.5702 40.069 71.3192 48.685 7.893 3.832 17.201 3.143 24.976-1.461l14.253-8.439c6.125-3.627 10.712-9.369 12.897-16.144l1.043-3.236c1.002-3.108-.26-6.497-3.05-8.192l-24.737-15.035c-2.779-1.689-6.352-1.259-8.651 1.04l-11.829 11.829c-4.368 4.367-11.088 5.706-16.784 2.77-9.584-4.941-27.5513-15.231-41.7872-29.467-14.2359-14.236-24.5261-32.2031-29.4673-41.7877-2.9362-5.6955-1.5973-12.4161 2.7701-16.7835l11.8289-11.8289c2.2992-2.2993 2.7288-5.8724 1.04-8.651L47.9579 11.3912zm87.9991-7.39104c0-2.20914 1.791-4.00000005 4-3.99999838L188 .00019953C190.21.0002012 192 1.79106 192 4.0002v48.0434c0 2.2092-1.79 4-4 4-2.209 0-4-1.7908-4-4V13.6571l-58.171 58.1715c-1.562 1.5621-4.095 1.5621-5.657 0-1.562-1.5621-1.562-4.0947 0-5.6568l58.172-58.17161-38.387-.00003c-2.209 0-4-1.79086-4-4z"/>
</svg>