<svg xmlns="http://www.w3.org/2000/svg" width="192" height="192" fill="#000" viewBox="0 0 192 192">
  <path fill-rule="evenodd" d="M73.0224 28c-.6338 0-1.23.3003-1.6072.8095l-16.402 22.1428C53.1272 53.4984 50.1462 55 46.9776 55H12c-2.20914 0-4 1.7909-4 4v101c0 2.209 1.79086 4 4 4h168c2.209 0 4-1.791 4-4V59c0-2.2091-1.791-4-4-4h-34.978c-3.168 0-6.149-1.5016-8.035-4.0477l-16.402-22.1428c-.377-.5092-.974-.8095-1.607-.8095H73.0224zm-8.0356-3.9523C66.8728 21.5016 69.8538 20 73.0224 20h45.9556c3.168 0 6.149 1.5016 8.035 4.0477l16.402 22.1428c.377.5092.974.8095 1.607.8095H180c6.627 0 12 5.3726 12 12v101c0 6.627-5.373 12-12 12H12c-6.62742 0-12-5.373-12-12V59c0-6.6274 5.37258-12 12-12h34.9776c.6338 0 1.23-.3003 1.6072-.8095l16.402-22.1428zM10 38c0-2.2091 1.7909-4 4-4h26c2.2091 0 4 1.7909 4 4 0 2.2091-1.7909 4-4 4H14c-2.2091 0-4-1.7909-4-4zm86 41c-17.6731 0-32 14.3269-32 32 0 17.673 14.3269 32 32 32 17.673 0 32-14.327 32-32 0-17.6731-14.327-32-32-32zm-40 32c0-22.0914 17.9086-40 40-40 22.091 0 40 17.9086 40 40 0 22.091-17.909 40-40 40-22.0914 0-40-17.909-40-40z"/>
</svg>