<svg xmlns="http://www.w3.org/2000/svg" width="192" height="192" fill="#000" viewBox="0 0 192 192">
  <path fill-rule="evenodd" d="M.00025123 10C.00025123 4.47715 4.4774 0 10.0003 0H182c5.523 0 10 4.47715 10 10v172c0 5.523-4.477 10-10 10H10.0002c-5.5228 0-9.99994877-4.477-9.99994877-10v-54.296c-.00033474-.03-.00033521-.06 0-.09V10zM8.00025 129.012V144H184v-20.769C171.798 109.004 153.702 100 133.5 100c-16.898 0-32.318 6.298-44.052 16.683 4.5327 4.139 8.4284 8.965 11.523 14.314 1.106 1.912.453 4.359-1.4596 5.465-1.9123 1.107-4.3592.453-5.4654-1.459-3.3558-5.801-7.8016-10.896-13.0577-15.003-8.8224-6.894-19.9201-11-31.988-11-16.6525 0-31.4768 7.824-41.00005 20.012zM83.106 111.63C73.4213 104.928 61.6649 101 49.0003 101c-15.8564 0-30.2761 6.153-41.00005 16.194V10c0-1.10457.89543-2 2.00005-2H182c1.105 0 2 .89543 2 2v101.728C170.727 99.4848 152.987 92 133.5 92c-19.433 0-37.133 7.4449-50.394 19.63zM184 152H8.00025v30c0 1.105.89543 2 1.99995 2H182c1.105 0 2-.895 2-2v-30zM48.0003 16c2.2091 0 4 1.7909 4 4v3c0 2.2091-1.7909 4-4 4-2.2092 0-4-1.7909-4-4v-3c0-2.2091 1.7908-4 4-4zm22.6256 9.3724c1.5621 1.5621 1.5621 4.0948 0 5.6569l-2.1214 2.1213c-1.562 1.5621-4.0947 1.5621-5.6568 0s-1.5621-4.0948 0-5.6569l2.1213-2.1213c1.5621-1.5621 4.0948-1.5621 5.6569 0zm-45.2549.0003c1.5621-1.5621 4.0948-1.5621 5.6569 0l2.1213 2.1214c1.5621 1.5621 1.5621 4.0947 0 5.6568s-4.0947 1.5621-5.6568 0l-2.1214-2.1213c-1.5621-1.5621-1.5621-4.0948 0-5.6569zM48.0003 38c-5.5229 0-10 4.4772-10 10s4.4771 10 10 10c5.5228 0 10-4.4772 10-10s-4.4772-10-10-10zm-18 10c0-9.9411 8.0588-18 18-18 9.9411 0 18 8.0589 18 18s-8.0589 18-18 18c-9.9412 0-18-8.0589-18-18zm39 0c0-2.2091 1.7908-4 4-4h3c2.2091 0 4 1.7909 4 4 0 2.2091-1.7909 4-4 4h-3c-2.2092 0-4-1.7909-4-4zm-53 0c0-2.2091 1.7908-4 4-4h3c2.2091 0 4 1.7909 4 4 0 2.2091-1.7909 4-4 4h-3c-2.2092 0-4-1.7909-4-4zm17.1489 14.8491c1.5621 1.5621 1.5621 4.0947 0 5.6568l-2.1213 2.1214c-1.5621 1.5621-4.0948 1.5621-5.6569 0s-1.5621-4.0948 0-5.6569l2.1214-2.1213c1.5621-1.5621 4.0947-1.5621 5.6568 0zm29.6985.0003c1.5621-1.5621 4.0948-1.5621 5.6569 0l2.1213 2.1213c1.5621 1.5621 1.5621 4.0948 0 5.6569s-4.0948 1.5621-5.6569 0l-2.1213-2.1213c-1.5621-1.5621-1.5621-4.0948 0-5.6569zM48.0003 69c2.2091 0 4 1.7909 4 4v3c0 2.2091-1.7909 4-4 4-2.2092 0-4-1.7909-4-4v-3c0-2.2091 1.7908-4 4-4z"/>
</svg>