<svg xmlns="http://www.w3.org/2000/svg" width="193" height="192" fill="#000" viewBox="0 0 193 192">
  <path fill-rule="evenodd" d="M42.6536 18c0-2.2091 1.7909-4 4-4h39.3419c2.2092 0 4 1.7909 4 4v16h14.0015V18c0-2.2091 1.791-4 4-4h39.342c2.209 0 4 1.7909 4 4v16h31.658c5.523 0 10 4.4772 10 10v124c0 5.523-4.477 10-10 10H10.9961C5.47324 178 .996093 173.523.996094 168l.00001-124C.996105 38.4771 5.47326 34 10.9961 34h31.6575V18zm0 24H10.9961c-1.10457 0-1.99999.8954-1.99999 2l-.00002 124c0 1.105.89543 2 2.00001 2h51.333l-.0042-48H46.6536c-1.0608 0-2.0782-.421-2.8284-1.172-.7501-.75-1.1716-1.767-1.1716-2.828V42zm27.6713 80l.0042 48h53.3389v-48h-15.671c-1.06 0-2.078-.421-2.828-1.172-.75-.75-1.172-1.767-1.172-2.828V42H89.9955v76c0 2.209-1.7908 4-4 4H70.3249zm61.3431 0v48h51.329c1.105 0 2-.895 2-2V44c0-1.1046-.895-2-2-2h-31.658v76c0 2.209-1.791 4-4 4h-15.671zM50.6536 22v92h31.3419V22H50.6536zm61.3434 0v92h31.342V22h-31.342z"/>
</svg>