<svg xmlns="http://www.w3.org/2000/svg" width="192" height="192" fill="#000" viewBox="0 0 192 192">
  <path fill-rule="evenodd" d="M73.1014 30.7944c-.715 2.2745-1.1005 4.695-1.1005 7.2056 0 2.8101.4813 5.5013 1.3645 8h45.2706c.884-2.4987 1.365-5.1899 1.365-8 0-13.2548-10.745-24-24.0001-24-10.6649 0-19.7051 6.9563-22.8307 16.579-.0209.0725-.0439.1443-.0688.2154zm-8.9998 4.6485c-18.3893 7.0377-32.7197 20.3201-39.5973 36.53C21.5887 78.8446 20.0009 86.2613 20.0009 94c0 17.435 8.1595 33.444 21.4989 45.09 7.2058 6.276 15.9224 11.286 25.6665 14.569.1066.036.2109.076.3126.12 8.2035 2.723 17.1365 4.221 26.522 4.221 9.4301 0 18.4161-1.52 26.6681-4.281.055-.021.11-.041.166-.06 6.636-2.236 12.795-5.273 18.325-8.965.108-.072.216-.144.324-.217 11.901-8.042 20.85-19.137 25.316-31.807 2.082-5.907 3.201-12.174 3.201-18.67 0-6.4963-1.119-12.7634-3.201-18.6703-1.742-4.9439-4.163-9.6447-7.177-14.0195-6.553-9.5137-15.911-17.4816-27.148-23.0023-.819-.4022-1.647-.7914-2.485-1.1671.007.2855.011.5719.011.8592 0 4.9006-1.104 9.5544-3.082 13.7164-.662 1.3948-2.068 2.2836-3.613 2.2836H70.6954c-1.5442 0-2.9504-.8888-3.613-2.2836-1.9772-4.162-3.0815-8.8158-3.0815-13.7164 0-.8607.034-1.7135.1007-2.5571zm62.2444-7.6284c1.985.7485 3.93 1.564 5.832 2.4434l21.22-10.8277c7.045-3.5953 15.279 2.0262 14.496 9.8974l-2.853 28.6752c2.493 3.788 4.609 7.8003 6.297 11.9972h14.663c3.314 0 6 2.6863 6 6v36c0 3.314-2.686 6-6 6h-14.663c-2.837 7.056-6.877 13.586-11.896 19.412l-3.027 39.355c-.401 5.21-4.745 9.233-9.97 9.233h-16.888c-5.225 0-9.57-4.023-9.971-9.233l-1.08-14.039c-7.754 2.129-15.989 3.272-24.5051 3.272-8.5079 0-16.7444-1.147-24.5053-3.281l-1.0807 14.048c-.4007 5.21-4.7451 9.233-9.9705 9.233H41.5568c-5.2254 0-9.5698-4.023-9.9706-9.233l-3.0265-39.345C18.1923 125.414 12.0009 110.416 12.0009 94c0-7.5424 1.3211-14.8148 3.7675-21.6441L2.21202 65.5777C.236108 64.5898-.564789 62.1871.423168 60.2112c.987952-1.976 3.390652-2.7769 5.366562-1.7889l13.13437 6.5672C27.9859 46.9184 45.184 32.877 66.2348 26.2302 70.924 14.3811 82.4837 6 96.0009 6c14.1121 0 26.0911 9.1351 30.3451 21.8145zM37.2413 145.975l2.3213 30.178c.0802 1.042.9491 1.847 1.9942 1.847h16.8876c1.0451 0 1.9139-.805 1.9941-1.847l1.228-15.964c-9.0946-3.427-17.3589-8.264-24.4252-14.214zm89.0937 14.214l1.228 15.964c.08 1.042.949 1.847 1.994 1.847h16.888c1.045 0 1.913-.805 1.994-1.847l2.321-30.174c-2.655 2.234-5.479 4.311-8.452 6.216-4.941 3.166-10.296 5.855-15.973 7.994zM173.97 110h10.031V78H173.97c1.329 5.1462 2.031 10.502 2.031 16 0 5.498-.702 10.854-2.031 16zm-16.06-61.1292l2.023-20.3352c.157-1.5743-1.49-2.6986-2.899-1.9795l-16.254 8.2937c6.433 3.9277 12.206 8.6516 17.13 14.021z"/>
  <path d="M144.001 72c0 3.3137-2.686 6-6 6s-6-2.6863-6-6 2.686-6 6-6 6 2.6863 6 6z"/>
</svg>