<svg xmlns="http://www.w3.org/2000/svg" width="192" height="192" fill="#000" viewBox="0 0 192 192">
  <path fill-rule="evenodd" d="M130.307 8.61674c-.909-.90884-2.413-.79804-3.179.23419L87.952 61.6534c-3.2527 4.3841-9.6409 4.8548-13.5011.9947-7.4406-7.4406-19.5042-7.4406-26.9448 0L33.5296 76.6246c-.822.822-.822 2.1547 0 2.9767L112.399 158.47c.822.822 2.155.822 2.977 0l13.976-13.976c7.441-7.441 7.441-19.504 0-26.945-3.86-3.86-3.389-10.248.995-13.501l52.802-39.176c1.032-.7658 1.143-2.2699.234-3.1787L130.307 8.61674zm-9.604-4.53259c3.677-4.955421 10.898-5.4874 15.261-1.12427L189.04 56.0364c4.363 4.3632 3.831 11.5838-1.124 15.2604l-52.803 39.1762c-.46.342-.51 1.013-.104 1.419 10.565 10.565 10.565 27.694 0 38.259l-13.977 13.976c-3.946 3.947-10.344 3.947-14.29 0l-36.6062-36.606-63.30737 63.308c-1.5621 1.562-4.09476 1.562-5.65686 0-1.562094-1.563-1.562094-4.095 0-5.657L64.479 121.864 27.8728 85.2581c-3.9462-3.9462-3.9462-10.3442 0-14.2904l13.9765-13.9765c10.5648-10.5648 27.6937-10.5648 38.2585 0 .4058.4058 1.0775.3564 1.4194-.1046L120.703 4.08415z"/>
</svg>