<svg xmlns="http://www.w3.org/2000/svg" width="192" height="192" fill="#000" viewBox="0 0 192 192">
  <path fill-rule="evenodd" d="M16.4553 30.1354c2.3867-4.4572 7.6763-6.2256 12.224-4.4559l5.5376 2.155c4.6504 1.8097 6.9477 6.4985 6.3521 10.9867l144.892 48.0927c3.918 1.3004 6.539 4.9737 6.539 9.0862 0 4.1129-2.621 7.7859-6.539 9.0859L40.569 153.179c.5956 4.488-1.7017 9.177-6.3521 10.987l-5.5376 2.155c-4.5477 1.769-9.8373.001-12.2241-4.456C5.95616 142.258 0 119.823 0 96.0001c0-23.8229 5.95617-46.2578 16.4553-65.8647zM37.4604 145.782L79.2835 131.9C78.4534 129.658 78 127.233 78 124.706c0-11.361 9.1511-20.619 20.5-20.619 9.366 0 17.236 6.306 19.699 14.896l64.742-21.4894c.617-.2048 1.059-.7973 1.059-1.4935s-.442-1.2888-1.059-1.4935l-40.87-13.5656c-3.581 5.9776-10.098 9.9942-17.571 9.9942-11.349 0-20.5-9.2586-20.5-20.619 0-.6674.032-1.3281.094-1.9807l-66.6336-22.117C30.1234 61.2291 26 78.1239 26 96.0001c0 17.8759 4.1234 34.7709 11.4604 49.7819zm74.5556-74.8168c.335 6.6919 5.821 11.97 12.484 11.97 3.884 0 7.369-1.7916 9.668-4.6175l-22.152-7.3525zm-1.42 50.5418c-1.405-5.435-6.307-9.42-12.096-9.42-6.8765 0-12.5 5.622-12.5 12.619 0 1.654.3136 3.229.8833 4.671l23.7127-7.87zM25.778 33.1349c-.9292-.3616-1.8698.0292-2.2702.777C13.6164 52.384 8 73.5249 8 96.0001c0 22.4749 5.6164 43.6159 15.5078 62.0879.4004.748 1.341 1.139 2.2702.777l5.5377-2.155c1.1005-.428 1.7949-1.944 1.0482-3.336-.1514-.282-.3016-.564-.4508-.848C23.0294 135.654 18 116.412 18 96.0001c0-20.4122 5.0294-39.6543 13.9131-56.5262.1492-.2833.2994-.566.4508-.8479.7467-1.3914.0523-2.9079-1.0482-3.3361l-5.5377-2.155zM59 72.0001c-6.6274 0-12 5.3726-12 12s5.3726 12 12 12 12-5.3726 12-12-5.3726-12-12-12zm-20 12c0-11.0457 8.9543-20 20-20s20 8.9543 20 20S70.0457 104 59 104s-20-8.9542-20-19.9999z"/>
</svg>