<svg xmlns="http://www.w3.org/2000/svg" width="192" height="192" fill="#000" viewBox="0 0 192 192">
  <path fill-rule="evenodd" d="M22.2308 48h41.3084C65.2897 41.6576 71.1009 37 78 37c6.8991 0 12.7103 4.6576 14.4608 11H106c2.209 0 4 1.7909 4 4 0 2.2091-1.791 4-4 4H92.4608C90.7103 62.3424 84.8991 67 78 67c-6.8991 0-12.7103-4.6576-14.4608-11H17.5944C11.461 67.9972 8 81.5891 8 96c0 28.545 13.587 53.916 34.6628 70H118c2.209 0 4 1.791 4 4s-1.791 4-4 4H55.2162c12.19 6.387 26.0617 10 40.7838 10 38.436 0 71.125-24.644 83.111-59h-47.794c-1.647 4.661-6.092 8-11.317 8-6.627 0-12-5.373-12-12s5.373-12 12-12c5.225 0 9.67 3.339 11.317 8h50.163c1.646-6.726 2.52-13.758 2.52-21 0-28.5449-13.587-53.9156-34.663-70H74c-2.2091 0-4-1.7909-4-4 0-2.2091 1.7909-4 4-4h62.784C124.594 11.6125 110.722 8 96 8 65.1129 8 37.9371 23.9115 22.2308 48zm-10.558 2.0842C27.9487 20.253 59.6063 0 96 0c21.36 0 41.102 6.98103 57.052 18.7847C176.673 36.2652 192 64.3431 192 96c0 9.036-1.249 17.786-3.587 26.085C177.048 162.425 139.983 192 96 192c-21.3604 0-41.102-6.981-57.052-18.785C15.327 155.735 0 127.657 0 96c0-16.6241 4.22889-32.2724 11.6728-45.9158zM78 45c-3.866 0-7 3.134-7 7s3.134 7 7 7 7-3.134 7-7-3.134-7-7-7zM21 82c0-2.2091 1.7909-4 4-4h116.5c2.209 0 4 1.7909 4 4 0 2.2091-1.791 4-4 4H25c-2.2091 0-4-1.7909-4-4zm99 35c-2.209 0-4 1.791-4 4s1.791 4 4 4 4-1.791 4-4-1.791-4-4-4zm-79 25c0-2.209 1.7909-4 4-4h36.5c2.2091 0 4 1.791 4 4s-1.7909 4-4 4H45c-2.2091 0-4-1.791-4-4z"/>
</svg>