<svg xmlns="http://www.w3.org/2000/svg" width="193" height="192" fill="#000" viewBox="0 0 193 192">
  <path fill-rule="evenodd" d="M136.615 63.515c-12.516-15.622-33.512-23.2381-54.0747-17.7297-18.9839 5.0855-32.6917 20.0407-37.0672 37.8808-2.0141 8.2119-2.0488 17.0329.2978 25.7889 2.2101 8.246 6.284 15.495 11.6472 21.416.2498-.009.5002-.018.7511-.028 21.0857-.836 45.8688-5.213 69.2678-12.943 6.644-2.195 12.782-4.53 18.373-6.95 2.695-8.942 3.013-18.7207.417-28.4048-1.923-7.1771-5.254-13.5901-9.612-19.0302zm4.748 57.897c-3.648 1.412-7.457 2.776-11.416 4.084-21.396 7.069-43.9295 11.424-64.0225 12.915 12.187 8.628 27.9815 11.97 43.5335 7.804 14.102-3.778 25.29-13.002 31.905-24.803zm-87.251 17.55c14.6557 14.255 36.2316 20.655 57.416 14.98 19.521-5.229 34.203-19.504 40.74-37.106 13.222-6.02 23.632-12.649 30.435-19.3021 5.104-4.9915 8.637-10.4452 9.215-16.0704.616-5.9983-2.204-11.1919-7.601-15.1039-4.739-3.4356-11.246-5.7709-18.722-7.2508-7.027-1.3911-15.159-2.0744-23.982-2.0994-14.552-16.9919-38.075-25.1311-61.1428-18.9516-21.2396 5.6897-36.7438 22.0875-42.2701 41.8116-15.6194 7.2885-27.3702 15.5291-33.45574 23.7626-3.17961 4.302-5.092068 8.989-4.6916753 13.756.4112223 4.895 3.1853753 9.029 7.6309653 12.251 5.22955 3.791 12.62925 6.255 21.16125 7.698 7.4448 1.26 16.013 1.786 25.2671 1.625zm-6.8972-8.012c-4.0931-5.709-7.2453-12.239-9.1711-19.424-1.9638-7.327-2.4819-14.7075-1.7272-21.8329C24.0101 95.999 15.5 102.539 11.1779 108.387c-2.52027 3.41-3.33287 6.193-3.15329 8.331.16876 2.009 1.27963 4.215 4.35439 6.444 3.798 2.753 9.8098 4.935 17.8007 6.287 5.0702.858 10.8008 1.36 17.0351 1.501zM147.463 65.1331c6.119.2463 11.697.8569 16.579 1.8234 6.915 1.369 12.156 3.3983 15.58 5.8802 3.631 2.6322 4.599 5.2624 4.338 7.8089-.3 2.9197-2.313 6.7319-6.85 11.1686-4.969 4.859-12.42 9.9318-22.044 14.8068 1.522-8.4309 1.254-17.3227-1.111-26.1468-1.481-5.5232-3.688-10.6628-6.492-15.3411zM76.9683 75.2225c-.5715-2.1323-2.7645-3.3991-4.8993-2.8272-2.1344.5717-3.3997 2.7643-2.8283 4.8962.5715 2.1322 2.7645 3.3991 4.8993 2.8272 2.1344-.5718 3.3996-2.7644 2.8283-4.8962zm-6.9694-10.5548c6.4007-1.7146 12.981 2.0826 14.6966 8.4837 1.7157 6.4015-2.0844 12.9801-8.4854 14.6948-6.4007 1.7147-12.9811-2.0826-14.6966-8.4837-1.7157-6.4014 2.0844-12.9801 8.4854-14.6948zm46.7301 23.7091c-1.001-3.7322-4.839-5.9486-8.574-4.948-3.735 1.0005-5.95 4.8377-4.95 8.5696 1.001 3.7322 4.839 5.9486 8.574 4.948 3.735-1.0005 5.95-4.8377 4.95-8.5696zm-10.644-12.6755c8.001-2.1434 16.226 2.6034 18.371 10.6045 2.144 8.0015-2.606 16.2242-10.607 18.3682-8.001 2.143-16.2264-2.603-18.3709-10.6046-2.1445-8.0014 2.6054-16.2247 10.6069-18.3681zM75.1429 110.902c-.4285-1.599-2.0732-2.549-3.6745-2.12-1.601.429-2.5496 2.073-2.1212 3.672.4286 1.599 2.0733 2.549 3.6746 2.12 1.6009-.429 2.5496-2.073 2.1211-3.672zm-5.7446-9.848c5.8672-1.5714 11.8993 1.909 13.4719 7.777 1.5728 5.868-1.9108 11.899-7.7783 13.47-5.8672 1.572-11.8993-1.909-13.4719-7.776-1.5728-5.868 1.9108-11.899 7.7783-13.471z"/>
</svg>