<svg xmlns="http://www.w3.org/2000/svg" width="192" height="192" fill="#000" viewBox="0 0 192 192">
  <path fill-rule="evenodd" d="M9.18893 81.5C8.40687 86.2172 8 91.0611 8 96c0 20.126 6.7564 38.674 18.1248 53.5H31.5c1.1046 0 2-.895 2-2v-9.74c0-3.398 1.7359-6.56 4.6025-8.385.559-.355.8975-.972.8975-1.635v-3.755c0-.53-.2107-1.039-.5858-1.414l-13.4853-13.485C23.0536 107.21 22 104.667 22 102.015V83.5c0-1.1046-.8954-2-2-2H9.18893zm1.71377-8H20c5.5228 0 10 4.4771 10 10v18.515c0 .53.2107 1.039.5858 1.414l-2.8284 2.828 2.8284-2.828 13.4853 13.485C45.9464 118.79 47 121.333 47 123.985v3.755c0 3.398-1.7359 6.56-4.6025 8.385-.559.355-.8975.972-.8975 1.635v9.74c0 5.029-3.7118 9.19-8.545 9.895 6.4794 6.652 14.0028 12.283 22.3056 16.627l15.1047-11.619c2.4473-1.882 5.4483-2.903 8.5359-2.903h7.9995c4.0869 0 7.9698 1.786 10.6295 4.889l15.4128 17.981C153.437 174.473 184 138.805 184 96c0-6.8796-.789-13.5748-2.283-20h-4.058c-.824 2.3304-3.047 4-5.659 4h-7.5c-3.526 0-6.444-2.6077-6.929-6H156c-.828 0-1.5.6716-1.5 1.5v8.75c0 4.5564-3.694 8.25-8.25 8.25h-1.5c-2.12 0-4.013-.9778-5.25-2.507v.5466c0 .622.289 1.2087.783 1.5872l7.995 6.129c4.313 3.3072 5.195 9.4542 1.986 13.8412l-9.606 13.128c-.752 1.028-1.158 2.269-1.158 3.543v8.801c0 3.113-1.038 6.138-2.949 8.595l-9.491 12.203c-2.274 2.923-5.77 4.633-9.473 4.633h-1.553c-6.034 0-11.129-4.48-11.901-10.464l-4.3125-33.42c-.193-1.496-1.4669-2.616-2.9753-2.616H79.5c-9.3888 0-17-7.611-17-17v-10c0-14.3594 11.6406-26 26-26h13.75c4.556 0 8.25 3.6936 8.25 8.25 0 .1381.112.25.25.25H123c1.105 0 2-.8954 2-2v-8c0-1.1046-.895-2-2-2H92.75C88.4698 60 85 56.5302 85 52.25s3.4698-7.75 7.75-7.75H94c.5523 0 1-.4477 1-1v-4.25c0-3.8083 2.9364-6.9309 6.669-7.227C102.337 29.1447 104.918 27 108 27h7.5c1.105 0 2-.8954 2-2V10.6453C110.619 8.91753 103.417 8 96 8c-16.4431 0-31.833 4.5099-45 12.3601v20.3975c0 2.9027-1.2613 5.6622-3.4562 7.5617L25.3081 67.5617C23.4907 69.1344 21.1677 70 18.7643 70h-6.8602c-.3572 1.1567-.6912 2.3235-1.0014 3.5zm3.906-11.5h3.9556c.4807 0 .9453-.1731 1.3088-.4877l22.2357-19.2424c.4389-.3799.6912-.9318.6912-1.5123V25.7442C30.6679 35.062 20.8662 47.5518 14.8087 62zM125.5 13.0665V25c0 5.5229-4.477 10-10 10h-6.174c-.677 2.8667-3.252 5-6.326 5v3.5c0 3.9315-2.521 7.2743-6.0345 8.5H123c5.523 0 10 4.4771 10 10v8c0 5.5228-4.477 10-10 10h-12.25c-4.556 0-8.25-3.6936-8.25-8.25 0-.1381-.112-.25-.25-.25H88.5c-9.9411 0-18 8.0589-18 18v10c0 4.971 4.0294 9 9 9h17.3452c5.5308 0 10.2018 4.107 10.9098 9.592l4.312 33.42c.257 1.995 1.956 3.488 3.967 3.488h1.553c1.235 0 2.4-.57 3.158-1.544l9.491-12.203c.819-1.054 1.264-2.35 1.264-3.684v-8.801c0-2.973.946-5.868 2.702-8.267l9.605-13.128c.642-.877.466-2.107-.397-2.768l-7.994-6.1294c-2.469-1.8924-3.916-4.8257-3.916-7.936V86.25c0-4.0041 3.246-7.25 7.25-7.25h.5c3.301 0 6.048 2.3693 6.634 5.5h.366c.138 0 .25-.1119.25-.25V75.5c0-5.2467 4.253-9.5 9.5-9.5h2.5c3.526 0 6.444 2.6077 6.929 6h4.912c.824-2.3304 3.047-4 5.659-4h3.452c-8.578-25.5761-28.584-45.9094-53.952-54.9335zM103.531 183.682l-12.0748-14.087c-1.1399-1.33-2.804-2.095-4.5555-2.095h-7.9995c-1.3232 0-2.6094.437-3.6582 1.244l-11.7658 9.051C73.5381 181.799 84.512 184 96 184c2.5368 0 5.048-.107 7.531-.318zM0 96C0 42.9807 42.9807 0 96 0c53.019 0 96 42.9807 96 96 0 53.019-42.981 96-96 96-53.0193 0-96-42.981-96-96z"/>
</svg>