<svg xmlns="http://www.w3.org/2000/svg" width="193" height="192" fill="#000" viewBox="0 0 193 192">
  <path fill-rule="evenodd" d="M49.3211 52.0593c-1.6237-1.2578-3.847-1.4087-5.6258-.3817l-8.5324 4.9262 34.4369 38.8985c4.6839 5.2907 2.1032 13.6637-4.7466 15.3987l-22.3159 5.655c-3.0344.769-6.2525-.017-8.5905-2.099l-14.4791-12.889c-1.6286-1.45-4.0031-1.6929-5.8914-.603l-5.40201 3.119 20.40811 28.259c4.0411 5.595 11.089 8.157 17.7799 6.461l129.1397-32.723c7.234-1.834 10.713-10.0722 6.982-16.5351-2.519-4.3615-7.628-6.5188-12.51-5.2817l-57.698 14.6204c-1.193.3024-2.459.0385-3.432-.7153l-59.5229-46.11zm-9.6258-7.3099c4.5926-2.6515 10.3327-2.262 14.5251.9856l57.9816 44.9157 55.807-14.1414c8.353-2.1166 17.094 1.5744 21.403 9.0366 6.384 11.0576.432 25.1531-11.945 28.2891L48.3274 146.559c-9.871 2.501-20.2686-1.277-26.2305-9.533L1.4443 108.429c-2.64436-3.661-1.5431221-8.8059 2.36836-11.0642l5.7636-3.3277c4.87544-2.8148 11.00594-2.1879 15.21084 1.5554l14.479 12.8895c.3555.317.8448.436 1.3062.319l22.3159-5.654c1.0414-.264 1.4338-1.537.7216-2.342L28.8669 61.5611c-3.1961-3.6103-2.2796-9.2438 1.8962-11.6547l8.9322-5.157zM128.001 145c0-2.209 1.79-4 4-4h56c2.209 0 4 1.791 4 4s-1.791 4-4 4h-56c-2.21 0-4-1.791-4-4z"/>
</svg>