<svg xmlns="http://www.w3.org/2000/svg" width="192" height="192" fill="#000" viewBox="0 0 192 192">
  <path fill-rule="evenodd" d="M76 20C76 8.95431 84.9543 0 96 0c11.046 0 20 8.95431 20 20v38.5585l73.828 37.9454c1.334.6853 2.172 2.0585 2.172 3.5581V116c0 1.106-.458 2.163-1.265 2.919-.807.756-1.891 1.144-2.995 1.073L158 118.054V124c0 2.209-1.791 4-4 4s-4-1.791-4-4v-6.468l-8-.521V124c0 2.209-1.791 4-4 4s-4-1.791-4-4v-7.51l-18-1.173v48.766l12.02 9.656c.945.759 1.494 1.906 1.494 3.118V188c0 2.209-1.791 4-4 4H67.0286c-2.2092 0-4-1.791-4-4v-11.143c0-1.184.5246-2.307 1.4326-3.067L76 164.132v-48.815l-18 1.173V124c0 2.209-1.7909 4-4 4-2.2091 0-4-1.791-4-4v-6.989l-8 .521V124c0 2.209-1.7909 4-4 4-2.2091 0-4-1.791-4-4v-5.946l-29.7399 1.938c-1.10369.071-2.18791-.317-2.99502-1.073C.457965 118.163 0 117.106 0 116v-15.938c0-1.4996.838209-2.8728 2.1715-3.5581L76 58.5585V20zm8 146c0 1.184-.5246 2.307-1.4326 3.067l-11.5388 9.658V184h50.4854v-5.225l-12.019-9.657c-.945-.759-1.495-1.906-1.495-3.118V20c0-6.6274-5.373-12-12-12-6.6274 0-12 5.3726-12 12v146zm-8-98.4467L8 102.503v9.228l29.2142-1.904c.2541-.05.5168-.077.7858-.077.0892 0 .1777.003.2654.009l14.8978-.971c.2698-.058.5498-.088.8368-.088.1069 0 .2129.004.3177.013L76 107.3V67.5533zM116 107.3l21.682 1.413c.105-.009.211-.013.318-.013.287 0 .567.03.837.088l14.898.971c.087-.006.176-.009.265-.009.269 0 .532.027.786.077L184 111.731v-9.228l-68-34.9497V107.3z"/>
</svg>