<svg xmlns="http://www.w3.org/2000/svg" width="192" height="192" fill="#000" viewBox="0 0 192 192">
  <path fill-rule="evenodd" d="M87.5813 40.1045c-.7761-1.8946-2.6233-3.1325-4.6741-3.1325h-9.8374l10.3581 50.7272c1.4089 6.8997-5.0025 12.8398-11.792 10.9243l-22.1197-6.2388c-3.0077-.8483-5.3979-3.1303-6.3805-6.0914l-6.085-18.3379c-.6845-2.0627-2.6165-3.4553-4.7936-3.4553H26.029l3.5393 34.5551c.7008 6.8428 5.5164 12.5648 12.1484 14.4348l128.0043 36.104c7.17 2.022 14.291-3.354 14.291-10.791 0-5.019-3.341-9.426-8.18-10.791l-57.19-16.13c-1.183-.334-2.146-1.192-2.611-2.328L87.5813 40.1045zM82.9072 29c5.2949 0 10.064 3.1961 12.0678 8.0876l27.713 67.6514 55.316 15.602c8.28 2.335 13.996 9.876 13.996 18.462 0 12.724-12.183 21.923-24.451 18.462L39.5444 121.162c-9.7842-2.76-16.8885-11.201-17.9225-21.2961l-3.5817-34.9691c-.4586-4.4774 3.0622-8.3687 7.5718-8.3687h6.6451c5.621 0 10.6092 3.5956 12.3763 8.921l6.0851 18.3379c.1494.4502.5128.7972.9701.9262l22.1196 6.2388c1.0323.2912 2.0071-.6119 1.7928-1.6609l-10.4501-51.178C64.1896 33.405 67.7945 29 72.6089 29h10.2983zM0 159c0-2.209 1.79086-4 4-4h56c2.2091 0 4 1.791 4 4s-1.7909 4-4 4H4c-2.20914 0-4-1.791-4-4z"/>
</svg>