<svg xmlns="http://www.w3.org/2000/svg" width="192" height="192" fill="#000" viewBox="0 0 192 192">
  <path fill-rule="evenodd" d="M45 4c0-2.20914 1.7909-4 4-4h94c2.209 0 4 1.79086 4 4s-1.791 4-4 4h-12v59.9228C153.637 80.3126 169 104.359 169 132c0 24.395-11.97 45.995-30.34 59.244-.681.492-1.5.756-2.34.756H55.68c-.84 0-1.6587-.264-2.34-.756C34.9703 177.995 23 156.395 23 132c0-27.641 15.3633-51.6874 38-64.0772V8H49c-2.2091 0-4-1.79086-4-4zm24 4v62.3391c0 1.5108-.8512 2.8927-2.2005 3.5723C45.5574 84.6119 31 106.609 31 132c0 21.259 10.2018 40.135 25.9933 52h78.0137C150.798 172.135 161 153.259 161 132c0-25.391-14.557-47.3881-35.8-58.0886-1.349-.6796-2.2-2.0615-2.2-3.5723V8H69zm27 92c-16.1278 0-28 10.907-28 23 0 7.58 4.5324 14.568 11.9941 18.859 1.2409.714 2.0059 2.036 2.0059 3.468V152c0 1.105.8954 2 2 2h24c1.105 0 2-.895 2-2v-6.673c0-1.432.765-2.754 2.006-3.468C119.468 137.568 124 130.58 124 123c0-12.093-11.872-23-28-23zm-36 23c0-17.731 16.7816-31 36-31 19.218 0 36 13.269 36 31 0 10.184-5.648 18.996-14 24.552V152c0 5.523-4.477 10-10 10H84c-5.5228 0-10-4.477-10-10v-4.448c-8.3518-5.556-14-14.368-14-24.552zm26 0c2.2091 0 4 1.791 4 4v1c0 2.209-1.7909 4-4 4-2.2091 0-4-1.791-4-4v-1c0-2.209 1.7909-4 4-4zm20 0c2.209 0 4 1.791 4 4v1c0 2.209-1.791 4-4 4s-4-1.791-4-4v-1c0-2.209 1.791-4 4-4z"/>
</svg>