<svg xmlns="http://www.w3.org/2000/svg" width="192" height="192" fill="#000" viewBox="0 0 192 192">
  <path fill-rule="evenodd" d="M96 8C60.6538 8 32 36.6538 32 72c0 7.9587 1.4508 15.5693 4.0989 22.588.7798 2.0669-.2635 4.3747-2.3305 5.1545-2.0669.7795-4.3746-.2636-5.1545-2.3305C25.6305 89.5046 24 80.9381 24 72 24 32.2355 56.2355 0 96 0c39.764 0 72 32.2355 72 72 0 39.764-32.236 72-72 72H82.5153c-9.2559 0-17.2712 6.345-19.4366 15.286l-6.1631 29.531c-.4512 2.162-2.5697 3.55-4.7321 3.099-2.1624-.451-3.5499-2.569-3.0994-4.732l6.0197-28.895c.0527-.252.1086-.503.1677-.753l17.8129-85.3532c.4513-2.1625 2.5702-3.5498 4.7328-3.0984 2.1625.4513 3.5498 2.5702 3.0984 4.7328L66.9527 140.723c4.4827-2.999 9.8541-4.723 15.5626-4.723H96c35.346 0 64-28.654 64-64 0-35.3462-28.654-64-64-64z"/>
  <path d="M102 188c0 2.209-1.791 4-4 4-2.2091 0-4-1.791-4-4s1.7909-4 4-4c2.209 0 4 1.791 4 4z"/>
</svg>