<svg xmlns="http://www.w3.org/2000/svg" width="192" height="192" fill="#000" viewBox="0 0 192 192">
  <path fill-rule="evenodd" d="M29 22C29 9.84973 38.8497 0 51 0l90 7.2e-7C153.15 7.2e-7 163 9.84974 163 22v148c0 12.15-9.85 22-22 22H51c-12.1503 0-22-9.85-22-22V22zM51 8c-7.732 0-14 6.268-14 14v148c0 7.732 6.268 14 14 14h90c7.732 0 14-6.268 14-14V22c0-7.732-6.268-14-14-14H51zm2 14c-1.1046 0-2 .8954-2 2v53c0 1.1046.8954 2 2 2h86c1.105 0 2-.8954 2-2V24c0-1.1046-.895-2-2-2H53zm-10 2c0-5.5229 4.4772-10 10-10h86c5.523 0 10 4.4771 10 10v53c0 5.5229-4.477 10-10 10H53c-5.5229 0-10-4.4772-10-10V24zm53 81c-17.1208 0-31 13.879-31 31 0 17.121 13.8792 31 31 31 17.121 0 31-13.879 31-31 0-17.121-13.879-31-31-31zm-39 31c0-21.539 17.4609-39 39-39 21.539 0 39 17.461 39 39s-17.461 39-39 39c-21.5391 0-39-17.461-39-39zm39-7c-3.866 0-7 3.134-7 7s3.134 7 7 7 7-3.134 7-7-3.134-7-7-7zm-15 7c0-8.284 6.7157-15 15-15 8.284 0 15 6.716 15 15 0 8.284-6.716 15-15 15-8.2843 0-15-6.716-15-15z"/>
</svg>