<svg xmlns="http://www.w3.org/2000/svg" width="192" height="192" fill="#000" viewBox="0 0 192 192">
  <path fill-rule="evenodd" d="M86.8422 8C60.972 8 40.0001 28.9719 40.0001 54.8421c0 19.9696 11.732 32.1607 31.9807 44.5361 11.0725 6.7668 16.4634 14.9338 16.92 24.0958h26.9942c2.209 0 4 1.791 4 4s-1.791 4-4 4H88.1016c-1.4892 6.185-4.8406 12.217-8.911 17.845-5.8275 8.056-13.5709 15.875-20.9482 22.896-2.396 2.281-4.7354 4.462-6.9677 6.543-1.9571 1.824-3.8318 3.571-5.59 5.242H156c2.209 0 4 1.791 4 4s-1.791 4-4 4H36.0001c-1.5928 0-3.0338-.945-3.6686-2.406-.6348-1.461-.3424-3.159.7444-4.323 3.4918-3.742 8.1145-8.051 13.0104-12.616 2.1845-2.037 4.4235-4.124 6.6406-6.234 7.326-6.973 14.6128-14.369 19.9817-21.791 3.3361-4.612 5.7696-9.016 7.0899-13.156H36.0001c-2.2092 0-4-1.791-4-4s1.7908-4 4-4H80.886c-.4172-5.645-3.745-11.566-13.0771-17.27-20.9093-12.7789-35.8088-27.0575-35.8088-51.3619C32.0001 24.5536 56.5537 0 86.8422 0c19.2058 0 36.1028 9.87543 45.8928 24.8067 1.211 1.8474.696 4.327-1.152 5.5383-1.847 1.2114-4.327.6958-5.538-1.1517C117.67 16.4213 103.239 8 86.8422 8z"/>
</svg>