<svg xmlns="http://www.w3.org/2000/svg" width="192" height="192" fill="#000" viewBox="0 0 192 192">
  <path fill-rule="evenodd" d="M125 8c-1.105 0-2 .89543-2 2v26h8V10c0-1.10457-.895-2-2-2h-4zm-10 28V10C115 4.47716 119.477-4.8e-7 125 0l4 2.4e-7C134.523 7.2e-7 139 4.47715 139 10v26h21c2.209 0 4 1.7909 4 4 0 2.2092-1.791 4-4 4h-8v52.0004c0 20.8106-15.136 38.0866-35 41.4196V144c0 4.101-2.468 7.625-6 9.168V188c0 2.209-1.791 4-4 4s-4-1.791-4-4v-34H89v34c0 2.209-1.7909 4-4 4-2.2091 0-4-1.791-4-4v-34.832c-3.5318-1.543-6-5.067-6-9.168v-6.58c-19.864-3.333-35-20.609-35-41.4196V44h-8c-2.2091 0-4-1.7909-4-4 0-2.2091 1.7909-4 4-4h21V10C53 4.47715 57.4772 4.8e-7 63 7.2e-7l4 4.7e-7C72.5229.00000143 77 4.47716 77 10v26h38zm-46 0V10c0-1.10457-.8954-2-2-2h-4c-1.1046 0-2 .89543-2 2v26h8zm-21 8.0004v52C48 114.723 63.1327 129.911 81.834 130h28.332C128.867 129.911 144 114.723 144 96.0004v-52H48zM83 138v6c0 1.105.8954 2 2 2h22c1.105 0 2-.895 2-2v-6H83z"/>
</svg>