<svg xmlns="http://www.w3.org/2000/svg" width="192" height="192" fill="#000" viewBox="0 0 192 192">
  <path fill-rule="evenodd" d="M96 0c2.2091 0 4 1.79086 4 4v48c0 2.2091-1.7909 4-4 4-2.2091 0-4-1.7909-4-4V4c0-2.20914 1.7909-4 4-4zM75.3082 30.5975c.6759 2.1032-.4812 4.3561-2.5844 5.032C42.1314 45.4606 20 74.151 20 108c0 41.974 34.0264 76 76 76 41.974 0 76-34.026 76-76 0-33.849-22.131-62.5394-52.724-72.3705-2.103-.6759-3.26-2.9288-2.584-5.032.676-2.1032 2.929-3.2603 5.032-2.5844C155.528 38.8764 180 70.5751 180 108c0 46.392-37.608 84-84 84-46.3919 0-84-37.608-84-84 0-37.4249 24.4719-69.1236 58.2762-79.9869 2.1032-.6759 4.3561.4812 5.032 2.5844z"/>
</svg>