<svg xmlns="http://www.w3.org/2000/svg" width="192" height="192" fill="#000" viewBox="0 0 192 192">
  <path fill-rule="evenodd" d="M112.091 8c-1.061 0-2.079.42172-2.83 1.17238L9.17238 109.261c-1.56317 1.563-1.56318 4.098.00001 5.661l67.90571 67.906c1.5632 1.563 4.0976 1.563 5.6608 0L182.828 82.7389c.75-.7506 1.172-1.7688 1.172-2.8304V12.0028C184 9.7921 182.208 8 179.997 8h-67.906zm-8.487-4.48447C105.855 1.26458 108.908 0 112.091 0l67.906 7.2e-7C186.626 7.2e-7 192 5.37382 192 12.0028v67.9057c0 3.1834-1.265 6.2363-3.516 8.4873L88.3958 188.484c-4.6874 4.688-12.2871 4.688-16.9745 0L3.51553 120.579c-4.68737-4.688-4.68738-12.287 0-16.975L103.604 3.51553zm61.054 23.82607c-3.516-3.5164-9.217-3.5164-12.734 0-3.516 3.5165-3.516 9.2178 0 12.7343 3.517 3.5165 9.218 3.5165 12.734 0 3.517-3.5165 3.517-9.2178 0-12.7343zm-18.391-5.6568c6.641-6.6407 17.408-6.6407 24.048 0 6.641 6.6406 6.641 17.4073 0 24.048-6.64 6.6406-17.407 6.6406-24.048 0-6.64-6.6407-6.64-17.4074 0-24.048z"/>
</svg>