<svg xmlns="http://www.w3.org/2000/svg" width="192" height="192" fill="#000" viewBox="0 0 192 192">
  <path fill-rule="evenodd" d="M41 8c-2.2091 0-4 1.79086-4 4v49h118V38h-18c-6.627 0-12-5.3726-12-12V8H41zm92 5.6569L149.343 30H137c-2.209 0-4-1.7909-4-4V13.6569zM163 61V34c0-1.0609-.421-2.0783-1.172-2.8284l-30-30.00003C131.078.421427 130.061 0 129 0H41c-6.6274 0-12 5.37259-12 12v49h-7C9.84974 61 0 70.8497 0 83v59c0 12.15 9.84974 22 22 22h7v16c0 6.627 5.3726 12 12 12h110c6.627 0 12-5.373 12-12v-16h7c12.15 0 22-9.85 22-22V83c0-12.1503-9.85-22-22-22h-7zm0 95h7c7.732 0 14-6.268 14-14V83c0-7.732-6.268-14-14-14H22c-7.732 0-14 6.268-14 14v59c0 7.732 6.268 14 14 14h7v-32c0-2.209 1.7909-4 4-4h126c2.209 0 4 1.791 4 4v32zM37 180c0 2.209 1.7909 4 4 4h110c2.209 0 4-1.791 4-4v-52H37v52zm12-40c0-2.209 1.7909-4 4-4h86c2.209 0 4 1.791 4 4s-1.791 4-4 4H53c-2.2091 0-4-1.791-4-4zm0 16c0-2.209 1.7909-4 4-4h86c2.209 0 4 1.791 4 4s-1.791 4-4 4H53c-2.2091 0-4-1.791-4-4zm0 16c0-2.209 1.7909-4 4-4h86c2.209 0 4 1.791 4 4s-1.791 4-4 4H53c-2.2091 0-4-1.791-4-4z"/>
  <path d="M164 95c0 3.3137-2.686 6-6 6s-6-2.6863-6-6 2.686-6 6-6 6 2.6863 6 6z"/>
</svg>