<svg xmlns="http://www.w3.org/2000/svg" width="192" height="192" fill="#000" viewBox="0 0 192 192">
  <path fill-rule="evenodd" d="M63 8c-2.2091 0-4 1.79086-4 4v10h74V12c0-2.20914-1.791-4-4-4H63zm78 14V12c0-6.62741-5.373-11.99999738-12-11.99999738L63 0c-6.6274 0-12 5.37258-12 12v10h-8V11c0-2.20914-1.7909-4-4-4-2.2091 0-4 1.79086-4 4v11.1659C29.3246 23.1181 25 28.054 25 34v92c0 5.946 4.3246 10.882 10 11.834V148.5c0 6.351 5.1487 11.5 11.5 11.5S58 154.851 58 148.5V138h17v6c0 4.101 2.4682 7.625 6 9.168V188c0 2.209 1.7909 4 4 4 2.2091 0 4-1.791 4-4v-34h14v34c0 2.209 1.791 4 4 4s4-1.791 4-4v-34.832c3.532-1.543 6-5.067 6-9.168v-6h17v10.5c0 6.351 5.149 11.5 11.5 11.5s11.5-5.149 11.5-11.5v-10.666c5.675-.952 10-5.888 10-11.834V34c0-5.946-4.325-10.8819-10-11.8341V11c0-2.20915-1.791-4.00001-4-4-2.209 0-4 1.79086-4 4v11h-8zM37 30c-2.2091 0-4 1.7909-4 4v92c0 2.209 1.7909 4 4 4h118c2.209 0 4-1.791 4-4V34c0-2.2091-1.791-4-4-4H37zm112 108h-7v10.5c0 1.933 1.567 3.5 3.5 3.5s3.5-1.567 3.5-3.5V138zm-40 0H83v6c0 1.105.8954 2 2 2h22c1.105 0 2-.895 2-2v-6zm-59 0h-7v10.5c0 1.933 1.567 3.5 3.5 3.5s3.5-1.567 3.5-3.5V138z"/>
</svg>