<svg xmlns="http://www.w3.org/2000/svg" width="192" height="192" fill="#000" viewBox="0 0 192 192">
  <path fill-rule="evenodd" d="M146.576 9.5862c-.23-1.08723-1.291-1.76904-2.359-1.54156l-35.163 7.48856c-1.07.228-1.766 1.2879-1.535 2.3776l34.879 164.4112c.23 1.087 1.292 1.769 2.36 1.541l35.162-7.488c1.07-.228 1.766-1.288 1.535-2.378L146.576 9.5862zM142.55.220124c5.405-1.151126 10.707 2.307296 11.852 7.705886L189.281 172.337c1.145 5.396-2.292 10.712-7.695 11.862l-35.162 7.489c-5.405 1.151-10.707-2.308-11.852-7.706L106.361 50.9992V181.997c0 5.517-4.466 10.003-9.9916 10.003H60.4217c-2.2493 0-4.323-.743-5.9913-1.997-1.6684 1.254-3.7421 1.997-5.9913 1.997H12.4913C6.9659 192 2.5 187.514 2.5 181.997V13.913c0-5.51711 4.46589-10.00298 9.9913-10.00298h35.9478c2.2492 0 4.3229.74336 5.9913 1.99705 1.6683-1.25369 3.742-1.99705 5.9913-1.99705h35.9477c3.5799 0 6.7146 1.883 8.4786 4.70949.783-.40787 1.634-.7179 2.54-.91083L142.55.220124zM50.4304 13.913c0-1.1136-.8989-2.003-1.9913-2.003H12.4913c-1.0924 0-1.9913.8894-1.9913 2.003v168.084c0 1.114.8989 2.003 1.9913 2.003h35.9478c1.0924 0 1.9913-.889 1.9913-2.003V13.913zm8 168.084c0 1.114.8989 2.003 1.9913 2.003h35.9477c1.0924 0 1.9913-.889 1.9913-2.003V13.913c0-1.1136-.8989-2.003-1.9913-2.003H60.4217c-1.0924 0-1.9913.8894-1.9913 2.003v168.084zM133.856 26.6167l18.271 86.1253-7.803 1.662-18.271-86.1254 7.803-1.6619zm1.273-8.4504c2.708-.5767 5.358 1.1567 5.93 3.8528l19.516 91.9939c.571 2.694-1.143 5.353-3.849 5.929l-13.675 2.912c-2.707.577-5.358-1.156-5.93-3.852l-19.516-91.9944c-.571-2.6937 1.144-5.3528 3.849-5.929l13.675-2.9123zM26.4772 27.918v88.05h7.9771v-88.05h-7.9771zm-8-2.9995c0-2.7543 2.2305-5.0005 4.9985-5.0005h13.9801c2.7679 0 4.9985 2.2462 4.9985 5.0005v94.0495c0 2.754-2.2305 5-4.9985 5H23.4757c-2.768 0-4.9985-2.246-4.9985-5V24.9185zm55.9303 2.9995v88.05h7.9772v-88.05h-7.9772zm-8-2.9995c0-2.7543 2.2306-5.0005 4.9986-5.0005h13.98c2.768 0 4.9986 2.2462 4.9986 5.0005v94.0495c0 2.754-2.2306 5-4.9986 5h-13.98c-2.768 0-4.9986-2.246-4.9986-5V24.9185zM159.184 146.009c-.459-2.168-2.581-3.54-4.728-3.083-2.15.458-3.534 2.58-3.074 4.751.46 2.168 2.582 3.54 4.729 3.083 2.15-.458 3.534-2.58 3.073-4.751zm-6.395-10.907c6.484-1.381 12.847 2.767 14.221 9.247 1.374 6.477-2.751 12.855-9.232 14.236-6.485 1.381-12.847-2.768-14.222-9.248-1.374-6.477 2.752-12.855 9.233-14.235zM30.4657 145.977c-2.1954 0-3.9885 1.785-3.9885 4.004 0 2.219 1.7931 4.004 3.9885 4.004 2.1955 0 3.9886-1.785 3.9886-4.004 0-2.219-1.7931-4.004-3.9886-4.004zm-11.9885 4.004c0-6.622 5.3601-12.004 11.9885-12.004 6.6285 0 11.9886 5.382 11.9886 12.004 0 6.623-5.3601 12.004-11.9886 12.004-6.6284 0-11.9885-5.381-11.9885-12.004zm59.9189-4.004c-2.1955 0-3.9886 1.785-3.9886 4.004 0 2.219 1.7931 4.004 3.9886 4.004s3.9886-1.785 3.9886-4.004c0-2.219-1.7931-4.004-3.9886-4.004zm-11.9886 4.004c0-6.622 5.3601-12.004 11.9886-12.004s11.9886 5.382 11.9886 12.004c0 6.623-5.3601 12.004-11.9886 12.004s-11.9886-5.381-11.9886-12.004z"/>
</svg>