<svg xmlns="http://www.w3.org/2000/svg" width="192" height="192" fill="#000" viewBox="0 0 192 192">
  <path fill-rule="evenodd" d="M8.41476 25.0974C8.14052 27.8327 8 30.6081 8 33.4172c0 11.9421 2.5398 23.2876 7.1113 33.5396 8.8475-13.7215 21.1326-25.0404 35.6484-32.7606C39.3013 28.3196 26.2958 25 12.5 25c-1.37 0-2.73198.0327-4.08524.0974zM59.701 30.0161C45.9163 21.7527 29.7605 17 12.5 17c-2.69588 0-5.36548.1159-8.00391.3433-1.85826.1601-3.35924 1.5832-3.617964 3.4303C.299065 24.9077 0 29.1289 0 33.4172c0 15.1151 3.71497 29.3779 10.2886 41.926C3.70721 88.2692 0 102.885 0 118.351c0 2.453.0932763 4.886.276619 7.294.061202 1.026.515633 2.029 1.347841 2.762.84659.747 1.92034 1.07 2.96299.987 1.29641-.059 2.60081-.089 3.91255-.089 16.2595 0 31.421 4.611 44.2456 12.584 7.0184 4.364 13.3377 9.735 18.7517 15.91 1.8762 2.139 3.6435 4.375 5.2935 6.699C81.0994 170.566 88.0269 175 96 175c7.973 0 14.901-4.434 19.209-10.502 1.65-2.324 3.418-4.56 5.294-6.699 5.414-6.175 11.733-11.546 18.751-15.91 12.825-7.973 27.986-12.584 44.246-12.584 1.312 0 2.616.03 3.913.089 1.043.083 2.118-.241 2.965-.989.831-.733 1.284-1.735 1.345-2.76.184-2.408.277-4.841.277-7.294 0-15.466-3.707-30.0818-10.289-43.0078C188.285 62.7951 192 48.5323 192 33.4172c0-4.2883-.299-8.5095-.878-12.6436-.259-1.8471-1.76-3.2702-3.618-3.4303-2.639-.2274-5.308-.3433-8.004-.3433-17.26 0-33.416 4.7527-47.201 13.0161-11.203-4.55-23.462-7.0558-36.299-7.0558-12.8374 0-25.0955 2.5058-36.299 7.0558zm-.7017 9.0203c-17.3687 8.0049-31.6679 21.473-40.6592 38.1753-6.2344 11.5812-9.91881 24.7203-10.30613 38.6863C23.322 102.03 43.6706 93.5696 65.9998 93.5696c10.5446 0 20.6544 1.8875 30.0002 5.3445 9.346-3.457 19.456-5.3445 30-5.3445 22.329 0 42.678 8.4604 57.966 22.3284-.387-13.966-4.072-27.1051-10.306-38.6863-8.991-16.7023-23.291-30.1704-40.659-38.1753-15.592 10.4009-27.452 25.8787-33.1868 44.0312-.5257 1.6639-2.0693 2.795-3.8142 2.795s-3.2885-1.1311-3.8142-2.795c-5.7349-18.1525-17.5946-33.6303-33.1865-44.0312zm65.1417-3.5136c-8.832-2.958-18.294-4.5625-28.141-4.5625-9.8466 0-19.309 1.6045-28.1407 4.5625C79.9549 44.6686 89.6929 56.7423 96 70.6882c6.307-13.9459 16.045-26.0196 28.141-35.1654zm17.099-1.3266c14.516 7.7202 26.801 19.0391 35.649 32.7606C181.46 56.7048 184 45.3593 184 33.4172c0-2.8091-.141-5.5845-.415-8.3198C182.232 25.0327 180.87 25 179.5 25c-13.796 0-26.801 3.3196-38.26 9.1962zm36.943 87.2598C164.362 109.092 146.069 101.57 126 101.57c-6.56 0-12.926.803-19.007 2.315 12.822 6.92 23.673 16.986 31.507 29.158 11.841-6.658 25.322-10.769 39.683-11.587zm-46.479 15.809c-8.524-13.196-20.971-23.659-35.704-29.76-14.7328 6.101-27.1797 16.564-35.7037 29.76 5.1734 3.536 9.9622 7.587 14.2917 12.079 5.6704-5.079 13.1813-8.172 21.412-8.172 8.231 0 15.742 3.093 21.412 8.172 4.329-4.492 9.118-8.543 14.292-12.079zm-19.587 18.075c-4.26-3.834-9.911-6.168-16.117-6.168-6.2065 0-11.8566 2.334-16.1168 6.168 1.1893 1.472 2.3335 2.981 3.4305 4.526C86.4247 164.248 91.1005 167 96 167c4.899 0 9.575-2.752 12.686-7.134 1.097-1.545 2.242-3.054 3.431-4.526zM53.5 133.043c7.8337-12.172 18.6852-22.238 31.5073-29.158-6.081-1.512-12.4477-2.315-19.0075-2.315-20.0692 0-38.3614 7.522-52.1832 19.886 14.3612.818 27.8427 4.929 39.6834 11.587z"/>
</svg>