<svg xmlns="http://www.w3.org/2000/svg" width="192" height="192" fill="#000" viewBox="0 0 192 192">
  <path fill-rule="evenodd" d="M161.807 6.77209c.678 2.10246-.477 4.35661-2.579 5.03481L59.4292 44.0001H180c6.627 0 12 5.3726 12 12V176c0 6.628-5.373 12-12 12H12C5.37258 188-4.8e-7 182.628 0 176L.00001049 56.0001c4.8e-7-6.6274 5.37258951-12 11.99998951-12h21.3709L156.772 4.19327c2.102-.67821 4.357.47636 5.035 2.57882zM33.906 52.0001H12c-2.20913 0-3.99999 1.7909-3.99999 4L8 176c0 2.209 1.79086 4 4 4h168c2.209 0 4-1.791 4-4V56.0001c0-2.2091-1.791-4-4-4H34.0922c-.0622.0015-.1243.0014-.1862 0zm113.094 7c2.209 0 4 1.7909 4 4v1h17c2.209 0 4 1.7909 4 4 0 2.2091-1.791 4-4 4h-17v1c0 2.2091-1.791 4-4 4s-4-1.7909-4-4v-1H24c-2.2091 0-4-1.7909-4-4 0-2.2091 1.7909-4 4-4h119v-1c0-2.2091 1.791-4 4-4zM20 104c0-2.209 1.7909-4 4-4h64c2.2091 0 4 1.791 4 4s-1.7909 4-4 4H24c-2.2091 0-4-1.791-4-4zm118 4c-14.359 0-26 11.641-26 26 0 14.36 11.641 26 26 26s26-11.64 26-26c0-14.359-11.641-26-26-26zm-34 26c0-18.778 15.222-34 34-34s34 15.222 34 34-15.222 34-34 34-34-15.222-34-34zm-84-15c0-2.209 1.7909-4 4-4h64c2.2091 0 4 1.791 4 4s-1.7909 4-4 4H24c-2.2091 0-4-1.791-4-4zm0 15c0-2.209 1.7909-4 4-4h64c2.2091 0 4 1.791 4 4s-1.7909 4-4 4H24c-2.2091 0-4-1.791-4-4zm0 15c0-2.209 1.7909-4 4-4h64c2.2091 0 4 1.791 4 4s-1.7909 4-4 4H24c-2.2091 0-4-1.791-4-4zm0 15c0-2.209 1.7909-4 4-4h64c2.2091 0 4 1.791 4 4s-1.7909 4-4 4H24c-2.2091 0-4-1.791-4-4z"/>
</svg>