<svg xmlns="http://www.w3.org/2000/svg" width="192" height="192" fill="#000" viewBox="0 0 192 192">
  <path fill-rule="evenodd" d="M96 8C47.3989 8 8 47.3989 8 96c0 48.601 39.3989 88 88 88 48.601 0 88-39.399 88-88 0-48.6011-39.399-88-88-88zM0 96C0 42.9807 42.9807 0 96 0c53.019 0 96 42.9807 96 96 0 53.019-42.981 96-96 96-53.0193 0-96-42.981-96-96zm96-63c-34.7939 0-63 28.2061-63 63 0 2.2091-1.7909 4-4 4-2.2091 0-4-1.7909-4-4 0-39.2122 31.7878-71 71-71 2.2091 0 4 1.7909 4 4 0 2.2091-1.7909 4-4 4zm0 14c-27.062 0-49 21.938-49 49 0 2.2091-1.7909 4-4 4-2.2091 0-4-1.7909-4-4 0-31.4802 25.5198-57 57-57 2.2091 0 4 1.7909 4 4 0 2.2091-1.7909 4-4 4zm0 14c-19.33 0-35 15.67-35 35 0 2.2091-1.7909 4-4 4-2.2091 0-4-1.7909-4-4 0-23.7482 19.2518-43 43-43 2.2091 0 4 1.7909 4 4 0 2.2091-1.7909 4-4 4zm0 30c-2.7614 0-5 2.2386-5 5s2.2386 5 5 5 5-2.2386 5-5-2.2386-5-5-5zm-13 5c0-7.1797 5.8203-13 13-13 7.18 0 13 5.8203 13 13 0 7.18-5.82 13-13 13-7.1797 0-13-5.82-13-13zm52-4c2.209 0 4 1.7909 4 4 0 23.748-19.252 43-43 43-2.2091 0-4-1.791-4-4s1.7909-4 4-4c19.33 0 35-15.67 35-35 0-2.2091 1.791-4 4-4zm14 0c2.209 0 4 1.7909 4 4 0 31.48-25.52 57-57 57-2.2091 0-4-1.791-4-4s1.7909-4 4-4c27.062 0 49-21.938 49-49 0-2.2091 1.791-4 4-4zm14 0c2.209 0 4 1.7909 4 4 0 39.212-31.788 71-71 71-2.2091 0-4-1.791-4-4s1.7909-4 4-4c34.794 0 63-28.206 63-63 0-2.2091 1.791-4 4-4z"/>
</svg>