<svg xmlns="http://www.w3.org/2000/svg" width="193" height="192" fill="#000" viewBox="0 0 193 192">
  <path fill-rule="evenodd" d="M69.0382 2.01364C69.148 2.00455 69.2581 2 69.3683 2h54.7757c5.5 0 10.285 2.33674 13.06 7.06134l.004.00808 9.926 16.99258 9.508-5.6225c1.558-.9209 3.539-.6819 4.833.583 1.293 1.2648 1.577 3.2405.691 4.8181L141.54 62.5839c-.706 1.2566-2.033 2.0366-3.474 2.0419l-42.7376.1565c-1.8109.0067-3.4004-1.2042-3.8749-2.9519-.4745-1.7476.2844-3.5961 1.85-4.5062l9.6865-5.6311-7.8264-13.6356-18.8683 32.636c-.5319.92-1.4081 1.5906-2.4352 1.8636-1.0271.2731-2.1206.1262-3.0392-.4083L33.357 50.3533c-1.9067-1.1093-2.5555-3.5527-1.4502-5.4617l17.8241-30.7847C53.5768 7.02139 60.7998 2.48376 68.7633 2.0364l.2749-.02276zM98.6797 28.1131c-.0235-.0427-.0477-.085-.0728-.1268L90.9307 14.613c-.0224-.039-.0455-.0777-.0692-.116-.1689-.2725-.3384-.5486-.5095-.8273-.7405-1.2061-1.51-2.4596-2.3827-3.6697h36.1747c3.093 0 5.027 1.1837 6.159 3.1095.001.001.002.002.002.003l11.95 20.4571c.536.9192 1.418 1.5865 2.448 1.8541 1.031.2675 2.125.1133 3.041-.4286l.163-.0959-12.202 21.7352-25.457.0932.202-.1175c1.903-1.1059 2.554-3.5409 1.459-5.4494L98.6797 28.1131zM69.5304 10.0003l-.1624.0134c-.0387.0032-.0774.0058-.1162.0079-5.2336.2802-9.9898 3.2654-12.5097 7.9382-.0192.0355-.0388.0708-.059.1057l-15.853 27.3802L71.377 63.217l19.1828-33.18-6.5338-11.3831c-.0732-.1181-.1452-.2342-.2159-.3485-2.0482-3.3068-3.1189-5.0355-4.782-6.2442-1.5215-1.1059-4.0049-2.0429-9.4977-2.0609zm95.8536 54.2305c1.914-1.0966 4.355-.4367 5.455 1.475l17.748 30.8281c4.213 6.8721 4.532 15.3941.94 22.5141l-.116.247c-.048.103-.101.203-.158.302l-27.388 47.437c-2.749 4.763-7.166 7.738-12.644 7.779h-.01l-19.679.1.115 11.045c.019 1.809-1.178 3.406-2.921 3.894-1.742.488-3.595-.255-4.518-1.81l-21.507-36.235c-.7359-1.239-.748-2.779-.032-4.029l21.233-37.09c.9-1.572 2.743-2.343 4.494-1.88 1.751.463 2.972 2.044 2.978 3.855l.033 11.205 15.724.039L126.3 91.2464c-.531-.9207-.674-2.0148-.396-3.0408.277-1.026.951-1.8995 1.873-2.4278l37.607-21.547zM154.379 123.93l13.123.034c.139-.005.275-.009.41-.013 3.888-.121 5.92-.183 7.798-1.019 1.718-.765 3.771-2.446 6.532-7.191l.068-.145c.018-.038.036-.076.055-.114 2.374-4.672 2.167-10.284-.62-14.802l-.03-.051c-.011-.018-.021-.035-.032-.053l-15.785-27.4194-30.664 17.5686 19.145 33.2048zm18.646 7.776c-1.485.15-2.955.19-4.37.228-.326.009-.65.018-.971.028-.045.001-.09.002-.135.002l-42.14-.106c-2.201-.006-3.984-1.788-3.99-3.989l-.001-.233-12.648 22.093 12.723 21.434-.002-.188c-.011-1.065.402-2.09 1.149-2.848.747-.759 1.766-1.188 2.83-1.194l23.691-.12h.005c2.234-.018 4.225-1.101 5.771-3.779l18.088-31.328zM46.086 71.3024c1.441-.0174 2.78.7417 3.5051 1.987l21.5044 36.9336c.9112 1.565.6573 3.547-.6189 4.832-1.2763 1.285-3.2565 1.552-4.8275.651l-9.7201-5.574-7.8945 13.595 37.6965.022c1.0628.001 2.0816.424 2.8316 1.177.75.753 1.1696 1.774 1.166 2.837l-.1435 43.342c-.0073 2.206-1.799 3.99-4.0049 3.987l-35.5723-.044c-8.0578.212-15.5979-3.773-19.9674-10.444l-.1546-.222c-.0645-.093-.125-.188-.1814-.285L2.31654 116.659c-2.74992-4.763-3.118699-10.075-.41437-14.84l.00463-.008L11.66 84.7184l-9.62341-5.4231C.460422 78.4071-.323319 76.5715.125253 74.8188c.448573-1.7527 2.017767-2.9861 3.826837-3.008l42.13391-.5084zM36.55 159.953c-2.7291-4.764-3.1591-7.383-2.9622-9.253.2153-2.044 1.177-3.836 3.0168-7.263.0636-.119.1282-.239.1939-.362l6.5919-11.351 38.325.023-.117 35.34-31.6384-.039c-.0404 0-.0807.001-.121.002-5.3068.154-10.2702-2.473-13.1296-6.865-.0226-.035-.0458-.069-.0695-.103l-.0899-.129zm1.0198-34.136l-7.7233 13.299c-.0226.039-.0446.079-.0659.118-.1515.283-.3059.568-.4617.855-.6743 1.245-1.375 2.538-1.9867 3.899L9.24475 112.659c-1.54627-2.678-1.48834-4.945-.38715-6.888.00073-.001.00146-.002.0022-.004l11.7416-20.5766c.5277-.9247.6649-2.0215.3814-3.0476-.2835-1.0262-.9643-1.897-1.8918-2.4196l-.1641-.0925 24.924-.3008L56.6602 101.33l-.2029-.116c-1.909-1.095-4.3436-.442-5.4487 1.461l-13.3239 22.944c-.0401.065-.0784.13-.1149.198z"/>
</svg>