<svg xmlns="http://www.w3.org/2000/svg" width="192" height="192" fill="#000" viewBox="0 0 192 192">
  <path fill-rule="evenodd" d="M26 10c0-5.52285 4.4772-10 10-10h120c5.523 0 10 4.47715 10 10v172c0 5.523-4.477 10-10 10H36c-5.5228 0-10-4.477-10-10V10zm10-2c-1.1046 0-2 .89543-2 2v20.6667h22V8H36zm28 0v84h64V8H64zm72 0v22.6667h22V10c0-1.10457-.895-2-2-2h-20zm22 30.6667h-22v22.6666h22V38.6667zm0 30.6666h-22V92h22V69.3333zM158 100h-22v22.667h22V100zm0 30.667h-22v22.666h22v-22.666zm0 30.666h-22V184h20c1.105 0 2-.895 2-2v-20.667zM128 184v-84H64v84h64zm-72 0v-22.667H34V182c0 1.105.8954 2 2 2h20zm-22-30.667h22v-22.666H34v22.666zm0-30.666h22V100H34v22.667zM34 92h22V69.3333H34V92zm0-30.6667h22V38.6667H34v22.6666z"/>
</svg>