<svg xmlns="http://www.w3.org/2000/svg" width="192" height="192" fill="#000" viewBox="0 0 192 192">
  <path fill-rule="evenodd" d="M96 8C63.4334 8 34.9917 25.6902 19.772 52H56c2.2091 0 4 1.7909 4 4 0 2.2091-1.7909 4-4 4H13.1273c-2.2091 0-3.99998-1.7909-3.99998-4V13c0-2.2091 1.79088-4 3.99998-4 2.2092 0 4 1.7909 4 4v28.2587C34.4629 16.3277 63.3219 0 96 0c53.019 0 96 42.9807 96 96 0 2.2091-1.791 4-4 4s-4-1.7909-4-4c0-48.6011-39.399-88-88-88zM4 92c2.20914 0 4 1.7909 4 4 0 48.601 39.3989 88 88 88 32.567 0 61.008-17.69 76.228-44H136c-2.209 0-4-1.791-4-4s1.791-4 4-4h42.873c2.209 0 4 1.791 4 4v43c0 2.209-1.791 4-4 4s-4-1.791-4-4v-28.259C157.537 175.672 128.678 192 96 192c-53.0193 0-96-42.981-96-96 0-2.2091 1.79086-4 4-4z"/>
</svg>