<svg xmlns="http://www.w3.org/2000/svg" width="192" height="192" fill="#000" viewBox="0 0 192 192">
  <path fill-rule="evenodd" d="M10 18c-1.10457 0-2 .8954-2 2v152c0 1.105.89543 2 2 2h172c1.105 0 2-.895 2-2V44c0-1.1046-.895-2-2-2H83.9671c-2.4809 0-4.8215-1.151-6.3361-3.1159L61.5329 18H10zM0 20c0-5.5228 4.47715-10 10-10h51.5329c2.4809 0 4.8214 1.151 6.3361 3.1159L83.9671 34H182c5.523 0 10 4.4772 10 10v128c0 5.523-4.477 10-10 10H10c-5.52285 0-10-4.477-10-10V20zm92.1499 65.9999c-3.0963 0-5.6063 2.51-5.6063 5.6063v1.601c0 2.2091-1.7908 4-4 4-2.2091 0-4-1.7909-4-4v-1.601c0-7.5146 6.0918-13.6063 13.6063-13.6063h6.4851c8.177 0 14.806 6.6289 14.806 14.8062 0 5.9228-3.53 11.2759-8.974 13.6089-2.714 1.164-4.4746 3.833-4.4746 6.787v5.23c0 2.209-1.7909 4-4 4-2.2091 0-4-1.791-4-4v-5.23c0-6.154 3.6674-11.716 9.3236-14.1401 2.503-1.0725 4.125-3.5332 4.125-6.2558 0-3.759-3.047-6.8062-6.806-6.8062h-6.4851zM96.062 129c2.2091 0 4 1.791 4 4v1c0 2.209-1.7909 4-4 4-2.2091 0-4-1.791-4-4v-1c0-2.209 1.7909-4 4-4z"/>
</svg>