<svg xmlns="http://www.w3.org/2000/svg" width="192" height="192" fill="#000" viewBox="0 0 192 192">
  <path fill-rule="evenodd" d="M104.037 13.3398c-7.0836-7.11972-18.5602-7.11972-25.644 0-3.9858 4.0061-5.7368 9.4114-5.2384 14.6633.3873 4.082 2.1324 8.0464 5.2384 11.1682 3.1054 3.1212 7.0426 4.869 11.089 5.2569 1.23.1179 2.4697.11 3.6983-.0237 3.9643-.4316 7.8107-2.1714 10.8567-5.2332 3.166-3.1818 4.918-7.2397 5.259-11.405.425-5.1775-1.333-10.4805-5.259-14.4265zM72.7219 7.69724c10.2112-10.26299 26.7752-10.26299 36.9861 0 5.169 5.19496 7.715 12.02526 7.649 18.81886l32.79 32.9566h19.775c8.899 0 16.078 7.2449 16.078 16.1394V90.698c0 2.2091-1.791 4-4 4s-4-1.7909-4-4V75.6121c0-4.5144-3.636-8.1394-8.078-8.1394h-19.775l-17.591 17.6799V106.06c0 4.514 3.636 8.139 8.079 8.139h15.146c2.21 0 4 1.791 4 4s-1.79 4-4 4h-15.146c-8.899 0-16.079-7.245-16.079-16.139V85.1526l-32.49-32.6554c-.4658.0152-.9319.0179-1.3978.0082L58.2803 85.0576c.0103.4816.0075.9633-.0084 1.4448l32.3956 32.5596c.1818-.003.364-.005.5466-.005 14.4579 0 26.1429 11.774 26.1429 26.255v11.374h32.434c5.564 0 10.039 4.528 10.039 10.07v15.174c0 5.543-4.475 10.07-10.039 10.07H43.1014c-5.5635 0-10.0391-4.527-10.0391-10.07v-15.174c0-5.542 4.4756-10.07 10.0391-10.07h21.9695v-11.374c0-.19.002-.38.006-.57L32.382 111.881c-6.7697.062-13.5671-2.505-18.732-7.696-10.20001-10.2514-10.20001-26.8644 0-37.1162 5.2434-5.27 12.1688-7.8346 19.04-7.6914L65.0781 26.825c-.1477-6.8952 2.3966-13.8539 7.6438-19.12776zm-5.702 28.51846L42.0421 61.3203c3.1285 1.2836 6.0592 3.2006 8.5943 5.7485 2.5261 2.5389 4.4269 5.4705 5.702 8.5981l24.9778-25.1045c-3.1286-1.2836-6.0592-3.2006-8.5943-5.7486-2.5261-2.5389-4.427-5.4705-5.702-8.5981zm34.3151 14.2549l27.222 27.3598 14.285-14.3577L115.5 35.9923c-1.275 3.2113-3.205 6.2222-5.792 8.8215-2.475 2.4878-5.327 4.3742-8.373 5.6568zM56.2467 95.8093c-1.2739 3.0444-3.1442 5.8977-5.6103 8.3757-2.5953 2.609-5.605 4.556-8.8171 5.839l25.1995 25.327c2.6528-6.493 7.8212-11.685 14.2959-14.346l-25.068-25.1957zm53.1103 60.8767v-11.374c0-10.101-8.142-18.255-18.1429-18.255-.5867 0-1.1657.028-1.736.082-8.6158.821-15.5048 7.725-16.3251 16.422-.0543.575-.0821 1.159-.0821 1.751v11.374h36.2861zM33.8763 67.4544c-5.2049-.4989-10.5707 1.2523-14.5551 5.2569-7.0949 7.1309-7.0949 18.7007 0 25.8316 3.9246 3.9441 9.1888 5.7021 14.3198 5.2781 4.1292-.342 8.159-2.097 11.3242-5.2781 3.0469-3.0623 4.7838-6.9349 5.2147-10.9338.1336-1.239.1415-2.4892.0238-3.7296-.3874-4.0819-2.1324-8.0464-5.2385-11.1682-3.1054-3.1211-7.0425-4.869-11.0889-5.2569zm9.2251 97.2316c-1.1071 0-2.0391.908-2.0391 2.07v15.174c0 1.162.932 2.07 2.0391 2.07H149.791c1.107 0 2.039-.908 2.039-2.07v-15.174c0-1.162-.932-2.07-2.039-2.07H43.1014z"/>
</svg>