<svg xmlns="http://www.w3.org/2000/svg" width="192" height="192" fill="#000" viewBox="0 0 192 192">
  <path fill-rule="evenodd" d="M74.4339 40.0585C66.2904 59.3066 60 82.7466 60 100c0 17.385 3.8587 29.806 7.6193 37.797 1.8839 4.003 3.7514 6.912 5.1156 8.788.4108.565.776 1.036 1.0822 1.415h44.3659c.306-.379.671-.85 1.082-1.415 1.364-1.876 3.232-4.785 5.116-8.788C128.141 129.806 132 117.385 132 100c0-17.2534-6.29-40.6934-14.434-59.9414-.541-1.2797-1.089-2.5371-1.642-3.7693-.11.0384-.225.0783-.345.1195-1.166.3996-2.819.9282-4.798 1.4561C106.858 38.911 101.484 40 96 40s-10.8577-1.089-14.7807-2.1351c-1.9798-.5279-3.6323-1.0565-4.7979-1.4561-.1201-.0412-.2352-.0811-.345-.1194-.5531 1.2321-1.1012 2.4895-1.6425 3.7691zm5.1136-11.038c.9753.3238 2.2497.719 3.7331 1.1146C86.8577 31.0889 91.4839 32 96 32c4.516 0 9.142-.9111 12.719-1.8649 1.484-.3956 2.758-.7908 3.734-1.1146-2.521-4.9514-5.082-9.2899-7.555-12.7627-2.096-2.943-4.033-5.1286-5.7222-6.53791C97.4073 8.24442 96.3695 8 96 8c-.3696 0-1.4073.24442-3.1758 1.71988-1.6892 1.40932-3.6265 3.59492-5.7222 6.53792-2.4731 3.4728-5.0344 7.8113-7.5545 12.7627zM130.228 144c-1.638 3.115-3.217 5.535-4.493 7.29-.818 1.125-1.512 1.976-2.017 2.563-.253.293-.459.521-.61.683-.075.081-.137.146-.184.195-.023.024-.043.044-.059.061l-.001.001c.072.137.143.277.214.418 1.771 3.543 3.302 8.974.5 14.578-2.452 4.904-7.174 7.489-11.08 9.627-.359.197-.712.39-1.055.581-4.391 2.439-8.671 5.057-12.1145 10.222-.7419 1.113-1.9908 1.781-3.3282 1.781s-2.5863-.668-3.3282-1.781c-3.443-5.165-7.7237-7.783-12.1144-10.222-.3432-.191-.6958-.384-1.0553-.581-3.9062-2.138-8.6279-4.723-11.0798-9.627-2.8019-5.604-1.2712-11.035.5-14.578.0706-.141.1421-.28.2142-.418l-.0018-.001c-.016-.017-.0358-.037-.0593-.061-.047-.049-.1087-.114-.1841-.195-.1509-.162-.3568-.39-.6095-.683-.5056-.587-1.1993-1.438-2.0171-2.563-1.2764-1.755-2.8553-4.175-4.4928-7.29H16c-1.0609 0-2.0783-.421-2.8284-1.172C12.4214 142.078 12 141.061 12 140c0-22.982 17.6201-41.8491 40.0882-43.8285.8148-18.1754 7.1791-40.7966 14.9779-59.2301 4.1916-9.9073 8.8858-18.8175 13.5194-25.3242 2.3105-3.24452 4.7014-6.02762 7.1137-8.04021C90.0323 1.63058 92.8695 0 96 0c3.1304 0 5.968 1.63058 8.301 3.57699 2.412 2.01259 4.803 4.79568 7.114 8.04021 4.633 6.5067 9.327 15.4169 13.519 25.3242 7.799 18.4335 14.163 41.0547 14.978 59.2301C162.38 98.1509 180 117.018 180 140c0 2.209-1.791 4-4 4h-45.772zm-78.1728-39.786C35.3428 106.035 22.0663 119.295 20.2197 136h37.2532c-3.3242-8.937-5.0923-19.566-5.4177-31.786zM77.8386 156c-.5488.714-1.2041 1.676-1.7606 2.789-1.2287 2.457-1.6981 5.026-.5 7.422 1.2938 2.588 3.8249 3.993 8.5466 6.616l.3183.176c3.5408 1.967 7.7366 4.419 11.5574 8.548 3.8208-4.129 8.0167-6.581 11.5577-8.548l.318-.176c4.722-2.623 7.253-4.028 8.547-6.616 1.198-2.396.728-4.965-.5-7.422-.557-1.113-1.212-2.075-1.761-2.789H77.8386zM96 60c-6.6274 0-12 5.3726-12 12s5.3726 12 12 12c6.627 0 12-5.3726 12-12s-5.373-12-12-12zM76 72c0-11.0457 8.9543-20 20-20 11.046 0 20 8.9543 20 20s-8.954 20-20 20c-11.0457 0-20-8.9543-20-20zm9.0342 25.3159C85.7925 96.478 86.8699 96 88 96h16c1.13 0 2.207.478 2.966 1.3159.758.838 1.127 1.9576 1.014 3.0821l-4 40c-.204 2.045-1.925 3.602-3.98 3.602h-8c-2.055 0-3.7757-1.557-3.9802-3.602l-4-40c-.1124-1.1245.2561-2.2441 1.0144-3.0821zM92.4199 104l3.2 32h.7601l3.2-32h-7.1601zm42.1071 32h37.254c-1.847-16.705-15.123-29.965-31.836-31.786-.325 12.22-2.093 22.849-5.418 31.786z"/>
</svg>