<svg xmlns="http://www.w3.org/2000/svg" width="192" height="192" fill="#000" viewBox="0 0 192 192">
  <path fill-rule="evenodd" d="M91.433 8C58.8406 8 30.3779 25.691 15.147 52h36.2569c2.2091 0 4 1.7909 4 4 0 2.2091-1.7909 4-4 4H8.5c-2.20914 0-4-1.7909-4-4V13c0-2.2091 1.79086-4 4-4 2.2091 0 4 1.7909 4 4v28.2663C29.8476 16.3304 58.7296 0 91.433 0 144.487 0 187.5 42.9779 187.5 96c0 53.022-43.013 96-96.067 96-26.5261 0-50.548-10.749-67.9286-28.117-1.5626-1.561-1.5636-4.094-.002-5.657 1.5615-1.562 4.0942-1.563 5.6568-.002C45.1004 174.154 67.1119 184 91.433 184c48.641 0 88.067-39.402 88.067-88 0-48.5983-39.426-88-88.067-88z"/>
</svg>