<svg xmlns="http://www.w3.org/2000/svg" width="192" height="192" fill="#000" viewBox="0 0 192 192">
  <path fill-rule="evenodd" d="M4.5 96c0-53.0221 43.0134-96 96.067-96 32.703 0 61.585 16.3304 78.933 41.2663V13c0-2.2091 1.791-4 4-4s4 1.7909 4 4v43c0 2.2091-1.791 4-4 4h-42.904c-2.209 0-4-1.7909-4-4 0-2.2091 1.791-4 4-4h36.257c-15.231-26.309-43.694-44-76.286-44C51.9262 8 12.5 47.4017 12.5 96c0 48.598 39.4262 88 88.067 88 24.321 0 46.333-9.846 62.274-25.776 1.562-1.561 4.095-1.56 5.657.002 1.561 1.563 1.56 4.096-.002 5.657C151.115 181.251 127.093 192 100.567 192 47.5134 192 4.5 149.022 4.5 96z"/>
</svg>