<svg xmlns="http://www.w3.org/2000/svg" width="192" height="192" fill="#000" viewBox="0 0 192 192">
  <path fill-rule="evenodd" d="M12 70c-2.20914 0-4 1.7909-4 4v44c0 2.209 1.79086 4 4 4h168c2.209 0 4-1.791 4-4V74c0-2.2091-1.791-4-4-4h-11v18c0 2.2091-1.791 4-4 4s-4-1.7909-4-4V70h-15v18c0 2.2091-1.791 4-4 4s-4-1.7909-4-4V70h-15v18c0 2.2091-1.791 4-4 4s-4-1.7909-4-4V70h-15v18c0 2.2091-1.7909 4-4 4-2.2091 0-4-1.7909-4-4V70H77v18c0 2.2091-1.7909 4-4 4-2.2091 0-4-1.7909-4-4V70H54v18c0 2.2091-1.7909 4-4 4-2.2091 0-4-1.7909-4-4V70H31v18c0 2.2091-1.7909 4-4 4-2.2091 0-4-1.7909-4-4V70H12zM0 74c0-6.6274 5.37258-12 12-12h168c6.627 0 12 5.3726 12 12v44c0 6.627-5.373 12-12 12H12c-6.62742 0-12-5.373-12-12V74z"/>
</svg>