<svg xmlns="http://www.w3.org/2000/svg" width="192" height="192" fill="#000" viewBox="0 0 192 192">
  <path fill-rule="evenodd" d="M23.2997 1.17157c1.5621-1.562094 4.0948-1.562094 5.6569 0L79.7068 51.9218c.7502.7501 1.1716 1.7676 1.1716 2.8284 0 1.0609-.4214 2.0783-1.1716 2.8285l-8.7356 8.7356 6.2716 6.2717C82.378 68.4679 88.903 66 96 66c16.569 0 30 13.4315 30 30 0 7.097-2.468 13.622-6.586 18.757l6.272 6.272 8.735-8.736c1.562-1.562 4.095-1.562 5.657 0l50.75 50.75c1.563 1.562 1.563 4.095 0 5.657L168.7 190.828c-.75.751-1.767 1.172-2.828 1.172s-2.078-.421-2.829-1.172l-50.75-50.75c-.75-.75-1.171-1.767-1.171-2.828s.421-2.079 1.171-2.829l7.736-7.735-6.406-6.406C108.676 123.876 102.583 126 96 126c-16.5685 0-30-13.431-30-30 0-6.5833 2.1241-12.6763 5.7199-17.6233l-6.4056-6.4055-7.7356 7.7356c-.7502.7502-1.7676 1.1716-2.8285 1.1716-1.0608 0-2.0782-.4214-2.8284-1.1716L1.17157 28.9566C.421427 28.2064-2.4e-7 27.189 0 26.1281c0-1.0608.421428-2.0782 1.17157-2.8284L23.2997 1.17157zM9.65686 26.1281L54.7502 71.2215l16.4713-16.4713L26.1282 9.65685 9.65686 26.1281zM96 74c-6.2907 0-11.9595 2.6351-15.9742 6.8729C76.2872 84.8193 74 90.1383 74 96c0 12.15 9.8497 22 22 22 5.862 0 11.181-2.287 15.127-6.026C115.365 107.959 118 102.291 118 96c0-12.1503-9.85-22-22-22zm-71.598 8.7452c1.5621 1.5621 1.5621 4.0947 0 5.6568-21.86934 21.869-21.86934 57.327 0 79.196 21.8694 21.869 57.3266 21.869 79.196 0 1.562-1.562 4.095-1.562 5.657 0 1.562 1.562 1.562 4.095 0 5.657-24.9937 24.993-65.5163 24.993-90.5098 0-24.99359-24.994-24.99359-65.516 0-90.5098 1.5621-1.5621 4.0947-1.5621 5.6568 0zm22.6274 22.6278c1.5621 1.562 1.5621 4.094 0 5.656-9.3725 9.373-9.3725 24.569 0 33.942 9.3726 9.372 24.5686 9.372 33.9412 0 1.5621-1.563 4.0947-1.563 5.6568 0 1.5621 1.562 1.5621 4.094 0 5.656-12.4968 12.497-32.758 12.497-45.2548 0-12.4968-12.496-12.4968-32.758 0-45.254 1.5621-1.563 4.0947-1.563 5.6568 0zm90.2206 15.405l-16.472 16.472 45.094 45.093 16.471-16.471-45.093-45.094z"/>
</svg>