<svg xmlns="http://www.w3.org/2000/svg" width="192" height="192" fill="#000" viewBox="0 0 192 192">
  <path fill-rule="evenodd" d="M96 8c-4.4183 0-8 3.5817-8 8s3.5817 8 8 8c4.418 0 8-3.5817 8-8s-3.582-8-8-8zm-16 8c0-8.83656 7.1634-16 16-16 8.837 0 16 7.16344 16 16 0 7.4554-5.099 13.7198-12 15.4959V39h88c2.209 0 4 1.7909 4 4 0 2.2091-1.791 4-4 4h-18.324l18.091 50.6547c.154.4317.233.8868.233 1.3453 0 13.255-10.745 24-24 24s-24-10.745-24-24c0-.4585.079-.9136.233-1.3453L158.324 47H100v109c0 2.209-1.7909 4-4 4-2.2091 0-4-1.791-4-4V47H33.676l18.091 50.6547c.1542.4317.233.8868.233 1.3453 0 13.255-10.7452 24-24 24S4 112.255 4 99c0-.4585.07883-.9136.23303-1.3453L22.324 47H4c-2.20914 0-4-1.7909-4-4 0-2.2091 1.79086-4 4-4h88v-7.5041C85.0991 29.7198 80 23.4554 80 16zM28 54.8929L13.676 95h28.648L28 54.8929zM43.4959 103H12.5041c1.7761 6.901 8.0405 12 15.4959 12 7.4554 0 13.7198-5.099 15.4959-12zM164 54.8929L149.676 95h28.648L164 54.8929zM179.496 103h-30.992c1.776 6.901 8.041 12 15.496 12s13.72-5.099 15.496-12zM64 172c0-2.209 1.7909-4 4-4h56c2.209 0 4 1.791 4 4s-1.791 4-4 4H68c-2.2091 0-4-1.791-4-4zm-24 16c0-2.209 1.7909-4 4-4h104c2.209 0 4 1.791 4 4s-1.791 4-4 4H44c-2.2091 0-4-1.791-4-4z"/>
</svg>