<svg xmlns="http://www.w3.org/2000/svg" width="192" height="192" fill="#000" viewBox="0 0 192 192">
  <path fill-rule="evenodd" d="M100.092 35.2535c1.517-1.6061 4.048-1.6784 5.654-.1615l13.258 12.5207C121.801 42.4815 127.244 39 133.5 39c2.209 0 4 1.7909 4 4v25c0 2.2092-1.791 4-4 4-3.109 0-6.017-.8599-8.5-2.355v22.6182C131.08 88.9096 138.07 87 145.5 87c19.49 0 35.909 13.115 40.925 31H188c2.209 0 4 1.791 4 4s-1.791 4-4 4h-4.656c-.052.001-.104.001-.156 0h-9.401c.141 1.148.213 2.316.213 3.5 0 15.74-12.76 28.5-28.5 28.5S117 145.24 117 129.5c0-1.184.072-2.352.213-3.5H75.7868c.1408 1.148.2132 2.316.2132 3.5 0 15.74-12.7599 28.5-28.5 28.5S19 145.24 19 129.5c0-1.184.0724-2.352.2132-3.5H4c-2.20914 0-4-1.791-4-4s1.79086-4 4-4h2.57555c2.06111-7.349 6.04565-13.889 11.37445-19.0453C11.8143 98.4228 7 93.2736 7 87c0-6.6274 5.3726-12 12-12h58c6.6274 0 12 5.3726 12 12 0 6.595-5.3202 11.9475-11.9029 11.9996 5.3055 5.1494 9.273 11.6724 11.3281 19.0004H117V56.7242l-16.746-15.8161c-1.6066-1.5169-1.6789-4.0485-.162-5.6546zM125.297 126h40.406c.195 1.136.297 2.305.297 3.5 0 11.322-9.178 20.5-20.5 20.5s-20.5-9.178-20.5-20.5c0-1.195.102-2.364.297-3.5zm-.297-8v-16.252C130.732 97.5061 137.819 95 145.5 95c15.019 0 27.803 9.6 32.538 23H125zm-44.9618 0c-2.8957-8.192-8.8028-14.972-16.3969-19H31.3594c-7.5941 4.028-13.5011 10.808-16.3969 19h65.0757zm-52.7413 8c-.195 1.136-.2969 2.305-.2969 3.5 0 11.322 9.1782 20.5 20.5 20.5S68 140.822 68 129.5c0-1.195-.1019-2.364-.2969-3.5H27.2969zM125 55.5c0 3.2483 1.822 6.0711 4.5 7.5019V47.9981c-2.678 1.4308-4.5 4.2536-4.5 7.5019zM19 83c-2.2091 0-4 1.7909-4 4 0 2.2091 1.7909 4 4 4h58c2.2091 0 4-1.7909 4-4 0-2.2091-1.7909-4-4-4H19z"/>
</svg>