<svg xmlns="http://www.w3.org/2000/svg" width="192" height="192" fill="#000" viewBox="0 0 192 192">
  <path fill-rule="evenodd" d="M19 155h78c2.2091 0 4 1.791 4 4s-1.7909 4-4 4H19c-2.2091 0-4-1.791-4-4s1.7909-4 4-4z"/>
  <path d="M173 159c0 4.418-3.582 8-8 8s-8-3.582-8-8 3.582-8 8-8 8 3.582 8 8zM19 109h78c2.2091 0 4 1.791 4 4s-1.7909 4-4 4H19c-2.2091 0-4-1.791-4-4s1.7909-4 4-4zM165 121c4.418 0 8-3.582 8-8s-3.582-8-8-8-8 3.582-8 8 3.582 8 8 8z"/>
  <path fill-rule="evenodd" d="M190.001 136c1.255-1.671 1.999-3.749 1.999-6V96c0-5.5228-4.477-10-10-10H10C4.47715 86 .00000433 90.4772.00000385 96L0 130c0 2.251.743887 4.329 1.99926 6-1.25537 1.671-1.99925596 3.749-1.99925615 6L0 176c0 5.523 4.47714 10 10 10h172c5.523 0 10-4.477 10-10v-34c0-2.251-.744-4.329-1.999-6zm-7.994 4H9.99279C8.89155 140.004 8 140.898 8 142v34c0 1.105.89543 2 2 2h172c1.105 0 2-.895 2-2v-34c0-1.102-.892-1.996-1.993-2zm0-8H9.99279C8.89154 131.996 8 131.102 8 130V96c0-1.1046.89544-2 2-2h172c1.105 0 2 .8954 2 2v34c0 1.102-.892 1.996-1.993 2zM100 14c-9.4168 0-17.3714 6.2491-19.9165 14.8108-.5243 1.7638-2.1843 2.9424-4.0224 2.8558-.2748-.013-.5516-.0195-.8303-.0195C65.7048 31.6471 58 39.3469 58 48.8235 58 58.3002 65.7048 66 75.2308 66h53.0772C135.879 66 142 59.8804 142 52.3529c0-7.5274-6.121-13.647-13.692-13.647-.945 0-1.863.0947-2.747.2738-1.186.2403-2.417-.0691-3.348-.8416s-1.463-1.9251-1.446-3.1349c.002-.099.002-.1981.002-.2973C120.769 23.28 111.48 14 100 14zm-26.5823 9.7111C77.743 13.3116 88.015 6 100 6c14.521 0 26.542 10.7389 28.492 24.7067C140.378 30.8056 150 40.4495 150 52.3529 150 64.3179 140.278 74 128.308 74H75.2308C61.3059 74 50 62.7378 50 48.8235c0-13.3051 10.3376-24.1853 23.4177-25.1124z"/>
</svg>