<svg xmlns="http://www.w3.org/2000/svg" width="192" height="192" fill="#000" viewBox="0 0 192 192">
  <path fill-rule="evenodd" d="M13.4791 176.016c8.1281-21.139 13.3243-40.353 16.2615-57.696.2284-1.349 1.1305-2.488 2.3914-3.019l16.2545-6.845-14.2727-10.4987c-1.0915-.8029-1.7023-2.1038-1.6229-3.4565 1.9713-33.5833-5.0725-58.6189-14.4342-75.7371-1.7951-3.2825-1.3994-7.0023.3553-9.71004 1.7903-2.76263 5.1549-4.66427 9.0935-3.87683C79.4634 15.5648 164.952 59.9019 169.886 172.506c2.139.448 4.232 1.194 6.216 2.237l4.497 2.365c2.319 1.22 4.859 1.829 7.401 1.829 2.209 0 4 1.805 4 4.032 0 2.226-1.791 4.031-4 4.031-3.811 0-7.624-.915-11.101-2.743l-4.498-2.365c-4.637-2.439-10.165-2.439-14.802 0l-4.497 2.365c-6.956 3.657-15.247 3.657-22.203 0l-4.498-2.365c-4.637-2.439-10.165-2.439-14.802 0l-4.497 2.365c-6.956 3.657-15.2473 3.657-22.2035 0l-4.4973-2.365c-4.6375-2.439-10.1647-2.439-14.8021 0l-4.4974 2.365c-6.9561 3.657-15.247 3.657-22.2032 0l-4.4973-2.365c-4.6375-2.439-10.1647-2.439-14.8021 0l-4.4974 2.365C11.6237 186.086 7.81127 187 3.99998 187 1.79084 187-.00001097 185.195 0 182.969c.00001097-2.227 1.79088-4.032 4.00002-4.032 2.54171 0 5.08231-.609 7.40118-1.829l2.0779-1.092zM25.0756 14.9251c-.2811-.514-.2277-1.0924.05-1.5208.1316-.2032.2757-.3086.3771-.3553.0774-.0357.2006-.0741.4344-.0274C75.7804 22.9868 156.845 65.1572 161.864 172.207c-2.746.365-5.443 1.21-7.965 2.536l-4.498 2.365c-4.637 2.439-10.165 2.439-14.802 0l-4.497-2.365c-6.956-3.657-15.247-3.657-22.203 0l-4.498 2.365c-4.6373 2.439-10.1645 2.439-14.8019 0l-4.4974-2.365c-6.9561-3.657-15.247-3.657-22.2032 0l-4.4973 2.365c-4.6375 2.439-10.1647 2.439-14.8022 0l-4.4973-2.365c-4.5703-2.403-9.7167-3.227-14.6822-2.472 6.5955-18.167 11.0718-34.972 13.8314-50.445l20.7331-8.731c1.3265-.558 2.2507-1.787 2.4199-3.216.1692-1.429-.4426-2.839-1.6021-3.692L40.5934 92.7924c1.6292-33.8852-5.5905-59.7149-15.5178-77.8673z"/>
</svg>