<svg xmlns="http://www.w3.org/2000/svg" width="192" height="192" fill="#000" viewBox="0 0 192 192">
  <path fill-rule="evenodd" d="M19.7676 15.4412C21.4784 12.1011 24.9153 10 28.6681 10H165.168c3.894 0 7.435 2.2615 9.073 5.7954L189.086 47.83c1.92 4.1424 2.914 8.6532 2.914 13.2188 0 12.2847-8.536 22.5757-20 25.2656V178c0 2.209-1.791 4-4 4H24c-2.2091 0-4-1.791-4-4V86.4027C8.55968 83.8825 0 73.684 0 61.4863c0-4.8972 1.16427-9.7242 3.39679-14.0829L19.7676 15.4412zM28 86.9814V174h52V86.082c-2.2343.599-4.5812.918-7 .918-9.7014 0-18.2467-5.1322-23.0023-12.875C45.4054 81.5979 37.2838 86.6388 28 86.9814zm60-4.5336V174h76V86.9814c-9.284-.3426-17.405-5.3835-21.998-12.8564C137.247 81.8678 128.701 87 119 87c-9.7 0-18.244-5.1306-23-12.8712-2.0393 3.3191-4.7752 6.1584-8 8.319zM28.6681 18c-.7506 0-1.438.4202-1.7801 1.0882L10.5171 51.0504C8.86277 54.2803 8 57.8573 8 61.4863 8 71.1589 15.8411 79 25.5137 79h1.4752c10.1665 0 18.5294-8.0072 18.971-18.1641l.0439-1.0097C46.0968 57.6867 47.8584 56 50 56s3.9032 1.6867 3.9962 3.8263l.0444 1.0207C54.4819 70.9977 62.8397 79 73 79s18.5181-8.0023 18.9594-18.153l.0444-1.0207C92.0968 57.6867 93.8584 56 96 56s3.9032 1.6867 3.9962 3.8263l.0448 1.0207C100.482 70.9977 108.84 79 119 79s18.518-8.0023 18.959-18.153l.045-1.0208C138.097 57.6867 139.858 56 142 56s3.903 1.6867 3.996 3.8262l.044 1.0097C146.482 70.9928 154.845 79 165.011 79h1.038C175.963 79 184 70.963 184 61.0488c0-3.4038-.741-6.7668-2.173-9.8551l-14.845-32.0346c-.327-.7068-1.035-1.1591-1.814-1.1591H28.6681zM70 119c2.2091 0 4 1.791 4 4v15c0 2.209-1.7909 4-4 4-2.2091 0-4-1.791-4-4v-15c0-2.209 1.7909-4 4-4zm86.828 4.172c1.563 1.562 1.563 4.094 0 5.656l-38 38c-1.562 1.563-4.094 1.563-5.656 0-1.563-1.562-1.563-4.094 0-5.656l38-38c1.562-1.563 4.094-1.563 5.656 0zm0 26c1.563 1.562 1.563 4.094 0 5.656l-12 12c-1.562 1.563-4.094 1.563-5.656 0-1.563-1.562-1.563-4.094 0-5.656l12-12c1.562-1.563 4.094-1.563 5.656 0z"/>
</svg>