<svg xmlns="http://www.w3.org/2000/svg" width="192" height="192" fill="#000" viewBox="0 0 192 192">
  <path d="M111 59.9999c2.209 0 4-1.7908 4-4 0-2.2091-1.791-4-4-4s-4 1.7909-4 4c0 2.2092 1.791 4 4 4z"/>
  <path fill-rule="evenodd" d="M184.868 7.03469c1.54 1.58369 1.504 4.11611-.079 5.65631l-25.288 24.5938 29.761 9.9204c2.096.6986 3.229 2.9639 2.53 5.0596-.699 2.0958-2.964 3.2284-5.06 2.5299l-31.253-10.4179c-1.649 12.2337-6.699 28.298-17.354 42.0456-11.738 15.1456-30.171 27.3136-57.7297 28.4856 2.0746 16.141 10.7741 39.884 31.8927 53.428 4.766-3.053 9.125-6.688 12.978-10.803.026-.028.052-.055.079-.082l50.814-51.267c1.555-1.569 4.088-1.58 5.657-.025 1.569 1.555 1.58 4.088.025 5.657l-50.775 51.227c-4.9 5.226-10.533 9.758-16.737 13.43C103.031 183.162 89.8463 187 75.7771 187c-27.853 0-52.1791-15.126-65.3408-37.543C3.80419 138.162 0 125.007 0 111c0-12.8382 3.2168-24.9598 8.88476-35.5894C21.6758 51.4224 46.9774 34.9999 76 34.9999h74.376l28.835-28.04392c1.584-1.54021 4.116-1.50497 5.657.07871zM72 106.917c-27.7301-1.162-44.7779-14.3984-54.9318-29.7672C28.2192 57.8481 48.5609 44.4899 72 43.1168v63.8002zm8 0V42.9999h67.592c-1.447 11.1083-6.051 25.9557-15.79 38.5219C121.429 94.9061 105.127 105.865 80 106.917zM13.0469 85.3332c8.771 11.7334 21.4812 21.8738 39.2875 26.6868-13.3985 4.784-27.7568 13.359-38.0667 27.528C10.2453 130.86 8 121.188 8 111c0-9.075 1.79454-17.741 5.0469-25.6668zM75.7771 179c-24.0351 0-45.164-12.603-57.205-31.568 13.612-21.354 37.6359-30.065 53.8194-32.075 2.0418 16.764 10.6399 41.659 32.0535 57.3C95.7412 176.726 86.0287 179 75.7771 179z"/>
</svg>