<svg xmlns="http://www.w3.org/2000/svg" width="192" height="192" fill="#000" viewBox="0 0 192 192">
  <path fill-rule="evenodd" d="M166.592 45.3431c-.458-.4575-1.199-.4575-1.657 0l-6.923 6.9231 18.722 18.7218 6.923-6.923c.457-.4575.457-1.1993 0-1.6568l-17.065-17.0651zm4.485 31.3018L152.355 57.923l-70.0119 70.012c-.2197.22-.3431.518-.3431.828V147h18.237c.31 0 .608-.123.828-.343l70.012-70.0121zM100.237 155c2.432 0 4.765-.966 6.485-2.686l82.592-82.5922c3.581-3.5817 3.581-9.3887 0-12.9704l-17.065-17.0651c-3.582-3.5817-9.389-3.5817-12.971 0L76.6863 122.278c-1.72 1.72-2.6863 4.053-2.6863 6.485V147H18.5C12.701 147 8 142.299 8 136.5S12.701 126 18.5 126h25c10.2173 0 18.5-8.283 18.5-18.5C62 97.2827 53.7173 89 43.5 89H33c-2.2091 0-4 1.7909-4 4 0 2.2091 1.7909 4 4 4h10.5c5.799 0 10.5 4.701 10.5 10.5S49.299 118 43.5 118h-25C8.28273 118 0 126.283 0 136.5S8.28273 155 18.5 155h81.737z"/>
</svg>