<svg xmlns="http://www.w3.org/2000/svg" width="192" height="192" fill="#000" viewBox="0 0 192 192">
  <path fill-rule="evenodd" d="M85 4c0-2.20914 1.7909-4 4-4h14c2.209 0 4 1.79086 4 4v17h43c1.515 0 2.9.856 3.578 2.2111l10 20c.563 1.1262.563 2.4516 0 3.5778l-10 19.9999C152.9 68.144 151.515 69 150 69h-43v13h37c5.523 0 10 4.4771 10 10v28c0 5.523-4.477 10-10 10h-37v54h37c2.209 0 4 1.791 4 4s-1.791 4-4 4H48c-2.2091 0-4-1.791-4-4s1.7909-4 4-4h37v-54H42c-1.5151 0-2.9001-.856-3.5777-2.211l-10-20c-.5631-1.126-.5631-2.452 0-3.578l10-19.9999C39.0999 82.856 40.4849 82 42 82h43V69H48c-5.5228 0-10-4.4771-10-10V31c0-5.5228 4.4772-10 10-10h37V4zm8 17h6V8h-6v13zm-45 8c-1.1046 0-2 .8954-2 2v28c0 1.1046.8954 2 2 2h99.528l8-16-8-16H48zm45 40v13h6V69h-6zM44.4721 90l-8 16 8 16H144c1.105 0 2-.895 2-2V92c0-1.1046-.895-2-2-2H44.4721zM93 130v54h6v-54h-6zM74 45c0-2.2091 1.7909-4 4-4h36c2.209 0 4 1.7909 4 4 0 2.2091-1.791 4-4 4H78c-2.2091 0-4-1.7909-4-4zm-10 61c0-2.209 1.7909-4 4-4h56c2.209 0 4 1.791 4 4s-1.791 4-4 4H68c-2.2091 0-4-1.791-4-4z"/>
</svg>