<svg xmlns="http://www.w3.org/2000/svg" width="192" height="192" fill="#000" viewBox="0 0 192 192">
  <path fill-rule="evenodd" d="M62.8234 8.88303C64.865 6.50715 67.6315 5 71 5c3.0263 0 5.4614 1.44276 7.2229 3.55472 1.6643 1.99548 2.7879 4.63278 3.5885 7.47718 1.6073 5.7101 2.2612 13.5619 2.2985 22.6048.074 17.9492-2.2928 41.8143-5.6288 66.0843 3.7551 10.531 8.0243 19.662 12.4812 26.137 4.7829 6.949 8.9431 9.642 12.0377 9.642 2.323 0 4.028-.522 5.322-1.308 1.302-.791 2.411-1.985 3.326-3.662 1.895-3.474 2.778-8.702 2.702-15.17-.151-12.837-4.034-28.5076-7.636-39.0687-.646-1.894.207-3.9739 1.997-4.8689s3.965-.3297 5.093 1.3233c2.852 4.1797 6.715 8.5803 11.161 12.0205 4.465 3.4548 9.283 5.765 14.097 6.1866 8.931.7823 20.629-4.951 31.224-31.4384 4.029-10.0717 9.647-16.451 17.298-17.2518 2.197-.23 4.164 1.3646 4.394 3.5618.23 2.1971-1.364 4.1647-3.562 4.3947-3.062.3206-6.99 2.9869-10.702 12.2665-11.005 27.5126-24.974 37.6964-39.351 36.4364-6.841-.599-13.086-3.799-18.294-7.8289-.37-.2868-.737-.5787-1.099-.8753 1.882 8.1602 3.285 17.0192 3.38 25.0472.082 6.97-.809 13.835-3.679 19.096-1.468 2.69-3.488 5.023-6.195 6.668-2.715 1.649-5.899 2.471-9.476 2.471-7.4186 0-13.6762-5.912-18.6276-13.106-2.8941-4.205-5.635-9.271-8.1813-14.897-2.256 14.797-4.7674 29.371-7.2144 42.503H186.5c2.209 0 4 1.791 4 4s-1.791 4-4 4H67.4602c-.8692 4.508-1.7214 8.794-2.5414 12.802-.4428 2.164-2.5563 3.56-4.7206 3.117-2.1643-.443-3.5598-2.557-3.117-4.721.7219-3.528 1.4689-7.274 2.2307-11.198H4C1.79086 171 6e-8 169.209 6e-8 167S1.79086 163 4 163h56.8381c3.2734-17.457 6.6853-37.607 9.4528-57.457-6.9664-20.1368-11.8651-44.0957-13.0135-63.2372-.5801-9.6683-.2259-18.4318 1.4839-24.9283.8532-3.242 2.1246-6.2398 4.0621-8.49447zm9.9574 77.31077c2.0776-17.7725 3.3833-34.3779 3.3291-47.5241-.0365-8.8529-.6925-15.8278-1.9993-20.4703-.6563-2.3319-1.3907-3.7525-2.0314-4.5207C71.5356 13.0269 71.2187 13 71 13c-.7345 0-1.3786.2469-2.1091 1.097-.8346.9712-1.6969 2.6712-2.3931 5.3166-1.3891 5.2782-1.7967 13.0478-1.2348 22.4131.7988 13.3148 3.5122 29.2012 7.5178 44.3671zM1.17158 98.1716c1.56209-1.5621 4.09475-1.5621 5.65685 0L26.5 117.843l19.6716-19.6714c1.5621-1.5621 4.0947-1.5621 5.6568 0s1.5621 4.0944 0 5.6564L32.1569 123.5l19.6715 19.672c1.5621 1.562 1.5621 4.094 0 5.656-1.5621 1.563-4.0947 1.563-5.6568 0L26.5 129.157 6.82843 148.828c-1.5621 1.563-4.09476 1.563-5.65686 0-1.562094-1.562-1.562094-4.094 0-5.656L20.8431 123.5 1.17158 103.828c-1.5621-1.562-1.5621-4.0943 0-5.6564z"/>
</svg>