<svg xmlns="http://www.w3.org/2000/svg" width="192" height="192" fill="#000" viewBox="0 0 192 192">
  <path fill-rule="evenodd" d="M33.7186 7.16925c1.5634 1.56082 1.5655 4.09345.0047 5.65685C17.8242 28.7513 8 50.7246 8 75.0001c0 24.2754 9.8241 46.2489 25.7231 62.1739 1.5608 1.563 1.5587 4.096-.0047 5.657s-4.096 1.558-5.6569-.005C10.7264 125.462 0 101.48 0 75.0001c0-26.48 10.7264-50.4624 28.0618-67.82621 1.5608-1.56337 4.0934-1.56545 5.6568-.00464zm124.5624 0c1.564-1.56081 4.096-1.55873 5.657.00464C181.274 24.5377 192 48.5201 192 75.0001c0 26.4799-10.726 50.4619-28.062 67.8259-1.56 1.563-4.093 1.566-5.656.005-1.564-1.561-1.566-4.094-.005-5.657C174.176 121.249 184 99.2755 184 75.0001c0-24.2755-9.824-46.2488-25.723-62.174-1.561-1.5634-1.559-4.09603.004-5.65685zM51.4523 24.7955c1.5621 1.5621 1.5621 4.0948 0 5.6569C40.0471 41.8575 33 57.602 33 75.0001s7.0471 33.1429 18.4523 44.5479c1.5621 1.562 1.5621 4.095 0 5.657-1.5621 1.562-4.0948 1.562-5.6569 0C32.9513 112.361 25 94.6051 25 75.0001s7.9513-37.3605 20.7954-50.2046c1.5621-1.5621 4.0948-1.5621 5.6569 0zm89.0957 0c1.562-1.5621 4.094-1.5621 5.657 0C159.049 37.6396 167 55.3951 167 75.0001s-7.951 37.3609-20.795 50.2049c-1.563 1.562-4.095 1.562-5.657 0-1.562-1.562-1.562-4.095 0-5.657C151.953 108.143 159 92.3982 159 75.0001s-7.047-33.1426-18.452-44.5477c-1.562-1.5621-1.562-4.0948 0-5.6569zM69.1299 42.4732c1.5621 1.5621 1.5621 4.0948 0 5.6569C62.2489 55.0111 58 64.5056 58 75.0001c0 10.4945 4.2489 19.9891 11.1299 26.8699 1.5621 1.562 1.5621 4.095 0 5.657-1.5621 1.562-4.0947 1.562-5.6568 0C55.1531 99.207 50 87.7016 50 75.0001c0-12.7014 5.1531-24.2069 13.4731-32.5269 1.5621-1.5621 4.0947-1.5621 5.6568 0zm53.7401 0c1.562-1.5621 4.095-1.5621 5.657 0 8.32 8.32 13.473 19.8255 13.473 32.5269 0 12.7015-5.153 24.2069-13.473 32.5269-1.562 1.562-4.095 1.562-5.657 0-1.562-1.562-1.562-4.095 0-5.657C129.751 94.9892 134 85.4946 134 75.0001c0-10.4945-4.249-19.989-11.13-26.87-1.562-1.5621-1.562-4.0948 0-5.6569z"/>
  <path fill-rule="evenodd" d="M96 62c-7.1797 0-13 5.8203-13 13 0 4.5812 2.3667 8.6121 5.9629 10.9331C90.989 87.2407 93.3997 88 96 88s5.011-.7593 7.037-2.0669C106.633 83.6121 109 79.5812 109 75c0-7.1797-5.82-13-13-13zM75 75c0-11.598 9.402-21 21-21s21 9.402 21 21c0 6.3786-2.846 12.0907-7.326 15.9379L129.202 178H137c2.209 0 4 1.791 4 4s-1.791 4-4 4H55c-2.2091 0-4-1.791-4-4s1.7909-4 4-4h7.7978l19.528-87.0621C77.8461 87.0907 75 81.3786 75 75zm14.6113 20.0094L81.09 133h29.82l-8.521-37.9906C100.372 95.6528 98.225 96 96 96c-2.225 0-4.3724-.3472-6.3887-.9906zM112.704 141H79.2956l-8.299 37h50.0064l-8.299-37z"/>
</svg>