<svg xmlns="http://www.w3.org/2000/svg" width="192" height="192" fill="none" viewBox="0 0 192 192">
  <path fill="#000" fill-rule="evenodd" d="M96 8C55.6832 8 23 40.6832 23 81c0 18.0661 6.5575 34.59 17.4271 47.338 3.2231 3.78.7582 10.036-4.5825 10.036-4.3289 0-7.8446 3.512-7.8446 7.813 0 4.315 3.498 7.813 7.8131 7.813H55c1.9554 0 3.6241 1.414 3.9456 3.342l4.1644 24.987c.1607.964.9951 1.671 1.9728 1.671H72v-13c0-2.209 1.7909-4 4-4 2.2091 0 4 1.791 4 4v13h12v-13c0-2.209 1.7909-4 4-4 2.2091 0 4 1.791 4 4v13h12v-13c0-2.209 1.791-4 4-4s4 1.791 4 4v13h6.917c.978 0 1.812-.707 1.973-1.671l4.164-24.987c.322-1.928 1.991-3.342 3.946-3.342h19.187c4.315 0 7.813-3.498 7.813-7.813 0-4.301-3.516-7.813-7.845-7.813-5.34 0-7.805-6.256-4.582-10.036C162.442 115.59 169 99.0661 169 81c0-40.3168-32.683-73-73-73zM65.0828 192c-4.8884 0-9.0603-3.534-9.864-8.356L51.6115 162H35.8131C27.0798 162 20 154.92 20 146.187c0-7.463 5.1862-13.702 12.1241-15.373C21.3958 117.075 15 99.7802 15 81 15 36.2649 51.2649 0 96 0c44.735 0 81 36.2649 81 81 0 18.7802-6.396 36.075-17.124 49.814 6.938 1.671 12.124 7.91 12.124 15.373 0 8.733-7.08 15.813-15.813 15.813h-15.798l-3.608 21.644c-.803 4.822-4.975 8.356-9.864 8.356H65.0828zM67.5 85C60.0442 85 54 91.0442 54 98.5c0 7.456 6.0442 13.5 13.5 13.5S81 105.956 81 98.5C81 91.0442 74.9558 85 67.5 85zM46 98.5C46 86.6259 55.6259 77 67.5 77S89 86.6259 89 98.5c0 11.874-9.6259 21.5-21.5 21.5S46 110.374 46 98.5zm63.546-14.9541c1.562-1.5621 4.095-1.5621 5.657 0l9.546 9.546 9.546-9.546c1.562-1.5621 4.094-1.5621 5.657 0 1.562 1.5621 1.562 4.0948 0 5.6569l-9.546 9.5459 9.546 9.5463c1.562 1.562 1.562 4.094 0 5.657-1.563 1.562-4.095 1.562-5.657 0l-9.546-9.546-9.546 9.546c-1.562 1.562-4.095 1.562-5.657 0-1.562-1.563-1.562-4.095 0-5.657l9.546-9.5463-9.546-9.5459c-1.562-1.5621-1.562-4.0948 0-5.6569zM96 133c-6.0751 0-11 4.925-11 11 0 2.209-1.7909 4-4 4-2.2091 0-4-1.791-4-4 0-10.493 8.5066-19 19-19 10.493 0 19 8.507 19 19 0 2.209-1.791 4-4 4s-4-1.791-4-4c0-6.075-4.925-11-11-11z"/>
</svg>