<svg xmlns="http://www.w3.org/2000/svg" width="192" height="192" fill="#000" viewBox="0 0 192 192">
  <path fill-rule="evenodd" d="M96 8c-14.7782 0-27.2732 9.8421-31.2744 23.3482-.5231 1.7659-2.1844 2.9463-4.0241 2.8593-.4361-.0206-.8751-.031-1.3169-.031C44.2638 34.1765 32 46.4459 32 61.5882 32 76.7306 44.2638 89 59.3846 89h78.4614C150.078 89 160 79.0745 160 66.8235c0-12.251-9.922-22.1764-22.154-22.1764-1.523 0-3.007.1533-4.437.4441-1.186.2412-2.418-.0677-3.35-.8402-.932-.7724-1.464-1.9253-1.447-3.1356.002-.1559.003-.312.003-.4683C128.615 22.6133 114.01 8 96 8zM58.0253 26.2021C63.8446 10.8893 78.6457 0 96 0c21.097 0 38.432 16.0956 40.424 36.6801.472-.022.946-.033 1.422-.033 16.657 0 30.154 13.5137 30.154 30.1764C168 83.4863 154.503 97 137.846 97H59.3846C39.839 97 24 81.1423 24 61.5882c0-19.0987 15.1099-34.6712 34.0253-35.3861zm9.7189 80.9349c2.1334.574 3.3978 2.768 2.8241 4.902l-5.694 21.175c-.5737 2.133-2.7682 3.397-4.9015 2.824-2.1334-.574-3.3977-2.768-2.8241-4.902l5.6941-21.175c.5736-2.133 2.7681-3.397 4.9014-2.824zm59.9998 0c2.134.574 3.398 2.768 2.824 4.902l-5.694 21.175c-.573 2.133-2.768 3.397-4.901 2.824-2.134-.574-3.398-2.768-2.824-4.902l5.694-21.175c.573-2.133 2.768-3.397 4.901-2.824zm-29.9997.001c2.1333.573 3.3977 2.768 2.8237 4.901l-1.0349 3.85c-.5737 2.133-2.7682 3.398-4.9015 2.824-2.1334-.574-3.3978-2.768-2.8241-4.901l1.0353-3.85c.5736-2.134 2.7681-3.398 4.9015-2.824zm-5.1764 19.249c2.1333.574 3.3977 2.769 2.8241 4.902l-10.3528 38.5c-.5737 2.133-2.7682 3.398-4.9015 2.824-2.1334-.574-3.3977-2.768-2.8241-4.902l10.3528-38.499c.5737-2.134 2.7681-3.398 4.9015-2.825zm-34.6588 17.325c2.1334.574 3.3977 2.768 2.8241 4.902l-1.0353 3.85c-.5737 2.133-2.7681 3.397-4.9015 2.824-2.1334-.574-3.3977-2.769-2.8241-4.902l1.0353-3.85c.5737-2.133 2.7682-3.398 4.9015-2.824zm59.9999 0c2.133.574 3.398 2.768 2.824 4.902l-1.035 3.85c-.574 2.133-2.768 3.397-4.902 2.824-2.133-.574-3.397-2.769-2.824-4.902l1.036-3.85c.573-2.133 2.768-3.398 4.901-2.824zm-65.1763 19.25c2.1334.574 3.3978 2.768 2.8241 4.901l-5.694 21.175c-.5737 2.134-2.7682 3.398-4.9015 2.824-2.1334-.573-3.3977-2.768-2.8241-4.901l5.694-21.175c.5737-2.133 2.7682-3.398 4.9015-2.824zm60.0003 0c2.133.574 3.397 2.768 2.824 4.901l-5.694 21.175c-.574 2.134-2.768 3.398-4.902 2.824-2.133-.573-3.397-2.768-2.824-4.901l5.694-21.175c.574-2.133 2.768-3.398 4.902-2.824zm-34.659 17.325c2.1334.574 3.3977 2.768 2.8241 4.902l-1.0353 3.85c-.5737 2.133-2.7681 3.397-4.9015 2.824-2.1334-.574-3.3977-2.768-2.8241-4.902l1.0353-3.85c.5737-2.133 2.7682-3.397 4.9015-2.824z"/>
</svg>