<svg xmlns="http://www.w3.org/2000/svg" width="192" height="192" fill="#000" viewBox="0 0 192 192">
  <path fill-rule="evenodd" d="M150 176c0 8.837-7.163 16-16 16H58c-8.8366 0-16-7.163-16-16V16C42 7.16344 49.1635-7.7e-7 58 0l76 .00000664C142.837.00000742 150 7.16344 150 16v160zm-16 8c4.418 0 8-3.582 8-8V16c0-4.4183-3.582-7.99999-8-7.99999L58 8c-4.4183 0-8 3.5817-8 8v160c0 4.418 3.5817 8 8 8h76z"/>
  <path fill-rule="evenodd" d="M81 168c0-2.209 1.7909-4 4-4h22c2.209 0 4 1.791 4 4s-1.791 4-4 4H85c-2.2091 0-4-1.791-4-4zM62 60c0-2.2092 1.7909-4 4-4h19c1.0609 0 2.0783.4214 2.8284 1.1715C88.5786 57.9217 89 58.9391 89 60v19c0 2.2091-1.7908 4-4 4H66c-1.0609 0-2.0783-.4215-2.8284-1.1716C62.4214 81.0783 62 80.0608 62 79V60zm8 4v11h11V64H70zM103 60c0-2.2092 1.791-4 4-4h19c1.061 0 2.078.4214 2.828 1.1715.751.7502 1.172 1.7676 1.172 2.8285v19c0 2.2091-1.791 4-4 4h-19c-1.061 0-2.078-.4215-2.828-1.1716C103.421 81.0783 103 80.0608 103 79V60zm8 4v11h11V64h-11zM107.001 97.0002c2.21 0 4 1.7909 4 3.9998v7c0 2.209-1.79 4-4 4h-7v8c0 2.209-1.7905 4-3.9996 4-2.2092 0-4-1.791-4-4v-12c0-2.209 1.7908-4 4-4h6.9996v-3c0-2.2089 1.791-3.9998 4-3.9998zM103 89.9997c0-2.2091 1.791-4 4-3.9999L126 86c2.209 0 4 1.7909 4 4 0 2.2092-1.791 4-4 4l-19-.0002c-2.209-.0001-4-1.7909-4-4.0001z"/>
  <path fill-rule="evenodd" d="M96 56c2.2092 0 4 1.7908 4 4v30c0 2.2091-1.7908 4-4 4H85c-2.2091 0-4-1.7909-4-4 0-2.2092 1.7909-4 4-4h7V60c0-2.2092 1.7909-4 4-4zM62 90c0-2.2092 1.7909-4 4-4h7c2.2092 0 4 1.7908 4 4 0 2.2091-1.7908 4-4 4h-7c-2.2091 0-4-1.7909-4-4zM62 101c0-2.2092 1.7909-4 4-4h19c1.0609 0 2.0783.4214 2.8284 1.1715C88.5786 98.9217 89 99.9391 89 101v19c0 2.209-1.7908 4-4 4H66c-1.0609 0-2.0783-.421-2.8284-1.172C62.4214 122.078 62 121.061 62 120v-19zm8 4v11h11v-11H70zM126 97.0002c2.209 0 4 1.7909 4 3.9998v19c0 2.209-1.791 4-4 4h-18.999c-2.209 0-4-1.791-4-4s1.791-4 4-4H122v-15c0-2.2089 1.791-3.9998 4-3.9998z"/>
</svg>