<svg xmlns="http://www.w3.org/2000/svg" width="192" height="192" fill="#000" viewBox="0 0 192 192">
  <path fill-rule="evenodd" d="M98.8256 13.1734c-1.5615-1.5645-4.0897-1.5645-5.6512 0L28 78.4782V180h136V78.4782L98.8256 13.1734zM172 86.4942l13.169 13.195c1.56 1.5638 4.093 1.5658 5.657.0057 1.563-1.5606 1.566-4.0932.005-5.6569L104.488 7.52223c-4.6868-4.69631-12.2892-4.69631-16.9761 0L1.16875 94.038c-1.560537 1.5637-1.558007 4.0963.00565 5.6569 1.56366 1.5601 4.09631 1.5581 5.65685-.0057L20 86.4941V182c0 3.314 2.6863 6 6 6h140c3.314 0 6-2.686 6-6V86.4942zM96 94c-9.4168 0-17.3714 6.249-19.9165 14.811-.5243 1.764-2.1843 2.942-4.0224 2.856-.2749-.013-.5517-.02-.8303-.02-9.526 0-17.2308 7.7-17.2308 17.177C54 138.3 61.7048 146 71.2308 146h53.0772c7.571 0 13.692-6.12 13.692-13.647s-6.121-13.647-13.692-13.647c-.945 0-1.863.095-2.747.274-1.186.24-2.417-.069-3.348-.842-.931-.772-1.463-1.925-1.446-3.135.002-.099.002-.198.002-.297C116.769 103.28 107.48 94 96 94zm-26.5823 9.711C73.743 93.3115 84.015 86 96 86c14.521 0 26.542 10.7389 28.492 24.707 11.886.099 21.508 9.743 21.508 21.646 0 11.965-9.722 21.647-21.692 21.647H71.2308C57.3059 154 46 142.738 46 128.824c0-13.306 10.3376-24.186 23.4177-25.113z"/>
</svg>