<svg xmlns="http://www.w3.org/2000/svg" width="192" height="192" fill="#000" viewBox="0 0 192 192">
  <path fill-rule="evenodd" d="M16 50c-4.4183 0-7.99999 3.5817-7.99999 8L8 134c0 4.418 3.5817 8 8 8h160c4.418 0 8-3.582 8-8V58c0-4.4183-3.582-8-8-8H16zM.00001335 58C.00001478 49.1634 7.16346 42 16 42h160c8.837 0 16 7.1635 16 16v76c0 8.837-7.163 16-16 16H16c-8.83656 0-16.00000143-7.163-16-16l.00001335-76zM24 81c2.2091 0 4 1.7909 4 4v22c0 2.209-1.7909 4-4 4-2.2091 0-4-1.791-4-4V85c0-2.2091 1.7909-4 4-4z"/>
</svg>