<svg xmlns="http://www.w3.org/2000/svg" width="192" height="192" fill="#000" viewBox="0 0 192 192">
  <path fill-rule="evenodd" d="M58.0075 8c-.9666 0-1.7949.69125-1.9678 1.64223L51.9355 32.2155c-.1097.6031-.3564 1.1729-.7213 1.6654l-4.8379 6.5312C47.5407 40.1425 48.7537 40 50 40h76c1.246 0 2.459.1425 3.624.4121l-4.838-6.5312c-.365-.4925-.612-1.0623-.721-1.6654L119.96 9.64222C119.787 8.69125 118.959 8 117.993 8H58.0075zM134 56c0-4.4183-3.582-8-8-8H50c-4.4183 0-8 3.5817-8 8v80c0 4.418 3.5817 8 8 8h76c4.418 0 8-3.582 8-8V56zm8 29v58.04c0 3.429-1.102 6.768-3.143 9.523l-7.088 9.569-3.938 21.657c-.864 4.755-5.006 8.211-9.838 8.211H58.0075c-4.8329 0-8.9742-3.456-9.8387-8.211l-3.9376-21.657-7.0881-9.569C35.1018 149.808 34 146.469 34 143.04V48.9604c0-3.4294 1.1018-6.768 3.1431-9.5237l7.0881-9.5689 3.9376-21.65666C49.0333 3.45623 53.1746 0 58.0075 0h59.9855c4.832 0 8.974 3.45623 9.838 8.21114l3.938 21.65666 7.088 9.5689c2.041 2.7557 3.143 6.0943 3.143 9.5237V54h6c5.523 0 10 4.4772 10 10v11c0 5.5229-4.477 10-10 10h-6zm-95.6237 66.588l4.8379 6.531c.3649.493.6116 1.062.7213 1.665l4.1042 22.574c.1729.951 1.0012 1.642 1.9678 1.642h59.9855c.966 0 1.794-.691 1.967-1.642l4.105-22.574c.109-.603.356-1.172.721-1.665l4.838-6.531c-1.165.269-2.378.412-3.624.412H50c-1.2463 0-2.4594-.143-3.6237-.412zM142 62v15h6c1.105 0 2-.8954 2-2V64c0-1.1046-.895-2-2-2h-6z"/>
</svg>