<svg xmlns="http://www.w3.org/2000/svg" width="192" height="192" fill="#000" viewBox="0 0 192 192">
  <path fill-rule="evenodd" d="M115.686 46.5074C117.123 45.524 118.823 45 120.561 45c4.708 0 8.597 3.7865 8.597 8.5477v4.4047c0 8.7926 5.262 16.4051 12.902 19.8747 4.31 1.9573 9.387 2.3168 14.732 1.9418 9.596-.6732 17.153-8.6888 17.153-18.3066 0-4.9669 4.053-9.002 9.028-9.002 4.945 0 9.027 3.9772 9.027 8.9736v71.6191c0 7.743-6.333 13.947-14.055 13.947H26.6228C12.1102 147 .246602 135.471.00362221 121.067-.245232 106.316 12.3639 94 26.9006 94h18.0993c.8324 0 1.6412-.2513 2.3183-.7151l15.1473-10.3638-3.9075-5.6443c-1.2575-1.8163-.8045-4.3081 1.0119-5.5656 1.8163-1.2574 4.3081-.8044 5.5656 1.012l3.9326 5.6804 4.7542-3.2528-3.95-5.7055c-1.2574-1.8163-.8044-4.3081 1.012-5.5656 1.8163-1.2575 4.3081-.8044 5.5656 1.0119l3.975 5.7417 4.9328-3.3751-3.9956-5.7714c-1.2575-1.8163-.8044-4.3081 1.0119-5.5656 1.8164-1.2575 4.3082-.8044 5.5656 1.0119l4.0207 5.8076 23.7247-16.2323c0-.0003.001-.0007.001-.001zM89.9114 73.8358l3.4208 4.9411c1.2574 1.8163 3.7492 2.2694 5.5656 1.0119 1.8162-1.2575 2.2692-3.7493 1.0119-5.5656l-3.3957-4.9049 23.691-16.2095c.101-.069.225-.1088.356-.1088.371 0 .597.2856.597.5477v4.4047c0 10.0653 5.023 18.9452 12.689 24.3486L98.4807 117H8.39029c1.80671-8.376 9.64871-15 18.51031-15h18.0993c2.4393 0 4.8244-.735 6.8373-2.1137.0005-.0004.0011-.0007.0016-.0011l15.1804-10.3865 3.5591 5.1408c1.2574 1.8163 3.7492 2.2694 5.5656 1.0119 1.8163-1.2574 2.2694-3.7492 1.0119-5.5656l-3.534-5.1046 4.7542-3.2528 3.4952 5.0486c1.2575 1.8164 3.7493 2.2694 5.5656 1.012 1.8164-1.2575 2.2694-3.7493 1.012-5.5656l-3.4702-5.0125 4.9328-3.3751zM8.53271 125c1.98719 8.013 9.30489 14 18.09009 14H177.945c3.385 0 6.055-2.703 6.055-5.947V125H8.53271zM184 117V61.4339c0-.4973-.419-.9736-1.027-.9736-.579 0-1.028.4752-1.028 1.002 0 13.3569-10.068 24.4695-23.075 26.1367L128.904 117H184zm-66.519 0l30.023-29.4569c-2.059-.2733-4.122-.7213-6.145-1.4047L109.904 117h7.577z"/>
</svg>