<svg xmlns="http://www.w3.org/2000/svg" width="192" height="192" fill="#000" viewBox="0 0 192 192">
  <path fill-rule="evenodd" d="M113.041 44.9221C113.591 37.6938 119.631 32 127 32h1.001c2.739 0 5.418.8034 7.704 2.3106l39.493 26.0292c.653.4307 1.419.6602 2.201.6602H180c6.627 0 12 5.3726 12 12v73c0 7.732-6.268 14-14 14H26.5C12.1376 160 .443775 148.574.012336 134.316.00416327 134.212 0 134.107 0 134c0-.047.00080347-.093.00239706-.14C.00080061 133.74 0 133.62 0 133.5 0 118.865 11.8645 107 26.5 107h18.0257c.805-.005 1.59-.253 2.2521-.711L63.5751 94.66l-4.4358-3.106c-1.8096-1.2672-2.2494-3.7613-.9823-5.571 1.2671-1.8096 3.7613-2.2494 5.5709-.9823l6.8606 4.8039 5.1957-3.5971-4.434-3.1047c-1.8096-1.2671-2.2494-3.7613-.9823-5.5709 1.2671-1.8097 3.7613-2.2494 5.5709-.9823l6.8588 4.8025 5.1968-3.5978-4.4325-3.1037c-1.8096-1.2671-2.2494-3.7613-.9823-5.5709 1.2671-1.8096 3.7613-2.2494 5.5709-.9823l6.8572 4.8015 4.7635-3.2978-1.1662-.8166c-4.5241-3.1678-5.6235-9.4033-2.4558-13.9273l4.5888-6.5532c2.803-4.0029 8.007-5.3248 12.303-3.3819zM121 50.2839l27.571 19.3052c4.419 3.0943 5.57 9.1156 2.669 13.6098l11.402 7.9715C166 93.5178 168 97.3566 168 101.453c0 6.93-5.617 12.547-12.547 12.547H151c-5.523 0-10 4.477-10 10v6h43V73c0-2.2091-1.791-4-4-4h-2.601c-2.347 0-4.643-.6886-6.604-1.9805l-39.492-26.0292c-.98-.646-2.128-.9903-3.302-.9903H127c-3.314 0-6 2.6863-6 6v4.2839zM184 138H8.55111C10.561 146.043 17.8348 152 26.5 152H178c3.314 0 6-2.686 6-6v-8zM8.33064 130H91.6694c-1.636-8.544-9.1487-15-18.1694-15h-47c-9.0206 0-16.53335 6.456-18.16936 15zm51.47456-23H73.5c13.4491 0 24.5581 10.019 26.2709 23H133v-6c0-9.941 8.059-18 18-18h4.453c2.511 0 4.547-2.035 4.547-4.547 0-1.4842-.725-2.8754-1.942-3.726l-11.401-7.9708-.219.3134c-3.168 4.5241-9.403 5.6235-13.928 2.4558l-25.751-18.0317-4.764 3.2978 4.901 3.4318c1.81 1.2671 2.25 3.7612.982 5.5709-1.267 1.8096-3.761 2.2494-5.57.9823l-7.3262-5.1296-5.1968 3.5978 4.9677 3.4785c1.8097 1.2671 2.2494 3.7613.9823 5.5709-1.2671 1.8096-3.7613 2.2494-5.5709.9823l-7.3925-5.1763-5.1957 3.5971 4.9364 3.4565c1.8096 1.2671 2.2494 3.7613.9823 5.5713-1.2671 1.809-3.7613 2.249-5.5709.982l-7.3612-5.1544L59.8052 107zm50.2718-54.5986c-.905-.6335-2.152-.4136-2.786.4912l-4.589 6.5532c-.633.9048-.413 2.1519.492 2.7855l33.905 23.7408c.905.6336 2.152.4137 2.786-.4911l4.588-6.5532c.634-.9048.414-2.1519-.491-2.7855l-33.905-23.7409z"/>
</svg>