<svg xmlns="http://www.w3.org/2000/svg" width="192" height="192" fill="#000" viewBox="0 0 192 192">
  <path fill-rule="evenodd" d="M95.9992 0c2.2092 0 4 1.79086 4 4v33.3431l20.1718-20.1715c1.562-1.5621 4.095-1.5621 5.657 0 1.562 1.5621 1.562 4.0947 0 5.6568L99.9992 48.6568v40.4151L135 68.8645l9.453-35.2823c.572-2.1339 2.766-3.4002 4.899-2.8285 2.134.5718 3.401 2.7651 2.829 4.899l-7.383 27.5549 28.876-16.6716c1.913-1.1046 4.359-.4491 5.464 1.4641 1.104 1.9132.449 4.3595-1.464 5.4641l-28.876 16.6716 27.554 7.3833c2.134.5718 3.401 2.7651 2.829 4.899-.572 2.1338-2.765 3.4002-4.899 2.8284L139 75.7926l-35.001 20.2075L139 116.207l35.282-9.453c2.134-.572 4.327.694 4.899 2.828.572 2.134-.695 4.327-2.829 4.899l-27.554 7.383 28.876 16.672c1.913 1.104 2.568 3.551 1.464 5.464-1.105 1.913-3.551 2.569-5.464 1.464l-28.876-16.671 7.383 27.554c.572 2.134-.695 4.328-2.829 4.899-2.133.572-4.327-.694-4.899-2.828L135 123.136l-35.0008-20.208v40.415l25.8288 25.829c1.562 1.562 1.562 4.094 0 5.656-1.562 1.563-4.095 1.563-5.657 0l-20.1718-20.171V188c0 2.209-1.7908 4-4 4-2.2091 0-4-1.791-4-4v-33.343l-20.1715 20.171c-1.5621 1.563-4.0948 1.563-5.6569 0-1.5621-1.562-1.5621-4.094 0-5.656l25.8284-25.829v-40.415l-35.0003 20.208-9.4539 35.282c-.5717 2.134-2.7651 3.4-4.899 2.829-2.1338-.572-3.4001-2.766-2.8284-4.899l7.3834-27.555-28.8761 16.671c-1.9132 1.105-4.3595.449-5.4641-1.464-1.1046-1.913-.4491-4.359 1.4641-5.464l28.876-16.672-27.5549-7.383c-2.1338-.572-3.4002-2.765-2.8284-4.899.5718-2.134 2.7651-3.4 4.899-2.828l35.2823 9.454 35.0004-20.2079-35.0004-20.2076-35.2823 9.4539c-2.1339.5718-4.3272-.6946-4.899-2.8284-.5718-2.1339.6946-4.3272 2.8284-4.899l27.5549-7.3833-28.876-16.6716c-1.9132-1.1046-2.5687-3.5509-1.4641-5.4641 1.1046-1.9132 3.5509-2.5687 5.4641-1.4641l28.876 16.6716-7.3833-27.5549c-.5718-2.1339.6946-4.3272 2.8284-4.899 2.1339-.5718 4.3272.6946 4.899 2.8284l9.4538 35.2823 35.0004 20.2075V48.6569L66.1708 22.8284c-1.5621-1.5621-1.5621-4.0947 0-5.6568s4.0948-1.5621 5.6569 0l20.1715 20.1716V4c0-2.20914 1.7909-4 4-4z"/>
</svg>