<svg xmlns="http://www.w3.org/2000/svg" width="192" height="192" fill="#000" viewBox="0 0 192 192">
  <path fill-rule="evenodd" d="M96 8c-14.7782 0-27.2732 9.8421-31.2744 23.3482-.5231 1.7659-2.1844 2.9463-4.0241 2.8593-.4361-.0206-.8751-.031-1.3169-.031C44.2638 34.1765 32 46.4459 32 61.5882 32 76.7306 44.2638 89 59.3846 89h78.4614C150.078 89 160 79.0745 160 66.8235c0-12.251-9.922-22.1764-22.154-22.1764-1.523 0-3.007.1533-4.437.4441-1.186.2412-2.418-.0677-3.35-.8402-.932-.7724-1.464-1.9253-1.447-3.1356.002-.1559.003-.312.003-.4683C128.615 22.6133 114.01 8 96 8zM58.0253 26.2021C63.8446 10.8893 78.6457 0 96 0c21.097 0 38.432 16.0956 40.424 36.6801.472-.022.946-.033 1.422-.033 16.657 0 30.154 13.5137 30.154 30.1764C168 83.4863 154.503 97 137.846 97H59.3846C39.839 97 24 81.1423 24 61.5882c0-19.0987 15.1099-34.6712 34.0253-35.3861zm9.3733 80.9349c2.1333.574 3.3977 2.768 2.824 4.902l-1.0299 3.83 3.8565 1.03c2.1343.57 3.4026 2.762 2.8327 4.896-.5698 2.134-2.7621 3.403-4.8964 2.833l-3.8703-1.033-1.0337 3.844c-.5736 2.133-2.7681 3.397-4.9015 2.824-2.1333-.574-3.3977-2.768-2.824-4.902l1.03-3.83-3.8553-1.029c-2.1344-.57-3.4027-2.763-2.8328-4.897.5699-2.134 2.7621-3.403 4.8964-2.833l3.8691 1.033 1.0337-3.844c.5736-2.133 2.7681-3.397 4.9015-2.824zm30 0c2.1333.574 3.3974 2.768 2.8244 4.902l-1.0303 3.83 3.8563 1.03c2.135.57 3.403 2.762 2.833 4.896-.57 2.135-2.762 3.403-4.897 2.833l-3.8698-1.033-1.0337 3.844c-.5736 2.133-2.7681 3.397-4.9015 2.824-2.1333-.574-3.3977-2.768-2.824-4.902l1.03-3.83-3.8553-1.029c-2.1344-.57-3.4027-2.763-2.8328-4.897.5698-2.134 2.7621-3.403 4.8964-2.833l3.8691 1.033 1.0337-3.844c.5736-2.133 2.7681-3.397 4.9015-2.824zm30.0004 0c2.133.574 3.397 2.768 2.824 4.902l-1.03 3.83 3.856 1.03c2.135.57 3.403 2.762 2.833 4.896-.57 2.135-2.762 3.403-4.897 2.833l-3.87-1.033-1.033 3.844c-.574 2.133-2.769 3.397-4.902 2.824-2.133-.574-3.398-2.768-2.824-4.902l1.03-3.83-3.855-1.029c-2.135-.57-3.403-2.763-2.833-4.897.57-2.134 2.762-3.403 4.896-2.833l3.869 1.033 1.034-3.844c.574-2.133 2.768-3.397 4.902-2.824zm-68.2817 30.799c2.1334.574 3.3977 2.768 2.8241 4.902l-1.03 3.83 3.8565 1.03c2.1344.57 3.4027 2.762 2.8328 4.896-.5699 2.135-2.7621 3.403-4.8965 2.833l-3.8702-1.033-1.0337 3.844c-.5737 2.133-2.7682 3.397-4.9015 2.824-2.1334-.574-3.3977-2.768-2.8241-4.902l1.03-3.83-3.8553-1.029c-2.1344-.57-3.4026-2.763-2.8328-4.897.5699-2.134 2.7621-3.403 4.8965-2.833l3.8691 1.033 1.0336-3.844c.5737-2.133 2.7682-3.397 4.9015-2.824zm30 0c2.1334.574 3.3978 2.768 2.8241 4.902l-1.03 3.83 3.8565 1.03c2.1344.57 3.4027 2.762 2.8328 4.896-.5699 2.135-2.7621 3.403-4.8965 2.833l-3.8702-1.033-1.0337 3.844c-.5737 2.133-2.7682 3.397-4.9015 2.824-2.1334-.574-3.3977-2.768-2.8241-4.902l1.03-3.83-3.8553-1.029c-2.1344-.57-3.4026-2.763-2.8328-4.897.5699-2.134 2.7621-3.403 4.8965-2.833l3.8691 1.033 1.0336-3.844c.5737-2.133 2.7682-3.397 4.9015-2.824zm29.9997 0c2.134.574 3.398 2.768 2.824 4.902l-1.03 3.83 3.857 1.03c2.134.57 3.403 2.762 2.833 4.896-.57 2.135-2.762 3.403-4.897 2.833l-3.87-1.033-1.034 3.844c-.573 2.133-2.768 3.397-4.901 2.824-2.134-.574-3.398-2.768-2.824-4.902l1.03-3.83-3.856-1.029c-2.134-.57-3.402-2.763-2.832-4.897.57-2.134 2.762-3.403 4.896-2.833l3.869 1.033 1.034-3.844c.573-2.133 2.768-3.397 4.901-2.824zm-68.2809 30.801c2.1333.574 3.3977 2.768 2.824 4.902l-1.0299 3.83 3.8565 1.03c2.1343.57 3.4026 2.762 2.8327 4.896-.5698 2.135-2.7621 3.403-4.8964 2.833l-3.8703-1.033-1.0337 3.844c-.5736 2.133-2.7681 3.397-4.9015 2.824-2.1333-.574-3.3977-2.768-2.824-4.902l1.03-3.83-3.8553-1.029c-2.1344-.57-3.4027-2.763-2.8328-4.897.5698-2.134 2.7621-3.403 4.8964-2.833l3.8691 1.033 1.0337-3.844c.5736-2.133 2.7681-3.397 4.9015-2.824zm30 0c2.1333.574 3.3977 2.768 2.824 4.902l-1.0299 3.83 3.8565 1.03c2.1343.57 3.4026 2.762 2.8327 4.896-.5699 2.135-2.7621 3.403-4.8964 2.833l-3.8703-1.033-1.0337 3.844c-.5736 2.133-2.7681 3.397-4.9015 2.824-2.1333-.574-3.3977-2.768-2.824-4.902l1.03-3.83-3.8553-1.029c-2.1344-.57-3.4027-2.763-2.8328-4.897.5698-2.134 2.7621-3.403 4.8964-2.833l3.8691 1.033 1.0337-3.844c.5736-2.133 2.7681-3.397 4.9015-2.824zm29.9999 0c2.133.574 3.398 2.768 2.824 4.902l-1.03 3.83 3.857 1.03c2.134.57 3.402 2.762 2.832 4.896-.569 2.135-2.762 3.403-4.896 2.833l-3.87-1.033-1.034 3.844c-.574 2.133-2.768 3.397-4.901 2.824-2.134-.574-3.398-2.768-2.825-4.902l1.03-3.83-3.8548-1.029c-2.1344-.57-3.4027-2.763-2.8328-4.897.5698-2.134 2.7621-3.403 4.8966-2.833l3.869 1.033 1.034-3.844c.573-2.133 2.768-3.397 4.901-2.824z"/>
</svg>