<svg xmlns="http://www.w3.org/2000/svg" width="192" height="192" fill="#000" viewBox="0 0 192 192">
  <path fill-rule="evenodd" d="M45 8.00018C45 3.58163 48.5821 0 53.0004 0h50.0046C107.43 0 111 3.58857 111 8.00019V107.691c0 1.054.422 2.074 1.177 2.829l25.159 25.158c12.885 12.884 12.885 33.774 0 46.659-12.885 12.884-33.775 12.884-46.6603 0L48.515 140.178c-2.2506-2.251-3.515-5.303-3.515-8.486V8.00018zm8 0V15h50V8.00019c0-.00007 0 .00006 0 0l-50-.00001zm50-.00318c-.002-.00182-.002-.0011 0 0 .001.00112.002.00241.002.0026 0 .0002 0-.0002-.001-.00146 0 .00025 0-.00024 0 0M103 7.997v-.00316.00316l.001.00114zM103 23H53v75.5435C69.553 101.822 82 116.549 82 134c0 8.015-2.6257 15.348-7.0498 21.298l21.3822 21.382c9.7606 9.76 25.5866 9.76 35.3466 0 9.761-9.761 9.761-25.585 0-35.345l-25.159-25.158c-2.245-2.246-3.52-5.296-3.52-8.486V23zM69.215 149.564C72.2422 145.116 74 139.791 74 134c0-13.05-8.9398-24.123-21-27.253v24.945c0 1.061.4215 2.079 1.1717 2.829l15.0433 15.043z"/>
</svg>