<svg xmlns="http://www.w3.org/2000/svg" width="192" height="192" fill="#000" viewBox="0 0 192 192">
  <path fill-rule="evenodd" d="M97.5404 8.73047c-.7999-.97396-2.2809-.97396-3.0808 0l-22 26.78903c-.2963.3609-.4596.8156-.4596 1.2864V154.983c0 1.125.906 2.017 2 2.017h18v-33c0-2.209 1.7909-4 4-4 2.2091 0 4 1.791 4 4v33h18c1.094 0 2-.892 2-2.017V36.8059c0-.4708-.163-.9255-.46-1.2864L97.5404 8.73047zM128 89.1517V36.8059c0-2.3203-.804-4.5699-2.277-6.3635l-22-26.78912c-4.0005-4.87105-11.4455-4.87104-15.4458.00001l-22 26.78911C64.8042 32.236 64 34.4856 64 36.8059v52.3458L20.5188 126.157c-2.2325 1.9-3.5188 4.684-3.5188 7.615V147c0 5.523 4.4772 10 10 10h14v6c0 2.209 1.7909 4 4 4 2.2091 0 4-1.791 4-4v-6h13c.741 0 1.4631-.081 2.1582-.233.7407 4.126 4.0057 7.383 8.1477 8.09l-5.0629 13.67C64.8241 185.058 69.6557 192 76.6205 192h38.7585c6.965 0 11.797-6.942 9.378-13.473l-5.063-13.67c4.142-.707 7.407-3.964 8.148-8.09.695.152 1.417.233 2.158.233h13v6c0 2.209 1.791 4 4 4s4-1.791 4-4v-6h14c5.523 0 10-4.477 10-10v-13.228c0-2.931-1.286-5.715-3.519-7.615L128 89.1517zm0 10.5051V147c0 1.105.895 2 2 2h35c1.105 0 2-.895 2-2v-13.228c0-.586-.257-1.143-.704-1.523L128 99.6568zM111.216 165H80.784l-6.039 16.305c-.4838 1.307.4826 2.695 1.8755 2.695h38.7585c1.393 0 2.36-1.388 1.876-2.695L111.216 165zM64 147V99.6568L25.7038 132.249c-.4465.38-.7038.937-.7038 1.523V147c0 1.105.8954 2 2 2h35c1.1046 0 2-.895 2-2zm32-94.0537c-5.8682 0-10.7601 4.2162-11.7968 9.7857-.4043 2.1718-2.4927 3.6047-4.6645 3.2005-2.1718-.4043-3.6047-2.4927-3.2005-4.6645C78.0673 51.9791 86.2081 44.9463 96 44.9463c9.792 0 17.933 7.0328 19.662 16.3217.404 2.1718-1.029 4.2602-3.201 4.6645-2.172.4042-4.26-1.0287-4.664-3.2005-1.037-5.5695-5.929-9.7857-11.797-9.7857z"/>
</svg>