<svg xmlns="http://www.w3.org/2000/svg" width="192" height="192" fill="#000" viewBox="0 0 192 192">
  <path fill-rule="evenodd" d="M156 8L36 8.00001c-2.2091 0-4 1.79086-4 3.99999v168c0 2.209 1.7909 4 4 4h120c2.209 0 4-1.791 4-4V12c0-2.20914-1.791-4-4-4zM36 .00000525L156 0c6.627-4.8e-7 12 5.37258 12 12v168c0 6.627-5.373 12-12 12H36c-6.6274 0-12-5.373-12-12V12C24 5.37259 29.3726.00000548 36 .00000525zM75 32c-9.3888 0-17 7.6112-17 17s7.6112 17 17 17 17-7.6112 17-17-7.6112-17-17-17zM50 49c0-13.8071 11.1929-25 25-25s25 11.1929 25 25-11.1929 25-25 25-25-11.1929-25-25zm76-17c-4.418 0-8 3.5817-8 8s3.582 8 8 8 8-3.5817 8-8-3.582-8-8-8zm-16 8c0-8.8366 7.163-16 16-16s16 7.1634 16 16-7.163 16-16 16-16-7.1634-16-16zM96 92c-20.9868 0-38 17.013-38 38s17.0132 38 38 38c20.987 0 38-17.013 38-38s-17.013-38-38-38zm-46 38c0-25.405 20.5949-46 46-46 25.405 0 46 20.595 46 46s-20.595 46-46 46c-25.4051 0-46-20.595-46-46zm46-8c-4.4183 0-8 3.582-8 8s3.5817 8 8 8c4.418 0 8-3.582 8-8s-3.582-8-8-8zm-16 8c0-8.837 7.1634-16 16-16 8.837 0 16 7.163 16 16s-7.163 16-16 16c-8.8366 0-16-7.163-16-16z"/>
</svg>