<svg xmlns="http://www.w3.org/2000/svg" width="192" height="192" fill="#000" viewBox="0 0 192 192">
  <path fill-rule="evenodd" d="M96.0006 0c2.2091 0 4.0004 1.79086 4.0004 4v4.15156c26.849 2.04254 48 24.47554 48 51.84844 0 16.0247-7.249 30.3563-18.646 39.8951 13.77-3.4569 26.732-9.0061 38.544-16.2987 1.88-1.1605 4.345-.5774 5.505 1.3023 1.161 1.8798.578 4.3444-1.302 5.5049-13.99 8.6368-29.51 14.9654-46.046 18.4644 18.31 6.129 34.042 17.703 45.162 32.755 1.313 1.777.936 4.282-.841 5.594-1.777 1.313-4.281.937-5.594-.84-10.098-13.67-24.378-24.214-41.024-29.841 5.752 6.521 9.242 15.085 9.242 24.464 0 17.347-11.934 31.896-28.034 35.905-2.144.534-4.314-.771-4.848-2.915-.5337-2.144.771-4.314 2.915-4.848 12.62-3.142 21.967-14.556 21.967-28.142 0-3.761-.716-7.355-2.02-10.653.013.216.02.434.02.653 0 5.065-3.424 9.331-8.084 10.609.055.456.084.92.084 1.391 0 6.351-5.149 11.5-11.5 11.5-2.866 0-5.4869-1.048-7.5004-2.782-2.0136 1.734-4.6344 2.782-7.5 2.782-6.3513 0-11.5-5.149-11.5-11.5 0-.471.0282-.935.0832-1.391-4.6595-1.278-8.0832-5.544-8.0832-10.609 0-2.648.9393-5.081 2.4963-6.978.2194-1.085.509-2.144.8638-3.173-7.5737 6.599-12.3601 16.316-12.3601 27.151 0 19.882 16.1177 36 36 36 3.1138 0 6.1294-.394 9.0034-1.134 2.139-.551 4.32.737 4.87 2.877.551 2.139-.737 4.32-2.876 4.871-3.52.905-7.2053 1.386-10.9974 1.386-24.3006 0-44-19.699-44-44 0-11.461 4.3817-21.898 11.5613-29.728-14.6419 5.923-27.2058 15.734-36.344 28.105-1.3126 1.777-3.8172 2.153-5.5941.84-1.7768-1.312-2.1532-3.817-.8406-5.594 11.1195-15.052 26.8515-26.626 45.162-32.755-16.5364-3.499-32.0561-9.8276-46.0459-18.4644-1.8798-1.1605-2.4629-3.6251-1.3024-5.5049 1.1605-1.8797 3.6251-2.4628 5.5049-1.3023 13.4007 8.273 28.2802 14.3023 44.1411 17.5786C60.1017 93.6822 55.0006 82.9368 55.0006 71c0-21.2941 16.2334-38.7967 37-40.8074V16.1791c-2.0754.1868-4.1076.5175-6.0869.9816-2.1508.5043-4.3032-.8305-4.8075-2.9813-.5043-2.1508.8304-4.30317 2.9812-4.80747 2.5713-.60287 5.2144-1.01466 7.9132-1.22018V4c0-2.20914 1.7908-4 4-4zm4.0004 16.1794v14.0135c4.034.3911 7.902 1.3676 11.514 2.8453 2.045.8364 3.024 3.172 2.188 5.2166-.837 2.0447-3.172 3.0242-5.217 2.1878-2.669-1.0918-5.515-1.8445-8.485-2.203v16.034c14.123 1.9485 25 14.0673 25 28.7264 0 4.3976-.979 8.5665-2.731 12.3008C133.031 87.2796 140.001 74.4537 140.001 60c0-22.9522-17.574-41.7997-40-43.8206zM96.0006 104c11.5984 0 21.0004-9.402 21.0004-21s-9.402-21-21.0004-21c-11.598 0-21 9.402-21 21s9.402 21 21 21zM67.323 87.3393c-.2124-1.4155-.3224-2.8646-.3224-4.3393 0-14.6591 10.8766-26.7779 25-28.7264V38.24c-16.339 1.9742-29 15.8885-29 32.76 0 5.9445 1.5718 11.522 4.3224 16.3393zm43.167 32.7637c-2.992-4.861-8.364-8.103-14.4894-8.103-6.1255 0-11.4976 3.242-14.4897 8.103 5.3605.736 9.4897 5.334 9.4897 10.897 0 .258-.0089.513-.0263.767 1.8919.414 3.6094 1.295 5.0263 2.515 1.4168-1.22 3.1343-2.101 5.0264-2.515-.018-.254-.026-.509-.026-.767 0-5.563 4.129-10.161 9.489-10.897zM92.0006 143c0-1.933-1.567-3.5-3.5-3.5s-3.5 1.567-3.5 3.5 1.567 3.5 3.5 3.5 3.5-1.567 3.5-3.5zm8.0004 0c0 1.933 1.567 3.5 3.5 3.5s3.5-1.567 3.5-3.5-1.567-3.5-3.5-3.5-3.5 1.567-3.5 3.5zm-20.0004-15c-.7918 0-1.5043.301-2.0434.803-.5938.553-.9566 1.33-.9566 2.197 0 1.657 1.3431 3 3 3 1.6568 0 3-1.343 3-3s-1.3432-3-3-3zm32.0004 0c-1.657 0-3 1.343-3 3s1.343 3 3 3c1.656 0 3-1.343 3-3 0-.867-.363-1.644-.957-2.197-.539-.502-1.252-.803-2.043-.803z"/>
</svg>