<svg xmlns="http://www.w3.org/2000/svg" width="192" height="192" fill="#000" viewBox="0 0 192 192">
  <path fill-rule="evenodd" d="M115.686 46.5074C117.123 45.524 118.823 45 120.562 45c4.707 0 8.596 3.7865 8.596 8.5477v4.4047c0 8.7926 5.262 16.4051 12.902 19.8747 4.31 1.9573 9.388 2.3168 14.732 1.9418 9.596-.6732 17.153-8.6888 17.153-18.3066 0-4.9669 4.053-9.002 9.028-9.002 4.945 0 9.027 3.9772 9.027 8.9736v71.6191c0 7.743-6.333 13.947-14.055 13.947H26.6228C12.1689 147 .342497 135.564.00718713 121.242.00241828 121.162 0 121.081 0 121c0-.035.00045228-.07.00135112-.105C-.14681 106.22 12.4207 94 26.9006 94H45c.8323 0 1.6411-.2513 2.3183-.7151l68.3667-46.7765c0-.0003.001-.0007.001-.001zM8.53276 125c1.98724 8.013 9.30494 14 18.09004 14H177.945c3.385 0 6.055-2.703 6.055-5.947V125h-16.001c-1.312 0-2.541-.644-3.288-1.723l-5.421-7.831c-1.495-2.158-3.953-3.446-6.578-3.446h-32.224c-1.095 0-2.177.224-3.181.66l-25.434 11.021c-2.0081.87-4.1733 1.319-6.3618 1.319H8.53276zm175.46624-8L184 61.4339c0-.4973-.419-.9736-1.027-.9736-.579 0-1.028.4752-1.028 1.002 0 13.8721-10.86 25.3235-24.593 26.287-5.903.4142-12.53.118-18.6-2.6382-10.357-4.7036-17.594-15.0772-17.594-27.1587v-4.4047c0-.2621-.226-.5477-.596-.5477-.132 0-.256.0398-.357.1088L51.8389 99.8852c-.0006.0004-.0011.0007-.0016.0011C49.8243 101.265 47.4393 102 45 102H26.9006c-8.8615 0-16.7035 6.624-18.51026 15H85.5112c1.0943 0 2.1769-.224 3.1809-.66l25.4339-11.021c2.008-.87 4.173-1.319 6.362-1.319h32.224c5.25 0 10.167 2.576 13.155 6.893l4.228 6.107h13.904zm-67 8.5c0-5.247 4.254-9.5 9.5-9.5h19c5.247 0 9.5 4.253 9.5 9.5s-4.253 9.5-9.5 9.5h-19c-5.246 0-9.5-4.253-9.5-9.5zm9.5-1.5c-.828 0-1.5.672-1.5 1.5s.672 1.5 1.5 1.5h19c.829 0 1.5-.672 1.5-1.5s-.671-1.5-1.5-1.5h-19z"/>
</svg>