<svg xmlns="http://www.w3.org/2000/svg" width="192" height="192" fill="#000" viewBox="0 0 192 192">
  <path fill-rule="evenodd" d="M82.5102 98.4384C82.1777 97.2425 82 95.9821 82 94.6802c0-7.732 6.268-14 14-14s14 6.268 14 14c0 1.3019-.178 2.5623-.51 3.7582C115.533 99.9891 120 105.473 120 112c0 7.732-6.268 14-14 14-3.917 0-7.459-1.609-10-4.202-2.541 2.593-6.0826 4.202-10 4.202-7.732 0-14-6.268-14-14 0-6.527 4.4667-12.011 10.5102-13.5616zM90 94.6802c0-3.3137 2.6863-6 6-6s6 2.6863 6 6c0 2.1557-1.137 4.0459-2.8438 5.1037-.1055.0593-.2102.1198-.314.1817-.8459.4554-1.8139.7144-2.8422.7144s-1.9963-.259-2.8422-.7144c-.1038-.0619-.2085-.1224-.314-.1817C91.1369 98.7261 90 96.8359 90 94.6802zm-1.1577 12.0348c-.846-.456-1.8139-.715-2.8423-.715-3.3137 0-6 2.686-6 6s2.6863 6 6 6 6-2.686 6-6c0-2.156-1.1369-4.046-2.8438-5.104-.1055-.059-.2101-.12-.3139-.181zM100 112c0 3.314 2.686 6 6 6s6-2.686 6-6-2.686-6-6-6c-1.028 0-1.996.259-2.842.715-.104.061-.209.122-.314.181-1.707 1.058-2.844 2.948-2.844 5.104z"/>
  <path fill-rule="evenodd" d="M109 8c0-4.41828-3.582-8-8-8H91c-4.4183 0-8 3.58172-8 8v7c-10.0261 0-18.329 7.3775-19.7765 17H59c-2.2091 0-4 1.7909-4 4 0 2.1038 1.6242 3.8283 3.6871 3.9879C58.2422 41.2425 58 42.5929 58 44v136c0 1.407.2422 2.758.6871 4.012C56.6242 184.172 55 185.896 55 188c0 2.209 1.7909 4 4 4h74c2.209 0 4-1.791 4-4 0-2.104-1.624-3.828-3.687-3.988.445-1.254.687-2.605.687-4.012V44c0-1.407-.242-2.7575-.687-4.0121C135.376 39.8283 137 38.1038 137 36c0-2.2091-1.791-4-4-4h-4.224c-1.447-9.6225-9.75-17-19.776-17V8zm11.622 24c-1.332-5.1757-6.03-9-11.622-9H83c-5.5915 0-10.2898 3.8243-11.6219 9h49.2439zM122 40H70c-2.2091 0-4 1.7909-4 4v136c0 2.209 1.7909 4 4 4h52c2.209 0 4-1.791 4-4V44c0-2.2091-1.791-4-4-4zm-21-25V8H91v7h10z"/>
</svg>