<svg xmlns="http://www.w3.org/2000/svg" width="192" height="192" fill="#000" viewBox="0 0 192 192">
  <path fill-rule="evenodd" d="M54.8659 8c-1.0868 0-1.9746.86776-1.9995 1.95421L50.1412 128.954c-.0257 1.122.877 2.046 1.9995 2.046h87.7223c1.122 0 2.025-.924 1.999-2.046L139.137 9.95421C139.112 8.86777 138.224 8 137.138 8H54.8659zm65.1361 131h19.861c5.612 0 10.126-4.618 9.997-10.229L147.135 9.77105C147.011 4.33883 142.571 0 137.138 0H54.8659c-5.4337 0-9.873 4.33884-9.9974 9.77105L42.1433 128.771C42.0148 134.382 46.5282 139 52.1407 139h19.861v11c0 2.209 1.7909 4 4 4h8v34c0 2.209 1.7909 4 4 4h16.0003c2.209 0 4-1.791 4-4v-34h8c2.209 0 4-1.791 4-4v-11zm-8 0H80.0017v7h32.0003v-7zm-12 15h-8.0003v30h8.0003v-30zM96.0017 34c-10.4934 0-19 8.5066-19 19s8.5066 19 19 19c10.4933 0 19.0003-8.5066 19.0003-19s-8.507-19-19.0003-19zm-27 19c0-14.9117 12.0883-27 27-27 14.9113 0 27.0003 12.0883 27.0003 27s-12.089 27-27.0003 27c-14.9117 0-27-12.0883-27-27z"/>
  <path d="M102.002 53c0 3.3137-2.6866 6-6.0003 6-3.3137 0-6-2.6863-6-6s2.6863-6 6-6 6.0003 2.6863 6.0003 6z"/>
</svg>