<svg xmlns="http://www.w3.org/2000/svg" width="192" height="192" fill="#000" viewBox="0 0 192 192">
  <path fill-rule="evenodd" d="M63.24 37h65.52C126.786 20.661 112.871 8 96 8 79.1285 8 65.2142 20.661 63.24 37zm65.52 8H63.2398c1.051 8.7046 5.4896 16.3648 11.9699 21.629C80.8857 71.2396 88.1151 74 96 74c7.885 0 15.114-2.7604 20.79-7.371 6.481-5.2642 10.919-12.9244 11.97-21.629zM55 41C55 18.3563 73.3563 0 96 0c22.644 0 41 18.3563 41 41 0 12.2236-5.353 23.1997-13.831 30.706l-8.082 102.651C114.302 184.317 105.991 192 96 192s-18.3024-7.683-19.0866-17.643L68.8306 71.706C60.3535 64.1997 55 53.2236 55 41zm22.3117 36.5018l7.577 96.2272C85.3453 179.528 90.1837 184 96 184c5.816 0 10.655-4.472 11.111-10.271l7.577-96.2272C109.083 80.3768 102.729 82 96 82c-6.7285 0-13.0831-1.6232-18.6883-4.4982z"/>
</svg>