<svg xmlns="http://www.w3.org/2000/svg" width="192" height="192" fill="#000" viewBox="0 0 192 192">
  <path d="M35.5 159.981c4.1421 0 7.5-3.361 7.5-7.506s-3.3579-7.505-7.5-7.505-7.5 3.36-7.5 7.505 3.3579 7.506 7.5 7.506zM133.328 44.6808c1.563-1.5631 1.563-4.0976 0-5.6607-1.562-1.5632-4.094-1.5632-5.656 0L81.6716 85.0519c-1.5621 1.5632-1.5621 4.0976 0 5.6608 1.5621 1.5632 4.0947 1.5632 5.6568 0l45.9996-46.0319z"/>
  <path fill-rule="evenodd" d="M68.3942 139.091c1.4218 3.496 2.3033 7.269 2.5408 11.216.054.889.0748 1.779.0624 2.669H172c11.046 0 20 8.96 20 20.014v5.003c0 5.527-4.477 10.007-10 10.007H35.5c-5.0773 0-9.9058-1.067-14.2736-2.988-3.1924-1.402-6.2207-3.297-8.9695-5.684-1.3437-1.166-2.59902-2.431-3.75457-3.784-2.09-2.444-3.79461-5.105-5.11385-7.902C1.21535 163.042 0 157.901 0 152.475c0-5.425 1.21535-10.566 3.38848-15.166 1.31924-2.797 3.02385-5.458 5.11385-7.902.66369-.777 1.3603-1.525 2.08767-2.242L127.812 9.86192c7.81-7.8159 20.473-7.81589 28.284.00001L169.04 22.8145c3.905 3.908 3.905 10.244 0 14.152l-2.882 2.8836 9.476 9.4831c3.906 3.908 3.906 10.244 0 14.152L138.12 101.026c-3.906 3.908-10.237 3.908-14.142 0l-9.477-9.4832-46.5262 46.5582c.145.329.2848.659.4194.99zm-52.3382-6.075c-.6176.619-1.1997 1.259-1.7463 1.918-1.3694 1.655-2.5488 3.473-3.5051 5.42-3.73751 7.624-3.73751 16.619 0 24.243.9563 1.947 2.1357 3.765 3.5051 5.419.5466.66 1.1287 1.3 1.7463 1.918.5481.549 1.1135 1.069 1.6945 1.562 1.9586 1.657 4.1521 3.046 6.5234 4.109 6.5938 2.948 14.1099 3.168 20.8415.66 7.2054-2.691 12.9812-8.32 15.8703-15.429.9604-2.369 1.5778-4.844 1.852-7.35.1072-.988.1623-1.992.1623-3.011 0-15.198-12.3122-27.519-27.5-27.519-7.508 0-14.3133 3.011-19.2758 7.892l-.1682.168zm44.5477 44.579c-.8515.852-1.7355 1.658-2.6481 2.405H182c1.105 0 2-.902 2-2.007v-5.003c0-6.632-5.373-12.009-12-12.009H69.975c-.1436.585-.3017 1.164-.4739 1.737-1.6325 5.445-4.5979 10.575-8.8974 14.877zM133.468 15.5227L31.9337 117.128c1.1729-.117 2.3626-.177 3.5663-.177 11.5359 0 21.7867 5.506 28.271 14.035 33.2045-33.2271 66.41-66.4561 99.612-99.6803.781-.7816.781-2.0488 0-2.8304l-12.944-12.9526c-4.686-4.6895-12.284-4.6895-16.971 0zm-3.834 79.8424l-9.476-9.4831 40.343-40.3711 9.477 9.4831c.781.7816.781 2.0488 0 2.8304l-37.515 37.5407c-.781.7816-2.048.7816-2.829 0z"/>
</svg>