<svg xmlns="http://www.w3.org/2000/svg" width="192" height="192" fill="#000" viewBox="0 0 192 192">
  <path fill-rule="evenodd" d="M49.9243 0c1.5538 0 2.967.899802 3.6244 2.30767L66.5181 30.0837c.0934.2.2741.3298.4726.3603l29.465 4.5254c1.4795.2272 2.7083 1.2614 3.1848 2.6803.4765 1.419.1208 2.9852-.9217 4.0592L77.2451 63.8331c-.1423.1465-.2113.3582-.1768.5704l5.0197 30.9349c.2456 1.513-.3951 3.0332-1.6495 3.9141-1.2544.8805-2.9019.9675-4.2417.223L50.2199 85.0407c-.1847-.1027-.4065-.1027-.5912 0L23.6518 99.4755c-1.3398.7445-2.9873.6575-4.2416-.223-1.2544-.8809-1.8951-2.4011-1.6496-3.9141l5.0198-30.9349c.0344-.2122-.0346-.4239-.1768-.5704L1.1298 41.7089c-1.0424922-1.074-1.398095-2.6402-.921631-4.0592.476464-1.4189 1.705261-2.4531 3.184701-2.6803L32.8579 30.444c.1985-.0305.3792-.1603.4726-.3603L46.2999 2.30767C46.9573.899802 48.3705 0 49.9243 0zm0 13.4544l-9.3451 20.0139c-1.2178 2.6083-3.6547 4.4449-6.5069 4.8829l-21.8027 3.3486 16.0746 16.5615c1.9089 1.9668 2.7713 4.7218 2.3329 7.4236L26.979 88.4745l18.7639-10.4267c2.6013-1.4455 5.7616-1.4455 8.3628 0l18.7639 10.4267-3.6981-22.7896c-.4384-2.7018.424-5.4568 2.333-7.4236L87.579 41.6998l-21.8027-3.3486c-2.8522-.438-5.289-2.2746-6.5069-4.8829l-9.3451-20.0139zM150.208 70.3089c1.554 0 2.967.8998 3.625 2.3077l10.631 22.7694 24.143 3.708c1.48.2272 2.709 1.261 3.185 2.68.476 1.419.121 2.985-.922 4.06l-17.613 18.146 4.119 25.379c.245 1.513-.396 3.034-1.65 3.914-1.254.881-2.902.968-4.242.223l-21.276-11.822-21.276 11.822c-1.339.745-2.987.658-4.241-.223-1.255-.88-1.895-2.401-1.65-3.914l4.118-25.379-17.613-18.146c-1.042-1.075-1.398-2.641-.921-4.06.476-1.419 1.705-2.4528 3.184-2.68l24.143-3.708 10.632-22.7694c.657-1.4079 2.071-2.3077 3.624-2.3077zm-14.297 25.165c0-.0006.001-.0011.001-.0016zm14.297-11.7106l-7.048 15.0953c-1.102 2.3594-3.307 4.0224-5.889 4.4184l-16.585 2.547 12.272 12.644c1.727 1.78 2.507 4.272 2.111 6.716l-2.809 17.311 14.163-7.87c2.355-1.309 5.216-1.309 7.57 0l14.164 7.87-2.809-17.311c-.397-2.444.383-4.936 2.111-6.716l12.272-12.644-16.585-2.547c-2.582-.396-4.788-2.059-5.889-4.4185l-7.049-15.0952zM64.6394 123.639c1.5537 0 2.9669.9 3.6243 2.307l8.2953 17.766 18.8253 2.891c1.4795.228 2.7083 1.262 3.1847 2.681.4765 1.419.1209 2.985-.9216 4.059l-13.7623 14.179 3.2189 19.837c.2456 1.513-.3951 3.034-1.6495 3.914-1.2544.881-2.9019.968-4.2417.223l-16.5734-9.209-16.5735 9.209c-1.3398.745-2.9873.658-4.2417-.223-1.2544-.88-1.8951-2.401-1.6495-3.914l3.2189-19.837-13.7623-14.179c-1.0425-1.074-1.3981-2.64-.9216-4.059.4764-1.419 1.7052-2.453 3.1847-2.681l18.8253-2.891 8.2953-17.766c.6574-1.407 2.0706-2.307 3.6244-2.307zm0 13.454l-4.8869 10.466c-.9925 2.126-2.9794 3.624-5.3073 3.982l-11.6741 1.793 8.693 8.956c1.5564 1.604 2.2587 3.849 1.9015 6.05l-1.9725 12.155 9.8343-5.464c2.1224-1.18 4.7015-1.18 6.8239 0l9.8343 5.464-1.9725-12.155c-.3572-2.201.3451-4.446 1.9016-6.05l8.6929-8.956-11.6741-1.793c-2.3279-.358-4.3148-1.856-5.3073-3.982l-4.8868-10.466z"/>
</svg>