<svg xmlns="http://www.w3.org/2000/svg" width="192" height="192" fill="#000" viewBox="0 0 192 192">
    <path fill-rule="evenodd" clip-rule="evenodd" d="M95.5 0a4 4 0 0 1 3.624 2.306l25.84 55.262a5.223 5.223 0 0 0 3.936 2.957l58.706 9.003a3.998 3.998 0 0 1 2.262 6.742l-42.784 44.018a5.28 5.28 0 0 0-1.421 4.523l10.002 61.547a4.001 4.001 0 0 1-5.889 4.14l-51.757-28.72a5.19 5.19 0 0 0-5.038 0l-51.757 28.72a4.002 4.002 0 0 1-5.889-4.14l10.002-61.547a5.277 5.277 0 0 0-1.42-4.523L1.131 76.27a4 4 0 0 1 2.262-6.742L62.1 60.525a5.223 5.223 0 0 0 3.936-2.957l25.84-55.262A4 4 0 0 1 95.5 0Zm0 13.443L73.283 60.957a13.223 13.223 0 0 1-9.97 7.475L12.278 76.26l37.375 38.452a13.277 13.277 0 0 1 3.58 11.382l-8.678 53.407 44.544-24.718a13.188 13.188 0 0 1 12.802 0l44.545 24.718-8.679-53.407a13.275 13.275 0 0 1 3.58-11.382l37.375-38.453-51.035-7.827a13.224 13.224 0 0 1-9.97-7.475L95.5 13.443Z"/>
</svg>