<svg xmlns="http://www.w3.org/2000/svg" width="193" height="192" fill="#000" viewBox="0 0 193 192">
  <path fill-rule="evenodd" d="M96.0009 26C60.355 26 30.9268 52.6473 26.5601 87.1064c-.3689 2.9108-.5592 5.879-.5592 8.8936 0 4.699.4623 9.286 1.3431 13.72l158.853-80.2899c1.971-.9965 4.377-.2061 5.374 1.7655.996 1.9717.206 4.3778-1.766 5.3743L5.80522 129.57c-1.97161.996-4.37775.206-5.374272-1.766-.99652-1.971-.206054-4.377 1.765552-5.374l17.7649-8.979c-1.2834-5.614-1.9605-11.456-1.9605-17.451 0-3.3516.2116-6.6558.6226-9.8994C23.4905 47.6948 56.2748 18 96.0009 18c13.7561 0 26.6921 3.5646 37.9211 9.8234 1.93 1.0755 2.623 3.5117 1.547 5.4414-1.075 1.9296-3.512 2.622-5.441 1.5465C119.958 29.1991 108.359 26 96.0009 26zm95.5701 38.1956c.996 1.9717.206 4.3778-1.766 5.3743l-17.765 8.979c1.284 5.614 1.961 11.4557 1.961 17.4511 0 3.3516-.212 6.656-.623 9.899C168.511 144.305 135.727 174 96.0009 174c-13.7563 0-26.6921-3.565-37.9216-9.823-1.9297-1.076-2.6221-3.512-1.5466-5.442 1.0755-1.929 3.5117-2.622 5.4413-1.546C72.0434 162.801 83.6425 166 96.0009 166c35.6461 0 65.0741-26.647 69.4411-61.106.369-2.911.559-5.8794.559-8.894 0-4.6986-.462-9.2857-1.343-13.7197L5.80522 162.57c-1.97161.996-4.37775.206-5.374272-1.766-.99652-1.971-.206054-4.377 1.765552-5.374L186.197 62.4301c1.971-.9965 4.377-.2061 5.374 1.7655z"/>
</svg>