<svg xmlns="http://www.w3.org/2000/svg" width="192" height="192" fill="#000" viewBox="0 0 192 192">
  <path fill-rule="evenodd" d="M96 0c2.2091 0 4 1.79086 4 4v17c0 2.2091-1.7909 4-4 4-2.2091 0-4-1.7909-4-4V4c0-2.20914 1.7909-4 4-4zM28.1177 28.1179c1.5621-1.5621 4.0948-1.5621 5.6569 0l12.0208 12.0208c1.5621 1.5621 1.5621 4.0947 0 5.6568s-4.0947 1.5621-5.6568 0L28.1177 33.7747c-1.5621-1.5621-1.5621-4.0947 0-5.6568zm135.7643 0c1.562 1.5621 1.562 4.0947 0 5.6568l-12.021 12.0208c-1.562 1.5621-4.094 1.5621-5.656 0-1.562-1.5621-1.562-4.0947 0-5.6568l12.02-12.0208c1.563-1.5621 4.095-1.5621 5.657 0zM96 46c-27.6142 0-50 22.3858-50 50 0 27.614 22.3858 50 50 50 27.614 0 50-22.386 50-50 0-27.6142-22.386-50-50-50zM38 96c0-32.0325 25.9675-58 58-58 32.033 0 58 25.9675 58 58 0 32.033-25.967 58-58 58-32.0325 0-58-25.967-58-58zm129 0c0-2.2091 1.791-4 4-4h17c2.209 0 4 1.7909 4 4 0 2.2091-1.791 4-4 4h-17c-2.209 0-4-1.7909-4-4zM0 96c0-2.2091 1.79086-4 4-4h17c2.2091 0 4 1.7909 4 4 0 2.2091-1.7909 4-4 4H4c-2.20914 0-4-1.7909-4-4zm45.7954 50.205c1.5621 1.562 1.5621 4.094 0 5.657l-12.0208 12.02c-1.5621 1.562-4.0947 1.562-5.6568 0s-1.5621-4.094 0-5.656l12.0208-12.021c1.5621-1.562 4.0947-1.562 5.6568 0zm100.4096 0c1.562-1.562 4.094-1.562 5.656 0l12.021 12.021c1.562 1.562 1.562 4.094 0 5.656-1.562 1.562-4.095 1.562-5.657 0l-12.02-12.02c-1.563-1.563-1.563-4.095 0-5.657zM96 167c2.2091 0 4 1.791 4 4v17c0 2.209-1.7909 4-4 4-2.2091 0-4-1.791-4-4v-17c0-2.209 1.7909-4 4-4z"/>
</svg>