<svg xmlns="http://www.w3.org/2000/svg" width="192" height="192" fill="#000" viewBox="0 0 192 192">
  <path d="M27 84c4.4183 0 8-3.5817 8-8s-3.5817-8-8-8-8 3.5817-8 8 3.5817 8 8 8zM31 104c0 2.209-1.7909 4-4 4-2.2091 0-4-1.791-4-4s1.7909-4 4-4c2.2091 0 4 1.791 4 4zM27 124c2.2091 0 4-1.791 4-4s-1.7909-4-4-4c-2.2091 0-4 1.791-4 4s1.7909 4 4 4zM35 116c-2.2091 0-4-1.791-4-4s1.7909-4 4-4c2.2091 0 4 1.791 4 4s-1.7909 4-4 4zM15 112c0 2.209 1.7909 4 4 4 2.2091 0 4-1.791 4-4s-1.7909-4-4-4c-2.2091 0-4 1.791-4 4zM173 116c0 4.418-3.582 8-8 8s-8-3.582-8-8 3.582-8 8-8 8 3.582 8 8zM169 72c0 2.2091-1.791 4-4 4s-4-1.7909-4-4c0-2.2091 1.791-4 4-4s4 1.7909 4 4zM165 92c2.209 0 4-1.7909 4-4 0-2.2091-1.791-4-4-4s-4 1.7909-4 4c0 2.2091 1.791 4 4 4zM173 84c-2.209 0-4-1.7909-4-4 0-2.2091 1.791-4 4-4s4 1.7909 4 4c0 2.2091-1.791 4-4 4zM153 80c0 2.2091 1.791 4 4 4s4-1.7909 4-4c0-2.2091-1.791-4-4-4s-4 1.7909-4 4z"/>
  <path fill-rule="evenodd" d="M174 143c9.941 0 18-8.059 18-18V67c0-9.9411-8.059-18-18-18H18C8.05888 49 .00000751 57.0589.00000664 67L0 125c0 9.941 8.05887 18 18 18h156zM46 57H18c-5.5229 0-9.99999 4.4771-9.99999 10L8 125c0 5.523 4.4771 10 10 10h28V57zm100 78h28c5.523 0 10-4.477 10-10V67c0-5.5228-4.477-10-10-10h-28v78zm-8-78H54v76h84V57z"/>
</svg>