<svg xmlns="http://www.w3.org/2000/svg" width="192" height="192" fill="none" viewBox="0 0 192 192">
  <path fill="#000" fill-rule="evenodd" d="M190.828 1.17159c.832.83198 1.256 1.98807 1.158 3.16061L188.1 50.9674c-.079.9428-.489 1.8273-1.158 2.4963L87.7561 152.65l8.8303 8.83c.7502.75 1.1716 1.768 1.1716 2.829 0 1.06-.4214 2.078-1.1716 2.828l-.7877.788c-7.0295 7.029-18.4264 7.029-25.4559 0L56.8385 154.42l-22.5186 22.519 3.0009 3.001c1.5621 1.562 1.5621 4.095 0 5.657-8.5376 8.537-22.3799 8.537-30.91756 0-8.53765-8.538-8.53766-22.38 0-30.918.75015-.75 1.76756-1.171 2.82843-1.171 1.06083 0 2.07833.421 2.82843 1.171l3.001 3.001 22.5186-22.518-13.5044-13.505c-7.0295-7.029-7.0295-18.426 0-25.4556l.7877-.7878c.7501-.7501 1.7676-1.1716 2.8284-1.1716 1.0609 0 2.0783.4215 2.8285 1.1716l8.8303 8.8304L138.536 5.05786c.669-.66898 1.554-1.07919 2.497-1.15776L187.668.0138332c1.172-.0977118 2.328.3257728 3.16 1.1577568zM45.0071 109.901l15.7176 15.717L177.45 8.89304l-34.293 2.85776-98.1499 98.1502zM183.107 14.5499L66.3816 131.275l15.7176 15.718 98.1498-98.1501 2.858-34.293zM27.9904 104.198c-2.0346 3.786-1.454 8.607 1.7417 11.802l16.3291 16.329c.0012.002.0025.003.0037.004l29.9348 29.935c3.1957 3.196 8.0164 3.776 11.8025 1.742l-59.8118-59.812zm15.2461 36.62l-22.5186 22.519 7.9451 7.945 22.5186-22.518-7.9451-7.946zm-31.0076 25.344l-2.58298-2.583c-2.82066 5.248-2.01594 11.931 2.41418 16.361 4.4301 4.43 11.1128 5.235 16.3612 2.414l-2.5808-2.581c-.002-.002-.0039-.004-.0059-.006l-13.602-13.602c-.0012-.001-.0025-.002-.0037-.003z"/>
</svg>