<svg xmlns="http://www.w3.org/2000/svg" width="192" height="192" fill="#000" viewBox="0 0 192 192">
  <path fill-rule="evenodd" d="M61.9429 19.7125c-.9852-.8524-2.1644-.8851-2.8995-.4613l-11.0429 6.3651V160h47.9998c2.2092 0 3.9997 1.797 3.9997 4 0 2.203-1.7905 4-3.9997 4H48.0005v5H144v-5h-9c-2.209 0-4-1.797-4-4 0-2.203 1.791-4 4-4h9V25.6986l-11.049-6.429c-.736-.428-1.92-.3982-2.91.457-9.119 7.883-21.026 12.6572-34.0406 12.6572-13.0226 0-24.936-4.7799-34.0575-12.6713zM152 30.3033v34.6751l15.523 8.8473 15.014-26.0091L152 30.3033zm0 43.8653V177c0 2.203-1.791 4-4 4H44.0005c-2.2091 0-4-1.797-4-4V74.1686l-15.0154 8.5582c-1.9136 1.0907-4.3513.4318-5.451-1.4733L.534176 48.3385c-1.101356-1.908-.4450491-4.3452 1.466534-5.4459L42.0006 19.8587l13.04-7.5163c4.0742-2.34837 8.9334-1.4355 12.1442 1.3423 7.7221 6.6808 17.791 10.7197 28.8156 10.7197 11.0176 0 21.0816-4.0342 28.8016-10.7078 3.222-2.7852 8.102-3.6922 12.18-1.3194l13.012 7.5711.022.0125 39.978 22.9283c.92.5276 1.592 1.3983 1.868 2.4204.276 1.022.134 2.1116-.396 3.029l-18.999 32.915c-1.1 1.9051-3.538 2.564-5.451 1.4733L152 74.1686zM40.0005 30.2242L9.46062 47.8105 24.4777 73.8257l15.5228-8.8473V30.2242zM105 164c0-2.203 1.791-4 4-4h13c2.209 0 4 1.797 4 4 0 2.203-1.791 4-4 4h-13c-2.209 0-4-1.797-4-4z"/>
</svg>