<svg xmlns="http://www.w3.org/2000/svg" width="192" height="192" fill="#000" viewBox="0 0 192 192">
  <path fill-rule="evenodd" d="M16 30c-4.4183 0-7.99998 3.5817-7.99998 8L8 154c0 4.418 3.5817 8 8 8h160c4.418 0 8-3.582 8-8V38c0-4.4183-3.582-8-8-8H16zM.00001597 38C.00001717 29.1634 7.16347 22 16 22h160c8.837 0 16 7.1635 16 16v116c0 8.837-7.163 16-16 16H16c-8.83656 0-16.00000143-7.163-16-16L.00001597 38zM24 81c2.2091 0 4 1.7909 4 4v22c0 2.209-1.7909 4-4 4-2.2091 0-4-1.791-4-4V85c0-2.2091 1.7909-4 4-4z"/>
</svg>