<svg xmlns="http://www.w3.org/2000/svg" width="192" height="192" fill="#000" viewBox="0 0 192 192">
  <path fill-rule="evenodd" d="M70.993.531869C72.2345 1.24534 73 2.56805 73 4v33c0 12.7025 10.2975 23 23 23 12.703 0 23-10.2975 23-23V4c0-1.43487.769-2.75982 2.014-3.472198 1.246-.712381 2.777-.703047 4.014.024461l17 10.000037C143.25 11.2709 144 12.5825 144 14v56.1162c0 .6076.276 1.1822.751 1.5618l5.496 4.3971c2.372 1.8977 3.753 4.7708 3.753 7.8087V188c0 2.209-1.791 4-4 4H42c-2.2091 0-4-1.791-4-4V83.8838c0-3.0379 1.3809-5.911 3.753-7.8087.0001 0 0 0 0 0l5.4964-4.3971c.4744-.3796.7506-.9542.7506-1.5618V13.9067c0-1.4233.7563-2.7394 1.986-3.456l17-9.9067c1.2372-.720974 2.7655-.7256 4.007-.012131zM46 179h50c2.2091 0 4-1.791 4-4s-1.7909-4-4-4H46V83.8838c0-.6076.2762-1.1822.7506-1.5618l5.4964-4.3971C54.6191 76.0272 56 73.1541 56 70.1162V16.2053l9-5.2447V37c0 17.1208 13.8792 31 31 31 17.121 0 31-13.8792 31-31V10.9937l9 5.2941v53.8284c0 3.0379 1.381 5.911 3.753 7.8087l5.496 4.3971c.475.3796.751.9542.751 1.5618V171h-11c-2.209 0-4 1.791-4 4s1.791 4 4 4h11v5H46v-5zm59-4c0-2.209 1.791-4 4-4h13c2.209 0 4 1.791 4 4s-1.791 4-4 4h-13c-2.209 0-4-1.791-4-4z"/>
</svg>