<svg xmlns="http://www.w3.org/2000/svg" width="192" height="192" fill="#000" viewBox="0 0 192 192">
  <path fill-rule="evenodd" d="M70 34C35.7583 34 8 61.7583 8 96c0 34.242 27.7583 62 62 62 34.242 0 62-27.758 62-62 0-2.2091 1.791-4 4-4s4 1.7909 4 4c0 38.66-31.34 70-70 70-38.6599 0-70-31.34-70-70 0-38.6599 31.3401-70 70-70 32.44 0 59.719 22.0633 67.663 52h8.629l4.994-12.4856C151.894 63.9958 153.364 63 155 63h33c1.327 0 2.568.6584 3.312 1.7575.744 1.0991.895 2.4957.402 3.7281L186.308 82l5.406 13.5144c.493 1.2324.342 2.629-.402 3.7281C190.568 100.342 189.327 101 188 101h-33c-1.636 0-3.106-.996-3.714-2.5144L146.292 86H134.59c-.055.0011-.109.0011-.163 0h-26.295c-.425.0685-.851.0662-1.263 0H70c-5.5228 0-10 4.4772-10 10 0 5.523 4.4772 10 10 10 5.5229 0 10-4.477 10-10 0-2.2091 1.7909-4 4-4 2.2091 0 4 1.7909 4 4 0 9.941-8.0589 18-18 18s-18-8.059-18-18c0-9.9411 8.0589-18 18-18h31.185C94.9583 67.2359 83.3204 60 70 60c-19.8823 0-36 16.1177-36 36 0 19.882 16.1177 36 36 36s36-16.118 36-36c0-2.2091 1.791-4 4-4s4 1.7909 4 4c0 24.301-19.6995 44-44 44s-44-19.699-44-44c0-24.3005 19.6995-44 44-44 17.8933 0 33.283 10.6791 40.16 26h19.188C121.636 52.5359 97.9784 34 70 34zm83.308 48l4.4 11h24.384l-3.806-9.5144c-.381-.9537-.381-2.0175 0-2.9712L182.092 71h-24.384l-4.4 11z"/>
</svg>