<svg xmlns="http://www.w3.org/2000/svg" width="192" height="192" fill="#000" viewBox="0 0 192 192">
  <path fill-rule="evenodd" d="M77.1802.438029c1.9673-1.005027 4.3769-.224961 5.3819 1.742321L96 28.4844l13.438-26.30405c1.005-1.967282 3.414-2.747348 5.382-1.742321 1.967 1.005031 2.747 3.414561 1.742 5.381851l-16.07 31.45682L175.448 184H188c2.209 0 4 1.791 4 4s-1.791 4-4 4h-14.915c-.054.001-.109.001-.164 0H19.0789c-.0547.001-.1094.001-.1643 0H4c-2.20914 0-4-1.791-4-4s1.79086-4 4-4h12.5517L91.5082 37.2767 75.4379 5.81988c-1.005-1.96729-.2249-4.37682 1.7423-5.381851zM96 46.0691L25.5352 184H75v-43c0-11.598 9.402-21 21-21s21 9.402 21 21v43h49.465L96 46.0691zM109 184v-43c0-7.18-5.82-13-13-13-7.1797 0-13 5.82-13 13v43h26zM96 88.0001c-4.4183 0-8 3.5817-8 8C88 100.418 91.5817 104 96 104c4.418 0 8-3.582 8-7.9999 0-4.4183-3.582-8-8-8zm-16 8c0-8.8365 7.1634-16 16-16 8.837 0 16 7.1635 16 16C112 104.837 104.837 112 96 112c-8.8366 0-16-7.163-16-15.9999z"/>
</svg>