<svg xmlns="http://www.w3.org/2000/svg" width="192" height="192" fill="#000" viewBox="0 0 192 192">
  <path fill-rule="evenodd" d="M.981638 32.3753c1.449592-1.667 3.976112-1.8433 5.643132-.3937l69.00003 60c.8736.7597 1.3753 1.8607 1.3753 3.0185 0 1.1577-.5017 2.2587-1.3753 3.0184L6.62497 158.018c-1.66702 1.45-4.19354 1.274-5.643133-.393-1.449593-1.667-1.273328-4.194.393703-5.643L66.9042 95.0001 1.37534 38.0185c-1.667023-1.4496-1.843292-3.9761-.393702-5.6432zM188 153c2.209 0 4 1.791 4 4s-1.791 4-4 4H87.0008c-2.2091 0-4-1.791-4-4s1.7896-4 3.9988-4H188z"/>
</svg>