<svg xmlns="http://www.w3.org/2000/svg" width="192" height="192" fill="#000" viewBox="0 0 192 192">
  <path fill-rule="evenodd" d="M0 31.5c0-2.2091 1.79086-4 4-4h184c2.209 0 4 1.7909 4 4 0 2.2091-1.791 4-4 4H4c-2.20914 0-4-1.7909-4-4zm0 43c0-2.2091 1.79086-4 4-4h94c2.209 0 4 1.7909 4 4 0 2.2092-1.791 4-4 4H4c-2.20914 0-4-1.7909-4-4zm0 43c0-2.209 1.79086-4 4-4h184c2.209 0 4 1.791 4 4s-1.791 4-4 4H4c-2.20914 0-4-1.791-4-4zm0 43c0-2.209 1.79086-4 4-4h94c2.209 0 4 1.791 4 4s-1.791 4-4 4H4c-2.20914 0-4-1.791-4-4z"/>
</svg>