<svg xmlns="http://www.w3.org/2000/svg" width="192" height="192" fill="#000" viewBox="0 0 192 192">
  <path fill-rule="evenodd" d="M96 8c-14.7782 0-27.2732 9.8421-31.2744 23.3482-.5231 1.7659-2.1844 2.9463-4.0241 2.8593-.4361-.0206-.8751-.031-1.3169-.031C44.2638 34.1765 32 46.4459 32 61.5882 32 76.7306 44.2638 89 59.3846 89h78.4614C150.078 89 160 79.0745 160 66.8235c0-12.251-9.922-22.1764-22.154-22.1764-1.523 0-3.007.1533-4.437.4441-1.186.2412-2.418-.0677-3.35-.8402-.932-.7724-1.464-1.9253-1.447-3.1356.002-.1559.003-.312.003-.4683C128.615 22.6133 114.01 8 96 8zM58.0253 26.2021C63.8446 10.8893 78.6457 0 96 0c21.097 0 38.432 16.0956 40.424 36.6801.472-.022.946-.033 1.422-.033 16.657 0 30.154 13.5137 30.154 30.1764C168 83.4863 154.503 97 137.846 97H59.3846C39.839 97 24 81.1423 24 61.5882c0-19.0987 15.1099-34.6712 34.0253-35.3861zm23.9554 80.8119c.4511-1.773 2.0472-3.014 3.8764-3.014H117c1.404 0 2.705.736 3.428 1.939.723 1.203.763 2.697.105 3.937l-12.452 23.457h6.205c1.456 0 2.797.792 3.501 2.066.704 1.274.66 2.831-.115 4.063l-31.8572 50.667c-1.0342 1.645-3.101 2.309-4.8997 1.574-1.7986-.736-2.8087-2.657-2.3946-4.555l7.0844-32.481H75c-1.2347 0-2.4002-.571-3.158-1.545-.7578-.975-1.0229-2.245-.7185-3.442l10.8572-42.666zM88.9668 112l-8.8215 34.667h10.4261c1.2106 0 2.356.548 3.1153 1.491.7593.942 1.0508 2.178.7928 3.361l-3.2727 15.005 15.8392-25.191h-5.617c-1.404 0-2.7051-.735-3.4284-1.938-.7233-1.203-.7632-2.697-.1051-3.937L110.348 112H88.9668z"/>
</svg>