<svg xmlns="http://www.w3.org/2000/svg" width="192" height="192" fill="#000" viewBox="0 0 192 192">
  <path fill-rule="evenodd" d="M.00000572 35C.00000596 28.3726 5.37257 23 12 23h168c6.627 0 12 5.3726 12 12v39c0 2.2091-1.791 4-4 4-9.941 0-18 8.0589-18 18 0 9.941 8.059 18 18 18 2.209 0 4 1.791 4 4v39c0 6.627-5.373 12-12 12H12c-6.62744 0-12-5.373-12-12l.00000572-39c2.4e-7-2.209 1.79086428-4 4.00000428-4C13.9411 114 22 105.941 22 96c0-9.9411-8.0589-18-17.99999-18-2.20914 0-4.00000428-1.7909-4.00000428-4V35zM64 161v-11c0-2.209-1.7909-4-4-4-2.2091 0-4 1.791-4 4v11H12c-2.20914 0-4-1.791-4-4l.00001-35.306C20.4604 119.77 30 108.999 30 96c0-12.9991-9.5396-23.7702-21.99999-25.6942V35c0-2.2091 1.79085-4 3.99999-4h44v11c0 2.2091 1.7909 4 4 4 2.2091 0 4-1.7909 4-4V31h116c2.209 0 4 1.7909 4 4v35.3058C171.54 72.2298 162 83.0009 162 96c0 12.999 9.54 23.77 22 25.694V157c0 2.209-1.791 4-4 4H64zM60 56c2.2091 0 4 1.7909 4 4v12c0 2.2091-1.7909 4-4 4-2.2091 0-4-1.7909-4-4V60c0-2.2091 1.7909-4 4-4zm23 33c0-2.2091 1.7909-4 4-4h45c2.209 0 4 1.7909 4 4 0 2.2091-1.791 4-4 4H87c-2.2091 0-4-1.7909-4-4zm-23-3c2.2091 0 4 1.7909 4 4v12c0 2.209-1.7909 4-4 4-2.2091 0-4-1.791-4-4V90c0-2.2091 1.7909-4 4-4zm23 17c0-2.209 1.7909-4 4-4h38c2.209 0 4 1.791 4 4s-1.791 4-4 4H87c-2.2091 0-4-1.791-4-4zm-23 13c2.2091 0 4 1.791 4 4v12c0 2.209-1.7909 4-4 4-2.2091 0-4-1.791-4-4v-12c0-2.209 1.7909-4 4-4z"/>
</svg>