<svg xmlns="http://www.w3.org/2000/svg" width="192" height="192" fill="#000" viewBox="0 0 192 192">
  <path fill-rule="evenodd" d="M78.9079 1.46254C79.6676.536685 80.8023 0 82 0h28c1.198 0 2.332.536685 3.092 1.46254l11.609 14.14616c.002.0025.004.005.006.0074 3.057 3.702 3.057 9.0656 0 12.7676-.002.0025-.004.005-.006.0076l-10.59 12.904 9.877 128.3977c.105 1.364-.494 2.686-1.588 3.507l-24 18c-1.4222 1.067-3.3778 1.067-4.8 0l-24-18c-1.0941-.821-1.6931-2.143-1.5882-3.507l9.8767-128.3977-10.5892-12.904-.006-.0072c-3.0578-3.7022-3.0578-9.0662.0002-12.7683L78.9079 1.46254zM85.7041 44l-9.5475 124.117L96 183l19.843-14.883L112.834 129H99c-2.2091 0-4-1.791-4-4s1.7909-4 4-4h13.219l-5.923-77H85.7041zm22.4039-8l10.419-12.6964.01-.0126c.617-.7455.617-1.8365 0-2.582l-.01-.0126L108.108 8H83.8919L73.4731 20.6964l-.0105.0126c-.6168.7455-.6168 1.8365 0 2.582l.0105.0126L83.8919 36h24.2161z"/>
</svg>