<svg xmlns="http://www.w3.org/2000/svg" width="192" height="192" fill="#000" viewBox="0 0 192 192">
  <path fill-rule="evenodd" d="M96 8c-41.6388 0-62.5089 9.3505-78.3825 22.3905C11.2357 35.6331 8 43.8518 8 52.5063c0 7.246 4.4026 13.8348 11.2526 16.6953l1.9061.796c3.3561 1.4015 5.582 4.6682 5.582 8.3351V182c0 1.105.8955 2 2 2H163.259c1.105 0 2-.895 2-2V78.3327c0-3.6669 2.226-6.9336 5.582-8.3351l1.906-.796C179.597 66.3411 184 59.7523 184 52.5063c0-8.6545-3.236-16.8732-9.618-22.1158C158.509 17.3505 137.639 8 96 8zM12.5394 24.2088C30.1306 9.75784 52.9171 0 96 0c43.083 0 65.869 9.75784 83.461 24.2088C188.051 31.266 192 41.9649 192 52.5063c0 10.5304-6.395 19.9955-16.17 24.0775l-1.906.796c-.431.18-.665.5704-.665.9529V182c0 5.523-4.477 10-10 10H28.7407c-5.5228 0-10-4.477-10-10V78.3327c0-.3825-.2337-.7729-.6648-.9529l-1.906-.796C6.39479 72.5018 0 63.0367 0 52.5063 0 41.9649 3.94872 31.266 12.5394 24.2088z"/>
</svg>