<svg xmlns="http://www.w3.org/2000/svg" width="192" height="192" fill="#000" viewBox="0 0 192 192">
  <path fill-rule="evenodd" d="M16 8c-4.4183 0-7.99998 3.5817-7.99998 8L8 96c0 4.418 3.5817 8 8 8h32.1739V58.4783C48.1739 48.273 56.4469 40 66.6522 40c5.8329 0 11.0331 2.7015 14.4193 6.9222C84.4684 42.6999 89.6815 40 95.5108 40c10.2292 0 18.5762 8.2905 18.5762 18.5435v22.2778c2.978-2.0536 6.587-3.2561 10.478-3.2561 5.866 0 11.093 2.7332 14.478 6.9956 3.385-4.2624 8.613-6.9956 14.479-6.9956 10.205 0 18.478 8.273 18.478 18.4783V104h4c4.418 0 8-3.582 8-8V16c0-4.4183-3.582-8-8-8H16zm156 104h4c8.837 0 16-7.163 16-16V16c0-8.83655-7.163-16-16-16H16C7.16347 0 .0000236 7.16345.00002122 16L0 96c-.0000043 8.837 7.16343 16 16 16h32.1739v7.663c-9.2525-4.118-20.3096-.664-25.4859 8.301-5.5349 9.587-2.2502 21.845 7.3364 27.38l47.7463 27.563C87.1804 188.675 98.2515 192 110.087 192 144.281 192 172 164.281 172 130.087V112zM48.1739 128.772l-2.106-1.216c-5.7603-3.326-13.126-1.352-16.4517 4.408-3.3257 5.761-1.3521 13.126 4.408 16.452.0001 0-.0001 0 0 0l47.7925 27.589c.0316.018.0628.037.0939.056C90.107 181.096 99.7517 184 110.087 184 139.862 184 164 159.862 164 130.087V96.0435c0-5.787-4.691-10.4783-10.478-10.4783s-10.479 4.6913-10.479 10.4783c0 2.2091-1.79 3.9995-4 3.9995-2.209 0-4-1.7904-4-3.9995 0-5.787-4.691-10.4783-10.478-10.4783s-10.478 4.6913-10.478 10.4783c0 2.2091-1.791 3.9995-4 3.9995s-4-1.7904-4-3.9995v-37.5C106.087 52.7322 101.345 48 95.5108 48c-5.3455 0-9.7742 4.0011-10.4274 9.1514.0312.4388.047.8813.047 1.3269v37.5652c0 2.2091-1.7908 3.9995-4 3.9995H81c-2.2091 0-4-1.7904-4-3.9995V58.4783c0-.4462.016-.8893.0474-1.3288C76.3967 51.9918 71.9883 48 66.6522 48c-5.787 0-10.4783 4.6913-10.4783 10.4783v77.8697c0 2.209-1.7909 4-4 4-2.2091 0-4-1.791-4-4v-7.576z"/>
</svg>