<svg xmlns="http://www.w3.org/2000/svg" width="192" height="192" fill="#000" viewBox="0 0 192 192">
  <path fill-rule="evenodd" d="M22.658 64h146.684C160.564 31.7289 131.049 8 96 8 60.9511 8 31.4362 31.7289 22.658 64zm154.945 0C168.629 27.2643 135.503 0 96 0 56.4971 0 23.3705 27.2643 14.3965 64H8c-2.20914 0-4 1.7909-4 4v16c0 2.2091 1.79086 4 4 4h4v64H8c-2.20914 0-4 1.791-4 4v12c-2.20914 0-4 1.791-4 4v16c0 2.209 1.79086 4 4 4h184c2.209 0 4-1.791 4-4v-16c0-2.209-1.791-4-4-4v-12c0-2.209-1.791-4-4-4h-4V88h4c2.209 0 4-1.7909 4-4V68c0-2.2091-1.791-4-4-4h-6.397zM172 88h-8v64h8V88zm-16 64V88h-24v64h24zm-32 0V88h-8v64h8zm-16 0V88H84v64h24zm-32 0V88h-8v64h8zm-16 0V88H36v64h24zm-32 0V88h-8v64h8zm152-72v-8H12v8h168zm0 80H12v8h168v-8zm4 16H8v8h176v-8z"/>
</svg>