<svg xmlns="http://www.w3.org/2000/svg" width="192" height="192" fill="#000" viewBox="0 0 192 192">
  <path fill-rule="evenodd" d="M47 8c-11.0457 0-20 8.9543-20 20v70h138V28c0-11.0457-8.954-20-20-20H47zm126 20c0-15.464-12.536-28-28-28H47C31.536 0 19 12.536 19 28v114c0 13.108 9.0069 24.112 21.1694 27.161l-7.8109 17.184c-.9141 2.011-.0248 4.382 1.9863 5.296 2.0111.915 4.3825.025 5.2967-1.986l2.116-4.655H150.243l2.116 4.655c.914 2.011 3.285 2.901 5.296 1.986 2.011-.914 2.901-3.285 1.986-5.296l-7.81-17.184C163.993 166.112 173 155.108 173 142V28zm-8 78H27v36c0 11.046 8.9543 20 20 20h98c11.046 0 20-8.954 20-20v-36zm-21.576 64H48.5757l-3.1819 7H146.606l-3.182-7zM74 21c0-2.2091 1.7909-4 4-4h36c2.209 0 4 1.7909 4 4 0 2.2091-1.791 4-4 4H78c-2.2091 0-4-1.7909-4-4zM55 123c-6.0751 0-11 4.925-11 11s4.9249 11 11 11 11-4.925 11-11-4.9249-11-11-11zm-19 11c0-10.493 8.5066-19 19-19s19 8.507 19 19-8.5066 19-19 19-19-8.507-19-19zm101-11c-6.075 0-11 4.925-11 11s4.925 11 11 11 11-4.925 11-11-4.925-11-11-11zm-19 11c0-10.493 8.507-19 19-19s19 8.507 19 19-8.507 19-19 19-19-8.507-19-19z"/>
</svg>