<svg xmlns="http://www.w3.org/2000/svg" width="192" height="192" fill="#000" viewBox="0 0 192 192">
  <path fill-rule="evenodd" d="M70.6378 8c-1.6905 0-3.1985 1.06268-3.767 2.6547L60.676 28h70.648l-6.195-17.3453C124.561 9.06269 123.053 8 121.362 8H70.6378zm69.1812 20l-7.156-20.03603C130.957 3.18805 126.434 0 121.362 0H70.6378c-5.0714 0-9.5953 3.18805-11.301 7.96396L52.1811 28H15c-2.2091 0-4 1.7908-4 4 0 2.2091 1.7909 4 4 4h14.2482l9.4 146.64c.3374 5.263 4.705 9.36 9.9795 9.36h94.7443c5.275 0 9.642-4.097 9.98-9.36l9.4-146.64H177c2.209 0 4-1.7909 4-4 0-2.2092-1.791-4-4-4h-37.181zm14.916 8l-9.367 146.128c-.067 1.053-.941 1.872-1.996 1.872H48.6277c-1.0549 0-1.9284-.819-1.9959-1.872L37.2646 36H55m19 36c2.2091 0 4 1.7909 4 4v68c0 2.209-1.7909 4-4 4-2.2091 0-4-1.791-4-4V76c0-2.2091 1.7909-4 4-4zm18 72V76c0-2.2091 1.7909-4 4-4 2.2091 0 4 1.7909 4 4v68c0 2.209-1.7909 4-4 4-2.2091 0-4-1.791-4-4zm26-72c2.209 0 4 1.7909 4 4v68c0 2.209-1.791 4-4 4s-4-1.791-4-4V76c0-2.2091 1.791-4 4-4z"/>
</svg>