<svg xmlns="http://www.w3.org/2000/svg" width="192" height="192" fill="#000" viewBox="0 0 192 192">
  <path fill-rule="evenodd" d="M69 13c-2.2091 0-4 1.7909-4 4v17h62V17c0-2.2091-1.791-4-4-4H69zm66 21V17c0-6.6274-5.373-12-12-12H69c-6.6274 0-12 5.3726-12 12v17H12C5.37258 34 0 39.3726 0 46v122c0 6.627 5.37259 12 12 12h3v3c0 2.209 1.7909 4 4 4 2.2091 0 4-1.791 4-4v-3h146v3c0 2.209 1.791 4 4 4s4-1.791 4-4v-3h3c6.627 0 12-5.373 12-12V46c0-6.6274-5.373-12-12-12h-45zm19 8H79v14.3579l17.8462 18.073C97.5855 75.1795 98 76.1893 98 77.2414v36.7116C98 119.454 93.5832 124 88.0289 124H61.9711C56.4168 124 52 119.454 52 113.953V77.2414c0-1.0521.4145-2.0619 1.1538-2.8105L71 56.3579V42H38v130h116V42zm8 130V42h18c2.209 0 4 1.7909 4 4v122c0 2.209-1.791 4-4 4h-18zm-132 0V42H12c-2.20914 0-4 1.7909-4 4v122c0 2.209 1.79086 4 4 4h18zM75 63.6929L60 78.8835v35.0695c0 1.178.93 2.047 1.9711 2.047h26.0578C89.07 116 90 115.131 90 113.953V78.8835L75 63.6929z"/>
</svg>