<svg xmlns="http://www.w3.org/2000/svg" width="192" height="192" fill="#000" viewBox="0 0 192 192">
  <path fill-rule="evenodd" d="M59.1716 4.17157c1.5621-1.56209 4.0947-1.56209 5.6568 0L96.8426 36.1857 143.3 14.379c2-.9386 4.382-.0784 5.321 1.9214.939 1.9998.078 4.3819-1.921 5.3205L113.936 37H170c12.15 0 22 9.8497 22 22v108c0 12.15-9.85 22-22 22H22c-12.15028 0-22.0000019-9.85-22-22L.0000155 59C.00001717 46.8497 9.84976 37 22 37h64.3431L59.1716 9.82843c-1.5621-1.5621-1.5621-4.09476 0-5.65686zM22 45c-7.732 0-13.99998 6.268-13.99998 14L8 167c0 7.732 6.268 14 14 14h148c7.732 0 14-6.268 14-14V59c0-7.732-6.268-14-14-14H22zm9 18c-2.7614 0-5 2.2385-5 5v90c0 2.761 2.2386 5 5 5h102c2.761 0 5-2.239 5-5V68c0-2.7614-2.239-5-5-5H31zm-13 5c0-7.1797 5.8203-13 13-13h102c7.18 0 13 5.8203 13 13v90c0 7.18-5.82 13-13 13H31c-7.1797 0-13-5.82-13-13V68zm137-9c0-2.2092 1.791-4 4-4h12c2.209 0 4 1.7908 4 4 0 2.2091-1.791 4-4 4h-12c-2.209 0-4-1.7909-4-4zm0 14c0-2.2092 1.791-4 4-4h12c2.209 0 4 1.7908 4 4 0 2.2091-1.791 4-4 4h-12c-2.209 0-4-1.7909-4-4zm0 14c0-2.2092 1.791-4 4-4h12c2.209 0 4 1.7908 4 4 0 2.2091-1.791 4-4 4h-12c-2.209 0-4-1.7909-4-4z"/>
  <path d="M171 165c0 3.314-2.686 6-6 6s-6-2.686-6-6 2.686-6 6-6 6 2.686 6 6z"/>
</svg>