<svg xmlns="http://www.w3.org/2000/svg" width="192" height="192" fill="none" viewBox="0 0 192 192">
  <path fill="#000" fill-rule="evenodd" d="M60.7954 25.6018C55.2726 32.9553 52 42.0955 52 52v2c0 3.3137 2.6863 6 6 6h76c3.314 0 6-2.6863 6-6v-2c0-9.9045-3.273-19.0447-8.795-26.3982-.087-.1034-.169-.2111-.245-.3227C122.919 14.7747 110.251 8 96 8c-14.2506 0-26.9189 6.7747-34.9599 17.2791-.0761.1116-.1577.2193-.2447.3227zM49.5106 28.678C45.9849 35.6923 44 43.6143 44 52v2c0 7.732 6.268 14 14 14h76c7.732 0 14-6.268 14-14v-2c0-8.3857-1.985-16.3077-5.511-23.322 11.647 2.5504 21.415 6 28.59 9.9902C180.274 43.7815 184 49.0484 184 53.5c0 3.0232-1.67 6.4188-5.84 10.0083-4.156 3.5787-10.405 6.9829-18.475 9.9212-11.439 4.1655-26.112 7.2418-42.635 8.6748-.133.0047-.267.0161-.402.0345C110.03 82.7011 103.118 83 96 83c-7.1177 0-14.03-.2989-20.6483-.8612-.1347-.0184-.2688-.0298-.4021-.0345-16.5226-1.433-31.1954-4.5093-42.6348-8.6748-8.0694-2.9383-14.3183-6.3425-18.4753-9.9212C9.67004 59.9188 8 56.5232 8 53.5c0-4.4516 3.7257-9.7185 12.9209-14.8318 7.1754-3.9902 16.9429-7.4398 28.5897-9.9902zm6.0193-9.3331c-15.4608 2.7039-28.8104 6.945-38.497 12.3316C7.28769 37.0957 0 44.4219 0 53.5c0 6.2276 3.47869 11.6449 8.62009 16.0711 5.15401 4.4371 12.37821 8.2516 20.95751 11.3756 11.2177 4.0847 25.115 7.1192 40.5719 8.7349L56.0562 172.832c-.0374.22-.0562.444-.0562.668 0 3.446 1.7504 6.331 4.0706 8.541 2.3106 2.2 5.4411 3.997 8.9791 5.422C76.1472 190.322 85.6774 192 96 192c10.323 0 19.853-1.678 26.95-4.537 3.538-1.425 6.669-3.222 8.979-5.422 2.321-2.21 4.071-5.095 4.071-8.541 0-.224-.019-.448-.056-.668l-14.093-83.1504c15.456-1.6157 29.354-4.6502 40.571-8.7349 8.58-3.124 15.804-6.9385 20.958-11.3756C188.521 65.1449 192 59.7276 192 53.5c0-9.0781-7.288-16.4043-17.033-21.8235-9.687-5.3866-23.036-9.6277-38.497-12.3316C126.938 7.54582 112.35 0 96 0 79.65 0 65.0625 7.54583 55.5299 19.3449zm58.3251 71.0347C108.066 90.7873 102.096 91 96 91c-6.0962 0-12.0657-.2127-17.8548-.6204L64.0159 173.743c.0732.568.4246 1.412 1.5716 2.504 1.3328 1.269 3.4744 2.597 6.4511 3.796C77.9706 182.432 86.4404 184 96 184c9.56 0 18.029-1.568 23.961-3.957 2.977-1.199 5.119-2.527 6.451-3.796 1.148-1.092 1.499-1.936 1.572-2.504l-14.129-83.3634zM94.7831 20.8605c.7176 2.0894-.3944 4.3649-2.4837 5.0825-11.2083 3.8498-19.9211 13.0848-23.0466 24.6044-.5785 2.1321-2.7758 3.3915-4.9079 2.813-2.132-.5784-3.3915-2.7758-2.813-4.9078 3.8242-14.0946 14.466-25.3692 28.1687-30.0757 2.0893-.7177 4.3648.3943 5.0825 2.4836zM96 163c-8.1694 0-15.5689 1.146-21.271 2.987-2.1022.679-4.3567-.475-5.0355-2.578-.6788-2.102.4752-4.356 2.5775-5.035C78.8953 156.235 87.1424 155 96 155c8.858 0 17.105 1.235 23.729 3.374 2.102.679 3.256 2.933 2.578 5.035-.679 2.103-2.934 3.257-5.036 2.578C111.569 164.146 104.169 163 96 163z"/>
</svg>