<svg xmlns="http://www.w3.org/2000/svg" width="192" height="192" fill="#000" viewBox="0 0 192 192">
  <path d="M128 64.9999c-2.209 0-4 1.7909-4 4 0 2.2092-1.791 4-4 4s-4-1.7908-4-4c0-6.6274 5.373-12 12-12s12 5.3726 12 12c0 2.2092-1.791 4-4 4s-4-1.7908-4-4c0-2.2091-1.791-4-4-4zM164 99.9999c2.209 0 4-1.7908 4-4 0-2.2091-1.791-4-4-4s-4 1.7909-4 4c0 2.2092 1.791 4 4 4z"/>
  <path fill-rule="evenodd" d="M183.827 1.17003c1.32 1.3191 1.553 3.3761.561 4.95685L155.886 51.5232c.621.5702 1.232 1.1561 1.833 1.7575.041.0403.08.0815.119.1236l23.614 25.7272C185.516 83.5748 188 89.5018 188 96c0 13.807-11.193 25-25 25-7.46 0-14.154-3.27-18.731-8.442-4.012 1.747-8.403 2.572-12.775 2.425.822 1.826 1.983 3.536 3.485 5.038l.005.005 22.799 22.884c11.764 11.808 18.369 27.796 18.369 44.464 0 2.379-1.346 4.626-4 4.626H53c-2.1363 0-3.8955-1.679-3.9956-3.813-.0346-.737-.0678-1.496-.0994-2.277C42.1429 189.793 34.1705 192 26 192c-1.3385 0-2.5882-.669-3.3299-1.784-.8817-1.324-.7621-2.799-.1776-4.196 4.0723-9.733 1.8597-20.961-5.6002-28.421-.5276-.527-1.0602-1.051-1.593-1.575l-.0009-.001c-1.0793-1.061-2.1595-2.124-3.1999-3.22C7.14563 147.584 4 140.949 4 133c0-11.708 6.5468-22.136 16.5633-26.929C16.8816 100.231 15 93.3921 15 86c0-17.2739 11.4873-32.8361 27.707-37.1767-.3596-17.8578 17.0258-31.7567 34.2558-28.4651C81.6591 12.8381 90.0332 7.99996 99.5 7.99996c6.038 0 11.7 1.84182 16.238 5.26184.401-.6466.83-1.2492 1.293-1.7979 1.694-2.00709 4.007-3.46394 6.969-3.46394 2.535 0 4.448 1.69175 5.534 2.87044 1.277 1.3866 2.472 3.2333 3.535 5.3384 1.478 2.9251 2.83 6.6046 3.827 10.8209L178.869.614558c1.58-.994136 3.637-.763625 4.958.555472zm-45.51 34.41767c.176 1.608.32 3.2634.43 4.9577 3.77 1.5736 7.411 3.5554 10.853 5.9449l18.686-29.7631-29.969 18.8605zm-25.862-14.633C109.183 17.8186 104.65 16 99.5 16c-7.5343 0-13.9668 4.3137-16.8605 10.6596-.8421 1.8466-2.9337 2.7699-4.8656 2.1478-14.0326-4.519-29.1594 7.9606-26.8241 22.5608.168 1.0505-.0893 2.1246-.7152 2.9849-.6258.8602-1.5685 1.4358-2.6197 1.5993C33.6758 58.121 23 71.0812 23 86c0 7.631 2.4458 14.222 6.9919 19.345.9309 1.049 1.2444 2.509.8261 3.848s-1.5072 2.36-2.8698 2.693C18.6848 114.146 12 122.746 12 133c0 5.633 2.1642 10.343 5.8668 14.26l4.6823 4.682c8.367 8.367 11.6861 20.359 9.1016 31.633 6.9593-1.049 13.4414-3.986 18.4336-8.217C57.9915 168.657 63 158.665 63 147.5c0-10.064-4.0675-19.17-10.6577-25.777l-.0032-.003c-.9875-.987-1.662-2.149-1.509-3.605 1.939-18.4681 5.3782-36.3035 11.4292-47.5014 2.8517-6.2869 6.8611-12.1727 12.0214-17.3329C84.1494 43.412 96.4296 37.6902 109.322 36.28c.636-5.7533 1.786-11.0504 3.133-15.3253zM56.7162 180.169c.0361 1.324.0768 2.602.1214 3.831H168.048c-.818-13.321-6.459-25.935-15.933-35.444l-22.793-22.878-.001-.002c-3.526-3.526-5.781-7.852-6.759-12.393C111.161 109.204 103 98.3093 103 85.5c0-2.2092 1.791-4 4-4s4 1.7908 4 4c0 10.0093 6.844 18.43 16.113 20.821 1.717.442 3.522.679 5.387.679 3.982 0 7.699-1.079 10.89-2.957 1.84-1.083 4.206-.531 5.375 1.255C151.808 109.945 157.048 113 163 113c9.389 0 17-7.611 17-17 0-4.4213-1.683-8.4404-4.449-11.4665l-.003-.0027-23.545-25.6526c-1.24-1.236-2.527-2.3941-3.854-3.4748-4.479-3.6466-9.431-6.4171-14.629-8.3139-1.521-.5546-2.557-1.9704-2.626-3.587-.142-3.3213-.422-6.4813-.819-9.4117-.253-1.8638-3.05-17.882-6.075-17.882-1.104 0-2.623 3.4627-3.242 5.1614-1.677 4.5991-3.232 11.3927-3.768 18.9142-.144 2.0187-1.773 3.6119-3.794 3.7108-12.17.5955-23.9096 5.5934-33.2584 14.9423-4.579 4.579-7.5216 9.755-10.5807 15.3697-5.0895 9.3418-8.4004 25.0482-10.3695 42.7818C66.4343 125.042 71 135.741 71 147.5c0 12.913-5.5049 24.545-14.2838 32.669z"/>
</svg>