<svg xmlns="http://www.w3.org/2000/svg" width="192" height="192" fill="#000" viewBox="0 0 192 192">
  <path fill-rule="evenodd" d="M66.1716 1.17157C66.9217.421427 67.9391 0 69 0l54 .00000715c2.209 2.4e-7 4 1.79086285 4 4.00000285V39.6828c4.661 1.6474 8 6.0923 8 11.3172v75c0 6.627-5.373 12-12 12h-6v6c0 4.101-2.468 7.625-6 9.168V188c0 2.209-1.791 4-4 4s-4-1.791-4-4v-34H89v34c0 2.209-1.7909 4-4 4-2.2091 0-4-1.791-4-4v-34.832c-3.5318-1.543-6-5.067-6-9.168v-6h-6c-6.6274 0-12-5.373-12-12V51c0-5.2249 3.3392-9.6698 8-11.3172V4c0-1.06087.4214-2.07828 1.1716-2.82843zM73 39h46V8.00001L73 8v31zm5.9952 91H123c2.209 0 4-1.791 4-4V51c0-2.2091-1.791-4-4-4H69c-2.2091 0-4 1.7909-4 4v75c0 2.209 1.7909 4 4 4h9.9952zM83 138v6c0 1.105.8954 2 2 2h22c1.105 0 2-.895 2-2v-6H83zm2-124c2.2091 0 4 1.7909 4 4v11c0 2.2091-1.7909 4-4 4-2.2091 0-4-1.7909-4-4V18c0-2.2091 1.7909-4 4-4zm22 0c2.209 0 4 1.7909 4 4v11c0 2.2092-1.791 4-4 4s-4-1.7909-4-4V18c0-2.2091 1.791-4 4-4z"/>
</svg>