<svg xmlns="http://www.w3.org/2000/svg" width="192" height="192" fill="#000" viewBox="0 0 192 192">
  <path fill-rule="evenodd" d="M117.505 116.128c16.859-8.085 28.496-25.3811 28.496-45.3897V50.2617C146.001 22.5243 123.637 0 96.0015 0c-27.6356 0-50 22.5243-50 50.2617v20.4766c0 20.0086 11.6375 37.3047 28.4962 45.3897-28.343 8.468-49.6467 33.243-53.0272 63.44-.7903 7.06 5.0385 12.432 11.531 12.432H159.001c6.493 0 12.322-5.372 11.531-12.432-3.38-30.197-24.684-54.972-53.027-63.44zM54.0015 50.2617C54.0015 26.8998 72.8269 8 96.0015 8c23.1745 0 41.9995 18.8998 41.9995 42.2617v20.4766C138.001 94.1002 119.176 113 96.0015 113c-23.1746 0-42-18.8998-42-42.2617V50.2617zm42 70.7383c-34.4523 0-62.8359 26.007-66.5806 59.458-.1927 1.721 1.2365 3.542 3.5806 3.542H159.001c2.345 0 3.774-1.821 3.581-3.542C158.837 147.007 130.454 121 96.0015 121z"/>
</svg>