<svg xmlns="http://www.w3.org/2000/svg" width="192" height="192" fill="#000" viewBox="0 0 192 192">
  <path d="M164 54v16c0 2.2091 1.791 4 4 4s4-1.7909 4-4V54h16c2.209 0 4-1.7909 4-4 0-2.2091-1.791-4-4-4h-16V30c0-2.2091-1.791-4-4-4s-4 1.7909-4 4v16h-16c-2.209 0-4 1.7909-4 4 0 2.2091 1.791 4 4 4h16z"/>
  <path fill-rule="evenodd" d="M74.603 8c-23.1746 0-42 18.8998-42 42.2617v20.4766c0 23.3619 18.8254 42.2617 42 42.2617s42-18.8998 42-42.2617V50.2617C116.603 26.8998 97.7776 8 74.603 8zm21.5038 108.128c16.8592-8.085 28.4962-25.3811 28.4962-45.3897V50.2617C124.603 22.5243 102.239 0 74.603 0c-27.6356 0-50 22.5243-50 50.2617v20.4766c0 20.0086 11.6375 37.3047 28.4963 45.3897-28.3431 8.468-49.64672 33.243-53.0271953 63.44C-.718278 186.628 5.11055 192 11.603 192h126c6.493 0 12.321-5.372 11.531-12.432-3.381-30.197-24.684-54.972-53.0272-63.44zM74.603 121c-34.4523 0-62.8358 26.007-66.58056 59.458C7.82973 182.179 9.25896 184 11.603 184h126c2.344 0 3.773-1.821 3.581-3.542C137.439 147.007 109.055 121 74.603 121z"/>
</svg>