<svg xmlns="http://www.w3.org/2000/svg" width="192" height="192" fill="#000" viewBox="0 0 192 192">
  <path fill-rule="evenodd" d="M0 31c0-6.6274 5.37258-12 12-12h168c6.627 0 12 5.3726 12 12v116c0 6.627-5.373 12-12 12h-8v4c0 5.523-4.477 10-10 10h-12c-5.523 0-10-4.477-10-10v-4H52v4c0 5.523-4.4772 10-10 10H30c-5.5228 0-10-4.477-10-10v-4h-8c-6.62742 0-12-5.373-12-12V31zm180 120c2.209 0 4-1.791 4-4V31c0-2.2091-1.791-4-4-4H12c-2.20914 0-4 1.7909-4 4v116c0 2.209 1.79086 4 4 4h168zm-152 8v4c0 1.105.8954 2 2 2h12c1.1046 0 2-.895 2-2v-4H28zm120 0v4c0 1.105.895 2 2 2h12c1.105 0 2-.895 2-2v-4h-16zM43.5 51.7279c2.2091 0 4 1.7909 4 4v16.7313C55.2374 74.2684 61 81.2112 61 89.5c0 9.665-7.835 17.5-17.5 17.5S26 99.165 26 89.5c0-8.2888 5.7626-15.2316 13.5-17.0408V55.7279c0-2.2091 1.7909-4 4-4zM117 60c-16.569 0-30 13.4315-30 30 0 16.569 13.431 30 30 30 15.212 0 27.78-11.323 29.736-26H126.5c-2.209 0-4-1.7909-4-4 0-2.2091 1.791-4 4-4h20.236C144.78 71.3226 132.212 60 117 60zM79 90c0-20.9868 17.0132-38 38-38 20.987 0 38 17.0132 38 38 0 20.987-17.013 38-38 38-20.9868 0-38-17.013-38-38zM43.5 80c-5.2467 0-9.5 4.2533-9.5 9.5s4.2533 9.5 9.5 9.5 9.5-4.2533 9.5-9.5-4.2533-9.5-9.5-9.5z"/>
</svg>