<svg xmlns="http://www.w3.org/2000/svg" width="192" height="192" fill="#000" viewBox="0 0 192 192">
  <path fill-rule="evenodd" d="M165 8c-10.493 0-19 8.5066-19 19s8.507 19 19 19 19-8.5066 19-19-8.507-19-19-19zm-26.714 15.0569C140.194 10.0142 151.428 0 165 0c14.912 0 27 12.0883 27 27s-12.088 27-27 27c-13.532 0-24.738-9.9543-26.697-22.9396C79.9383 32.9702 32.9702 79.9383 31.0604 138.303 44.0457 140.262 54 151.468 54 165c0 14.912-12.0883 27-27 27S0 179.912 0 165c0-13.572 10.0142-24.806 23.0569-26.714C24.9813 75.5159 75.5159 24.9813 138.286 23.0569zM27 146c-10.4934 0-19 8.507-19 19s8.5066 19 19 19 19-8.507 19-19-8.5066-19-19-19z"/>
</svg>