<svg xmlns="http://www.w3.org/2000/svg" width="192" height="192" fill="#000" viewBox="0 0 192 192">
  <path fill-rule="evenodd" d="M0 35c0-2.2091 1.79086-4 4-4h30c2.2091 0 4 1.7909 4 4v30c0 2.2091-1.7909 4-4 4H23.1077C24.8344 100.969 47.1328 127.476 77 135.504V127c0-2.209 1.7909-4 4-4h30c1.061 0 2.078.421 2.828 1.172.751.75 1.172 1.767 1.172 2.828v8.504c29.867-8.028 52.166-34.535 53.892-66.504H158c-2.209 0-4-1.7909-4-4V35c0-2.2091 1.791-4 4-4h30c2.209 0 4 1.7909 4 4v30c0 2.2091-1.791 4-4 4h-11.097c-1.48 30.438-19.759 56.46-45.763 69h23.282c1.837-8.573 9.457-15 18.578-15 10.493 0 19 8.507 19 19s-8.507 19-19 19c-9.121 0-16.741-6.427-18.578-15H115v11c0 1.061-.421 2.078-1.172 2.828-.75.751-1.767 1.172-2.828 1.172H81c-2.2091 0-4-1.791-4-4v-11H37.5782c-1.8369 8.573-9.457 15-18.5782 15-10.49341 0-19-8.507-19-19s8.50659-19 19-19c9.1212 0 16.7413 6.427 18.5782 15h23.2816C34.8561 125.46 16.577 99.438 15.097 69H4c-2.20914 0-4-1.7909-4-4V35zm8 4v22h22V39H8zm154 0v22h22V39h-22zM19 131c-6.0751 0-11 4.925-11 11s4.9249 11 11 11 11-4.925 11-11-4.9249-11-11-11zm66 0v22h22v-22H85zm88 0c-6.075 0-11 4.925-11 11s4.925 11 11 11 11-4.925 11-11-4.925-11-11-11z"/>
</svg>