<svg xmlns="http://www.w3.org/2000/svg" width="192" height="192" fill="#000" viewBox="0 0 192 192">
  <path fill-rule="evenodd" d="M0 48c0-5.5228 4.47715-10 10-10h116c5.523 0 10 4.4772 10 10v21.4344l36.432-30.5014c.72-.6027 1.629-.933 2.568-.933h13c2.209 0 4 1.7909 4 4v108c0 2.209-1.791 4-4 4h-13c-.939 0-1.848-.33-2.568-.933L136 122.566V144c0 5.523-4.477 10-10 10H10c-5.52285 0-10-4.477-10-10V48zm136 64.132L176.453 146H184V46h-7.547L136 79.8679v32.2641zM128 48c0-1.1046-.895-2-2-2H10c-1.10457 0-2 .8954-2 2v96c0 1.105.89543 2 2 2h116c1.105 0 2-.895 2-2V48z"/>
</svg>