<svg xmlns="http://www.w3.org/2000/svg" width="192" height="192" fill="#000" viewBox="0 0 192 192">
  <path fill-rule="evenodd" d="M78.4546 8c-1.1624 0-2.1062.94278-2.1062 2.1076 0 1.1647.9438 2.1075 2.1062 2.1075.1094 0 .2169-.0083.3218-.0244.0158-.003.0316-.0059.0475-.0087.0151-.0026.0303-.0052.0455-.0077.9641-.1927 1.6915-1.0442 1.6915-2.0667C80.5609 8.94279 79.6171 8 78.4546 8zm5.5541 10.5533c2.7426-1.8077 4.5522-4.9156 4.5522-8.4457C88.5609 4.52611 84.037 0 78.4546 0c-5.5823 0-10.1062 4.52612-10.1062 10.1076 0 4.7819 3.3207 8.7892 7.7826 9.8391l4.0724 23.1006c-9.2206 2.2911-17.4846 7.0038-24.0782 13.4241L35.7757 38.902c.0981-.5031.1495-1.0229.1495-1.5547 0-4.457-3.6126-8.0717-8.0708-8.0717s-8.0709 3.6147-8.0709 8.0717c0 4.4571 3.6127 8.0717 8.0709 8.0717.9449 0 1.8518-.1623 2.6944-.4607l20.2805 17.5099c-6.7106 8.8631-10.6916 19.908-10.6916 31.8826 0 3.9741.4385 7.8462 1.2697 11.5692l-24.226 7.059c-1.4522-1.404-3.4302-2.269-5.6106-2.269-4.45817 0-8.0708 3.615-8.0708 8.072 0 4.457 3.61264 8.071 8.0708 8.071 3.8118 0 7.0054-2.642 7.8514-6.194l24.3184-7.086c1.231 3.153 2.7558 6.158 4.5409 8.983l-9.3463 6.668c-1.9801-1.403-4.3987-2.228-7.01-2.228-6.7064 0-12.1417 5.438-12.1417 12.144s5.4353 12.143 12.1417 12.143c6.7065 0 12.1417-5.437 12.1417-12.143 0-1.182-.1689-2.325-.4838-3.405l9.4713-6.757c4.0892 4.713 8.9987 8.696 14.5064 11.725l-2.5979 5.836c-4.0867.397-7.2795 3.843-7.2795 8.033 0 4.457 3.6126 8.072 8.0708 8.072s8.0709-3.615 8.0709-8.072c0-1.784-.5787-3.432-1.5586-4.769l2.5771-5.789c3.0879 1.129 6.3105 1.978 9.6371 2.516l-2.3592 21.49c-5.3944 1.237-9.4175 6.067-9.4175 11.837 0 6.705 5.4353 12.143 12.1417 12.143 6.7065 0 12.1417-5.438 12.1417-12.143 0-4.835-2.8245-9.01-6.9137-10.964l2.3806-21.684c.1776.001.3555.002.5335.002 3.2125 0 6.3581-.286 9.4122-.836l1.036 3.476c-1.385 1.449-2.236 3.414-2.236 5.576 0 4.457 3.613 8.072 8.071 8.072s8.071-3.615 8.071-8.072c0-3.827-2.664-7.033-6.24-7.863l-.954-3.202c6.024-2.067 11.556-5.192 16.374-9.153l17.911 18.551c-.212.722-.326 1.486-.326 2.277 0 4.457 3.613 8.072 8.071 8.072s8.071-3.615 8.071-8.072c0-4.457-3.613-8.071-8.071-8.071-.684 0-1.348.085-1.982.245l-17.893-18.533c2.237-2.489 4.241-5.191 5.978-8.073l3.615 1.842c.343 4.141 3.812 7.396 8.043 7.396 4.458 0 8.071-3.614 8.071-8.072 0-4.457-3.613-8.071-8.071-8.071-1.741 0-3.352.55-4.67 1.487l-3.389-1.727c2.353-5.719 3.733-11.94 3.933-18.4592l23.447-.819c1.622 3.4146 5.102 5.7762 9.134 5.7762 5.582 0 10.106-4.5266 10.106-10.1081 0-5.5814-4.524-10.1075-10.106-10.1075-4.291 0-7.956 2.6734-9.423 6.4446l-23.51.8212c-.394-3.2948-1.09-6.4964-2.062-9.5762L149 76.1688c1.376 1.0912 3.116 1.743 5.01 1.743 4.458 0 8.07-3.6147 8.07-8.0717 0-4.4571-3.612-8.0717-8.07-8.0717-4.088 0-7.465 3.0386-7.998 6.9792l-5.593 2.2603c-1.489-3.021-3.258-5.8792-5.273-8.5406l20.28-17.5093c.842.2985 1.75.461 2.695.461 4.458 0 8.071-3.6146 8.071-8.0717 0-4.457-3.613-8.0717-8.071-8.0717s-8.071 3.6147-8.071 8.0717c0 .5314.051 1.0509.149 1.5536L129.85 56.4706c-4.452-4.3345-9.665-7.8908-15.42-10.4488l3.733-10.8095c5.232-.3842 9.356-4.7511 9.356-10.0801 0-5.5815-4.524-10.1076-10.106-10.1076-5.583 0-10.107 4.5261-10.107 10.1076 0 2.9577 1.271 5.6191 3.296 7.4676l-3.709 10.7391c-4.431-1.2053-9.0929-1.8486-13.9052-1.8486-1.6508 0-3.2839.0757-4.896.2238l-4.0831-23.1608zm1.2357 31.6031c.0888-.0096.178-.0222.2673-.038.069-.0121.1372-.026.2048-.0415 2.3667-.386 4.7956-.5866 7.2713-.5866 5.1794 0 10.1542.8782 14.7822 2.4938.105.0468.213.0895.324.1278.085.0291.17.0553.255.0786 11.867 4.3269 21.394 13.5239 26.162 25.174.032.101.068.2015.108.3013.038.0935.079.1847.123.2737 1.754 4.4605 2.814 9.2699 3.047 14.2955 0 .0145.001.029.001.0435.002.0409.004.0816.006.1221.028.6466.042 1.2968.042 1.9502 0 7.1462-1.671 13.9022-4.642 19.8982-.041.07-.081.141-.118.215-.044.086-.084.173-.121.26-5.735 11.234-16.064 19.73-28.51 23.01-.139.026-.279.059-.418.1-.039.012-.077.024-.115.037-3.498.875-7.1577 1.34-10.9262 1.34-1.2233 0-2.4351-.049-3.6336-.145-.0099-.001-.0197-.002-.0297-.003-.0813-.009-.1624-.015-.2431-.019-5.0907-.44-9.9383-1.73-14.4001-3.728-.0916-.049-.1858-.096-.2826-.139-.0755-.033-.1515-.064-.2279-.093-6.7819-3.14-12.6474-7.924-17.0848-13.841-.0085-.013-.0171-.025-.0257-.037-.0418-.058-.0848-.116-.1291-.171-2.9391-3.967-5.2395-8.435-6.7491-13.254-.0177-.078-.0379-.156-.0606-.234-.033-.113-.0706-.224-.1124-.332-1.2175-4.075-1.8714-8.393-1.8714-12.8642 0-22.1352 16.0275-40.5249 37.1067-44.1944zM152.112 156.01l.027-.027c.005-.005.01-.01.015-.014.004-.002.011-.003.024-.003.017 0 .023.002.026.003.006.003.015.008.024.017.009.01.015.019.017.024.001.003.004.01.004.027 0 .018-.003.024-.004.027-.002.006-.008.015-.017.024-.005.005-.009.008-.013.011-.004.003-.008.005-.011.006-.003.001-.009.004-.026.004s-.023-.003-.026-.004c-.005-.002-.014-.007-.024-.017-.009-.009-.014-.018-.017-.024-.001-.003-.004-.009-.004-.027 0-.017.003-.024.004-.027h.001zm-67.0195 19.71c.0675.011.1358.021.2046.028.0702.008.1402.014.2098.018 1.9726.316 3.4805 2.027 3.4805 4.091 0 2.289-1.8551 4.143-4.1417 4.143s-4.1417-1.854-4.1417-4.143c0-2.29 1.8551-4.144 4.1417-4.144.0829 0 .1651.003.2468.007zM65.7503 154.5c.013.006.026.012.0391.018.0066.003.0133.006.02.009.0013.002.0025.003.0036.005.004.005.0065.01.008.013.0013.003.0041.01.0041.027 0 .018-.0028.024-.0041.027-.0011.003-.003.006-.0055.01-.0029.005-.0066.009-.0115.014-.0093.01-.0182.015-.0237.017-.0029.001-.009.004-.0261.004-.017 0-.0232-.003-.0261-.004-.0055-.002-.0143-.007-.0237-.017-.0093-.009-.0146-.018-.017-.024-.0013-.003-.004-.009-.004-.027 0-.017.0027-.024.004-.027.0024-.006.0077-.014.017-.024.0094-.009.0182-.014.0237-.017.0027-.001.0081-.003.0222-.004zM117.413 23.0246c-1.163 0-2.107.9428-2.107 2.1076 0 1.1647.944 2.1075 2.107 2.1075 1.162 0 2.106-.9428 2.106-2.1075 0-1.1648-.944-2.1076-2.106-2.1076zM90.9525 65.7767c-3.4107 0-6.1771 2.7657-6.1771 6.1793 0 3.4135 2.7664 6.1792 6.1771 6.1792 3.4107 0 6.1771-2.7657 6.1771-6.1792 0-3.4136-2.7664-6.1793-6.1771-6.1793zM76.7754 71.956c0-7.8302 6.3465-14.1793 14.1771-14.1793S105.13 64.1258 105.13 71.956s-6.3469 14.1792-14.1775 14.1792c-7.8306 0-14.1771-6.349-14.1771-14.1792zM178.394 88.7424c-1.163 0-2.107.9428-2.107 2.1075 0 1.1648.944 2.1076 2.107 2.1076 1.162 0 2.106-.9428 2.106-2.1076 0-1.1647-.944-2.1075-2.106-2.1075zM70.5982 90.2075c-1.1624 0-2.1062.9428-2.1062 2.1076s.9438 2.1075 2.1062 2.1075c1.1625 0 2.1063-.9427 2.1063-2.1075s-.9438-2.1076-2.1063-2.1076zM60.492 92.3151c0-5.5815 4.5239-10.1076 10.1062-10.1076 5.5824 0 10.1063 4.5261 10.1063 10.1076 0 5.5814-4.5239 10.1079-10.1063 10.1079-5.5823 0-10.1062-4.5265-10.1062-10.1079zm54.885-2.1076c-1.162 0-2.106.9428-2.106 2.1076s.944 2.1075 2.106 2.1075c1.163 0 2.106-.9428 2.106-2.1075 0-1.1648-.943-2.1076-2.106-2.1076zm-10.106 2.1076c0-5.5815 4.524-10.1076 10.106-10.1076s10.106 4.5261 10.106 10.1076c0 5.5814-4.524 10.1079-10.106 10.1079s-10.106-4.5265-10.106-10.1079zm-8.2125 18.2499c-2.2866 0-4.1416 1.854-4.1416 4.144 0 2.289 1.8551 4.143 4.1416 4.143 2.2866 0 4.1415-1.854 4.1415-4.143 0-2.29-1.8549-4.144-4.1415-4.144zm-12.1416 4.144c0-6.706 5.4352-12.144 12.1416-12.144 6.7065 0 12.1415 5.438 12.1415 12.144 0 6.705-5.435 12.143-12.1415 12.143-6.7064 0-12.1416-5.438-12.1416-12.143zm-73.4129 4.046c-.0013.003-.004.009-.004.027 0 .017.0027.024.004.027.0025.005.0077.014.017.024.0094.009.0183.014.0238.017.0028.001.009.003.026.003.0171 0 .0233-.002.0261-.003.0055-.003.0144-.008.0237-.017.0094-.01.0146-.019.017-.024.0013-.003.0041-.01.0041-.027 0-.018-.0028-.024-.0041-.027-.0024-.006-.0076-.015-.017-.024-.0093-.01-.0182-.015-.0237-.017-.0028-.001-.009-.004-.0261-.004-.0168 0-.0231.003-.0259.004h-.0001c-.0055.002-.0144.007-.0237.017-.0094.009-.0146.018-.0171.024zm20.4212 16.241c-2.2866 0-4.1417 1.855-4.1417 4.144s1.8551 4.143 4.1417 4.143 4.1417-1.854 4.1417-4.143c0-2.289-1.8551-4.144-4.1417-4.144z"/>
</svg>