<svg xmlns="http://www.w3.org/2000/svg" width="192" height="192" fill="#000" viewBox="0 0 192 192">
  <path fill-rule="evenodd" d="M172.828 19.1716c1.563 1.5621 1.563 4.0947 0 5.6568L24.8284 172.828c-1.5621 1.563-4.0947 1.563-5.6568 0-1.5621-1.562-1.5621-4.094 0-5.656L167.172 19.1716c1.562-1.5621 4.094-1.5621 5.656 0zM8.07527 95.9997c.01004-.0255.02105-.0528.03312-.082.16857-.4073.46618-.9928.93422-1.7538.9328-1.5168 2.39289-3.49 4.39429-5.7741 3.9932-4.5575 9.9552-10.1416 17.6701-15.557C46.5354 62.003 68.7488 52 96 52c10.378 0 20.018 1.4495 28.83 3.8408 2.132.5786 4.329-.6808 4.908-2.8128.578-2.132-.681-4.3294-2.813-4.908C117.474 45.5554 107.129 44 96 44c-29.2585 0-53.0451 10.7421-69.4892 22.2849-8.2214 5.7709-14.6639 11.78-19.09101 16.8328-2.20885 2.521-3.96289 4.8573-5.19171 6.8554-.61277.9965-1.13283 1.9699-1.511733 2.8856C.369668 93.6964 0 94.8143 0 96c0 1.4842.585604 2.9363 1.10889 4.01.58974 1.211 1.41183 2.552 2.41059 3.967 2.0043 2.84 4.89619 6.228 8.57992 9.833 7.3736 7.216 18.1122 15.487 31.7129 22.088 1.9874.964 4.3805.135 5.345-1.852.9646-1.988.1354-4.381-1.852-5.345-12.7525-6.19-22.7933-13.937-29.6107-20.609-3.4119-3.338-5.9685-6.361-7.6388-8.7276-.83851-1.1882-1.41024-2.1501-1.75501-2.8578-.1065-.2186-.17802-.3861-.22552-.5069zM142.843 57.9544c.964-1.9874 3.357-2.8166 5.345-1.8521 13.6 6.6008 24.339 14.872 31.713 22.0876 3.683 3.6047 6.575 6.9928 8.58 9.833.998 1.4153 1.82 2.7562 2.41 3.9667C191.414 93.0637 192 94.5158 192 96c0 1.1857-.37 2.3036-.716 3.1413-.379.9157-.899 1.8887-1.512 2.8857-1.229 1.998-2.983 4.334-5.192 6.855-4.427 5.053-10.869 11.062-19.091 16.833C149.045 137.258 125.258 148 96 148c-11.1295 0-21.474-1.555-30.925-4.12-2.132-.579-3.3914-2.776-2.8128-4.908.5785-2.132 2.7759-3.391 4.908-2.813C75.9822 138.55 85.6224 140 96 140c27.251 0 49.465-10.003 64.893-20.833 7.715-5.415 13.677-10.999 17.67-15.557 2.001-2.284 3.462-4.257 4.394-5.7739.468-.761.766-1.3465.935-1.7538.012-.0292.023-.0565.033-.082-.048-.1208-.119-.2883-.226-.5069-.345-.7077-.916-1.6696-1.755-2.8578-1.67-2.367-4.227-5.3892-7.639-8.7279-6.817-6.6712-16.858-14.4191-29.61-20.6082-1.988-.9646-2.817-3.3576-1.852-5.3451zM96 80c-8.8366 0-16 7.1634-16 16 0 1.4396.1891 2.8288.5416 4.147.5708 2.134-.6966 4.327-2.8308 4.898-2.1341.57-4.3269-.697-4.8976-2.831C72.282 100.228 72 98.1436 72 96c0-13.2548 10.7452-24 24-24 2.1436 0 4.228.282 6.214.8132 2.134.5707 3.401 2.7635 2.831 4.8976-.571 2.1342-2.764 3.4016-4.898 2.8308C98.8288 80.1891 97.4396 80 96 80zm18.289 6.9554c2.134-.5707 4.327.6967 4.898 2.8308.531 1.9863.813 4.0702.813 6.2138 0 13.255-10.745 24-24 24-2.1436 0-4.2275-.282-6.2138-.813-2.1342-.571-3.4016-2.764-2.8308-4.898.5707-2.134 2.7634-3.401 4.8976-2.831 1.3182.353 2.7074.542 4.147.542 8.837 0 16-7.163 16-16 0-1.4396-.189-2.8288-.542-4.147-.57-2.1342.697-4.3269 2.831-4.8976z"/>
</svg>