<svg xmlns="http://www.w3.org/2000/svg" width="192" height="192" fill="#000" viewBox="0 0 192 192">
  <path fill-rule="evenodd" d="M8.07513 96c.01008.0256.02113.053.03326.0823.16857.4073.46618.9928.93422 1.7538.9328 1.5168 2.39289 3.4899 4.39429 5.7739 3.9932 4.558 9.9552 10.142 17.6701 15.557C46.5354 129.997 68.7488 140 96 140c27.251 0 49.465-10.003 64.893-20.833 7.715-5.415 13.677-10.999 17.67-15.557 2.001-2.284 3.462-4.2571 4.394-5.7739.468-.761.766-1.3465.935-1.7538.012-.0293.023-.0567.033-.0823-.01-.0256-.021-.053-.033-.0823-.169-.4073-.467-.9928-.935-1.7538-.932-1.5168-2.393-3.49-4.394-5.7741-3.993-4.5575-9.955-10.1416-17.67-15.557C145.465 62.003 123.251 52 96 52c-27.2512 0-49.4646 10.003-64.893 20.8328-7.7149 5.4154-13.6769 10.9995-17.6701 15.557-2.0014 2.2841-3.46149 4.2573-4.39429 5.7741-.46804.761-.76565 1.3465-.93422 1.7538-.01213.0293-.02318.0567-.03326.0823zM26.5108 66.2849C42.9549 54.7421 66.7415 44 96 44c29.258 0 53.045 10.7421 69.489 22.2849 8.222 5.7709 14.664 11.78 19.091 16.8328 2.209 2.521 3.963 4.8573 5.192 6.8554.613.9965 1.133 1.97 1.512 2.8856.346.8377.716 1.9556.716 3.1413 0 1.1857-.37 2.3036-.716 3.1413-.379.9157-.899 1.8887-1.512 2.8857-1.229 1.998-2.983 4.334-5.192 6.855-4.427 5.053-10.869 11.062-19.091 16.833C149.045 137.258 125.258 148 96 148c-29.2585 0-53.0451-10.742-69.4892-22.285-8.2214-5.771-14.6639-11.78-19.09101-16.833-2.20885-2.521-3.96289-4.857-5.19171-6.855-.61277-.997-1.13283-1.97-1.511733-2.8857C.369668 98.3036 0 97.1857 0 96c0-1.1857.369668-2.3036.716347-3.1413.378903-.9156.898963-1.8891 1.511733-2.8856 1.22882-1.9981 2.98286-4.3344 5.19171-6.8554C11.8469 78.0649 18.2894 72.0558 26.5108 66.2849zM96 80c-8.8366 0-16 7.1634-16 16 0 8.837 7.1634 16 16 16 8.837 0 16-7.163 16-16 0-8.8366-7.163-16-16-16zM72 96c0-13.2548 10.7452-24 24-24 13.255 0 24 10.7452 24 24 0 13.255-10.745 24-24 24-13.2548 0-24-10.745-24-24z"/>
</svg>