<svg xmlns="http://www.w3.org/2000/svg" width="192" height="192" fill="#000" viewBox="0 0 192 192">
  <path fill-rule="evenodd" d="M0 30c0-8.8366 7.16344-16 16-16h146c5.523 0 10 4.4772 10 10v14h10c5.523 0 10 4.4772 10 10v120c0 5.523-4.477 10-10 10H16c-8.83656 0-16-7.163-16-16V30zm8 13.8595V162c0 4.418 3.5817 8 8 8h166c1.105 0 2-.895 2-2v-36h-28c-6.627 0-12-5.373-12-12V96c0-6.6274 5.373-12 12-12h28V48c0-1.1046-.895-2-2-2H16c-2.9143 0-5.6466-.7792-8-2.1405zM16 38h148V24c0-1.1046-.895-2-2-2H16c-4.4183 0-8 3.5817-8 8s3.5817 8 8 8zm168 54h-28c-2.209 0-4 1.7909-4 4v24c0 2.209 1.791 4 4 4h28V92z"/>
</svg>