<svg xmlns="http://www.w3.org/2000/svg" width="192" height="192" fill="#000" viewBox="0 0 192 192">
  <path d="M148 12c-3.728 0-7 3.2721-7 7v44c0 2.2091-1.791 4-4 4s-4-1.7909-4-4V38c0-3.7279-3.272-7-7-7s-7 3.2721-7 7v8c0 2.2091-1.791 4-4 4s-4-1.7909-4-4v-8c0-8.1462 6.854-15 15-15 2.51 0 4.898.6508 7 1.7898V19c0-8.1462 6.854-15 15-15s15 6.8538 15 15v8c0 2.2091-1.791 4-4 4s-4-1.7909-4-4v-8c0-3.7279-3.272-7-7-7zM150 150c2.209 0 4-1.791 4-4s-1.791-4-4-4-4 1.791-4 4 1.791 4 4 4z"/>
  <path fill="#000" fill-rule="evenodd" d="M1.06512 54.2822C1.82215 53.4647 2.88584 53 4.00001 53H16.0336c8.4169 0 15.4752 4.9284 19.3132 12.2206.2998.5696 1.127.534 1.3767-.0592C39.8264 57.7921 47.0436 53 55.0396 53H67c1.1142 0 2.1779.4647 2.9349 1.2822.757.8175 1.1388 1.9137 1.0533 3.0246l-.0894 1.1627c-.6684 8.6891-5.209 16.6171-12.3655 21.5903l-16.7575 11.645c-.6462.449-.8879 1.1319-.7882 1.7068 1.3447 7.7534 4.1455 17.7834 8.6422 25.8564 6.6305-.495 13.098-3.126 18.3167-7.813l29.3808-26.3857c.0497-.0446.1005-.088.1524-.1301C107.449 76.85 120.164 72 134 72c32.033 0 58 25.9675 58 58 0 32.033-25.967 58-58 58H70.2291c-24.8751 0-47.4968-14.413-58.0068-36.959l-1.7937-3.848c-8.60618-18.462-5.53451-40.26 7.8383-55.6242.4683-.5381.4505-1.3442-.0412-1.8611L8.23201 79.2015C3.63252 74.3661.841452 68.0923.329614 61.4385l-.3178205-4.1317C-.07366 56.1959.308096 55.0997 1.06512 54.2822zM40.3069 118.546c-3.7098-8.068-6.0088-16.889-7.2016-23.7674-.6657-3.8383 1.0733-7.5364 4.1053-9.6434l16.7574-11.645c4.304-2.9909 7.3014-7.4576 8.471-12.4902h-7.3994c-4.7772 0-9.0892 2.863-10.943 7.2659-3.2117 7.6276-12.8423 6.3556-16.2616-.141C25.5289 63.7433 20.985 61 16.0336 61H8.32026c.40563 4.7532 2.41794 9.2287 5.70824 12.6878l9.9937 10.5061c3.3359 3.5071 3.4568 8.9761.2791 12.6271-11.2975 12.98-13.8924 31.395-6.6219 46.992l1.7938 3.848C28.6694 167.388 48.4634 180 70.2291 180H134c27.614 0 50-22.386 50-50s-22.386-50-50-50c-11.9 0-22.819 4.1519-31.403 11.0896L73.2919 117.408c-7.3131 6.567-16.5788 9.928-25.8925 9.946-7.4988.014-15.0369-2.138-21.6182-6.526l-1.5-1c-1.8381-1.225-2.3348-3.709-1.1094-5.547 1.2254-1.838 3.7089-2.335 5.547-1.109l1.5 1c3.1466 2.098 6.5657 3.551 10.0881 4.374z"/>
</svg>