<svg xmlns="http://www.w3.org/2000/svg" width="192" height="192" fill="#000" viewBox="0 0 192 192">
  <path d="M100 155c0 2.209-1.7905 4-3.9997 4-2.2091 0-4-1.791-4-4s1.7909-4 4-4c2.2092 0 3.9997 1.791 3.9997 4z"/>
  <path fill-rule="evenodd" d="M96.0003 120c-11.8849 0-22.3877 5.92-28.7202 14.99-1.2646 1.812-3.7582 2.255-5.5695.99-1.8114-1.264-2.2546-3.758-.99-5.569C68.4853 119.289 81.3913 112 96.0003 112c14.6087 0 27.5147 7.289 35.2797 18.411 1.265 1.811.822 4.305-.99 5.569-1.811 1.265-4.305.822-5.569-.99-6.333-9.07-16.836-14.99-28.7207-14.99z"/>
</svg>