<svg xmlns="http://www.w3.org/2000/svg" width="192" height="192" fill="#000" viewBox="0 0 192 192">
  <path d="M100 155c0 2.209-1.7907 4-3.9999 4-2.2091 0-4-1.791-4-4s1.7909-4 4-4c2.2092 0 3.9999 1.791 3.9999 4z"/>
  <path fill-rule="evenodd" d="M96.0001 41C60.1807 41 28.1884 57.3715 7.09101 83.055c-1.40224 1.7071-3.92282 1.9542-5.62987.5519-1.70705-1.4022-1.954152-3.9228-.551916-5.6298C23.461 50.523 57.6859 33 96.0001 33c38.3139 0 72.5389 17.523 95.0909 44.9771 1.402 1.707 1.155 4.2276-.552 5.6298-1.707 1.4023-4.228 1.1552-5.63-.5519C163.812 57.3715 131.82 41 96.0001 41z"/>
  <path fill-rule="evenodd" d="M96.0001 81c-23.8619 0-45.1197 11.139-58.8625 28.517-1.3703 1.733-3.8859 2.026-5.6187.656-1.7327-1.37-2.0266-3.886-.6563-5.619C46.0574 85.3406 69.5888 73 96.0001 73c26.4109 0 49.9429 12.3406 65.1379 31.554 1.37 1.733 1.076 4.249-.657 5.619-1.732 1.37-4.248 1.077-5.618-.656C141.12 92.139 119.862 81 96.0001 81zM96.0001 121c-11.8849 0-22.3877 5.92-28.7202 14.99-1.2646 1.812-3.7582 2.255-5.5696.99-1.8113-1.264-2.2546-3.758-.9899-5.569C68.4851 120.289 81.3911 113 96.0001 113c14.6089 0 27.5149 7.289 35.2799 18.411 1.264 1.811.821 4.305-.99 5.569-1.811 1.265-4.305.822-5.57-.99-6.332-9.07-16.835-14.99-28.7199-14.99z"/>
</svg>