<svg xmlns="http://www.w3.org/2000/svg" width="192" height="192" fill="#000" viewBox="0 0 192 192">
  <path fill-rule="evenodd" d="M157 27c0-2.2091 1.791-4 4-4 17.121 0 31 13.8792 31 31s-13.879 31-31 31H51c-2.2091 0-4-1.7909-4-4 0-2.2091 1.7909-4 4-4h110c12.703 0 23-10.2975 23-23s-10.297-23-23-23c-2.209 0-4-1.7909-4-4zM23 58c0-2.2091 1.7909-4 4-4h115c2.209 0 4 1.7909 4 4 0 2.2091-1.791 4-4 4H27c-2.2091 0-4-1.7909-4-4zM0 104c0-2.209 1.79086-4 4-4h126c17.121 0 31 13.879 31 31 0 17.121-13.879 31-31 31-2.209 0-4-1.791-4-4s1.791-4 4-4c12.703 0 23-10.297 23-23s-10.297-23-23-23H4c-2.20914 0-4-1.791-4-4zm23.5 23c0-2.209 1.7909-4 4-4H92c12.703 0 23 10.297 23 23s-10.297 23-23 23c-2.2091 0-4-1.791-4-4s1.7909-4 4-4c8.284 0 15-6.716 15-15 0-8.284-6.716-15-15-15H27.5c-2.2091 0-4-1.791-4-4z"/>
</svg>