<svg xmlns="http://www.w3.org/2000/svg" width="192" height="192" fill="#000" viewBox="0 0 192 192">
  <path fill-rule="evenodd" d="M28.1056 1.23916c1.5247-1.598548 4.0567-1.658358 5.6553-.13359L96 60.4722l62.239-59.36663c1.599-1.524768 4.131-1.464958 5.655.13359 1.525 1.59855 1.465 4.13051-.133 5.65528L100 67.7123V90h36c2.209 0 4 1.7909 4 4 0 2.2091-1.791 4-4 4h-36v33h36c2.209 0 4 1.791 4 4s-1.791 4-4 4h-36v49c0 2.209-1.7906 4-3.9998 4-2.2091 0-4-1.791-4-4v-49H56c-2.2091 0-4-1.791-4-4s1.7909-4 4-4h36.0002V98H56c-2.2091 0-4-1.7909-4-4 0-2.2091 1.7909-4 4-4h36.0002V67.7127L28.2392 6.89444c-1.5986-1.52477-1.6584-4.05673-.1336-5.65528z"/>
</svg>